<?xml version="1.0" standalone="no"?>
<!DOCTYPE svg PUBLIC "-//W3C//DTD SVG 20010904//EN"
 "http://www.w3.org/TR/2001/REC-SVG-20010904/DTD/svg10.dtd">
<svg version="1.0" xmlns="http://www.w3.org/2000/svg"
 width="528.000000pt" height="528.000000pt" viewBox="0 0 528.000000 528.000000"
 preserveAspectRatio="xMidYMid meet">
<metadata>
Created by potrace 1.11, written by Peter Selinger 2001-2013
</metadata>
<g transform="translate(0.000000,528.000000) scale(0.100000,-0.100000)"
fill="#000000" stroke="none">
<path d="M2739 5264 c-123 -28 -187 -72 -359 -244 -119 -118 -237 -249 -327
-361 -60 -74 -64 -76 -145 -103 -115 -39 -384 -171 -498 -246 -241 -159 -436
-354 -563 -565 -43 -70 -77 -162 -77 -205 0 -42 41 -227 105 -477 30 -117 55
-216 55 -221 0 -5 -26 -23 -58 -39 -59 -31 -137 -73 -207 -113 -34 -19 -358
-233 -422 -279 -29 -21 -29 -58 -2 -164 26 -104 106 -370 123 -412 17 -39 53
-54 260 -105 133 -33 163 -37 251 -35 55 2 109 6 120 8 101 26 417 87 425 82
5 -3 25 -29 44 -58 20 -29 57 -76 84 -106 46 -52 49 -57 40 -90 -5 -20 -11
-106 -14 -191 l-6 -155 -46 -40 c-110 -93 -216 -205 -288 -301 -80 -108 -85
-112 -149 -121 -22 -3 -83 -14 -135 -25 -52 -10 -104 -21 -115 -23 -351 -72
-666 -168 -783 -238 l-52 -31 2 -199 3 -199 440 2 c578 2 875 7 883 14 3 3 -8
6 -25 6 -91 0 -212 72 -245 147 l-19 43 31 92 c73 218 254 524 426 718 13 14
34 39 48 55 l26 30 1 -60 c1 -33 2 -76 4 -95 2 -19 6 -93 9 -165 4 -71 9 -139
11 -150 2 -11 7 -44 10 -73 8 -82 25 -105 113 -159 69 -41 176 -74 287 -87 28
-4 81 -10 120 -15 77 -9 415 -7 485 3 68 10 203 26 218 26 17 0 -211 -240
-280 -293 -18 -14 -29 -29 -25 -33 6 -6 1841 -10 2570 -5 l187 1 0 300 c0 232
-3 302 -12 305 -12 4 -210 38 -290 49 -20 3 -67 8 -105 11 -77 7 -155 13 -164
14 -4 1 -10 28 -13 62 -4 33 -11 71 -16 83 -4 13 -11 44 -14 70 -11 105 -78
252 -147 324 -33 35 -59 48 -112 57 -18 3 -57 10 -87 15 -30 5 -77 11 -105 14
-27 3 -61 8 -75 10 -26 5 -162 21 -260 31 -30 3 -71 8 -90 10 -19 2 -66 7
-105 10 -38 4 -87 8 -107 11 -44 4 -173 16 -208 18 -16 1 -26 9 -28 22 -13 84
-36 181 -52 219 l-19 45 142 71 c158 79 324 186 387 249 3 3 34 30 70 60 170
143 574 546 624 622 14 21 14 30 -4 98 -27 111 -68 233 -83 254 -16 22 -70 42
-138 51 -48 7 -60 17 -38 31 22 13 84 179 115 309 17 67 41 217 49 305 10 98
22 142 55 204 50 93 86 158 114 209 14 26 38 68 52 95 76 138 350 622 370 654
13 21 24 40 24 42 0 3 14 29 31 58 70 118 119 217 110 222 -17 11 -89 13 -150
5 -96 -13 -217 -97 -440 -304 -296 -274 -604 -658 -807 -1004 -35 -60 -45 -71
-50 -55 -119 329 -305 550 -559 664 -115 51 -264 91 -400 106 -78 9 -99 11
-106 13 -4 0 15 43 43 94 125 233 228 465 228 511 0 29 -69 33 -171 10z m728
-3898 c50 -4 102 -9 115 -11 13 -2 59 -6 103 -10 44 -3 96 -7 115 -10 19 -2
62 -6 95 -10 70 -7 138 -14 180 -20 17 -2 57 -7 90 -11 67 -7 78 -9 153 -25
28 -6 52 -14 52 -19 0 -15 -196 -74 -500 -150 -325 -81 -366 -95 -438 -152
-35 -27 -65 -48 -67 -46 -2 2 -5 103 -8 226 -4 122 -9 226 -12 231 -5 9 14 21
25 16 3 -2 46 -6 97 -9z"/>
</g>
</svg>
