<?xml version="1.0" standalone="no"?>
<!DOCTYPE svg PUBLIC "-//W3C//DTD SVG 1.1//EN" "http://www.w3.org/Graphics/SVG/1.1/DTD/svg11.dtd" >
<svg xmlns="http://www.w3.org/2000/svg" xmlns:xlink="http://www.w3.org/1999/xlink" version="1.1">
<metadata>
Created by FontForge 20170731 at Wed Aug 20 22:57:20 2014
 By Aleksey,,,
No Rights Reserved.
</metadata>
<defs>
<font id="Aileron-BoldItalic" horiz-adv-x="625" >
  <font-face 
    font-family="Aileron Bold"
    font-weight="700"
    font-style="italic"
    font-stretch="normal"
    units-per-em="1000"
    panose-1="0 0 8 0 0 0 0 0 0 0"
    ascent="770"
    descent="-230"
    x-height="528"
    cap-height="690"
    bbox="-202 -223 1160 906"
    underline-thickness="50"
    underline-position="-200"
    slope="-10"
    unicode-range="U+0020-FB02"
  />
<missing-glyph horiz-adv-x="570" 
d="M70 0v700h500v-700h-500zM320 395l170 255h-340zM350 350l170 -255v510zM150 50h340l-170 255zM120 605v-510l170 255z" />
    <glyph glyph-name="fi" unicode="fi" horiz-adv-x="581" 
d="M564 528l-93 -528h-137l76 437h-172l-77 -437h-138l76 437h-46l15 91h47l2 9q5 33 13 60q43 157 259 157q36 0 76 -7l-17 -96q-84 10 -127 -6t-55 -58q-5 -15 -10 -47l-2 -12h310z" />
    <glyph glyph-name="fl" unicode="fl" horiz-adv-x="603" 
d="M497 121q0 -20 12.5 -28t42.5 -6l-16 -89q-30 -5 -80 -5q-53 0 -78.5 17t-25.5 57q0 31 14 104l85 479q-27 7 -64 7q-101 0 -122 -70q-5 -16 -9 -47l-2 -12h108l-16 -91h-108l-78 -437h-138l77 437h-47l16 91h47l2 9q4 24 12 60q21 77 88.5 117t193.5 40q105 0 187 -22h5
l-99 -558q-7 -42 -7 -53z" />
    <glyph glyph-name=".notdef" horiz-adv-x="570" 
d="M70 0v700h500v-700h-500zM320 395l170 255h-340zM350 350l170 -255v510zM150 50h340l-170 255zM120 605v-510l170 255z" />
    <glyph glyph-name=".null" horiz-adv-x="0" 
 />
    <glyph glyph-name="nonmarkingreturn" horiz-adv-x="333" 
 />
    <glyph glyph-name="space" unicode=" " horiz-adv-x="159" 
 />
    <glyph glyph-name="exclam" unicode="!" horiz-adv-x="288" 
d="M186 197h-111l89 493h135zM119 142q32 0 50.5 -17.5t18.5 -47.5q0 -37 -25 -64t-66 -27q-32 0 -50.5 17.5t-18.5 47.5q0 37 25 64t66 27z" />
    <glyph glyph-name="quotedbl" unicode="&#x22;" horiz-adv-x="355" 
d="M140 460h-97l46 275h118zM307 460h-96l46 275h117z" />
    <glyph glyph-name="numbersign" unicode="#" 
d="M477 403l-45 -116h98l-14 -78h-115l-81 -209h-83l81 209h-88l-81 -209h-83l81 209h-85l14 78h102l45 116h-98l14 78h115l81 209h83l-81 -209h88l81 209h83l-81 -209h85l-14 -78h-102zM394 403h-88l-45 -116h88z" />
    <glyph glyph-name="dollar" unicode="$" 
d="M404 595l-34 -196q98 -39 142 -86.5t44 -122.5q0 -92 -71.5 -146t-188.5 -58l-13 -76h-81l14 80q-178 25 -193 204h135q6 -82 76 -103l36 204q-89 32 -132 76.5t-43 119.5q0 84 65.5 144.5t181.5 67.5l14 77h81l-14 -80q82 -14 127.5 -68.5t48.5 -134.5h-135q0 70 -60 98
zM229 502q0 -54 63 -81l33 183q-46 -7 -71 -34.5t-25 -67.5zM347 270l-33 -185q104 11 104 95q0 60 -71 90z" />
    <glyph glyph-name="percent" unicode="%" horiz-adv-x="774" 
d="M215 375q-63 0 -100.5 37t-37.5 100q0 78 47.5 135t131.5 57q63 0 100.5 -37t37.5 -100q0 -78 -47.5 -135t-131.5 -57zM745 690l-567 -690h-121l568 690h120zM247 631q-32 0 -52 -34t-20 -86q0 -63 48 -63q32 0 52.5 34.5t20.5 85.5q0 63 -49 63zM588 315q63 0 100 -37
t37 -100q0 -78 -47.5 -135t-131.5 -57q-63 0 -100 37t-37 100q0 79 47 135.5t132 56.5zM555 59q32 0 52.5 34.5t20.5 85.5q0 63 -49 63q-32 0 -52.5 -34.5t-20.5 -85.5q0 -63 49 -63z" />
    <glyph glyph-name="ampersand" unicode="&#x26;" horiz-adv-x="674" 
d="M667 404l-19 -108h-94l-50 -286q-120 -24 -240 -24q-249 0 -249 160q0 82 54.5 137t144.5 70q-48 14 -75.5 50t-27.5 86q0 99 80.5 157t214.5 58q62 0 108 -10l-18 -103q-50 10 -106 10q-133 0 -133 -118q0 -73 84 -78q18 -1 58 -1h37l16 93h138l-17 -93h94zM417 296h-46
q-36 0 -56 -2q-74 -5 -111.5 -36.5t-37.5 -85.5q0 -45 30 -64t90 -19q53 0 95 8z" />
    <glyph glyph-name="quotesingle" unicode="'" horiz-adv-x="188" 
d="M140 460h-97l46 275h118z" />
    <glyph glyph-name="parenleft" unicode="(" horiz-adv-x="363" 
d="M266 -80h-75q-77 116 -77 298q0 143 57 295t172 267h75q-111 -134 -163.5 -278.5t-52.5 -281.5q0 -172 64 -300z" />
    <glyph glyph-name="parenright" unicode=")" horiz-adv-x="363" 
d="M127 780h75q78 -117 78 -298q0 -143 -57.5 -295t-172.5 -267h-75q111 133 164 278t53 282q0 173 -65 300z" />
    <glyph glyph-name="asterisk" unicode="*" horiz-adv-x="547" 
d="M315 316l147 57l12 -88l-150 -34l83 -124l-84 -54l-60 135l-111 -135l-64 54l126 124l-138 34l44 88l127 -57l16 159h92z" />
    <glyph glyph-name="plus" unicode="+" 
d="M526 279h-178l-35 -199h-81l35 199h-178l14 74h177l35 201h81l-35 -201h178z" />
    <glyph glyph-name="comma" unicode="," horiz-adv-x="261" 
d="M164 129l-146 -251h-113l126 262h134z" />
    <glyph glyph-name="hyphen" unicode="-" horiz-adv-x="296" 
d="M257 244h-232l14 78h232z" />
    <glyph glyph-name="period" unicode="." horiz-adv-x="261" 
d="M94 154q31 0 50.5 -18t19.5 -49q0 -45 -28 -73t-72 -28q-31 0 -50.5 18t-19.5 48q0 45 28 73.5t72 28.5z" />
    <glyph glyph-name="slash" unicode="/" horiz-adv-x="327" 
d="M21 -30h-86l383 750h86z" />
    <glyph glyph-name="zero" unicode="0" 
d="M356 704q123 0 185.5 -71t62.5 -193q0 -59 -9.5 -118.5t-33 -121t-58.5 -108.5t-91.5 -76.5t-126.5 -29.5q-124 0 -186 71.5t-62 192.5q0 61 9.5 121t33 121t59 107.5t91.5 75.5t126 29zM286 89q47 0 82.5 40t53 101t26 117.5t8.5 103.5q0 150 -101 150
q-47 0 -82.5 -39.5t-53.5 -100t-26 -117t-8 -104.5q0 -151 101 -151z" />
    <glyph glyph-name="one" unicode="1" 
d="M523 690l-122 -690h-137l96 545l-221 -111l23 130l176 95q61 31 117 31h68z" />
    <glyph glyph-name="two" unicode="2" 
d="M240 109h292l-19 -109h-503l12 65l272 227q95 79 131.5 127.5t36.5 101.5q0 81 -83 81q-100 0 -132 -126l-3 -10h-138l3 10q60 229 301 229q98 0 150 -44.5t52 -120.5q0 -68 -47 -134t-175 -172z" />
    <glyph glyph-name="three" unicode="3" 
d="M453 365q117 -31 117 -136q0 -108 -87 -175.5t-221 -67.5q-118 0 -177.5 55t-51.5 161l1 10h138l-1 -10q-2 -53 27.5 -83t86.5 -30q58 0 97 34.5t39 89.5q0 86 -119 89h-23l17 96l22 1q63 2 103 36.5t40 88.5q0 35 -22 56t-61 21q-49 0 -82.5 -29.5t-44.5 -79.5l-2 -10
h-138l2 10q24 97 98 154.5t200 57.5q97 0 148.5 -43t51.5 -111q0 -70 -41 -118.5t-117 -66.5z" />
    <glyph glyph-name="four" unicode="4" 
d="M574 163h-86l-29 -163h-137l29 163h-333l13 74l411 453h146l-80 -418h84zM371 272l51 259q-34 -45 -58 -70l-173 -189h180z" />
    <glyph glyph-name="five" unicode="5" 
d="M285 582l-61 -193l43 47q51 27 112 27q93 0 143 -50.5t50 -138.5q0 -134 -90.5 -211t-219.5 -77q-110 0 -168.5 51t-50.5 152v10h138v-10q-3 -100 92 -100q68 0 109 46t41 117q0 50 -25.5 79t-73.5 29q-79 0 -126 -78h-129l124 408h427l-19 -108h-316z" />
    <glyph glyph-name="six" unicode="6" 
d="M411 704q102 0 154 -52t46 -142l-1 -10h-140v10q-6 91 -86 91q-64 0 -111.5 -61.5t-69.5 -182.5l51 67q56 40 131 40q94 0 142.5 -51t48.5 -134q0 -131 -92 -212t-215 -81q-106 0 -163.5 61t-57.5 176q0 219 105 350t258 131zM328 361q-56 0 -98.5 -45t-42.5 -118
q0 -49 25 -79t71 -30q61 0 102 47.5t41 116.5q0 49 -25 78.5t-73 29.5z" />
    <glyph glyph-name="seven" unicode="7" 
d="M654 690l-13 -73l-440 -617h-153l419 582h-361l20 108h528z" />
    <glyph glyph-name="eight" unicode="8" 
d="M462 365q47 -17 76 -54.5t29 -89.5q0 -79 -44 -134t-111 -78.5t-151 -23.5q-107 0 -168.5 42t-61.5 130q0 80 48.5 133.5t119.5 74.5q-79 33 -79 121q0 96 76 157t202 61q99 0 153.5 -44t54.5 -118q0 -69 -41 -113.5t-103 -63.5zM378 601q-52 0 -84 -31.5t-32 -80.5
q0 -37 21 -57.5t60 -20.5q53 0 86 31.5t33 81.5q0 35 -22 56t-62 21zM282 88q69 0 104 36t35 93q0 42 -25.5 67t-75.5 25q-64 0 -102.5 -37.5t-38.5 -93.5q0 -42 26.5 -66t76.5 -24z" />
    <glyph glyph-name="nine" unicode="9" 
d="M378 704q106 0 163 -61t57 -176q0 -219 -104.5 -350t-257.5 -131q-102 0 -154 51.5t-47 142.5l1 10h141v-10q6 -91 85 -91q64 0 111.5 61t69.5 182l-50 -66q-57 -40 -131 -40q-94 0 -142.5 51t-48.5 134q0 131 92 212t215 81zM318 329q57 0 99 45t42 119q0 48 -25.5 78
t-70.5 30q-61 0 -101.5 -47.5t-40.5 -116.5q0 -49 24.5 -78.5t72.5 -29.5z" />
    <glyph glyph-name="colon" unicode=":" horiz-adv-x="261" 
d="M170 546q31 0 50.5 -17.5t19.5 -48.5q0 -45 -28 -73t-72 -28q-30 0 -50 17.5t-20 48.5q0 45 28 73t72 28zM101 154q31 0 50.5 -18t19.5 -49q0 -45 -28 -73t-72 -28q-30 0 -50 18t-20 48q0 45 28 73.5t72 28.5z" />
    <glyph glyph-name="semicolon" unicode=";" horiz-adv-x="261" 
d="M170 546q31 0 50.5 -17.5t19.5 -48.5q0 -45 -28 -73t-72 -28q-30 0 -50 17.5t-20 48.5q0 45 28 73t72 28zM162 123l-144 -245h-112l125 262h134z" />
    <glyph glyph-name="less" unicode="&#x3c;" 
d="M569 408l-378 -144l328 -145l-17 -94l-407 187l19 106l472 188z" />
    <glyph glyph-name="equal" unicode="=" 
d="M555 379h-459l13 74h458zM519 179h-458l13 74h458z" />
    <glyph glyph-name="greater" unicode="&#x3e;" 
d="M520 318l-18 -106l-473 -187l17 97l378 144l-328 145l17 95z" />
    <glyph glyph-name="question" unicode="?" horiz-adv-x="617" 
d="M398 704q96 0 149 -42t53 -114q0 -64 -31 -112.5t-112 -112.5q-46 -37 -66.5 -63t-32.5 -63h-119q10 50 31 83.5t70 79.5q66 62 89 96.5t23 72.5q0 72 -79 72q-45 0 -75.5 -29.5t-42.5 -88.5h-139q18 103 94.5 162t187.5 59zM289 142q32 0 50.5 -17.5t18.5 -47.5
q0 -37 -25 -64t-66 -27q-32 0 -50.5 17.5t-18.5 47.5q0 37 25 64t66 27z" />
    <glyph glyph-name="at" unicode="@" horiz-adv-x="895" 
d="M666 469l-46 -192q-12 -50 -12 -75q0 -52 39 -52q44 0 75 49t31 137q0 128 -75 199t-199 71q-89 0 -167 -39.5t-130 -122t-52 -192.5q0 -138 79 -216t214 -78t236 72l31 -68q-124 -83 -276 -83q-55 0 -107 13t-100.5 42t-84.5 71t-57.5 104.5t-21.5 137.5q0 128 62 229.5
t162 155t216 53.5q164 0 260.5 -98.5t96.5 -243.5q0 -138 -64 -205t-159 -67q-106 0 -128 88l-27 -54q-42 -34 -94 -34q-58 0 -97.5 39t-39.5 126q0 105 57 178t144 73q58 0 82 -29l13 -52l19 63h120zM413 168q27 0 47 23.5t28 57.5l13 57q19 84 -43 84q-42 0 -68.5 -42
t-26.5 -102q0 -78 50 -78z" />
    <glyph glyph-name="A" unicode="A" horiz-adv-x="680" 
d="M457 208h-235l-104 -208h-149l366 690h183l119 -690h-149zM441 317l-38 251l-126 -251h164z" />
    <glyph glyph-name="B" unicode="B" horiz-adv-x="661" 
d="M501 370q110 -35 110 -152q0 -49 -20.5 -88.5t-54.5 -64.5t-72.5 -40t-80.5 -21q-36 -4 -97 -4h-251l122 690h247q55 0 88 -4q71 -9 109 -47.5t38 -97.5q0 -129 -138 -171zM276 582l-31 -175h104q25 0 50 3q91 14 91 102q0 59 -65 67q-23 3 -49 3h-100zM356 110
q44 3 76.5 33.5t32.5 80.5q0 68 -75 77q-26 3 -49 3h-115l-34 -195h118q33 0 46 1z" />
    <glyph glyph-name="C" unicode="C" horiz-adv-x="745" 
d="M456 704q136 0 205 -66t61 -172l-1 -10h-138v10q-1 135 -142 135q-101 0 -167 -88t-66 -230q0 -98 40 -146t108 -48q128 0 182 140l4 10h137l-3 -10q-32 -115 -119.5 -179t-218.5 -64q-130 0 -204 75t-74 210q0 190 114.5 311.5t281.5 121.5z" />
    <glyph glyph-name="D" unicode="D" horiz-adv-x="728" 
d="M467 686q109 -11 177 -84.5t68 -206.5q0 -98 -38.5 -181t-122.5 -141.5t-200 -69.5q-36 -3 -89 -3h-227l122 690h218q58 0 92 -4zM344 111q109 14 164.5 92t55.5 188q0 88 -37.5 134t-103.5 54q-33 3 -69 3h-78l-84 -473h81q48 0 71 2z" />
    <glyph glyph-name="E" unicode="E" horiz-adv-x="612" 
d="M276 582l-32 -182h325l-19 -109h-326l-32 -182h360l-20 -109h-497l122 690h487l-19 -108h-349z" />
    <glyph glyph-name="F" unicode="F" horiz-adv-x="591" 
d="M276 582l-32 -182h315l-19 -109h-316l-51 -291h-138l122 690h487l-19 -108h-349z" />
    <glyph glyph-name="G" unicode="G" horiz-adv-x="769" 
d="M472 704q135 0 199.5 -65.5t56.5 -172.5l-1 -10h-138v10q-1 70 -34.5 102.5t-102.5 32.5q-102 0 -173 -88t-71 -229q0 -94 40.5 -144.5t109.5 -50.5q67 0 118.5 41t73.5 114h-146l20 108h278l-62 -352h-111l10 111l-43 -69q-66 -56 -178 -56q-122 0 -190.5 75.5
t-68.5 205.5q0 98 33.5 181t90.5 138.5t132 86.5t157 31z" />
    <glyph glyph-name="H" unicode="H" horiz-adv-x="747" 
d="M755 690l-122 -690h-138l50 283h-322l-50 -283h-138l122 690h138l-53 -297h322l53 297h138z" />
    <glyph glyph-name="I" unicode="I" horiz-adv-x="287" 
d="M173 0h-138l122 690h138z" />
    <glyph glyph-name="J" unicode="J" horiz-adv-x="586" 
d="M593 690l-71 -407q-8 -48 -20 -95q-46 -202 -277 -202q-111 0 -165.5 62t-39.5 168l5 35h138l-4 -35q-15 -127 88 -127q92 0 120 107q6 21 15 73l74 421h137z" />
    <glyph glyph-name="K" unicode="K" horiz-adv-x="676" 
d="M374 352l249 -352h-170l-184 282l-55 -51l-41 -231h-138l122 690h138l-57 -320l353 320h165z" />
    <glyph glyph-name="L" unicode="L" horiz-adv-x="599" 
d="M553 115l-21 -115h-497l122 690h138l-102 -575h360z" />
    <glyph glyph-name="M" unicode="M" horiz-adv-x="893" 
d="M901 690l-122 -690h-138l100 555l-252 -555h-164l-55 557l-97 -557h-138l122 690h225l52 -545l238 545h229z" />
    <glyph glyph-name="N" unicode="N" horiz-adv-x="755" 
d="M763 690l-122 -690h-189l-188 524l-91 -524h-138l122 690h183l192 -537l93 537h138z" />
    <glyph glyph-name="O" unicode="O" horiz-adv-x="781" 
d="M458 704q144 0 225.5 -84.5t81.5 -214.5q0 -181 -108 -300t-288 -119q-144 0 -225.5 84.5t-81.5 214.5q0 181 108 300t288 119zM380 89q76 0 132.5 50t81 119t24.5 144q0 90 -45.5 144.5t-125.5 54.5q-76 0 -132.5 -50t-81 -119t-24.5 -144q0 -90 45 -144.5t126 -54.5z
" />
    <glyph glyph-name="P" unicode="P" horiz-adv-x="629" 
d="M490 685q70 -8 114 -53t44 -119q0 -106 -66.5 -171.5t-160.5 -76.5q-44 -5 -101 -5h-101l-46 -260h-138l122 690h234q57 0 99 -5zM399 372q46 7 74.5 38.5t28.5 86.5q0 71 -66 81q-23 3 -61 3h-100l-37 -212h100q36 0 61 3z" />
    <glyph glyph-name="Q" unicode="Q" horiz-adv-x="779" 
d="M758 411q0 -99 -37 -182.5t-102 -129.5q48 -15 99 -60l-74 -89q-52 32 -79.5 43.5t-57.5 11.5q-34 0 -74 -10q-35 -9 -69 -9q-146 0 -224.5 81.5t-78.5 212.5q0 182 107.5 303t286.5 121q146 0 224.5 -81t78.5 -212zM208 282q0 -89 43 -141t120 -52q60 0 108 29.5
t75.5 77t42 102t14.5 110.5q0 89 -43 141t-120 52q-79 0 -135.5 -51.5t-80.5 -121.5t-24 -146z" />
    <glyph glyph-name="R" unicode="R" horiz-adv-x="645" 
d="M661 535q0 -80 -47 -132t-128 -72q44 -15 61 -61t17 -147q0 -82 20 -123h-149q-8 43 -9 169q0 102 -70 108q-18 1 -53 1h-81l-49 -278h-138l122 690h252q57 0 100 -5q69 -8 110.5 -45t41.5 -105zM393 382q51 5 84 34.5t33 85.5q0 69 -76 77q-24 3 -57 3h-101l-36 -201h96
q40 0 57 1z" />
    <glyph glyph-name="S" unicode="S" horiz-adv-x="599" 
d="M371 704q118 0 174.5 -60t50.5 -157h-140q3 53 -23.5 83.5t-79.5 30.5q-49 0 -79.5 -26t-30.5 -72q0 -35 29.5 -57.5t99.5 -39.5q187 -46 187 -187q0 -108 -85.5 -170.5t-210.5 -62.5q-121 0 -188.5 56t-58.5 162h140q1 -55 35 -85t89 -30q56 0 92.5 28t36.5 76
q0 70 -120 101q-96 24 -145.5 64.5t-49.5 111.5q0 107 81 170.5t196 63.5z" />
    <glyph glyph-name="T" unicode="T" horiz-adv-x="623" 
d="M684 582h-233l-103 -582h-138l103 582h-235l20 108h606z" />
    <glyph glyph-name="U" unicode="U" horiz-adv-x="703" 
d="M725 690l-70 -398q-9 -51 -18 -86q-25 -106 -99 -163t-212 -57q-125 0 -189 53t-64 145q0 39 13 117l69 389h138l-74 -420q-8 -44 -8 -71q0 -52 34 -81t93 -29q67 0 106.5 29.5t57.5 98.5q4 15 11 50l74 423h138z" />
    <glyph glyph-name="V" unicode="V" horiz-adv-x="702" 
d="M409 0h-183l-119 690h150l80 -584l289 584h150z" />
    <glyph glyph-name="W" unicode="W" horiz-adv-x="988" 
d="M1066 690l-303 -690h-183l-21 555l-219 -555h-184l-55 690h145l24 -569l213 559h197l13 -565l221 575h152z" />
    <glyph glyph-name="X" unicode="X" horiz-adv-x="669" 
d="M424 347l195 -347h-160l-135 259l-208 -259h-164l313 352l-174 338h155l117 -250l206 250h160z" />
    <glyph glyph-name="Y" unicode="Y" horiz-adv-x="637" 
d="M403 264l-47 -264h-138l48 269l-169 421h146l113 -305l210 305h155z" />
    <glyph glyph-name="Z" unicode="Z" horiz-adv-x="622" 
d="M647 583l-452 -474h374l-20 -109h-546l18 105l456 477h-344l20 108h513z" />
    <glyph glyph-name="bracketleft" unicode="[" horiz-adv-x="364" 
d="M183 780h223l-14 -78h-142l-124 -704h142l-14 -78h-223z" />
    <glyph glyph-name="backslash" unicode="\" horiz-adv-x="327" 
d="M272 -30h-86l-119 750h86z" />
    <glyph glyph-name="bracketright" unicode="]" horiz-adv-x="364" 
d="M199 -80h-224l14 78h142l125 704h-143l14 78h224z" />
    <glyph glyph-name="asciicircum" unicode="^" 
d="M415 215l-72 323l-183 -323h-93l241 401h95l103 -401h-91z" />
    <glyph glyph-name="underscore" unicode="_" horiz-adv-x="500" 
d="M443 -87h-400l14 78h400z" />
    <glyph glyph-name="grave" unicode="`" horiz-adv-x="300" 
d="M192 574h-78l-103 118h124z" />
    <glyph glyph-name="a" unicode="a" horiz-adv-x="552" 
d="M325 546q100 0 147 -38t47 -103q0 -29 -13 -100l-30 -170q-10 -57 -14 -135h-135l3 78l-35 -53q-51 -39 -135 -39q-64 0 -106 36t-42 104q0 102 97.5 155t263.5 43l1 8q6 36 6 57q0 60 -67 60q-89 0 -111 -90l-134 -1q17 88 87 138t170 50zM227 83q40 0 76.5 31.5
t45.5 81.5l8 45q-87 9 -143.5 -16.5t-56.5 -80.5q0 -30 19 -45.5t51 -15.5z" />
    <glyph glyph-name="b" unicode="b" horiz-adv-x="650" 
d="M424 546q98 0 151 -56.5t53 -156.5q0 -67 -20 -128t-57.5 -110.5t-99 -79t-138.5 -29.5q-34 0 -68 9.5t-51 24.5l-26 56l-13 -76h-138l130 735h138l-50 -284l50 58q52 37 139 37zM309 83q77 0 124.5 69t47.5 163q0 64 -28 99t-80 35q-62 0 -108 -43t-62 -134l-5 -25
l-2 -10l3 10q-12 -70 14.5 -117t95.5 -47z" />
    <glyph glyph-name="c" unicode="c" horiz-adv-x="572" 
d="M341 544q109 0 163 -55.5t54 -150.5h-136q-3 109 -96 109q-69 0 -112.5 -69t-43.5 -172q0 -60 25.5 -91.5t67.5 -31.5q96 0 132 101h138q-74 -198 -283 -198q-103 0 -165 55.5t-62 164.5q0 142 87.5 240t230.5 98z" />
    <glyph glyph-name="d" unicode="d" horiz-adv-x="649" 
d="M669 735l-130 -735h-138l14 81l-50 -58q-53 -37 -138 -37q-99 0 -152 56.5t-53 156.5q0 67 20 128t57.5 110.5t99 79t138.5 29.5q81 0 120 -34l25 -56l49 279h138zM447 260l5 26q12 69 -14.5 116t-95.5 47q-77 0 -125 -69t-48 -163q0 -65 28.5 -99.5t80.5 -34.5
q62 0 107.5 43t61.5 134z" />
    <glyph glyph-name="e" unicode="e" horiz-adv-x="580" 
d="M165 230l-1 -27q0 -120 98 -120q45 0 79 24t48 66h138q-32 -91 -105.5 -139t-172.5 -48q-101 0 -163.5 54t-62.5 162q0 144 84.5 244t226.5 100q108 0 166 -58.5t58 -151.5q0 -52 -17 -106h-376zM320 449q-100 0 -140 -129h237q1 9 1 23q0 50 -25.5 78t-72.5 28z" />
    <glyph glyph-name="f" unicode="f" horiz-adv-x="315" 
d="M269 600q-9 -33 -11 -46l-5 -26h109l-16 -91h-108l-77 -437h-138l77 437h-47l15 91h48l4 22q9 44 14 61q39 143 179 143q58 0 98 -7l-18 -96q-17 4 -35 4q-71 0 -89 -55z" />
    <glyph glyph-name="g" unicode="g" horiz-adv-x="649" 
d="M633 532l-70 -399q-10 -52 -20 -103q-26 -125 -105 -185.5t-220 -60.5q-111 0 -170.5 47.5t-52.5 134.5l1 10h135l-1 -9q-2 -37 26.5 -58.5t82.5 -21.5q64 0 106.5 32.5t57.5 95.5l13 65l1 6l-52 -60q-53 -37 -138 -37q-98 0 -151.5 57t-53.5 153q0 67 20 128t57.5 110.5
t99 79t138.5 29.5q81 0 120 -34l25 -57l14 77h137zM278 86q62 0 107.5 41.5t61.5 132.5l-1 -9l7 40l-1 -5q12 69 -14.5 116t-95.5 47q-77 0 -125 -69t-48 -163q0 -64 28 -97.5t81 -33.5z" />
    <glyph glyph-name="h" unicode="h" horiz-adv-x="621" 
d="M421 546q79 0 120.5 -37t41.5 -99q0 -37 -13 -106l-54 -304h-138l50 279q11 61 11 87q0 83 -86 83q-55 -1 -96 -51.5t-60 -156.5l-42 -241h-138l130 740h138l-51 -289l52 58q59 37 135 37z" />
    <glyph glyph-name="i" unicode="i" horiz-adv-x="265" 
d="M215 730q30 0 48 -17t18 -45q0 -34 -23.5 -59t-62.5 -25q-31 0 -48.5 16.5t-17.5 45.5q0 34 23.5 59t62.5 25zM155 0h-138l95 532h137z" />
    <glyph glyph-name="j" unicode="j" horiz-adv-x="240" 
d="M193 730q33 0 51.5 -17t18.5 -44q0 -40 -22.5 -62.5t-62.5 -22.5q-33 0 -51.5 16.5t-18.5 43.5q0 41 22.5 63.5t62.5 22.5zM233 532l-95 -544q-10 -49 -14 -64q-17 -66 -64.5 -100t-136.5 -34q-27 0 -51 3l18 98q81 -9 98 48q4 11 12 51l95 542h138z" />
    <glyph glyph-name="k" unicode="k" horiz-adv-x="585" 
d="M350 283l198 -283h-167l-139 215l-58 -51l-29 -164h-138l130 735h138l-78 -443l256 240h166z" />
    <glyph glyph-name="l" unicode="l" horiz-adv-x="280" 
d="M281 735l-100 -561q-7 -42 -7 -53q0 -22 12.5 -29t42.5 -5l-16 -89q-30 -5 -80 -5q-53 0 -78.5 17t-25.5 57q0 31 14 104l100 564h138z" />
    <glyph glyph-name="m" unicode="m" horiz-adv-x="916" 
d="M727 546q76 0 114.5 -36.5t38.5 -93.5q0 -33 -12 -99l-56 -317h-138l49 277q11 68 11 96q0 76 -72 76q-43 0 -79.5 -47.5t-50.5 -125.5l-1 -3l-48 -273h-137l48 277q12 67 12 96q0 76 -75 76q-43 0 -78.5 -47.5t-49.5 -128.5l-48 -273h-138l94 532h137l-13 -76l49 59
q52 31 120 31q61 0 97.5 -26.5t45.5 -70.5l55 62q48 35 125 35z" />
    <glyph glyph-name="n" unicode="n" horiz-adv-x="621" 
d="M421 546q79 0 120.5 -37t41.5 -99q0 -37 -13 -106l-54 -304h-138l50 279q11 61 11 87q0 83 -86 83q-55 -1 -96 -51.5t-60 -156.5l-42 -241h-138l94 532h137l-14 -81l52 58q59 37 135 37z" />
    <glyph glyph-name="o" unicode="o" horiz-adv-x="616" 
d="M345 546q121 0 183.5 -65.5t62.5 -170.5q0 -61 -20 -118t-58 -103.5t-100.5 -74.5t-140.5 -28q-121 0 -184 65.5t-63 170.5q0 61 20 118t58 103.5t100.5 74.5t141.5 28zM284 83q75 0 118 67.5t43 156.5q0 63 -28.5 102.5t-83.5 39.5q-76 0 -118.5 -67t-42.5 -157
q0 -63 28.5 -102.5t83.5 -39.5z" />
    <glyph glyph-name="p" unicode="p" horiz-adv-x="650" 
d="M424 546q98 0 151 -56.5t53 -156.5q0 -67 -20 -128t-57.5 -110.5t-99 -79t-138.5 -29.5q-34 0 -68 9.5t-51 24.5l-26 56l-48 -272h-138l130 728h137l-14 -81l50 58q52 37 139 37zM309 83q77 0 124.5 69t47.5 163q0 64 -28 99t-80 35q-62 0 -108 -43t-62 -134l-4 -25
q-12 -70 14.5 -117t95.5 -47z" />
    <glyph glyph-name="q" unicode="q" horiz-adv-x="649" 
d="M633 532l-129 -728h-138l49 276l-50 -57q-53 -37 -138 -37q-99 0 -152 56.5t-53 156.5q0 67 20 128t57.5 110.5t99 79t138.5 29.5q81 0 120 -34l25 -57l14 77h137zM447 260l5 26q12 69 -14.5 116t-95.5 47q-77 0 -125 -69t-48 -163q0 -65 28.5 -99.5t80.5 -34.5
q62 0 107.5 43t61.5 134z" />
    <glyph glyph-name="r" unicode="r" horiz-adv-x="374" 
d="M385 545q22 0 38 -4l-20 -111q-168 16 -205 -186l-43 -244h-138l93 530h138l-17 -97l57 76q43 36 97 36z" />
    <glyph glyph-name="s" unicode="s" horiz-adv-x="486" 
d="M269 544q100 0 150 -45.5t53 -122.5h-137q-8 77 -71 77q-35 0 -53 -16.5t-18 -42.5q0 -30 22 -47t80 -36q80 -25 116 -62.5t36 -98.5q0 -78 -63.5 -124t-168.5 -46q-107 0 -164.5 48t-61.5 128h138q8 -85 95 -85q35 0 57.5 17.5t22.5 48.5q0 29 -24 48t-88 41
q-72 24 -107 56.5t-35 94.5q0 71 58 119t163 48z" />
    <glyph glyph-name="t" unicode="t" horiz-adv-x="354" 
d="M251 437l-44 -246q-7 -42 -7 -58q0 -31 22.5 -40.5t72.5 -2.5l-16 -91q-44 -10 -98 -10q-66 0 -96 22t-30 69q0 32 12 95l47 262h-76l16 91h76l23 131h137l-23 -131h105l-16 -91h-105z" />
    <glyph glyph-name="u" unicode="u" horiz-adv-x="617" 
d="M600 532l-93 -532h-138l15 82l-53 -59q-59 -37 -135 -37q-79 0 -120 37t-41 100q0 41 12 106l55 303h138l-51 -279q-10 -56 -10 -87q0 -83 85 -82q55 1 96.5 51t60.5 156l42 241h137z" />
    <glyph glyph-name="v" unicode="v" horiz-adv-x="544" 
d="M602 532l-299 -532h-159l-111 532h154l57 -420l205 420h153z" />
    <glyph glyph-name="w" unicode="w" horiz-adv-x="806" 
d="M865 532l-263 -532h-157l-18 406l-162 -406h-157l-75 532h153l22 -409l157 407h167l19 -409l165 411h149z" />
    <glyph glyph-name="x" unicode="x" horiz-adv-x="531" 
d="M337 265l147 -265h-161l-82 172l-138 -172h-159l236 266l-134 266h161l71 -174l140 174h159z" />
    <glyph glyph-name="y" unicode="y" horiz-adv-x="544" 
d="M602 532l-299 -532q-68 -120 -124.5 -165t-140.5 -45q-28 0 -60 5l16 94q21 -3 42 -3q67 0 107 75l6 12l-116 559h154l57 -421l205 421h153z" />
    <glyph glyph-name="z" unicode="z" horiz-adv-x="512" 
d="M507 437l-346 -345h292l-16 -92h-457l15 87l349 349h-264l15 92h428z" />
    <glyph glyph-name="braceleft" unicode="{" horiz-adv-x="373" 
d="M395 780l-14 -78h-18q-49 0 -67 -25.5t-17 -112.5q2 -98 -22 -150t-90 -64q71 -14 71 -77q0 -50 -34 -137q-31 -81 -31 -104q0 -18 15.5 -26t50.5 -8h17l-13 -78h-33q-120 0 -120 97q0 23 6.5 46t29.5 83q28 73 28 114q0 46 -71 51l14 78q61 5 81.5 35.5t19.5 129.5
q-1 133 33.5 179.5t130.5 46.5h33z" />
    <glyph glyph-name="bar" unicode="|" horiz-adv-x="296" 
d="M103 -200h-90l176 1000h90z" />
    <glyph glyph-name="braceright" unicode="}" horiz-adv-x="373" 
d="M232 440q0 -46 72 -51l-14 -78q-61 -5 -81.5 -35.5t-19.5 -129.5q1 -133 -33.5 -179.5t-130.5 -46.5h-33l14 78h18q49 0 66.5 25.5t16.5 112.5q-1 98 23.5 150t89.5 64q-71 14 -71 77q0 50 34 137q31 81 31 104q0 19 -15.5 26.5t-50.5 7.5h-17l13 78h33q120 0 120 -97
q0 -23 -6.5 -46t-29.5 -83q-29 -72 -29 -114z" />
    <glyph glyph-name="asciitilde" unicode="~" 
d="M474 384h78q-28 -161 -150 -161q-28 0 -51 9t-63 32q-61 35 -86 35q-26 0 -39.5 -18.5t-20.5 -57.5h-78q28 161 150 161q21 0 40 -5.5t32.5 -12.5t41.5 -23q58 -35 86 -35q25 0 39 18t21 58z" />
    <glyph glyph-name="exclamdown" unicode="&#xa1;" horiz-adv-x="271" 
d="M152 391q-32 0 -50.5 17.5t-18.5 46.5q0 37 25 64t66 27q32 0 50.5 -17.5t18.5 -47.5q0 -36 -25 -63t-66 -27zM85 336h111l-89 -494h-135z" />
    <glyph glyph-name="cent" unicode="&#xa2;" 
d="M381 440l-62 -351q61 18 90 95h138q-68 -180 -246 -196l-14 -78h-81l14 79q-85 11 -134 65.5t-49 151.5q0 132 76 227.5t205 108.5l14 78h81l-14 -79q87 -11 130.5 -65t43.5 -138h-136q-1 82 -56 102zM183 206q0 -88 55 -115l62 349q-54 -19 -85.5 -83t-31.5 -151z" />
    <glyph glyph-name="sterling" unicode="&#xa3;" horiz-adv-x="608" 
d="M281 273q0 -116 -112 -164h355l-19 -109h-514l17 96q49 10 80.5 37.5t42 57.5t10.5 64q0 21 -6 47h-81l12 73h48q-14 53 -14 101q0 96 69 162t189 66q201 0 215 -204h-140q-5 101 -86 101q-46 0 -74 -34t-28 -84q0 -46 20 -108h204l-13 -73h-177q2 -20 2 -29z" />
    <glyph glyph-name="currency" unicode="&#xa4;" 
d="M538 454l-67 -58q18 -36 18 -80q0 -66 -45 -122l43 -53l-54 -46l-44 52q-45 -26 -102 -26q-56 0 -98 34l-64 -53l-41 48l66 57q-18 35 -18 79q0 64 43 121l-42 53l56 48l44 -51q46 25 99 24q56 -1 98 -35l68 56zM215 291q0 -42 22.5 -67t59.5 -25q51 0 79.5 34t28.5 78
q0 42 -22.5 67t-60.5 25q-50 0 -78.5 -34t-28.5 -78z" />
    <glyph glyph-name="yen" unicode="&#xa5;" 
d="M428 370h111l-14 -78h-154l-2 -3l-10 -57h155l-13 -78h-156l-27 -154h-138l27 154h-155l14 78h155l10 60h-155l14 78h114l-120 320h149l87 -314l197 314h145z" />
    <glyph glyph-name="brokenbar" unicode="&#xa6;" horiz-adv-x="287" 
d="M191 350h-81l60 340h81zM101 -160h-81l60 340h81z" />
    <glyph glyph-name="section" unicode="&#xa7;" horiz-adv-x="616" 
d="M579 247q0 -50 -32 -93.5t-92 -67.5q23 -37 23 -80q0 -82 -67 -131t-176 -49q-91 0 -149.5 45t-66.5 132h137q4 -41 28.5 -63.5t59.5 -22.5q90 0 90 76q0 36 -29 60.5t-106 52.5q-81 28 -122 68t-41 105q0 52 30.5 97.5t90.5 71.5q-18 33 -18 78q0 68 60 123t163 55
q92 0 142 -46t59 -127h-138q-6 82 -70 82q-33 0 -52.5 -23.5t-19.5 -58.5t25.5 -56.5t87.5 -39.5q94 -28 138.5 -73t44.5 -115zM281 200q56 -19 93 -42q61 18 61 80q0 32 -25.5 53.5t-86.5 43.5q-51 17 -85 36q-29 -9 -43 -30.5t-14 -47.5q0 -59 100 -93z" />
    <glyph glyph-name="dieresis" unicode="&#xa8;" horiz-adv-x="300" 
d="M65 697q26 0 40.5 -13.5t14.5 -37.5q0 -31 -22 -51t-48 -20t-40.5 13.5t-14.5 37.5q0 31 22 51t48 20zM241 697q25 0 39.5 -13.5t14.5 -37.5q0 -31 -21.5 -51t-48.5 -20q-25 0 -39.5 14t-14.5 37q0 31 21.5 51t48.5 20z" />
    <glyph glyph-name="copyright" unicode="&#xa9;" horiz-adv-x="850" 
d="M425 752q173 0 286.5 -112.5t113.5 -284.5t-113.5 -284.5t-286.5 -112.5t-286.5 112.5t-113.5 284.5t113.5 284.5t286.5 112.5zM425 673q-135 0 -224 -90.5t-89 -227.5t89 -227t224 -90t224 90t89 227t-89 227.5t-224 90.5zM433 584q88 0 141 -47.5t64 -128.5h-122
q-12 89 -87 89q-92 0 -92 -141q0 -70 25 -107t70 -37q34 0 56.5 23t26.5 66h122q-15 -82 -68 -129t-144 -47q-97 0 -156.5 62t-59.5 167t61.5 167.5t162.5 62.5z" />
    <glyph glyph-name="guillemotleft" unicode="&#xab;" horiz-adv-x="615" 
d="M218 240l102 -158h-100l-108 166l166 166h115zM422 240l102 -158h-100l-108 166l166 166h115z" />
    <glyph glyph-name="logicalnot" unicode="&#xac;" 
d="M478 189h-81l21 125h-311l14 78h392z" />
    <glyph glyph-name="registered" unicode="&#xae;" horiz-adv-x="496" 
d="M274 764q87 0 139 -53.5t52 -132.5q0 -97 -67.5 -165.5t-174.5 -68.5q-87 0 -139 53.5t-52 132.5q0 97 67.5 165.5t174.5 68.5zM232 396q82 0 130 51.5t48 128.5q0 61 -39 99t-106 38q-82 0 -130 -52t-48 -129q0 -61 39 -98.5t106 -37.5zM284 662q61 -6 61 -55
q0 -43 -51 -57q25 -7 25 -42q-2 -30 9 -54h-62q-5 19 -5 47q1 11 -5 16.5t-18 5.5h-18l-12 -69h-56l37 209h69q18 0 26 -1zM261 568q26 5 26 29q0 18 -18 22q-7 1 -18 1h-14l-9 -53h15q12 0 18 1z" />
    <glyph glyph-name="macron" unicode="&#xaf;" horiz-adv-x="300" 
d="M280 592h-273l13 77h273z" />
    <glyph glyph-name="degree" unicode="&#xb0;" horiz-adv-x="314" 
d="M234 749q55 0 87 -31.5t32 -81.5q0 -62 -41 -102.5t-105 -40.5q-55 0 -87.5 32t-32.5 81q0 62 41.5 102.5t105.5 40.5zM227 675q-26 0 -43 -16.5t-17 -44.5q0 -22 13 -34.5t33 -12.5q26 0 43 17t17 45q0 22 -13 34t-33 12z" />
    <glyph glyph-name="plusminus" unicode="&#xb1;" 
d="M528 357l-14 -78h-164l-28 -160h-81l28 160h-164l14 78h164l28 158h81l-28 -158h164zM69 74h409l-13 -74h-409z" />
    <glyph glyph-name="acute" unicode="&#xb4;" horiz-adv-x="300" 
d="M172 574h-78l99 118h124z" />
    <glyph glyph-name="paragraph" unicode="&#xb6;" horiz-adv-x="592" 
d="M604 690l-142 -800h-81l128 722h-103l-129 -722h-81l76 430h-10q-39 0 -56 1q-60 4 -94 50.5t-34 108.5q0 74 49.5 138.5t143.5 70.5q18 1 57 1h276z" />
    <glyph glyph-name="periodcentered" unicode="&#xb7;" horiz-adv-x="245" 
d="M146 391q32 0 52 -18t20 -49q0 -46 -29 -75.5t-74 -29.5q-31 0 -51.5 18.5t-20.5 49.5q0 45 29.5 74.5t73.5 29.5z" />
    <glyph glyph-name="cedilla" unicode="&#xb8;" horiz-adv-x="300" 
d="M204 9l-35 -50q77 -12 77 -72q0 -48 -41.5 -72.5t-105.5 -24.5q-49 0 -72 8l11 56q21 -7 54 -7q68 0 68 37q0 20 -24.5 28.5t-66.5 3.5l63 93h72z" />
    <glyph glyph-name="guillemotright" unicode="&#xbb;" horiz-adv-x="622" 
d="M293 248l-166 -166h-115l175 175l-102 157h100zM497 248l-166 -166h-115l175 175l-102 157h100z" />
    <glyph glyph-name="questiondown" unicode="&#xbf;" horiz-adv-x="529" 
d="M284 391q-32 0 -51 17.5t-19 46.5q0 37 25 64t67 27q32 0 50.5 -17.5t18.5 -47.5q0 -36 -25 -63t-66 -27zM174 -172q-95 0 -148 42t-53 114q0 65 31 113t112 112q46 37 66.5 63t31.5 64h119q-10 -52 -31 -85t-70 -78q-66 -62 -89 -97t-23 -73q0 -35 21 -53.5t59 -18.5
q45 0 75.5 29.5t42.5 88.5h139q-19 -103 -95 -162t-188 -59z" />
    <glyph glyph-name="Agrave" unicode="&#xc0;" horiz-adv-x="680" 
d="M407 735l-101 112h124l55 -112h-78zM457 208h-235l-104 -208h-149l366 690h183l119 -690h-149zM441 317l-38 251l-126 -251h164z" />
    <glyph glyph-name="Aacute" unicode="&#xc1;" horiz-adv-x="680" 
d="M471 735h-78l93 112h124zM457 208h-235l-104 -208h-149l366 690h183l119 -690h-149zM441 317l-38 251l-126 -251h164z" />
    <glyph glyph-name="Acircumflex" unicode="&#xc2;" horiz-adv-x="680" 
d="M406 735h-87l84 112h108l45 -112h-87l-20 64zM457 208h-235l-104 -208h-149l366 690h183l119 -690h-149zM441 317l-38 251l-126 -251h164z" />
    <glyph glyph-name="Atilde" unicode="&#xc3;" horiz-adv-x="680" 
d="M392 772q-17 0 -21 -26h-70q10 57 30 81t56 24q32 0 73 -17q31 -12 45 -12q16 0 20 26h70q-10 -58 -30 -82t-56 -24q-31 0 -73 18q-33 12 -44 12zM457 208h-235l-104 -208h-149l366 690h183l119 -690h-149zM441 317l-38 251l-126 -251h164z" />
    <glyph glyph-name="Adieresis" unicode="&#xc4;" horiz-adv-x="680" 
d="M353 729q-26 0 -40.5 13.5t-14.5 37.5q0 31 21.5 50.5t48.5 19.5q25 0 39.5 -13.5t14.5 -37.5q0 -30 -21.5 -50t-47.5 -20zM526 729q-26 0 -40.5 13.5t-14.5 37.5q0 31 21.5 50.5t48.5 19.5q25 0 39.5 -13.5t14.5 -37.5q0 -30 -21.5 -50t-47.5 -20zM457 208h-235
l-104 -208h-149l366 690h183l119 -690h-149zM441 317l-38 251l-126 -251h164z" />
    <glyph glyph-name="Aring" unicode="&#xc5;" horiz-adv-x="680" 
d="M437 719q-42 0 -68 23t-26 58q0 48 34 77t87 29q43 0 69 -23t26 -58q0 -47 -34.5 -76.5t-87.5 -29.5zM458 853q-19 0 -32.5 -13.5t-13.5 -35.5q0 -14 8.5 -23t23.5 -9q19 0 32.5 13.5t13.5 35.5q0 14 -8.5 23t-23.5 9zM457 208h-235l-104 -208h-149l366 690h183l119 -690
h-149zM441 317l-38 251l-126 -251h164z" />
    <glyph glyph-name="AE" unicode="&#xc6;" horiz-adv-x="966" 
d="M605 582l-15 -182h333l-19 -109h-324l-15 -182h341l-19 -109h-469l20 225h-211l-158 -225h-154l503 690h581l-20 -108h-374zM447 333l21 237l-166 -237h145z" />
    <glyph glyph-name="Ccedilla" unicode="&#xc7;" horiz-adv-x="745" 
d="M456 704q136 0 205 -66t61 -172l-1 -10h-138v10q-1 135 -142 135q-101 0 -167 -88t-66 -230q0 -98 40 -146t108 -48q128 0 182 140l4 10h137l-3 -10q-32 -115 -119.5 -179t-218.5 -64q-130 0 -204 75t-74 210q0 190 114.5 311.5t281.5 121.5zM159 9l-35 -50
q76 -12 76 -72q0 -48 -41.5 -72.5t-105.5 -24.5q-50 0 -71 8l10 56q21 -7 55 -7q67 0 67 37q0 20 -24.5 28.5t-66.5 3.5l63 93h73z" />
    <glyph glyph-name="Egrave" unicode="&#xc8;" horiz-adv-x="612" 
d="M384 735l-101 112h124l55 -112h-78zM276 582l-32 -182h325l-19 -109h-326l-32 -182h360l-20 -109h-497l122 690h487l-19 -108h-349z" />
    <glyph glyph-name="Eacute" unicode="&#xc9;" horiz-adv-x="612" 
d="M448 735h-78l93 112h124zM276 582l-32 -182h325l-19 -109h-326l-32 -182h360l-20 -109h-497l122 690h487l-19 -108h-349z" />
    <glyph glyph-name="Ecircumflex" unicode="&#xca;" horiz-adv-x="612" 
d="M383 735h-87l84 112h108l45 -112h-87l-20 64zM276 582l-32 -182h325l-19 -109h-326l-32 -182h360l-20 -109h-497l122 690h487l-19 -108h-349z" />
    <glyph glyph-name="Edieresis" unicode="&#xcb;" horiz-adv-x="612" 
d="M329 729q-26 0 -40.5 13.5t-14.5 37.5q0 31 21.5 50.5t48.5 19.5q25 0 39.5 -13.5t14.5 -37.5q0 -30 -21.5 -50t-47.5 -20zM502 729q-26 0 -40.5 13.5t-14.5 37.5q0 31 21.5 50.5t48.5 19.5q25 0 39.5 -13.5t14.5 -37.5q0 -30 -21.5 -50t-47.5 -20zM276 582l-32 -182h325
l-19 -109h-326l-32 -182h360l-20 -109h-497l122 690h487l-19 -108h-349z" />
    <glyph glyph-name="Igrave" unicode="&#xcc;" horiz-adv-x="287" 
d="M281 735h-78l-101 112h124zM173 0h-138l122 690h138z" />
    <glyph glyph-name="Iacute" unicode="&#xcd;" horiz-adv-x="287" 
d="M267 735h-78l93 112h124zM173 0h-138l122 690h138z" />
    <glyph glyph-name="Icircumflex" unicode="&#xce;" horiz-adv-x="287" 
d="M203 735h-87l84 112h108l45 -112h-87l-20 64zM157 690h138l-122 -690h-138z" />
    <glyph glyph-name="Idieresis" unicode="&#xcf;" horiz-adv-x="287" 
d="M164 850q25 0 39.5 -13.5t14.5 -37.5q0 -30 -21.5 -50t-47.5 -20t-40.5 13.5t-14.5 37.5q0 31 21.5 50.5t48.5 19.5zM337 850q25 0 39.5 -13.5t14.5 -37.5q0 -30 -21.5 -50t-47.5 -20t-40.5 13.5t-14.5 37.5q0 31 21.5 50.5t48.5 19.5zM173 0h-138l122 690h138z" />
    <glyph glyph-name="Eth" unicode="&#xd0;" horiz-adv-x="728" 
d="M467 686q109 -11 177 -84.5t68 -206.5q0 -98 -38.5 -181t-122.5 -141.5t-200 -69.5q-36 -3 -89 -3h-227l53 298h-76l14 78h75l56 314h218q58 0 92 -4zM344 111q109 14 164.5 92t55.5 188q0 88 -37.5 134t-103.5 54q-33 3 -69 3h-78l-37 -206h111l-14 -78h-111l-33 -189
h81q48 0 71 2z" />
    <glyph glyph-name="Ntilde" unicode="&#xd1;" horiz-adv-x="755" 
d="M425 772q-17 0 -21 -26h-70q10 57 30 81t56 24q32 0 73 -17q31 -12 45 -12q16 0 20 26h70q-10 -58 -30 -82t-56 -24q-31 0 -73 18q-33 12 -44 12zM763 690l-122 -690h-189l-188 524l-91 -524h-138l122 690h183l192 -537l93 537h138z" />
    <glyph glyph-name="Ograve" unicode="&#xd2;" horiz-adv-x="781" 
d="M452 735l-101 112h124l55 -112h-78zM458 704q144 0 225.5 -84.5t81.5 -214.5q0 -181 -108 -300t-288 -119q-144 0 -225.5 84.5t-81.5 214.5q0 181 108 300t288 119zM380 89q76 0 132.5 50t81 119t24.5 144q0 90 -45.5 144.5t-125.5 54.5q-76 0 -132.5 -50t-81 -119
t-24.5 -144q0 -90 45 -144.5t126 -54.5z" />
    <glyph glyph-name="Oacute" unicode="&#xd3;" horiz-adv-x="781" 
d="M516 735h-78l93 112h124zM458 704q144 0 225.5 -84.5t81.5 -214.5q0 -181 -108 -300t-288 -119q-144 0 -225.5 84.5t-81.5 214.5q0 181 108 300t288 119zM380 89q76 0 132.5 50t81 119t24.5 144q0 90 -45.5 144.5t-125.5 54.5q-76 0 -132.5 -50t-81 -119t-24.5 -144
q0 -90 45 -144.5t126 -54.5z" />
    <glyph glyph-name="Ocircumflex" unicode="&#xd4;" horiz-adv-x="781" 
d="M451 735h-87l84 112h108l45 -112h-87l-20 64zM458 704q144 0 225.5 -84.5t81.5 -214.5q0 -181 -108 -300t-288 -119q-144 0 -225.5 84.5t-81.5 214.5q0 181 108 300t288 119zM380 89q76 0 132.5 50t81 119t24.5 144q0 90 -45.5 144.5t-125.5 54.5q-76 0 -132.5 -50
t-81 -119t-24.5 -144q0 -90 45 -144.5t126 -54.5z" />
    <glyph glyph-name="Otilde" unicode="&#xd5;" horiz-adv-x="781" 
d="M437 772q-17 0 -21 -26h-70q10 57 30 81t56 24q32 0 73 -17q31 -12 45 -12q16 0 20 26h70q-10 -58 -30 -82t-56 -24q-31 0 -73 18q-33 12 -44 12zM458 704q144 0 225.5 -84.5t81.5 -214.5q0 -181 -108 -300t-288 -119q-144 0 -225.5 84.5t-81.5 214.5q0 181 108 300
t288 119zM380 89q76 0 132.5 50t81 119t24.5 144q0 90 -45.5 144.5t-125.5 54.5q-76 0 -132.5 -50t-81 -119t-24.5 -144q0 -90 45 -144.5t126 -54.5z" />
    <glyph glyph-name="Odieresis" unicode="&#xd6;" horiz-adv-x="781" 
d="M398 729q-26 0 -40.5 13.5t-14.5 37.5q0 31 21.5 50.5t48.5 19.5q25 0 39.5 -13.5t14.5 -37.5q0 -30 -21.5 -50t-47.5 -20zM571 729q-26 0 -40.5 13.5t-14.5 37.5q0 31 21.5 50.5t48.5 19.5q25 0 39.5 -13.5t14.5 -37.5q0 -30 -21.5 -50t-47.5 -20zM458 704
q144 0 225.5 -84.5t81.5 -214.5q0 -181 -108 -300t-288 -119q-144 0 -225.5 84.5t-81.5 214.5q0 181 108 300t288 119zM380 89q76 0 132.5 50t81 119t24.5 144q0 90 -45.5 144.5t-125.5 54.5q-76 0 -132.5 -50t-81 -119t-24.5 -144q0 -90 45 -144.5t126 -54.5z" />
    <glyph glyph-name="multiply" unicode="&#xd7;" 
d="M375 317l112 -136l-68 -57l-112 136l-166 -141l-55 67l166 141l-113 137l68 57l113 -137l165 141l55 -67z" />
    <glyph glyph-name="Oslash" unicode="&#xd8;" horiz-adv-x="778" 
d="M807 635l-81 -69q40 -71 40 -161q0 -181 -108 -300t-287 -119q-143 0 -227 86l-87 -74l-47 57l90 77q-36 66 -36 153q0 181 108 300t288 119q138 0 220 -80l80 68zM211 288q0 -28 5 -58l364 309q-46 62 -132 62q-58 0 -105 -29t-75 -75t-42.5 -100t-14.5 -109zM620 402
q0 34 -8 68l-367 -312q47 -69 137 -69q76 0 132.5 50t81 119t24.5 144z" />
    <glyph glyph-name="Ugrave" unicode="&#xd9;" horiz-adv-x="703" 
d="M496 735h-78l-101 112h124zM725 690l-70 -398q-9 -51 -18 -86q-25 -106 -99 -163t-212 -57q-125 0 -189 53t-64 145q0 39 13 117l69 389h138l-74 -420q-8 -44 -8 -71q0 -52 34 -81t93 -29q67 0 106.5 29.5t57.5 98.5q4 15 11 50l74 423h138z" />
    <glyph glyph-name="Uacute" unicode="&#xda;" horiz-adv-x="703" 
d="M482 735h-78l93 112h124zM725 690l-70 -398q-9 -51 -18 -86q-25 -106 -99 -163t-212 -57q-125 0 -189 53t-64 145q0 39 13 117l69 389h138l-74 -420q-8 -44 -8 -71q0 -52 34 -81t93 -29q67 0 106.5 29.5t57.5 98.5q4 15 11 50l74 423h138z" />
    <glyph glyph-name="Ucircumflex" unicode="&#xdb;" horiz-adv-x="703" 
d="M417 735h-87l84 112h108l45 -112h-87l-20 64zM725 690l-70 -398q-9 -51 -18 -86q-25 -106 -99 -163t-212 -57q-125 0 -189 53t-64 145q0 39 13 117l69 389h138l-74 -420q-8 -44 -8 -71q0 -52 34 -81t93 -29q67 0 106.5 29.5t57.5 98.5q4 15 11 50l74 423h138z" />
    <glyph glyph-name="Udieresis" unicode="&#xdc;" horiz-adv-x="703" 
d="M378 850q25 0 39.5 -13.5t14.5 -37.5q0 -30 -21.5 -50t-47.5 -20t-40.5 13.5t-14.5 37.5q0 31 21.5 50.5t48.5 19.5zM551 850q25 0 39.5 -13.5t14.5 -37.5q0 -30 -21.5 -50t-47.5 -20t-40.5 13.5t-14.5 37.5q0 31 21.5 50.5t48.5 19.5zM725 690l-70 -398q-9 -51 -18 -86
q-25 -106 -99 -163t-212 -57q-125 0 -189 53t-64 145q0 39 13 117l69 389h138l-74 -420q-8 -44 -8 -71q0 -52 34 -81t93 -29q67 0 106.5 29.5t57.5 98.5q4 15 11 50l74 423h138z" />
    <glyph glyph-name="Yacute" unicode="&#xdd;" horiz-adv-x="637" 
d="M451 735h-78l93 112h124zM403 264l-47 -264h-138l48 269l-169 421h146l113 -305l210 305h155z" />
    <glyph glyph-name="Thorn" unicode="&#xde;" horiz-adv-x="630" 
d="M487 597q67 -8 107 -47.5t40 -108.5q0 -23 -4 -44q-16 -89 -74.5 -140.5t-139.5 -61.5q-35 -4 -101 -4h-108l-34 -191h-138l122 690h138l-16 -88h108q57 0 100 -5zM485 396q2 8 2 22q0 62 -69 72q-22 3 -60 3h-98l-34 -193h98q38 0 62 3q84 12 99 93z" />
    <glyph glyph-name="germandbls" unicode="&#xdf;" horiz-adv-x="619" 
d="M402 754q104 0 160 -45t56 -118q0 -63 -46 -123q-42 -19 -59.5 -38t-17.5 -45q0 -39 39 -79q59 -62 59 -135q0 -74 -59 -124.5t-168 -50.5q-66 0 -118 11l19 104q50 -13 88 -13q46 0 69 22t23 55q0 41 -39 84q-31 36 -44 62t-13 62q0 78 99 131q21 32 21 66q0 71 -88 71
q-63 0 -96.5 -47t-50.5 -143l-81 -461h-138l80 453q26 152 92 226.5t213 74.5z" />
    <glyph glyph-name="agrave" unicode="&#xe0;" horiz-adv-x="552" 
d="M311 574l-103 118h124l57 -118h-78zM325 546q100 0 147 -38t47 -103q0 -29 -13 -100l-30 -170q-10 -57 -14 -135h-135l3 78l-35 -53q-51 -39 -135 -39q-64 0 -106 36t-42 104q0 102 97.5 155t263.5 43l1 8q6 36 6 57q0 60 -67 60q-89 0 -111 -90l-134 -1q17 88 87 138
t170 50zM227 83q40 0 76.5 31.5t45.5 81.5l8 45q-87 9 -143.5 -16.5t-56.5 -80.5q0 -30 19 -45.5t51 -15.5z" />
    <glyph glyph-name="aacute" unicode="&#xe1;" horiz-adv-x="552" 
d="M369 574h-78l99 118h124zM325 546q100 0 147 -38t47 -103q0 -29 -13 -100l-30 -170q-10 -57 -14 -135h-135l3 78l-35 -53q-51 -39 -135 -39q-64 0 -106 36t-42 104q0 102 97.5 155t263.5 43l1 8q6 36 6 57q0 60 -67 60q-89 0 -111 -90l-134 -1q17 88 87 138t170 50z
M227 83q40 0 76.5 31.5t45.5 81.5l8 45q-87 9 -143.5 -16.5t-56.5 -80.5q0 -30 19 -45.5t51 -15.5z" />
    <glyph glyph-name="acircumflex" unicode="&#xe2;" horiz-adv-x="552" 
d="M306 574h-85l85 118h108l44 -118h-86l-21 69zM325 546q100 0 147 -38t47 -103q0 -29 -13 -100l-30 -170q-10 -57 -14 -135h-135l3 78l-35 -53q-51 -39 -135 -39q-64 0 -106 36t-42 104q0 102 97.5 155t263.5 43l1 8q6 36 6 57q0 60 -67 60q-89 0 -111 -90l-134 -1
q17 88 87 138t170 50zM227 83q40 0 76.5 31.5t45.5 81.5l8 45q-87 9 -143.5 -16.5t-56.5 -80.5q0 -30 19 -45.5t51 -15.5z" />
    <glyph glyph-name="atilde" unicode="&#xe3;" horiz-adv-x="552" 
d="M291 611q-17 0 -21 -26h-70q10 57 30 81t56 24q32 0 73 -17q31 -12 45 -12q16 0 20 26h70q-10 -58 -30 -82t-56 -24q-31 0 -73 18q-33 12 -44 12zM325 546q100 0 147 -38t47 -103q0 -29 -13 -100l-30 -170q-10 -57 -14 -135h-135l3 78l-35 -53q-51 -39 -135 -39
q-64 0 -106 36t-42 104q0 102 97.5 155t263.5 43l1 8q6 36 6 57q0 60 -67 60q-89 0 -111 -90l-134 -1q17 88 87 138t170 50zM227 83q40 0 76.5 31.5t45.5 81.5l8 45q-87 9 -143.5 -16.5t-56.5 -80.5q0 -30 19 -45.5t51 -15.5z" />
    <glyph glyph-name="adieresis" unicode="&#xe4;" horiz-adv-x="552" 
d="M248 575q-26 0 -40.5 13.5t-14.5 37.5q0 31 22 51t48 20t40.5 -13.5t14.5 -37.5q0 -31 -22 -51t-48 -20zM423 575q-25 0 -39.5 14t-14.5 37q0 31 21.5 51t48.5 20q25 0 39.5 -13.5t14.5 -37.5q0 -31 -21.5 -51t-48.5 -20zM325 546q100 0 147 -38t47 -103q0 -29 -13 -100
l-30 -170q-10 -57 -14 -135h-135l3 78l-35 -53q-51 -39 -135 -39q-64 0 -106 36t-42 104q0 102 97.5 155t263.5 43l1 8q6 36 6 57q0 60 -67 60q-89 0 -111 -90l-134 -1q17 88 87 138t170 50zM227 83q40 0 76.5 31.5t45.5 81.5l8 45q-87 9 -143.5 -16.5t-56.5 -80.5
q0 -30 19 -45.5t51 -15.5z" />
    <glyph glyph-name="aring" unicode="&#xe5;" horiz-adv-x="552" 
d="M336 566q-43 0 -68 22t-25 59q0 48 35 80t89 32q42 0 67 -22t25 -59q0 -48 -34.5 -80t-88.5 -32zM358 707q-21 0 -33.5 -17t-12.5 -39q0 -32 32 -32q21 0 33.5 17t12.5 38q0 33 -32 33zM325 546q100 0 147 -38t47 -103q0 -29 -13 -100l-30 -170q-10 -57 -14 -135h-135
l3 78l-35 -53q-51 -39 -135 -39q-64 0 -106 36t-42 104q0 102 97.5 155t263.5 43l1 8q6 36 6 57q0 60 -67 60q-89 0 -111 -90l-134 -1q17 88 87 138t170 50zM227 83q40 0 76.5 31.5t45.5 81.5l8 45q-87 9 -143.5 -16.5t-56.5 -80.5q0 -30 19 -45.5t51 -15.5z" />
    <glyph glyph-name="ae" unicode="&#xe6;" horiz-adv-x="936" 
d="M898 230h-377q-2 -22 -2 -30q0 -117 98 -117q45 0 79 24t48 66h138q-35 -90 -111.5 -138.5t-172.5 -48.5q-148 0 -192 113l-53 -65q-69 -48 -165 -48q-80 0 -128 37t-48 100q0 87 80 142t251 55h45q6 35 6 53q0 74 -77 74q-43 0 -72 -23.5t-39 -67.5h-134q17 88 88.5 138
t171.5 50q140 0 169 -90q79 90 211 90q98 0 150.5 -57.5t52.5 -149.5q0 -53 -17 -107zM684 447q-103 0 -143 -127h233q8 127 -90 127zM370 207l4 23q-16 1 -46 1q-86 0 -128 -21.5t-42 -69.5q0 -57 76 -57q50 0 88 34t48 90z" />
    <glyph glyph-name="ccedilla" unicode="&#xe7;" horiz-adv-x="572" 
d="M263 83q96 0 132 101h138q-71 -189 -264 -198l-19 -27q77 -12 77 -72q0 -48 -41.5 -72.5t-105.5 -24.5q-49 0 -72 8l11 56q21 -7 54 -7q68 0 68 37q0 20 -24.5 28.5t-66.5 3.5l50 74q-82 13 -129.5 67t-47.5 149q0 142 87.5 240t230.5 98q109 0 163 -55.5t54 -150.5h-136
q-3 109 -96 109q-69 0 -112.5 -69t-43.5 -172q0 -60 25.5 -91.5t67.5 -31.5z" />
    <glyph glyph-name="egrave" unicode="&#xe8;" horiz-adv-x="580" 
d="M325 574l-103 118h124l57 -118h-78zM165 230l-1 -27q0 -120 98 -120q45 0 79 24t48 66h138q-32 -91 -105.5 -139t-172.5 -48q-101 0 -163.5 54t-62.5 162q0 144 84.5 244t226.5 100q108 0 166 -58.5t58 -151.5q0 -52 -17 -106h-376zM320 449q-100 0 -140 -129h237
q1 9 1 23q0 50 -25.5 78t-72.5 28z" />
    <glyph glyph-name="eacute" unicode="&#xe9;" horiz-adv-x="580" 
d="M383 574h-78l99 118h124zM165 230l-1 -27q0 -120 98 -120q45 0 79 24t48 66h138q-32 -91 -105.5 -139t-172.5 -48q-101 0 -163.5 54t-62.5 162q0 144 84.5 244t226.5 100q108 0 166 -58.5t58 -151.5q0 -52 -17 -106h-376zM320 449q-100 0 -140 -129h237q1 9 1 23
q0 50 -25.5 78t-72.5 28z" />
    <glyph glyph-name="ecircumflex" unicode="&#xea;" horiz-adv-x="580" 
d="M320 574h-85l85 118h108l44 -118h-86l-21 69zM165 230l-1 -27q0 -120 98 -120q45 0 79 24t48 66h138q-32 -91 -105.5 -139t-172.5 -48q-101 0 -163.5 54t-62.5 162q0 144 84.5 244t226.5 100q108 0 166 -58.5t58 -151.5q0 -52 -17 -106h-376zM320 449q-100 0 -140 -129
h237q1 9 1 23q0 50 -25.5 78t-72.5 28z" />
    <glyph glyph-name="edieresis" unicode="&#xeb;" horiz-adv-x="580" 
d="M263 575q-26 0 -40.5 13.5t-14.5 37.5q0 31 22 51t48 20t40.5 -13.5t14.5 -37.5q0 -31 -22 -51t-48 -20zM438 575q-25 0 -39.5 14t-14.5 37q0 31 21.5 51t48.5 20q25 0 39.5 -13.5t14.5 -37.5q0 -31 -21.5 -51t-48.5 -20zM165 230l-1 -27q0 -120 98 -120q45 0 79 24
t48 66h138q-32 -91 -105.5 -139t-172.5 -48q-101 0 -163.5 54t-62.5 162q0 144 84.5 244t226.5 100q108 0 166 -58.5t58 -151.5q0 -52 -17 -106h-376zM320 449q-100 0 -140 -129h237q1 9 1 23q0 50 -25.5 78t-72.5 28z" />
    <glyph glyph-name="igrave" unicode="&#xec;" horiz-adv-x="265" 
d="M241 574h-78l-103 118h124zM155 0h-138l95 532h137z" />
    <glyph glyph-name="iacute" unicode="&#xed;" horiz-adv-x="265" 
d="M221 574h-78l99 118h124zM155 0h-138l95 532h137z" />
    <glyph glyph-name="icircumflex" unicode="&#xee;" horiz-adv-x="265" 
d="M159 574h-85l85 118h108l44 -118h-86l-21 69zM112 532h137l-94 -532h-138z" />
    <glyph glyph-name="idieresis" unicode="&#xef;" horiz-adv-x="265" 
d="M116 697q26 0 40.5 -13.5t14.5 -37.5q0 -31 -22 -51t-48 -20t-40.5 13.5t-14.5 37.5q0 31 22 51t48 20zM292 697q25 0 39.5 -13.5t14.5 -37.5q0 -31 -21.5 -51t-48.5 -20q-25 0 -39.5 14t-14.5 37q0 31 21.5 51t48.5 20zM155 0h-138l95 532h137z" />
    <glyph glyph-name="eth" unicode="&#xf0;" horiz-adv-x="637" 
d="M616 644l-71 -19q44 -94 44 -249q0 -73 -18 -139.5t-54.5 -124t-102 -92t-150.5 -34.5q-115 0 -178 62t-63 160q0 61 18.5 119t53.5 108t94 80.5t132 30.5q61 0 104 -29l34 -57q-4 84 -33 134l-128 -33l-14 61l100 26q-24 22 -68 47l113 50q50 -24 82 -65l91 24zM274 88
q46 0 80.5 22.5t53 59t27.5 75.5t9 78q0 56 -30.5 88.5t-77.5 32.5q-44 0 -78.5 -22.5t-53 -58t-27.5 -73t-9 -73.5q0 -129 106 -129z" />
    <glyph glyph-name="ntilde" unicode="&#xf1;" horiz-adv-x="621" 
d="M323 611q-17 0 -21 -26h-70q10 57 30 81t56 24q32 0 73 -17q31 -12 45 -12q16 0 20 26h70q-10 -58 -30 -82t-56 -24q-31 0 -73 18q-33 12 -44 12zM421 546q79 0 120.5 -37t41.5 -99q0 -37 -13 -106l-54 -304h-138l50 279q11 61 11 87q0 83 -86 83q-55 -1 -96 -51.5
t-60 -156.5l-42 -241h-138l94 532h137l-14 -81l52 58q59 37 135 37z" />
    <glyph glyph-name="ograve" unicode="&#xf2;" horiz-adv-x="616" 
d="M337 574l-103 118h124l57 -118h-78zM345 546q121 0 183.5 -65.5t62.5 -170.5q0 -61 -20 -118t-58 -103.5t-100.5 -74.5t-140.5 -28q-121 0 -184 65.5t-63 170.5q0 61 20 118t58 103.5t100.5 74.5t141.5 28zM284 83q75 0 118 67.5t43 156.5q0 63 -28.5 102.5t-83.5 39.5
q-76 0 -118.5 -67t-42.5 -157q0 -63 28.5 -102.5t83.5 -39.5z" />
    <glyph glyph-name="oacute" unicode="&#xf3;" horiz-adv-x="616" 
d="M395 574h-78l99 118h124zM345 546q121 0 183.5 -65.5t62.5 -170.5q0 -61 -20 -118t-58 -103.5t-100.5 -74.5t-140.5 -28q-121 0 -184 65.5t-63 170.5q0 61 20 118t58 103.5t100.5 74.5t141.5 28zM284 83q75 0 118 67.5t43 156.5q0 63 -28.5 102.5t-83.5 39.5
q-76 0 -118.5 -67t-42.5 -157q0 -63 28.5 -102.5t83.5 -39.5z" />
    <glyph glyph-name="ocircumflex" unicode="&#xf4;" horiz-adv-x="616" 
d="M332 574h-85l85 118h108l44 -118h-86l-21 69zM345 546q121 0 183.5 -65.5t62.5 -170.5q0 -61 -20 -118t-58 -103.5t-100.5 -74.5t-140.5 -28q-121 0 -184 65.5t-63 170.5q0 61 20 118t58 103.5t100.5 74.5t141.5 28zM284 83q75 0 118 67.5t43 156.5q0 63 -28.5 102.5
t-83.5 39.5q-76 0 -118.5 -67t-42.5 -157q0 -63 28.5 -102.5t83.5 -39.5z" />
    <glyph glyph-name="otilde" unicode="&#xf5;" horiz-adv-x="616" 
d="M317 611q-17 0 -21 -26h-70q10 57 30 81t56 24q32 0 73 -17q31 -12 45 -12q16 0 20 26h70q-10 -58 -30 -82t-56 -24q-31 0 -73 18q-33 12 -44 12zM345 546q121 0 183.5 -65.5t62.5 -170.5q0 -61 -20 -118t-58 -103.5t-100.5 -74.5t-140.5 -28q-121 0 -184 65.5t-63 170.5
q0 61 20 118t58 103.5t100.5 74.5t141.5 28zM284 83q75 0 118 67.5t43 156.5q0 63 -28.5 102.5t-83.5 39.5q-76 0 -118.5 -67t-42.5 -157q0 -63 28.5 -102.5t83.5 -39.5z" />
    <glyph glyph-name="odieresis" unicode="&#xf6;" horiz-adv-x="616" 
d="M275 575q-26 0 -40.5 13.5t-14.5 37.5q0 31 22 51t48 20t40.5 -13.5t14.5 -37.5q0 -31 -22 -51t-48 -20zM450 575q-25 0 -39.5 14t-14.5 37q0 31 21.5 51t48.5 20q25 0 39.5 -13.5t14.5 -37.5q0 -31 -21.5 -51t-48.5 -20zM345 546q121 0 183.5 -65.5t62.5 -170.5
q0 -61 -20 -118t-58 -103.5t-100.5 -74.5t-140.5 -28q-121 0 -184 65.5t-63 170.5q0 61 20 118t58 103.5t100.5 74.5t141.5 28zM284 83q75 0 118 67.5t43 156.5q0 63 -28.5 102.5t-83.5 39.5q-76 0 -118.5 -67t-42.5 -157q0 -63 28.5 -102.5t83.5 -39.5z" />
    <glyph glyph-name="divide" unicode="&#xf7;" 
d="M358 562q26 0 42 -16t16 -40q0 -34 -24.5 -58.5t-57.5 -24.5q-26 0 -42 16t-16 41q0 33 24.5 57.5t57.5 24.5zM537 279h-459l14 78h458zM296 211q27 0 42.5 -16t15.5 -41q0 -33 -24.5 -57.5t-57.5 -24.5q-26 0 -42 16t-16 40q0 34 24.5 58.5t57.5 24.5z" />
    <glyph glyph-name="oslash" unicode="&#xf8;" horiz-adv-x="637" 
d="M649 500l-79 -67q28 -53 28 -123q0 -61 -20 -118t-58 -103.5t-100.5 -74.5t-141.5 -28q-107 0 -171 54l-78 -67l-47 57l79 67q-29 52 -29 125q0 61 20 118t58 103.5t100.5 74.5t141.5 28q107 0 172 -55l78 66zM179 225q0 -18 1 -26l245 208q-29 42 -85 42
q-76 0 -118.5 -67t-42.5 -157zM451 307q0 16 -1 24l-244 -208q29 -40 84 -40q76 0 118.5 67t42.5 157z" />
    <glyph glyph-name="ugrave" unicode="&#xf9;" horiz-adv-x="617" 
d="M346 574l-103 118h124l57 -118h-78zM600 532l-93 -532h-138l15 82l-53 -59q-59 -37 -135 -37q-79 0 -120 37t-41 100q0 41 12 106l55 303h138l-51 -279q-10 -56 -10 -87q0 -83 85 -82q55 1 96.5 51t60.5 156l42 241h137z" />
    <glyph glyph-name="uacute" unicode="&#xfa;" horiz-adv-x="617" 
d="M404 574h-78l99 118h124zM600 532l-93 -532h-138l15 82l-53 -59q-59 -37 -135 -37q-79 0 -120 37t-41 100q0 41 12 106l55 303h138l-51 -279q-10 -56 -10 -87q0 -83 85 -82q55 1 96.5 51t60.5 156l42 241h137z" />
    <glyph glyph-name="ucircumflex" unicode="&#xfb;" horiz-adv-x="617" 
d="M341 574h-85l85 118h108l44 -118h-86l-21 69zM600 532l-93 -532h-138l15 82l-53 -59q-59 -37 -135 -37q-79 0 -120 37t-41 100q0 41 12 106l55 303h138l-51 -279q-10 -56 -10 -87q0 -83 85 -82q55 1 96.5 51t60.5 156l42 241h137z" />
    <glyph glyph-name="udieresis" unicode="&#xfc;" horiz-adv-x="617" 
d="M284 575q-26 0 -40.5 13.5t-14.5 37.5q0 31 22 51t48 20t40.5 -13.5t14.5 -37.5q0 -31 -22 -51t-48 -20zM459 575q-25 0 -39.5 14t-14.5 37q0 31 21.5 51t48.5 20q25 0 39.5 -13.5t14.5 -37.5q0 -31 -21.5 -51t-48.5 -20zM600 532l-93 -532h-138l15 82l-53 -59
q-59 -37 -135 -37q-79 0 -120 37t-41 100q0 41 12 106l55 303h138l-51 -279q-10 -56 -10 -87q0 -83 85 -82q55 1 96.5 51t60.5 156l42 241h137z" />
    <glyph glyph-name="yacute" unicode="&#xfd;" horiz-adv-x="544" 
d="M352 574h-78l99 118h124zM602 532l-299 -532q-68 -120 -124.5 -165t-140.5 -45q-28 0 -60 5l16 94q21 -3 42 -3q67 0 107 75l6 12l-116 559h154l57 -421l205 421h153z" />
    <glyph glyph-name="thorn" unicode="&#xfe;" horiz-adv-x="651" 
d="M424 546q97 0 150.5 -59t53.5 -160q0 -140 -82.5 -240.5t-232.5 -100.5q-34 0 -68 9.5t-51 24.5l-26 56l-48 -272h-138l166 931h138l-51 -283l50 57q52 37 139 37zM309 83q77 0 126 68t49 164q0 65 -28.5 99.5t-82.5 34.5q-62 0 -108 -43t-62 -134l-4 -25
q-12 -70 14.5 -117t95.5 -47z" />
    <glyph glyph-name="ydieresis" unicode="&#xff;" horiz-adv-x="544" 
d="M232 575q-26 0 -40.5 13.5t-14.5 37.5q0 31 22 51t48 20t40.5 -13.5t14.5 -37.5q0 -31 -22 -51t-48 -20zM407 575q-25 0 -39.5 14t-14.5 37q0 31 21.5 51t48.5 20q25 0 39.5 -13.5t14.5 -37.5q0 -31 -21.5 -51t-48.5 -20zM602 532l-299 -532q-68 -120 -124.5 -165
t-140.5 -45q-28 0 -60 5l16 94q21 -3 42 -3q67 0 107 75l6 12l-116 559h154l57 -421l205 421h153z" />
    <glyph glyph-name="Amacron" unicode="&#x100;" horiz-adv-x="680" 
d="M578 759h-273l13 76h273zM457 208h-235l-104 -208h-149l366 690h183l119 -690h-149zM441 317l-38 251l-126 -251h164z" />
    <glyph glyph-name="amacron" unicode="&#x101;" horiz-adv-x="552" 
d="M476 592h-273l13 77h273zM325 546q100 0 147 -38t47 -103q0 -29 -13 -100l-30 -170q-10 -57 -14 -135h-135l3 78l-35 -53q-51 -39 -135 -39q-64 0 -106 36t-42 104q0 102 97.5 155t263.5 43l1 8q6 36 6 57q0 60 -67 60q-89 0 -111 -90l-134 -1q17 88 87 138t170 50z
M227 83q40 0 76.5 31.5t45.5 81.5l8 45q-87 9 -143.5 -16.5t-56.5 -80.5q0 -30 19 -45.5t51 -15.5z" />
    <glyph glyph-name="Abreve" unicode="&#x102;" horiz-adv-x="680" 
d="M436 725q-61 0 -84 35.5t-14 86.5h73q-6 -50 37 -50q45 0 57 50h73q-10 -60 -48 -91t-94 -31zM457 208h-235l-104 -208h-149l366 690h183l119 -690h-149zM441 317l-38 251l-126 -251h164z" />
    <glyph glyph-name="abreve" unicode="&#x103;" horiz-adv-x="552" 
d="M334 567q-64 0 -85.5 35.5t-11.5 90.5h74q-7 -55 36 -55q44 0 57 55h74q-12 -63 -50 -94.5t-94 -31.5zM325 546q100 0 147 -38t47 -103q0 -29 -13 -100l-30 -170q-10 -57 -14 -135h-135l3 78l-35 -53q-51 -39 -135 -39q-64 0 -106 36t-42 104q0 102 97.5 155t263.5 43
l1 8q6 36 6 57q0 60 -67 60q-89 0 -111 -90l-134 -1q17 88 87 138t170 50zM227 83q40 0 76.5 31.5t45.5 81.5l8 45q-87 9 -143.5 -16.5t-56.5 -80.5q0 -30 19 -45.5t51 -15.5z" />
    <glyph glyph-name="Aogonek" unicode="&#x104;" horiz-adv-x="680" 
d="M498 -102q0 -41 36 -41q27 0 52 18l-11 -58q-48 -40 -121 -40q-41 0 -66.5 18.5t-25.5 57.5q0 98 125 155l-30 200h-235l-104 -208h-149l366 690h183l119 -690h-54q-36 -4 -60.5 -37t-24.5 -65zM441 317l-38 251l-126 -251h164z" />
    <glyph glyph-name="aogonek" unicode="&#x105;" horiz-adv-x="552" 
d="M325 546q100 0 147 -38t47 -103q0 -29 -13 -100l-30 -170q-10 -57 -14 -135h-39q-36 -4 -60.5 -37t-24.5 -65q0 -41 36 -41q27 0 52 18l-11 -58q-48 -40 -121 -40q-41 0 -66.5 18.5t-25.5 57.5q0 99 125 155l3 70l-35 -53q-51 -39 -135 -39q-64 0 -106 36t-42 104
q0 102 97.5 155t263.5 43l1 8q6 36 6 57q0 60 -67 60q-89 0 -111 -90l-134 -1q17 88 87 138t170 50zM227 83q40 0 76.5 31.5t45.5 81.5l8 45q-87 9 -143.5 -16.5t-56.5 -80.5q0 -30 19 -45.5t51 -15.5z" />
    <glyph glyph-name="Cacute" unicode="&#x106;" horiz-adv-x="745" 
d="M456 704q136 0 205 -66t61 -172l-1 -10h-138v10q-1 135 -142 135q-68 0 -122 -42t-83 -116l20 24h124l-139 -112h-28q-5 -38 -5 -72q0 -98 40 -146t108 -48q128 0 182 140l4 10h137l-3 -10q-32 -115 -119.5 -179t-218.5 -64q-130 0 -204 75t-74 210q0 190 114.5 311.5
t281.5 121.5z" />
    <glyph glyph-name="cacute" unicode="&#x107;" horiz-adv-x="572" 
d="M379 574h-78l99 118h124zM341 544q109 0 163 -55.5t54 -150.5h-136q-3 109 -96 109q-69 0 -112.5 -69t-43.5 -172q0 -60 25.5 -91.5t67.5 -31.5q96 0 132 101h138q-74 -198 -283 -198q-103 0 -165 55.5t-62 164.5q0 142 87.5 240t230.5 98z" />
    <glyph glyph-name="Cdotaccent" unicode="&#x10a;" horiz-adv-x="745" 
d="M456 704q136 0 205 -66t61 -172l-1 -10h-138v10q-1 135 -142 135q-58 0 -106.5 -31t-79.5 -87q35 -14 35 -55q0 -30 -21 -54t-57 -25q-4 -28 -4 -66q0 -98 40 -146t108 -48q128 0 182 140l4 10h137l-3 -10q-32 -115 -119.5 -179t-218.5 -64q-130 0 -204 75t-74 210
q0 190 114.5 311.5t281.5 121.5z" />
    <glyph glyph-name="cdotaccent" unicode="&#x10b;" horiz-adv-x="572" 
d="M372 730q30 0 48 -17t18 -45q0 -34 -23.5 -59t-62.5 -25q-31 0 -48.5 16.5t-17.5 45.5q0 34 23.5 59t62.5 25zM341 544q109 0 163 -55.5t54 -150.5h-136q-3 109 -96 109q-69 0 -112.5 -69t-43.5 -172q0 -60 25.5 -91.5t67.5 -31.5q96 0 132 101h138q-74 -198 -283 -198
q-103 0 -165 55.5t-62 164.5q0 142 87.5 240t230.5 98z" />
    <glyph glyph-name="Ccaron" unicode="&#x10c;" horiz-adv-x="745" 
d="M456 704q136 0 205 -66t61 -172l-1 -10h-138v10q-1 135 -142 135q-73 0 -130 -48.5t-84 -134.5l33 49h87l-84 -112h-50q-5 -38 -5 -72q0 -98 40 -146t108 -48q128 0 182 140l4 10h137l-3 -10q-32 -115 -119.5 -179t-218.5 -64q-130 0 -204 75t-74 210q0 190 114.5 311.5
t281.5 121.5z" />
    <glyph glyph-name="ccaron" unicode="&#x10d;" horiz-adv-x="572" 
d="M293 574l-43 118h86l20 -67l46 67h85l-86 -118h-108zM263 83q96 0 132 101h138q-74 -198 -283 -198q-103 0 -165 55.5t-62 164.5q0 142 87.5 240t230.5 98q109 0 163 -55.5t54 -150.5h-136q-3 109 -96 109q-69 0 -112.5 -69t-43.5 -172q0 -60 25.5 -91.5t67.5 -31.5z" />
    <glyph glyph-name="Dcaron" unicode="&#x10e;" horiz-adv-x="728" 
d="M366 735l-45 112h87l20 -65l44 65h87l-84 -112h-109zM467 686q109 -11 177 -84.5t68 -206.5q0 -98 -38.5 -181t-122.5 -141.5t-200 -69.5q-36 -3 -89 -3h-227l122 690h218q58 0 92 -4zM344 111q109 14 164.5 92t55.5 188q0 88 -37.5 134t-103.5 54q-33 3 -69 3h-78
l-84 -473h81q48 0 71 2z" />
    <glyph glyph-name="dcaron" unicode="&#x10f;" horiz-adv-x="649" 
d="M669 735l-130 -735h-138l14 81l-50 -58q-53 -37 -138 -37q-99 0 -152 56.5t-53 156.5q0 67 20 128t57.5 110.5t99 79t138.5 29.5q81 0 120 -34l25 -56l49 279h138zM848 735v-9l-104 -155h-75l80 164h99zM447 260l5 26q12 69 -14.5 116t-95.5 47q-77 0 -125 -69t-48 -163
q0 -65 28.5 -99.5t80.5 -34.5q62 0 107.5 43t61.5 134z" />
    <glyph glyph-name="Dcroat" unicode="&#x110;" horiz-adv-x="728" 
d="M467 686q109 -11 177 -84.5t68 -206.5q0 -98 -38.5 -181t-122.5 -141.5t-200 -69.5q-36 -3 -89 -3h-227l53 298h-76l14 78h75l56 314h218q58 0 92 -4zM344 111q109 14 164.5 92t55.5 188q0 88 -37.5 134t-103.5 54q-33 3 -69 3h-78l-37 -206h111l-14 -78h-111l-33 -189
h81q48 0 71 2z" />
    <glyph glyph-name="dcroat" unicode="&#x111;" horiz-adv-x="650" 
d="M683 584h-41l-103 -584h-138l14 81l-50 -58q-53 -37 -138 -37q-99 0 -152 56.5t-53 156.5q0 67 20 128t57.5 110.5t99 79t138.5 29.5q81 0 120 -34l25 -56l22 128h-119l14 78h119l13 73h138l-13 -73h41zM447 260l5 26q12 69 -14.5 116t-95.5 47q-77 0 -125 -69t-48 -163
q0 -65 28.5 -99.5t80.5 -34.5q62 0 107.5 43t61.5 134z" />
    <glyph glyph-name="Emacron" unicode="&#x112;" horiz-adv-x="612" 
d="M555 759h-273l13 76h273zM276 582l-32 -182h325l-19 -109h-326l-32 -182h360l-20 -109h-497l122 690h487l-19 -108h-349z" />
    <glyph glyph-name="emacron" unicode="&#x113;" horiz-adv-x="580" 
d="M491 592h-273l13 77h273zM165 230l-1 -27q0 -120 98 -120q45 0 79 24t48 66h138q-32 -91 -105.5 -139t-172.5 -48q-101 0 -163.5 54t-62.5 162q0 144 84.5 244t226.5 100q108 0 166 -58.5t58 -151.5q0 -52 -17 -106h-376zM320 449q-100 0 -140 -129h237q1 9 1 23
q0 50 -25.5 78t-72.5 28z" />
    <glyph glyph-name="Edotaccent" unicode="&#x116;" horiz-adv-x="612" 
d="M415 729q-28 0 -45 16t-17 43q0 31 22.5 55t59.5 24q28 0 45 -16t17 -43q0 -31 -22.5 -55t-59.5 -24zM276 582l-32 -182h325l-19 -109h-326l-32 -182h360l-20 -109h-497l122 690h487l-19 -108h-349z" />
    <glyph glyph-name="edotaccent" unicode="&#x117;" horiz-adv-x="580" 
d="M356 584q-31 0 -48.5 16.5t-17.5 45.5q0 34 23.5 59t62.5 25q30 0 48 -17t18 -45q0 -34 -23.5 -59t-62.5 -25zM165 230l-1 -27q0 -120 98 -120q45 0 79 24t48 66h138q-32 -91 -105.5 -139t-172.5 -48q-101 0 -163.5 54t-62.5 162q0 144 84.5 244t226.5 100
q108 0 166 -58.5t58 -151.5q0 -52 -17 -106h-376zM320 449q-100 0 -140 -129h237q1 9 1 23q0 50 -25.5 78t-72.5 28z" />
    <glyph glyph-name="Eogonek" unicode="&#x118;" horiz-adv-x="612" 
d="M276 582l-32 -182h325l-19 -109h-326l-32 -182h360l-20 -109h-27q-36 -4 -60.5 -37t-24.5 -65q0 -41 36 -41q27 0 52 18l-11 -58q-48 -40 -121 -40q-41 0 -66.5 18.5t-25.5 57.5q0 92 109 147h-358l122 690h487l-19 -108h-349z" />
    <glyph glyph-name="eogonek" unicode="&#x119;" horiz-adv-x="580" 
d="M165 230l-1 -27q0 -120 98 -120q45 0 79 24t48 66h138q-27 -79 -87 -125.5t-141 -58.5q-24 -14 -38.5 -40.5t-14.5 -50.5q0 -41 36 -41q27 0 52 18l-11 -58q-48 -40 -121 -40q-41 0 -66.5 18.5t-25.5 57.5q0 82 90 137q-81 12 -129 65t-48 147q0 144 84.5 244t226.5 100
q108 0 166 -58.5t58 -151.5q0 -52 -17 -106h-376zM320 449q-100 0 -140 -129h237q1 9 1 23q0 50 -25.5 78t-72.5 28z" />
    <glyph glyph-name="Ecaron" unicode="&#x11a;" horiz-adv-x="612" 
d="M361 735l-45 112h87l20 -65l44 65h87l-84 -112h-109zM276 582l-32 -182h325l-19 -109h-326l-32 -182h360l-20 -109h-497l122 690h487l-19 -108h-349z" />
    <glyph glyph-name="ecaron" unicode="&#x11b;" horiz-adv-x="580" 
d="M297 574l-43 118h86l20 -67l46 67h85l-86 -118h-108zM165 230l-1 -27q0 -120 98 -120q45 0 79 24t48 66h138q-32 -91 -105.5 -139t-172.5 -48q-101 0 -163.5 54t-62.5 162q0 144 84.5 244t226.5 100q108 0 166 -58.5t58 -151.5q0 -52 -17 -106h-376zM320 449
q-100 0 -140 -129h237q1 9 1 23q0 50 -25.5 78t-72.5 28z" />
    <glyph glyph-name="Gbreve" unicode="&#x11e;" horiz-adv-x="769" 
d="M513 725q-61 0 -84 35.5t-14 86.5h73q-6 -50 37 -50q45 0 57 50h73q-10 -60 -48 -91t-94 -31zM472 704q135 0 199.5 -65.5t56.5 -172.5l-1 -10h-138v10q-1 70 -34.5 102.5t-102.5 32.5q-102 0 -173 -88t-71 -229q0 -94 40.5 -144.5t109.5 -50.5q67 0 118.5 41t73.5 114
h-146l20 108h278l-62 -352h-111l10 111l-43 -69q-66 -56 -178 -56q-122 0 -190.5 75.5t-68.5 205.5q0 98 33.5 181t90.5 138.5t132 86.5t157 31z" />
    <glyph glyph-name="gbreve" unicode="&#x11f;" horiz-adv-x="649" 
d="M385 567q-64 0 -85.5 35.5t-11.5 90.5h74q-7 -55 36 -55q44 0 57 55h74q-12 -63 -50 -94.5t-94 -31.5zM633 532l-70 -399q-10 -52 -20 -103q-26 -125 -105 -185.5t-220 -60.5q-111 0 -170.5 47.5t-52.5 134.5l1 10h135l-1 -9q-2 -37 26.5 -58.5t82.5 -21.5
q64 0 106.5 32.5t57.5 95.5l13 65l1 6l-52 -60q-53 -37 -138 -37q-98 0 -151.5 57t-53.5 153q0 67 20 128t57.5 110.5t99 79t138.5 29.5q81 0 120 -34l25 -57l14 77h137zM278 86q62 0 107.5 41.5t61.5 132.5l-1 -9l7 40l-1 -5q12 69 -14.5 116t-95.5 47q-77 0 -125 -69
t-48 -163q0 -64 28 -97.5t81 -33.5z" />
    <glyph glyph-name="Gdotaccent" unicode="&#x120;" horiz-adv-x="769" 
d="M516 729q-28 0 -45 16t-17 43q0 31 22.5 55t59.5 24q28 0 45 -16t17 -43q0 -31 -22.5 -55t-59.5 -24zM472 704q135 0 199.5 -65.5t56.5 -172.5l-1 -10h-138v10q-1 70 -34.5 102.5t-102.5 32.5q-102 0 -173 -88t-71 -229q0 -94 40.5 -144.5t109.5 -50.5q67 0 118.5 41
t73.5 114h-146l20 108h278l-62 -352h-111l10 111l-43 -69q-66 -56 -178 -56q-122 0 -190.5 75.5t-68.5 205.5q0 98 33.5 181t90.5 138.5t132 86.5t157 31z" />
    <glyph glyph-name="gdotaccent" unicode="&#x121;" horiz-adv-x="649" 
d="M393 584q-31 0 -48.5 16.5t-17.5 45.5q0 34 23.5 59t62.5 25q30 0 48 -17t18 -45q0 -34 -23.5 -59t-62.5 -25zM633 532l-70 -399q-10 -52 -20 -103q-26 -125 -105 -185.5t-220 -60.5q-111 0 -170.5 47.5t-52.5 134.5l1 10h135l-1 -9q-2 -37 26.5 -58.5t82.5 -21.5
q64 0 106.5 32.5t57.5 95.5l13 65l1 6l-52 -60q-53 -37 -138 -37q-98 0 -151.5 57t-53.5 153q0 67 20 128t57.5 110.5t99 79t138.5 29.5q81 0 120 -34l25 -57l14 77h137zM278 86q62 0 107.5 41.5t61.5 132.5l-1 -9l7 40l-1 -5q12 69 -14.5 116t-95.5 47q-77 0 -125 -69
t-48 -163q0 -64 28 -97.5t81 -33.5z" />
    <glyph glyph-name="Gcommaaccent" unicode="&#x122;" horiz-adv-x="769" 
d="M472 704q135 0 199.5 -65.5t56.5 -172.5l-1 -10h-138v10q-1 70 -34.5 102.5t-102.5 32.5q-102 0 -173 -88t-71 -229q0 -94 40.5 -144.5t109.5 -50.5q67 0 118.5 41t73.5 114h-146l20 108h278l-62 -352h-111l10 111l-43 -69q-66 -56 -178 -56q-122 0 -190.5 75.5
t-68.5 205.5q0 98 33.5 181t90.5 138.5t132 86.5t157 31zM270 -43h99v-9l-104 -155h-75z" />
    <glyph glyph-name="gcommaaccent" unicode="&#x123;" horiz-adv-x="649" 
d="M426 573h-99v9l105 155h74zM633 532l-70 -399q-10 -52 -20 -103q-26 -125 -105 -185.5t-220 -60.5q-111 0 -170.5 47.5t-52.5 134.5l1 10h135l-1 -9q-2 -37 26.5 -58.5t82.5 -21.5q64 0 106.5 32.5t57.5 95.5l13 65l1 6l-52 -60q-53 -37 -138 -37q-98 0 -151.5 57
t-53.5 153q0 67 20 128t57.5 110.5t99 79t138.5 29.5q81 0 120 -34l25 -57l14 77h137zM278 86q62 0 107.5 41.5t61.5 132.5l-1 -9l7 40l-1 -5q12 69 -14.5 116t-95.5 47q-77 0 -125 -69t-48 -163q0 -64 28 -97.5t81 -33.5z" />
    <glyph glyph-name="Hbar" unicode="&#x126;" horiz-adv-x="747" 
d="M759 491h-39l-87 -491h-138l50 283h-323l-50 -283h-138l87 491h-39l14 78h39l21 121h138l-21 -121h323l21 121h138l-21 -121h39zM581 491h-323l-17 -98h323z" />
    <glyph glyph-name="hbar" unicode="&#x127;" horiz-adv-x="637" 
d="M436 546q79 0 120.5 -37t41.5 -99q0 -37 -13 -106l-54 -304h-138l50 279q11 61 11 87q0 83 -86 83q-118 -2 -156 -208l-42 -241h-138l103 584h-56l14 78h55l14 78h138l-14 -78h104l-14 -78h-104l-23 -134l52 59q60 37 135 37z" />
    <glyph glyph-name="Imacron" unicode="&#x12a;" horiz-adv-x="287" 
d="M375 759h-273l13 76h273zM173 0h-138l122 690h138z" />
    <glyph glyph-name="imacron" unicode="&#x12b;" horiz-adv-x="265" 
d="M329 592h-273l13 77h273zM155 0h-138l95 532h137z" />
    <glyph glyph-name="Iogonek" unicode="&#x12e;" horiz-adv-x="287" 
d="M173 0h-43q-36 -4 -60.5 -37t-24.5 -65q0 -41 36 -41q27 0 52 18l-11 -58q-48 -40 -121 -40q-41 0 -66.5 18.5t-25.5 57.5q0 48 32.5 88t93.5 67h1l121 682h138z" />
    <glyph glyph-name="iogonek" unicode="&#x12f;" horiz-adv-x="265" 
d="M215 730q30 0 48 -17t18 -45q0 -34 -23.5 -59t-62.5 -25q-31 0 -48.5 16.5t-17.5 45.5q0 34 23.5 59t62.5 25zM112 532h137l-94 -532h-42q-36 -4 -60.5 -37t-24.5 -65q0 -41 36 -41q27 0 52 18l-11 -58q-48 -40 -121 -40q-41 0 -66.5 18.5t-25.5 57.5q0 48 32.5 88
t93.5 67z" />
    <glyph glyph-name="Idotaccent" unicode="&#x130;" horiz-adv-x="287" 
d="M255 867q28 0 45 -16t17 -43q0 -31 -22.5 -55t-59.5 -24q-28 0 -45 16t-17 43q0 31 22.5 55t59.5 24zM173 0h-138l122 690h138z" />
    <glyph glyph-name="dotlessi" unicode="&#x131;" horiz-adv-x="265" 
d="M155 0h-138l95 532h137z" />
    <glyph glyph-name="IJ" unicode="&#x132;" horiz-adv-x="873" 
d="M173 0h-138l122 690h138zM880 690l-71 -407q-8 -48 -20 -95q-46 -202 -277 -202q-111 0 -165.5 62t-39.5 168l5 35h138l-4 -35q-15 -127 88 -127q92 0 120 107q6 21 15 73l74 421h137z" />
    <glyph glyph-name="ij" unicode="&#x133;" horiz-adv-x="505" 
d="M215 730q30 0 48 -17t18 -45q0 -34 -23.5 -59t-62.5 -25q-31 0 -48.5 16.5t-17.5 45.5q0 34 23.5 59t62.5 25zM458 730q33 0 51.5 -17t18.5 -44q0 -40 -22.5 -62.5t-62.5 -22.5q-33 0 -51.5 16.5t-18.5 43.5q0 41 22.5 63.5t62.5 22.5zM155 0h-138l95 532h137zM498 532
l-95 -544q-10 -49 -14 -64q-17 -66 -64.5 -100t-136.5 -34q-27 0 -51 3l18 98q81 -9 99 48q7 25 11 51l95 542h138z" />
    <glyph glyph-name="Kcommaaccent" unicode="&#x136;" horiz-adv-x="676" 
d="M374 352l249 -352h-170l-184 282l-55 -51l-41 -231h-138l122 690h138l-57 -320l353 320h165zM251 -43h99v-9l-104 -155h-75z" />
    <glyph glyph-name="kcommaaccent" unicode="&#x137;" horiz-adv-x="585" 
d="M350 283l198 -283h-167l-139 215l-58 -51l-29 -164h-138l130 735h138l-78 -443l256 240h166zM208 -43h99v-9l-104 -155h-75z" />
    <glyph glyph-name="Lacute" unicode="&#x139;" horiz-adv-x="599" 
d="M267 735h-78l93 112h124zM553 115l-21 -115h-497l122 690h138l-102 -575h360z" />
    <glyph glyph-name="lacute" unicode="&#x13a;" horiz-adv-x="280" 
d="M247 781h-78l99 118h124zM281 735l-100 -561q-7 -42 -7 -53q0 -22 12.5 -29t42.5 -5l-16 -89q-30 -5 -80 -5q-53 0 -78.5 17t-25.5 57q0 31 14 104l100 564h138z" />
    <glyph glyph-name="Lcommaaccent" unicode="&#x13b;" horiz-adv-x="599" 
d="M553 115l-21 -115h-497l122 690h138l-102 -575h360zM235 -43h99v-9l-104 -155h-75z" />
    <glyph glyph-name="lcommaaccent" unicode="&#x13c;" horiz-adv-x="280" 
d="M281 735l-100 -561q-7 -42 -7 -53q0 -22 12.5 -29t42.5 -5l-16 -89q-30 -5 -80 -5q-53 0 -78.5 17t-25.5 57q0 31 14 104l100 564h138zM151 -52l-104 -155h-75l80 164h99v-9z" />
    <glyph glyph-name="Lcaron" unicode="&#x13d;" horiz-adv-x="599" 
d="M553 115l-21 -115h-497l122 690h138l-102 -575h360z" />
    <glyph glyph-name="lcaron" unicode="&#x13e;" horiz-adv-x="280" 
d="M281 735l-100 -561q-7 -42 -7 -53q0 -22 12.5 -29t42.5 -5l-16 -89q-30 -5 -80 -5q-53 0 -78.5 17t-25.5 57q0 31 14 104l100 564h138z" />
    <glyph glyph-name="Ldot" unicode="&#x13f;" horiz-adv-x="599" 
d="M553 115l-21 -115h-497l122 690h138l-102 -575h360zM411 327q-29 0 -47 17t-18 45q0 36 25.5 60t64.5 24q29 0 47 -17t18 -45q0 -36 -25.5 -60t-64.5 -24z" />
    <glyph glyph-name="ldot" unicode="&#x140;" horiz-adv-x="414" 
d="M281 735l-100 -561q-7 -42 -7 -53q0 -22 12.5 -29t42.5 -5l-16 -89q-30 -5 -80 -5q-53 0 -78.5 17t-25.5 57q0 31 14 104l100 564h138zM365 481q29 0 48 -17t19 -46q0 -43 -26.5 -70t-68.5 -27q-29 0 -48.5 17t-19.5 46q0 43 27 70t69 27z" />
    <glyph glyph-name="Lslash" unicode="&#x141;" horiz-adv-x="639" 
d="M593 115l-20 -115h-498l51 286l-111 -56l16 92l111 56l55 312h138l-42 -235l114 57l-17 -92l-113 -57l-44 -248h360z" />
    <glyph glyph-name="lslash" unicode="&#x142;" horiz-adv-x="314" 
d="M231 318l-26 -144q-7 -42 -7 -53q0 -23 12.5 -29.5t43.5 -4.5l-16 -89q-31 -5 -81 -5q-52 0 -77.5 17t-25.5 57q0 29 13 104l11 62l-70 -39l17 95l70 39l72 407h138l-57 -322l68 38l-17 -95z" />
    <glyph glyph-name="Nacute" unicode="&#x143;" horiz-adv-x="755" 
d="M504 735h-78l93 112h124zM763 690l-122 -690h-189l-188 524l-91 -524h-138l122 690h183l192 -537l93 537h138z" />
    <glyph glyph-name="nacute" unicode="&#x144;" horiz-adv-x="621" 
d="M401 574h-78l99 118h124zM421 546q79 0 120.5 -37t41.5 -99q0 -37 -13 -106l-54 -304h-138l50 279q11 61 11 87q0 83 -86 83q-55 -1 -96 -51.5t-60 -156.5l-42 -241h-138l94 532h137l-14 -81l52 58q59 37 135 37z" />
    <glyph glyph-name="Ncommaaccent" unicode="&#x145;" horiz-adv-x="755" 
d="M763 690l-122 -690h-189l-188 524l-91 -524h-138l122 690h183l192 -537l93 537h138zM295 -43h99v-9l-104 -155h-75z" />
    <glyph glyph-name="ncommaaccent" unicode="&#x146;" horiz-adv-x="621" 
d="M421 546q79 0 120.5 -37t41.5 -99q0 -37 -13 -106l-54 -304h-138l50 279q11 61 11 87q0 83 -86 83q-55 -1 -96 -51.5t-60 -156.5l-42 -241h-138l94 532h137l-14 -81l52 58q59 37 135 37zM218 -43h99v-9l-104 -155h-75z" />
    <glyph glyph-name="Ncaron" unicode="&#x147;" horiz-adv-x="755" 
d="M417 735l-45 112h87l20 -65l44 65h87l-84 -112h-109zM763 690l-122 -690h-189l-188 524l-91 -524h-138l122 690h183l192 -537l93 537h138z" />
    <glyph glyph-name="ncaron" unicode="&#x148;" horiz-adv-x="621" 
d="M315 574l-43 118h86l20 -67l46 67h85l-86 -118h-108zM421 546q79 0 120.5 -37t41.5 -99q0 -37 -13 -106l-54 -304h-138l50 279q11 61 11 87q0 83 -86 83q-55 -1 -96 -51.5t-60 -156.5l-42 -241h-138l94 532h137l-14 -81l52 58q59 37 135 37z" />
    <glyph glyph-name="Eng" unicode="&#x14a;" horiz-adv-x="756" 
d="M763 690l-132 -752q-12 -67 -33 -99.5t-68 -47t-138 -14.5l18 104q41 2 59.5 17.5t24.5 45.5l5 31l-237 545l-88 -520h-138l121 690h183l202 -494l83 494h138z" />
    <glyph glyph-name="eng" unicode="&#x14b;" horiz-adv-x="621" 
d="M421 546q79 0 120.5 -37t41.5 -99q0 -37 -13 -106l-57 -322q-5 -25 -13 -48q-24 -66 -72 -87t-153 -21l18 104q41 0 59 12.5t23 42.5l53 294q11 61 11 87q0 83 -86 83q-55 -1 -96 -51.5t-60 -156.5l-42 -241h-138l94 532h137l-14 -81l52 58q59 37 135 37z" />
    <glyph glyph-name="Omacron" unicode="&#x14c;" horiz-adv-x="781" 
d="M623 759h-273l13 76h273zM458 704q144 0 225.5 -84.5t81.5 -214.5q0 -181 -108 -300t-288 -119q-144 0 -225.5 84.5t-81.5 214.5q0 181 108 300t288 119zM380 89q76 0 132.5 50t81 119t24.5 144q0 90 -45.5 144.5t-125.5 54.5q-76 0 -132.5 -50t-81 -119t-24.5 -144
q0 -90 45 -144.5t126 -54.5z" />
    <glyph glyph-name="omacron" unicode="&#x14d;" horiz-adv-x="616" 
d="M503 592h-273l13 77h273zM345 546q121 0 183.5 -65.5t62.5 -170.5q0 -61 -20 -118t-58 -103.5t-100.5 -74.5t-140.5 -28q-121 0 -184 65.5t-63 170.5q0 61 20 118t58 103.5t100.5 74.5t141.5 28zM284 83q75 0 118 67.5t43 156.5q0 63 -28.5 102.5t-83.5 39.5
q-76 0 -118.5 -67t-42.5 -157q0 -63 28.5 -102.5t83.5 -39.5z" />
    <glyph glyph-name="Ohungarumlaut" unicode="&#x150;" horiz-adv-x="781" 
d="M413 736h-78l94 111h124zM501 736l93 111h124l-139 -111h-78zM458 704q144 0 225.5 -84.5t81.5 -214.5q0 -181 -108 -300t-288 -119q-144 0 -225.5 84.5t-81.5 214.5q0 181 108 300t288 119zM380 89q76 0 132.5 50t81 119t24.5 144q0 90 -45.5 144.5t-125.5 54.5
q-76 0 -132.5 -50t-81 -119t-24.5 -144q0 -90 45 -144.5t126 -54.5z" />
    <glyph glyph-name="ohungarumlaut" unicode="&#x151;" horiz-adv-x="616" 
d="M300 574h-78l98 118h124zM393 574l98 118h124l-144 -118h-78zM345 546q121 0 183.5 -65.5t62.5 -170.5q0 -61 -20 -118t-58 -103.5t-100.5 -74.5t-140.5 -28q-121 0 -184 65.5t-63 170.5q0 61 20 118t58 103.5t100.5 74.5t141.5 28zM284 83q75 0 118 67.5t43 156.5
q0 63 -28.5 102.5t-83.5 39.5q-76 0 -118.5 -67t-42.5 -157q0 -63 28.5 -102.5t83.5 -39.5z" />
    <glyph glyph-name="OE" unicode="&#x152;" horiz-adv-x="1128" 
d="M791 582l-32 -182h325l-19 -109h-326l-32 -182h360l-19 -109h-498l21 117l-41 -67q-45 -36 -91.5 -50t-113.5 -14q-123 0 -194 74.5t-71 215.5q0 76 24.5 150t70.5 137t123 102t173 39q71 0 111 -14t71 -51l18 -68l21 119h488l-20 -108h-349zM370 89q91 0 155 68.5
t86 187.5q10 47 6 92.5t-18 82t-50 59t-89 22.5q-64 0 -115 -30t-80.5 -78t-44.5 -102.5t-15 -109.5q0 -95 43.5 -143.5t121.5 -48.5z" />
    <glyph glyph-name="oe" unicode="&#x153;" horiz-adv-x="988" 
d="M949 230h-377q-1 -12 -1 -29q0 -118 97 -118q45 0 79 23.5t48 66.5h138q-35 -91 -109.5 -139t-171.5 -48q-131 0 -175 105q-81 -105 -220 -105q-113 0 -174 59.5t-61 162.5q0 55 19 111.5t56 108t102.5 84t149.5 32.5q146 0 191 -108q84 108 222 108q99 0 151.5 -57.5
t52.5 -149.5q0 -54 -17 -107zM273 83q58 0 99 42t56.5 94t15.5 103q0 58 -27.5 91.5t-78.5 33.5q-58 0 -98.5 -40t-56.5 -91t-16 -103q0 -60 28 -95t78 -35zM735 447q-49 0 -86 -32t-56 -95h232q2 10 2 24q0 103 -92 103z" />
    <glyph glyph-name="Racute" unicode="&#x154;" horiz-adv-x="645" 
d="M434 735h-78l93 112h124zM661 535q0 -80 -47 -132t-128 -72q44 -15 61 -61t17 -147q0 -82 20 -123h-149q-8 43 -9 169q0 102 -70 108q-18 1 -53 1h-81l-49 -278h-138l122 690h252q57 0 100 -5q69 -8 110.5 -45t41.5 -105zM393 382q51 5 84 34.5t33 85.5q0 69 -76 77
q-24 3 -57 3h-101l-36 -201h96q40 0 57 1z" />
    <glyph glyph-name="racute" unicode="&#x155;" horiz-adv-x="374" 
d="M280 574h-78l99 118h124zM231 433l57 76q43 36 97 36q22 0 38 -4l-20 -111q-168 16 -205 -186l-43 -244h-138l93 530h138z" />
    <glyph glyph-name="Rcommaaccent" unicode="&#x156;" horiz-adv-x="645" 
d="M661 535q0 -80 -47 -132t-128 -72q44 -15 61 -61t17 -147q0 -82 20 -123h-149q-8 43 -9 169q0 102 -70 108q-18 1 -53 1h-81l-49 -278h-138l122 690h252q57 0 100 -5q69 -8 110.5 -45t41.5 -105zM393 382q51 5 84 34.5t33 85.5q0 69 -76 77q-24 3 -57 3h-101l-36 -201h96
q40 0 57 1zM221 -43h99v-9l-104 -155h-75z" />
    <glyph glyph-name="rcommaaccent" unicode="&#x157;" horiz-adv-x="374" 
d="M385 545q22 0 38 -4l-20 -111q-168 16 -205 -186l-43 -244h-138l93 530h138l-17 -97l57 76q43 36 97 36zM40 -43h99v-9l-104 -155h-75z" />
    <glyph glyph-name="Rcaron" unicode="&#x158;" horiz-adv-x="645" 
d="M347 735l-45 112h87l20 -65l44 65h87l-84 -112h-109zM661 535q0 -80 -47 -132t-128 -72q44 -15 61 -61t17 -147q0 -82 20 -123h-149q-8 43 -9 169q0 102 -70 108q-18 1 -53 1h-81l-49 -278h-138l122 690h252q57 0 100 -5q69 -8 110.5 -45t41.5 -105zM393 382
q51 5 84 34.5t33 85.5q0 69 -76 77q-24 3 -57 3h-101l-36 -201h96q40 0 57 1z" />
    <glyph glyph-name="rcaron" unicode="&#x159;" horiz-adv-x="374" 
d="M194 574l-43 118h86l20 -67l46 67h85l-86 -118h-108zM385 545q22 0 38 -4l-20 -111q-168 16 -205 -186l-43 -244h-138l93 530h138l-17 -97l57 76q43 36 97 36z" />
    <glyph glyph-name="Sacute" unicode="&#x15a;" horiz-adv-x="599" 
d="M408 735h-78l93 112h124zM371 704q118 0 174.5 -60t50.5 -157h-140q3 53 -23.5 83.5t-79.5 30.5q-49 0 -79.5 -26t-30.5 -72q0 -35 29.5 -57.5t99.5 -39.5q187 -46 187 -187q0 -108 -85.5 -170.5t-210.5 -62.5q-121 0 -188.5 56t-58.5 162h140q1 -55 35 -85t89 -30
q56 0 92.5 28t36.5 76q0 70 -120 101q-96 24 -145.5 64.5t-49.5 111.5q0 107 81 170.5t196 63.5z" />
    <glyph glyph-name="sacute" unicode="&#x15b;" horiz-adv-x="486" 
d="M326 574h-78l99 118h124zM269 544q100 0 150 -45.5t53 -122.5h-137q-8 77 -71 77q-35 0 -53 -16.5t-18 -42.5q0 -30 22 -47t80 -36q80 -25 116 -62.5t36 -98.5q0 -78 -63.5 -124t-168.5 -46q-107 0 -164.5 48t-61.5 128h138q8 -85 95 -85q35 0 57.5 17.5t22.5 48.5
q0 29 -24 48t-88 41q-72 24 -107 56.5t-35 94.5q0 71 58 119t163 48z" />
    <glyph glyph-name="Scedilla" unicode="&#x15e;" horiz-adv-x="599" 
d="M596 487h-140q3 53 -23.5 83.5t-79.5 30.5q-49 0 -79.5 -26t-30.5 -72q0 -35 29.5 -57.5t99.5 -39.5q187 -46 187 -187q0 -102 -77 -163.5t-193 -68.5l-19 -28q76 -12 76 -72q0 -48 -41.5 -72.5t-105.5 -24.5q-50 0 -71 8l11 56q20 -7 54 -7q67 0 67 37q0 20 -24.5 28.5
t-66.5 3.5l49 72q-101 10 -155.5 65t-46.5 151h140q1 -55 35 -85t89 -30q56 0 92.5 28t36.5 76q0 70 -120 101q-96 24 -145.5 64.5t-49.5 111.5q0 107 81 170.5t196 63.5q118 0 174.5 -60t50.5 -157z" />
    <glyph glyph-name="scedilla" unicode="&#x15f;" horiz-adv-x="486" 
d="M295 311q80 -25 116 -62.5t36 -98.5q0 -77 -62.5 -123t-166.5 -47l-15 -21q77 -12 77 -72q0 -48 -41.5 -72.5t-105.5 -24.5q-49 0 -72 8l11 56q21 -7 54 -7q68 0 68 37q0 20 -24.5 28.5t-66.5 3.5l47 69q-77 14 -117.5 59t-43.5 112h138q8 -85 95 -85q35 0 57.5 17.5
t22.5 48.5q0 29 -24 48t-88 41q-72 24 -107 56.5t-35 94.5q0 71 58 119t163 48q100 0 150 -45.5t53 -122.5h-137q-8 77 -71 77q-35 0 -53 -16.5t-18 -42.5q0 -30 22 -47t80 -36z" />
    <glyph glyph-name="Scaron" unicode="&#x160;" horiz-adv-x="599" 
d="M321 735l-45 112h87l20 -65l44 65h87l-84 -112h-109zM596 487h-140q3 53 -23.5 83.5t-79.5 30.5q-49 0 -79.5 -26t-30.5 -72q0 -35 29.5 -57.5t99.5 -39.5q187 -46 187 -187q0 -108 -85.5 -170.5t-210.5 -62.5q-121 0 -188.5 56t-58.5 162h140q1 -55 35 -85t89 -30
q56 0 92.5 28t36.5 76q0 70 -120 101q-96 24 -145.5 64.5t-49.5 111.5q0 107 81 170.5t196 63.5q118 0 174.5 -60t50.5 -157z" />
    <glyph glyph-name="scaron" unicode="&#x161;" horiz-adv-x="486" 
d="M240 574l-43 118h86l20 -67l46 67h85l-86 -118h-108zM295 311q80 -25 116 -62.5t36 -98.5q0 -78 -63.5 -124t-168.5 -46q-107 0 -164.5 48t-61.5 128h138q8 -85 95 -85q35 0 57.5 17.5t22.5 48.5q0 29 -24 48t-88 41q-72 24 -107 56.5t-35 94.5q0 71 58 119t163 48
q100 0 150 -45.5t53 -122.5h-137q-8 77 -71 77q-35 0 -53 -16.5t-18 -42.5q0 -30 22 -47t80 -36z" />
    <glyph glyph-name="Tcedilla" unicode="&#x162;" horiz-adv-x="623" 
d="M317 0l-29 -41q76 -12 76 -72q0 -48 -41.5 -72.5t-105.5 -24.5q-50 0 -71 8l11 56q20 -7 54 -7q67 0 67 37q0 20 -24.5 28.5t-66.5 3.5l57 84h-34l103 582h-235l20 108h606l-20 -108h-233l-103 -582h-31z" />
    <glyph glyph-name="tcedilla" unicode="&#x163;" horiz-adv-x="354" 
d="M251 437l-44 -246q-7 -42 -7 -58q0 -31 22.5 -40.5t72.5 -2.5l-16 -91q-44 -10 -98 -10h-2l-21 -30q77 -12 77 -72q0 -48 -41.5 -72.5t-105.5 -24.5q-49 0 -72 8l11 56q21 -7 54 -7q68 0 68 37q0 20 -24.5 28.5t-66.5 3.5l55 81q-58 19 -58 83q0 32 12 95l47 262h-76
l16 91h76l23 131h137l-23 -131h105l-16 -91h-105z" />
    <glyph glyph-name="Tcaron" unicode="&#x164;" horiz-adv-x="623" 
d="M356 735l-45 112h87l20 -65l44 65h87l-84 -112h-109zM684 582h-233l-103 -582h-138l103 582h-235l20 108h606z" />
    <glyph glyph-name="tcaron" unicode="&#x165;" horiz-adv-x="354" 
d="M490 743v-8l-105 -155h-74l80 163h99zM267 528h105l-16 -91h-105l-44 -246q-7 -42 -7 -58q0 -31 22.5 -40.5t72.5 -2.5l-16 -91q-44 -10 -98 -10q-66 0 -96 22t-30 69q0 32 12 95l47 262h-76l16 91h76l23 131h137z" />
    <glyph glyph-name="Tbar" unicode="&#x166;" horiz-adv-x="649" 
d="M451 582l-37 -206h105l-14 -78h-104l-53 -298h-138l53 298h-96l14 78h95l37 206h-235l20 108h606l-20 -108h-233z" />
    <glyph glyph-name="tbar" unicode="&#x167;" horiz-adv-x="354" 
d="M251 437l-17 -93h74l-13 -77h-75l-13 -76q-7 -42 -7 -58q0 -31 22.5 -40.5t72.5 -2.5l-16 -91q-44 -10 -98 -10q-66 0 -96 22t-30 69q0 32 12 95l16 92h-61l13 77h62l17 93h-76l16 91h76l23 131h137l-23 -131h105l-16 -91h-105z" />
    <glyph glyph-name="Umacron" unicode="&#x16a;" horiz-adv-x="703" 
d="M589 759h-273l13 76h273zM725 690l-70 -398q-9 -51 -18 -86q-25 -106 -99 -163t-212 -57q-125 0 -189 53t-64 145q0 39 13 117l69 389h138l-74 -420q-8 -44 -8 -71q0 -52 34 -81t93 -29q67 0 106.5 29.5t57.5 98.5q4 15 11 50l74 423h138z" />
    <glyph glyph-name="umacron" unicode="&#x16b;" horiz-adv-x="617" 
d="M512 592h-273l13 77h273zM600 532l-93 -532h-138l15 82l-53 -59q-59 -37 -135 -37q-79 0 -120 37t-41 100q0 41 12 106l55 303h138l-51 -279q-10 -56 -10 -87q0 -83 85 -82q55 1 96.5 51t60.5 156l42 241h137z" />
    <glyph glyph-name="Uring" unicode="&#x16e;" horiz-adv-x="703" 
d="M475 906q43 0 69 -23t26 -58q0 -47 -34.5 -76.5t-87.5 -29.5q-42 0 -68 23t-26 58q0 48 34 77t87 29zM469 853q-19 0 -32.5 -13.5t-13.5 -35.5q0 -14 8.5 -23t23.5 -9q19 0 32.5 13.5t13.5 35.5q0 14 -8.5 23t-23.5 9zM725 690l-70 -398q-9 -51 -18 -86
q-25 -106 -99 -163t-212 -57q-125 0 -189 53t-64 145q0 39 13 117l69 389h138l-74 -420q-8 -44 -8 -71q0 -52 34 -81t93 -29q67 0 106.5 29.5t57.5 98.5q4 15 11 50l74 423h138z" />
    <glyph glyph-name="uring" unicode="&#x16f;" horiz-adv-x="617" 
d="M372 566q-43 0 -68 22t-25 59q0 48 35 80t89 32q42 0 67 -22t25 -59q0 -48 -34.5 -80t-88.5 -32zM394 707q-21 0 -33.5 -17t-12.5 -39q0 -32 32 -32q21 0 33.5 17t12.5 38q0 33 -32 33zM600 532l-93 -532h-138l15 82l-53 -59q-59 -37 -135 -37q-79 0 -120 37t-41 100
q0 41 12 106l55 303h138l-51 -279q-10 -56 -10 -87q0 -83 85 -82q55 1 96.5 51t60.5 156l42 241h137z" />
    <glyph glyph-name="Uhungarumlaut" unicode="&#x170;" horiz-adv-x="703" 
d="M379 736h-78l94 111h124zM545 736h-78l93 111h124zM725 690l-70 -398q-9 -51 -18 -86q-25 -106 -99 -163t-212 -57q-125 0 -189 53t-64 145q0 39 13 117l69 389h138l-74 -420q-8 -44 -8 -71q0 -52 34 -81t93 -29q67 0 106.5 29.5t57.5 98.5q4 15 11 50l74 423h138z" />
    <glyph glyph-name="uhungarumlaut" unicode="&#x171;" horiz-adv-x="617" 
d="M309 574h-78l98 118h124zM402 574l98 118h124l-144 -118h-78zM463 532h137l-93 -532h-138l15 82l-53 -59q-59 -37 -135 -37q-79 0 -120 37t-41 100q0 41 12 106l55 303h138l-51 -279q-10 -56 -10 -87q0 -83 85 -82q55 1 96.5 51t60.5 156z" />
    <glyph glyph-name="Uogonek" unicode="&#x172;" horiz-adv-x="703" 
d="M725 690l-70 -398q-9 -51 -18 -86q-44 -186 -234 -215q-25 -13 -41 -40.5t-16 -52.5q0 -41 36 -41q27 0 52 18l-11 -58q-48 -40 -121 -40q-41 0 -66.5 18.5t-25.5 57.5q0 80 86 134q-111 7 -167 59t-56 138q0 39 13 117l69 389h138l-74 -420q-8 -44 -8 -71q0 -52 34 -81
t93 -29q67 0 106.5 29.5t57.5 98.5q4 15 11 50l74 423h138z" />
    <glyph glyph-name="uogonek" unicode="&#x173;" horiz-adv-x="617" 
d="M507 0h-28q-36 -4 -60.5 -37t-24.5 -65q0 -41 36 -41q27 0 52 18l-11 -58q-48 -40 -121 -40q-41 0 -66.5 18.5t-25.5 57.5q0 93 111 148l15 81l-53 -59q-59 -37 -135 -37q-79 0 -120 37t-41 100q0 41 12 106l55 303h138l-51 -279q-10 -56 -10 -87q0 -83 85 -82
q55 1 96.5 51t60.5 156l42 241h137z" />
    <glyph glyph-name="Wcircumflex" unicode="&#x174;" horiz-adv-x="988" 
d="M562 735h-87l84 112h108l45 -112h-87l-20 64zM1066 690l-303 -690h-183l-21 555l-219 -555h-184l-55 690h145l24 -569l213 559h197l13 -565l221 575h152z" />
    <glyph glyph-name="wcircumflex" unicode="&#x175;" horiz-adv-x="806" 
d="M427 574h-85l85 118h108l44 -118h-86l-21 69zM865 532l-263 -532h-157l-18 406l-162 -406h-157l-75 532h153l22 -409l157 407h167l19 -409l165 411h149z" />
    <glyph glyph-name="Ycircumflex" unicode="&#x176;" horiz-adv-x="637" 
d="M386 735h-87l84 112h108l45 -112h-87l-20 64zM403 264l-47 -264h-138l48 269l-169 421h146l113 -305l210 305h155z" />
    <glyph glyph-name="ycircumflex" unicode="&#x177;" horiz-adv-x="544" 
d="M289 574h-85l85 118h108l44 -118h-86l-21 69zM602 532l-299 -532q-68 -120 -124.5 -165t-140.5 -45q-28 0 -60 5l16 94q21 -3 42 -3q67 0 107 75l6 12l-116 559h154l57 -421l205 421h153z" />
    <glyph glyph-name="Ydieresis" unicode="&#x178;" horiz-adv-x="637" 
d="M332 729q-26 0 -40.5 13.5t-14.5 37.5q0 31 21.5 50.5t48.5 19.5q25 0 39.5 -13.5t14.5 -37.5q0 -30 -21.5 -50t-47.5 -20zM505 729q-26 0 -40.5 13.5t-14.5 37.5q0 31 21.5 50.5t48.5 19.5q25 0 39.5 -13.5t14.5 -37.5q0 -30 -21.5 -50t-47.5 -20zM403 264l-47 -264
h-138l48 269l-169 421h146l113 -305l210 305h155z" />
    <glyph glyph-name="Zacute" unicode="&#x179;" horiz-adv-x="622" 
d="M442 735h-78l93 112h124zM647 583l-452 -474h374l-20 -109h-546l18 105l456 477h-344l20 108h513z" />
    <glyph glyph-name="zacute" unicode="&#x17a;" horiz-adv-x="512" 
d="M341 574h-78l99 118h124zM507 437l-346 -345h292l-16 -92h-457l15 87l349 349h-264l15 92h428z" />
    <glyph glyph-name="Zdotaccent" unicode="&#x17b;" horiz-adv-x="622" 
d="M410 729q-28 0 -45 16t-17 43q0 31 22.5 55t59.5 24q28 0 45 -16t17 -43q0 -31 -22.5 -55t-59.5 -24zM647 583l-452 -474h374l-20 -109h-546l18 105l456 477h-344l20 108h513z" />
    <glyph glyph-name="zdotaccent" unicode="&#x17c;" horiz-adv-x="512" 
d="M314 584q-31 0 -48.5 16.5t-17.5 45.5q0 34 23.5 59t62.5 25q30 0 48 -17t18 -45q0 -34 -23.5 -59t-62.5 -25zM507 437l-346 -345h292l-16 -92h-457l15 87l349 349h-264l15 92h428z" />
    <glyph glyph-name="Zcaron" unicode="&#x17d;" horiz-adv-x="622" 
d="M355 735l-45 112h87l20 -65l44 65h87l-84 -112h-109zM647 583l-452 -474h374l-20 -109h-546l18 105l456 477h-344l20 108h513z" />
    <glyph glyph-name="zcaron" unicode="&#x17e;" horiz-adv-x="512" 
d="M255 574l-43 118h86l20 -67l46 67h85l-86 -118h-108zM507 437l-346 -345h292l-16 -92h-457l15 87l349 349h-264l15 92h428z" />
    <glyph glyph-name="Scommaaccent" unicode="&#x218;" horiz-adv-x="599" 
d="M371 704q118 0 174.5 -60t50.5 -157h-140q3 53 -23.5 83.5t-79.5 30.5q-49 0 -79.5 -26t-30.5 -72q0 -35 29.5 -57.5t99.5 -39.5q187 -46 187 -187q0 -108 -85.5 -170.5t-210.5 -62.5q-121 0 -188.5 56t-58.5 162h140q1 -55 35 -85t89 -30q56 0 92.5 28t36.5 76
q0 70 -120 101q-96 24 -145.5 64.5t-49.5 111.5q0 107 81 170.5t196 63.5zM315 -52l-104 -155h-75l80 164h99v-9z" />
    <glyph glyph-name="scommaaccent" unicode="&#x219;" horiz-adv-x="486" 
d="M269 544q100 0 150 -45.5t53 -122.5h-137q-8 77 -71 77q-35 0 -53 -16.5t-18 -42.5q0 -30 22 -47t80 -36q80 -25 116 -62.5t36 -98.5q0 -78 -63.5 -124t-168.5 -46q-107 0 -164.5 48t-61.5 128h138q8 -85 95 -85q35 0 57.5 17.5t22.5 48.5q0 29 -24 48t-88 41
q-72 24 -107 56.5t-35 94.5q0 71 58 119t163 48zM246 -52l-104 -155h-75l80 164h99v-9z" />
    <glyph glyph-name="uni021A" unicode="&#x21a;" horiz-adv-x="623" 
d="M684 582h-233l-103 -582h-138l103 582h-235l20 108h606zM233 -43h99v-9l-104 -155h-75z" />
    <glyph glyph-name="uni021B" unicode="&#x21b;" horiz-adv-x="354" 
d="M251 437l-44 -246q-7 -42 -7 -58q0 -31 22.5 -40.5t72.5 -2.5l-16 -91q-44 -10 -98 -10q-66 0 -96 22t-30 69q0 32 12 95l47 262h-76l16 91h76l23 131h137l-23 -131h105l-16 -91h-105zM102 -43h99v-9l-104 -155h-75z" />
    <glyph glyph-name="circumflex" unicode="&#x2c6;" horiz-adv-x="300" 
d="M174 574l-21 69l-45 -69h-85l85 118h108l44 -118h-86z" />
    <glyph glyph-name="caron" unicode="&#x2c7;" horiz-adv-x="300" 
d="M280 692l-86 -118h-108l-43 118h86l20 -67l46 67h85z" />
    <glyph glyph-name="breve" unicode="&#x2d8;" horiz-adv-x="300" 
d="M208 693h74q-12 -63 -50 -94.5t-94 -31.5q-64 0 -85.5 35.5t-11.5 90.5h74q-7 -55 36 -55q44 0 57 55z" />
    <glyph glyph-name="dotaccent" unicode="&#x2d9;" horiz-adv-x="300" 
d="M162 730q30 0 48 -17t18 -45q0 -34 -23.5 -59t-62.5 -25q-31 0 -48.5 16.5t-17.5 45.5q0 34 23.5 59t62.5 25z" />
    <glyph glyph-name="ring" unicode="&#x2da;" horiz-adv-x="300" 
d="M166 759q42 0 67 -22t25 -59q0 -48 -34.5 -80t-88.5 -32q-43 0 -68 22t-25 59q0 48 35 80t89 32zM157 707q-21 0 -33.5 -17t-12.5 -39q0 -32 32 -32q21 0 33.5 17t12.5 38q0 33 -32 33z" />
    <glyph glyph-name="ogonek" unicode="&#x2db;" horiz-adv-x="300" 
d="M170 8l95 -8q-36 -4 -60.5 -37t-24.5 -65q0 -41 36 -41q27 0 52 18l-11 -58q-48 -40 -121 -40q-41 0 -66.5 18.5t-25.5 57.5q0 48 32.5 88t93.5 67z" />
    <glyph glyph-name="tilde" unicode="&#x2dc;" horiz-adv-x="300" 
d="M89 690q32 0 73 -17q31 -12 45 -12q16 0 20 26h70q-10 -58 -30 -82t-56 -24q-31 0 -73 18q-33 12 -44 12q-17 0 -21 -26h-70q10 57 30 81t56 24z" />
    <glyph glyph-name="hungarumlaut" unicode="&#x2dd;" horiz-adv-x="300" 
d="M77 574h-78l98 118h124zM248 574h-78l98 118h124z" />
    <glyph glyph-name="uni0326" unicode="&#x326;" horiz-adv-x="0" 
d="M225 -52l-104 -155h-75l80 164h99v-9z" />
    <glyph glyph-name="Wgrave" unicode="&#x1e80;" horiz-adv-x="988" 
d="M563 735l-101 112h124l55 -112h-78zM1066 690l-303 -690h-183l-21 555l-219 -555h-184l-55 690h145l24 -569l213 559h197l13 -565l221 575h152z" />
    <glyph glyph-name="wgrave" unicode="&#x1e81;" horiz-adv-x="806" 
d="M432 574l-103 118h124l57 -118h-78zM865 532l-263 -532h-157l-18 406l-162 -406h-157l-75 532h153l22 -409l157 407h167l19 -409l165 411h149z" />
    <glyph glyph-name="Wacute" unicode="&#x1e82;" horiz-adv-x="988" 
d="M627 735h-78l93 112h124zM1066 690l-303 -690h-183l-21 555l-219 -555h-184l-55 690h145l24 -569l213 559h197l13 -565l221 575h152z" />
    <glyph glyph-name="wacute" unicode="&#x1e83;" horiz-adv-x="806" 
d="M490 574h-78l99 118h124zM865 532l-263 -532h-157l-18 406l-162 -406h-157l-75 532h153l22 -409l157 407h167l19 -409l165 411h149z" />
    <glyph glyph-name="Wdieresis" unicode="&#x1e84;" horiz-adv-x="988" 
d="M509 729q-26 0 -40.5 13.5t-14.5 37.5q0 31 21.5 50.5t48.5 19.5q25 0 39.5 -13.5t14.5 -37.5q0 -30 -21.5 -50t-47.5 -20zM682 729q-26 0 -40.5 13.5t-14.5 37.5q0 31 21.5 50.5t48.5 19.5q25 0 39.5 -13.5t14.5 -37.5q0 -30 -21.5 -50t-47.5 -20zM1066 690l-303 -690
h-183l-21 555l-219 -555h-184l-55 690h145l24 -569l213 559h197l13 -565l221 575h152z" />
    <glyph glyph-name="wdieresis" unicode="&#x1e85;" horiz-adv-x="806" 
d="M369 575q-26 0 -40.5 13.5t-14.5 37.5q0 31 22 51t48 20t40.5 -13.5t14.5 -37.5q0 -31 -22 -51t-48 -20zM544 575q-25 0 -39.5 14t-14.5 37q0 31 21.5 51t48.5 20q25 0 39.5 -13.5t14.5 -37.5q0 -31 -21.5 -51t-48.5 -20zM865 532l-263 -532h-157l-18 406l-162 -406h-157
l-75 532h153l22 -409l157 407h167l19 -409l165 411h149z" />
    <glyph glyph-name="Ygrave" unicode="&#x1ef2;" horiz-adv-x="637" 
d="M387 735l-101 112h124l55 -112h-78zM403 264l-47 -264h-138l48 269l-169 421h146l113 -305l210 305h155z" />
    <glyph glyph-name="ygrave" unicode="&#x1ef3;" horiz-adv-x="544" 
d="M294 574l-103 118h124l57 -118h-78zM602 532l-299 -532q-68 -120 -124.5 -165t-140.5 -45q-28 0 -60 5l16 94q21 -3 42 -3q67 0 107 75l6 12l-116 559h154l57 -421l205 421h153z" />
    <glyph glyph-name="endash" unicode="&#x2013;" horiz-adv-x="500" 
d="M412 252h-338l14 78h338z" />
    <glyph glyph-name="emdash" unicode="&#x2014;" horiz-adv-x="1000" 
d="M912 252h-838l14 78h838z" />
    <glyph glyph-name="quoteleft" unicode="&#x2018;" horiz-adv-x="257" 
d="M70 439l146 251h112l-125 -262h-134z" />
    <glyph glyph-name="quoteright" unicode="&#x2019;" horiz-adv-x="257" 
d="M292 679l-146 -251h-112l125 262h134z" />
    <glyph glyph-name="quotesinglbase" unicode="&#x201a;" horiz-adv-x="261" 
d="M164 129l-146 -251h-113l126 262h134z" />
    <glyph glyph-name="quotedblleft" unicode="&#x201c;" horiz-adv-x="471" 
d="M70 439l146 251h112l-125 -262h-134zM284 439l146 251h112l-125 -262h-134z" />
    <glyph glyph-name="quotedblright" unicode="&#x201d;" horiz-adv-x="471" 
d="M292 679l-146 -251h-112l125 262h134zM506 679l-146 -251h-112l125 262h134z" />
    <glyph glyph-name="quotedblbase" unicode="&#x201e;" horiz-adv-x="475" 
d="M164 129l-146 -251h-113l126 262h134zM378 129l-146 -251h-113l126 262h134z" />
    <glyph glyph-name="dagger" unicode="&#x2020;" horiz-adv-x="582" 
d="M526 354l-177 6l-81 -520h-135l103 520l-181 -6l21 118l179 -6l28 224h135l-50 -224l179 6z" />
    <glyph glyph-name="daggerdbl" unicode="&#x2021;" horiz-adv-x="552" 
d="M342 360l-34 -190l181 6l-20 -118l-179 6l-28 -224h-135l50 224l-179 -6l20 118l179 -6l34 190l-181 -6l20 118l179 -6l28 224h135l-50 -224l179 6l-20 -118z" />
    <glyph glyph-name="bullet" unicode="&#x2022;" horiz-adv-x="379" 
d="M210 423q46 0 73.5 -24.5t27.5 -67.5q0 -62 -40 -103t-102 -41q-45 0 -73 24.5t-28 67.5q0 62 40 103t102 41z" />
    <glyph glyph-name="ellipsis" unicode="&#x2026;" horiz-adv-x="771" 
d="M94 154q31 0 50.5 -18t19.5 -49q0 -45 -28 -73t-72 -28q-31 0 -50.5 18t-19.5 48q0 45 28 73.5t72 28.5zM349 154q31 0 50.5 -18t19.5 -49q0 -45 -28 -73t-72 -28q-31 0 -50.5 18t-19.5 48q0 45 28 73.5t72 28.5zM604 154q31 0 50.5 -18t19.5 -49q0 -45 -28 -73t-72 -28
q-31 0 -50.5 18t-19.5 48q0 45 28 73.5t72 28.5z" />
    <glyph glyph-name="perthousand" unicode="&#x2030;" horiz-adv-x="1111" 
d="M215 375q-63 0 -100.5 37t-37.5 100q0 78 47.5 135t131.5 57q63 0 100.5 -37t37.5 -100q0 -78 -47.5 -135t-131.5 -57zM745 690l-567 -690h-121l568 690h120zM247 631q-32 0 -52 -34t-20 -86q0 -63 48 -63q32 0 52.5 34.5t20.5 85.5q0 63 -49 63zM588 315q63 0 100 -37
t37 -100q0 -78 -47.5 -135t-131.5 -57q-63 0 -100 37t-37 100q0 79 47 135.5t132 56.5zM924 315q63 0 100.5 -37t37.5 -100q0 -78 -47.5 -135t-131.5 -57q-63 0 -100.5 37t-37.5 100q0 78 47.5 135t131.5 57zM555 59q32 0 52.5 34.5t20.5 85.5q0 63 -49 63
q-32 0 -52.5 -34.5t-20.5 -85.5q0 -63 49 -63zM891 59q32 0 52.5 34.5t20.5 85.5q0 63 -49 63q-32 0 -52 -34t-20 -86q0 -63 48 -63z" />
    <glyph glyph-name="guilsinglleft" unicode="&#x2039;" horiz-adv-x="411" 
d="M217 239l103 -157h-101l-108 166l166 166h115z" />
    <glyph glyph-name="guilsinglright" unicode="&#x203a;" horiz-adv-x="418" 
d="M293 248l-166 -166h-115l175 175l-102 157h100z" />
    <glyph glyph-name="fraction" unicode="&#x2044;" horiz-adv-x="263" 
d="M-87 0h-115l568 690h115z" />
    <glyph glyph-name="Euro" unicode="&#x20ac;" 
d="M440 601q-139 0 -187 -153h250l-25 -78h-242q-4 -34 -5 -52h231l-23 -78h-208q6 -82 41.5 -116.5t97.5 -34.5q86 0 159 40l-19 -105q-79 -38 -180 -38q-232 0 -243 254h-83l24 78h60q2 27 6 52h-50l24 78h43q35 115 118 185.5t222 70.5q123 0 173 -62l-66 -86
q-48 45 -118 45z" />
    <glyph glyph-name="trademark" unicode="&#x2122;" horiz-adv-x="538" 
d="M160 617l-28 -161h-56l28 161h-72l7 43h201l-7 -43h-73zM504 659l-36 -203h-56l27 142l-61 -138h-57l-13 137l-24 -141h-56l36 203h84l11 -147l61 147h84z" />
    <glyph glyph-name="partialdiff" unicode="&#x2202;" 
d="M365 758q230 0 230 -271q0 -75 -9.5 -143t-33.5 -135t-60.5 -115t-94.5 -78t-132 -30q-104 0 -164.5 53.5t-60.5 160.5q0 60 16.5 113.5t49.5 97t88.5 69t126.5 25.5q99 0 129 -61q2 36 2 50q0 80 -28.5 121t-93.5 41q-74 0 -144 -46l-32 87q101 61 211 61zM280 88
q59 0 98.5 65t57.5 178q-21 71 -111 71q-68 0 -103 -59t-35 -144q0 -54 24.5 -82.5t68.5 -28.5z" />
    <glyph glyph-name="emptyset" unicode="&#x2205;" horiz-adv-x="838" 
d="M812 680l-80 -80q83 -107 83 -245q0 -167 -116 -283t-280 -116q-137 0 -246 85l-90 -90l-57 57l89 89q-92 111 -92 258q0 167 116 283t280 116q145 0 258 -95l78 78zM111 355q0 -112 64 -198l443 443q-85 75 -199 75q-129 0 -218.5 -92.5t-89.5 -227.5zM419 35
q129 0 218.5 92.5t89.5 227.5q0 103 -55 185l-440 -440q82 -65 187 -65z" />
    <glyph glyph-name="product" unicode="&#x220f;" 
d="M629 582h-58l-123 -692h-138l123 692h-163l-123 -692h-138l123 692h-60l20 108h557z" />
    <glyph glyph-name="summation" unicode="&#x2211;" 
d="M607 582h-335l178 -285l-307 -299h368l-20 -108h-528l19 101l313 310l-178 288l19 101h491z" />
    <glyph glyph-name="minus" unicode="&#x2212;" 
d="M524 279h-437l13 78h437z" />
    <glyph glyph-name="radical" unicode="&#x221a;" 
d="M667 780l-386 -940h-107l-57 396h-75l13 74h141l47 -376l338 846h86z" />
    <glyph glyph-name="infinity" unicode="&#x221e;" horiz-adv-x="1017" 
d="M774 544q104 0 161 -63t57 -174q0 -58 -18.5 -113t-53.5 -102.5t-94.5 -76.5t-134.5 -29q-162 0 -211 134q-50 -71 -105.5 -102.5t-129.5 -31.5q-104 0 -162 63t-58 174q0 58 18.5 113t54 102.5t96 76.5t135.5 29q165 0 213 -133q49 71 103.5 102t128.5 31zM430 265
q3 182 -106 182q-49 0 -85 -38t-51.5 -86t-15.5 -95q0 -69 26 -107t73 -38t90 44.5t69 137.5zM696 83q48 0 83.5 38t50.5 86t15 95q0 69 -25 107t-71 38q-48 0 -90.5 -44.5t-67.5 -137.5q-4 -182 105 -182z" />
    <glyph glyph-name="integral" unicode="&#x222b;" 
d="M445 754q53 0 83 -22l-29 -74q-23 18 -59 18q-99 0 -99 -166q0 -70 19 -206q18 -129 18 -218q0 -110 -47 -178t-145 -68q-53 0 -83 22l28 74q24 -18 60 -18q99 0 99 166q0 70 -19 206q-18 119 -18 218q0 110 47 178t145 68z" />
    <glyph glyph-name="approxequal" unicode="&#x2248;" horiz-adv-x="599" 
d="M224 470q28 0 49 -8.5t63 -32.5q59 -35 87 -35q45 0 88 47l44 -49q-65 -83 -147 -83q-29 0 -50.5 8.5t-62.5 32.5q-59 35 -87 35q-46 0 -88 -48l-43 52q65 81 147 81zM192 288q28 0 49.5 -8.5t62.5 -32.5q59 -35 88 -35q44 0 87 47l43 -49q-65 -83 -147 -83
q-28 0 -50 8.5t-62 32.5q-59 35 -87 35q-44 0 -88 -48l-43 52q65 81 147 81z" />
    <glyph glyph-name="notequal" unicode="&#x2260;" 
d="M392 379l-89 -126h229l-13 -74h-268l-71 -100h-87l70 100h-102l13 74h142l88 126h-208l13 74h248l70 100h88l-71 -100h123l-12 -74h-163z" />
    <glyph glyph-name="lessequal" unicode="&#x2264;" 
d="M557 425l-368 -112l328 -113l-15 -88l-405 150l19 105l457 150zM65 78h431l-14 -78h-431z" />
    <glyph glyph-name="greaterequal" unicode="&#x2265;" 
d="M533 367l-19 -105l-452 -150l16 93l363 111l-323 114l15 87zM56 78h425l-13 -78h-426z" />
    <glyph glyph-name="lozenge" unicode="&#x25ca;" horiz-adv-x="535" 
d="M486 345l-223 -345h-113l-101 345l223 345h113zM383 345l-70 256l-161 -256l70 -256z" />
    <glyph glyph-name="a.alt" horiz-adv-x="648" 
d="M632 532l-93 -532h-138l14 81l-50 -58q-53 -37 -138 -37q-99 0 -152 56.5t-53 156.5q0 67 20 128t57.5 110.5t99 79t138.5 29.5q81 0 120 -34l24 -55l13 75h138zM447 260l5 26q12 69 -14.5 116t-95.5 47q-77 0 -125 -69t-48 -163q0 -134 109 -134q62 0 107.5 43t61.5 134
z" />
    <glyph glyph-name="braceleft.001" horiz-adv-x="373" 
d="M395 780l-14 -78h-18q-49 0 -67 -25.5t-17 -112.5q2 -98 -22 -150t-90 -64q71 -14 71 -77q0 -50 -34 -137q-31 -81 -31 -104q0 -18 15.5 -26t50.5 -8h17l-13 -78h-33q-120 0 -120 97q0 23 6.5 46t29.5 83q28 73 28 114q0 46 -71 51l14 78q61 5 81.5 35.5t19.5 129.5
q-1 133 33.5 179.5t130.5 46.5h33z" />
    </font>
</defs>
</svg>
