<?xml version="1.0" encoding="utf-8"?>
<!-- Generator: Adobe Illustrator 24.2.3, SVG Export Plug-In . SVG Version: 6.00 Build 0)  -->
<svg version="1.1" id="Calque_1" xmlns="http://www.w3.org/2000/svg" xmlns:xlink="http://www.w3.org/1999/xlink" x="0px" y="0px"
	 viewBox="0 0 1035 180" style="enable-background:new 0 0 1035 180;" xml:space="preserve">
<style type="text/css">
	.st0{fill:url(#SVGID_1_);}
</style>
<linearGradient id="SVGID_1_" gradientUnits="userSpaceOnUse" x1="1013.6801" y1="92.9031" x2="-179.89" y2="92.9031" gradientTransform="matrix(1 0 0 -1 0 182)">
	<stop  offset="0" style="stop-color:#F08D08"/>
	<stop  offset="0.52" style="stop-color:#FFE200"/>
	<stop  offset="0.96" style="stop-color:#009D42"/>
</linearGradient>
<path class="st0" d="M1029.7,96.2c-3.5,7.5-12.5,10.8-20,7.2c-1.6-0.7-3-1.7-4.3-3l-2.1-2.1l-8.5-8.5l-41.8-42.4l21.3-21.3
	l52.2,52.7l0.3,0.3C1031.2,83.6,1032.4,90.4,1029.7,96.2L1029.7,96.2z M1009,96.9c3.9,3.9,10.3,3.9,14.1-0.1
	c3.9-3.9,3.9-10.3-0.1-14.1c-3.9-3.9-10.2-3.9-14.1,0C1005,86.6,1005,92.9,1009,96.9C1009,96.8,1009,96.9,1009,96.9L1009,96.9z
	 M932.7,10.9c-0.7,1.5-1,3.2-0.9,4.9c0.1,2.6,1.2,5,3,6.8l0,0l3.1,3.1l7.6,7.6l2.5-2.5l10-9.9l2.5-2.5l-4.1-4.1l-6.6-6.6
	c-1-1-2.1-1.7-3.3-2.3l0,0c-3.9-1.7-8.5-0.8-11.6,2.2C933.9,8.6,933.2,9.7,932.7,10.9L932.7,10.9z M953.5,173.6l62.2-62
	c-5.9,1.2-12-0.7-16.3-5l-10.6-10.6l-56.6,56.5L953.5,173.6z M81.2,106.2c16.2,0,28-3.2,35.4-9.5c7.4-6.3,11.1-16.1,11.1-29.3V59
	c0-27.7-15.5-41.6-46.4-41.6H4.5v143.4h23.2V40.5h50.6c16.3,0,24.5,6.9,24.5,20.5V66c0,6.4-1.8,11.1-5.5,14.3
	c-3.7,3.2-10,4.8-19,4.8H45.6v12.8l57.2,62.9h29.5L81.2,106.2z M276.8,73.5c0-38-18.7-57-56.1-57h-15.8c-37.5,0-56.3,19-56.3,57v31
	c0,38.3,18.8,57.4,56.3,57.4h15.8c37.5,0,56.2-19.1,56.3-57.4V73.5z M245.8,130.5c-5.2,5.5-13.9,8.2-26.2,8.2h-13.9
	c-12.2,0-20.9-2.7-26-8.2s-7.6-14.5-7.6-27.3V74.8c0-12.8,2.6-21.9,7.7-27.3c5.1-5.3,13.9-8,26.3-8h13.7c12.4,0,21.1,2.7,26.3,8.2
	c5.1,5.5,7.7,14.5,7.7,27.1v28.4C253.6,115.9,251,125,245.8,130.5L245.8,130.5z M419.8,117.1c0-7.2-1.6-13.1-4.9-17.8
	c-3.7-5.4-9.7-9.4-18-12.1c7.4-2.7,12.7-6.6,15.8-11.7c2.5-4.1,3.8-9.3,3.8-15.5v-5.6c0-12.3-3.6-21.4-10.8-27.4
	c-7.6-6.4-19.7-9.6-36.4-9.6h-72.8v143.4h76.5c16.7,0,28.8-3.3,36.3-9.9c6.8-6,10.3-15.2,10.3-27.5L419.8,117.1z M385.5,73.1
	c-4.1,2.6-11.4,3.9-21.9,3.9h-43.8V40.5h47.9c8.7,0,14.8,1.4,18.4,4.2c3.6,2.8,5.5,7,5.5,12.7v2.9C391.6,66.2,389.6,70.4,385.5,73.1
	L385.5,73.1z M389.2,133.3c-3.8,2.9-10.1,4.3-18.7,4.3h-50.6V97.4h42.8c12.2,0,20.7,1.4,25.3,4.2c4.6,2.8,6.9,7.8,6.9,15v3.2
	C394.9,125.9,393,130.4,389.2,133.3L389.2,133.3z M562.3,73.6c0-38-18.7-57-56.2-57h-15.9c-37.6,0-56.3,19-56.3,57v31
	c0,38.3,18.8,57.4,56.3,57.4H506c37.5,0,56.3-19.1,56.3-57.4L562.3,73.6z M531.3,130.6c-5.2,5.5-13.9,8.2-26.2,8.2h-14
	c-12.2,0-20.9-2.7-26-8.2c-5.1-5.5-7.6-14.5-7.7-27.3V74.8c0-12.8,2.6-21.9,7.7-27.3c5.1-5.3,13.9-8,26.2-8h13.7
	c12.4,0,21.1,2.7,26.3,8.2c5.1,5.5,7.7,14.5,7.6,27.1v28.4c0,12.7-2.6,21.8-7.8,27.3L531.3,130.6z M707.2,105h-24.3v4.1
	c0,10.9-2.3,18.8-6.9,23.8c-5.2,5.6-14.2,8.5-27,8.5h-10.7c-12.5,0-21.5-3-27-9.1s-8.2-15.4-8.2-28V79.6c0-12.1,2.8-21.3,8.5-27.5
	c5.6-6.2,14.5-9.4,26.6-9.4h10.6c12.7,0,21.8,3.1,27.3,9.4c4.4,5,6.7,12.2,6.7,21.6v3.4h24.3v-4.7c0-16.4-4.1-29.1-12.4-38
	c-9.3-10.1-24-15.1-44.1-15.1h-13.6c-19.2,0-33.5,5.1-43,15.4s-14.2,25.2-14.2,44.9v24.6c0,20,4.4,35,13.1,44.8
	c9.2,10.4,23.9,15.7,44.1,15.6h13.7c21.2,0,36.4-5.3,45.5-16c7.3-8.7,11-21.5,11-38.5L707.2,105z M750.6,20.3h-23.3v143.3h23.2
	L750.6,20.3z M896.2,63.6c0-13.6-3.5-24-10.6-31.2c-7.9-8.1-20.1-12.1-36.5-12.1h-73.8v143.3h23.4v-43.5H849
	c16.5,0,28.8-4,36.7-12.1c7-7.1,10.4-17.3,10.4-30.5L896.2,63.6z M866.8,91.6c-4,3.4-10.6,5.1-19.7,5.1h-48.5V43H847
	c9,0,15.5,1.9,19.6,5.6c4.1,3.7,6.1,9.5,6.1,17.1V75c0,7.6-2,13.1-6.1,16.5L866.8,91.6z"/>
</svg>
