<?xml version="1.0" standalone="no"?>
<!DOCTYPE svg PUBLIC "-//W3C//DTD SVG 1.1//EN" "http://www.w3.org/Graphics/SVG/1.1/DTD/svg11.dtd" >
<svg xmlns="http://www.w3.org/2000/svg" xmlns:xlink="http://www.w3.org/1999/xlink" version="1.1">
<metadata>
Created by FontForge 20170731 at Wed Aug 20 22:56:26 2014
 By Aleksey,,,
No Rights Reserved.
</metadata>
<defs>
<font id="Aileron-Black" horiz-adv-x="662" >
  <font-face 
    font-family="Aileron Black"
    font-weight="900"
    font-stretch="normal"
    units-per-em="1000"
    panose-1="0 0 10 0 0 0 0 0 0 0"
    ascent="770"
    descent="-230"
    x-height="530"
    cap-height="690"
    bbox="-100 -223 1105 932"
    underline-thickness="50"
    underline-position="-200"
    unicode-range="U+0020-FB02"
  />
<missing-glyph horiz-adv-x="500" 
d="M0 0v700h500v-700h-500zM250 395l170 255h-340zM280 350l170 -255v510zM80 50h340l-170 255zM50 605v-510l170 255z" />
    <glyph glyph-name="fi" unicode="fi" horiz-adv-x="666" 
d="M612 530v-530h-180v418h-176v-418h-180v418h-57v112h57v4q0 40 1 58q6 80 66 121t199 41q45 0 90 -8v-117q-99 6 -135 -6.5t-40 -48.5q-1 -14 -1 -40v-4h356z" />
    <glyph glyph-name="fl" unicode="fl" horiz-adv-x="677" 
d="M604 143q3 -23 15.5 -30.5t43.5 -5.5v-111q-57 -6 -115 -6q-118 0 -124 104q-2 28 -2 95v436q-23 7 -60 7q-109 0 -115 -58q-1 -14 -1 -40v-4h109v-112h-109v-418h-180v418h-47v112h47v4q0 30 1 48q4 53 31.5 89.5t93.5 59.5t170 23q145 0 240 -31v-531q0 -36 2 -49z" />
    <glyph glyph-name=".notdef" horiz-adv-x="500" 
d="M0 0v700h500v-700h-500zM250 395l170 255h-340zM280 350l170 -255v510zM80 50h340l-170 255zM50 605v-510l170 255z" />
    <glyph glyph-name=".null" horiz-adv-x="0" 
 />
    <glyph glyph-name="nonmarkingreturn" horiz-adv-x="333" 
 />
    <glyph glyph-name="space" unicode=" " horiz-adv-x="176" 
 />
    <glyph glyph-name="exclam" unicode="!" horiz-adv-x="280" 
d="M209 210h-138l-12 480h162zM140 165q40 0 65 -25t25 -65t-25 -64.5t-65 -24.5t-65 24.5t-25 64.5t25 65t65 25z" />
    <glyph glyph-name="quotedbl" unicode="&#x22;" horiz-adv-x="410" 
d="M163 439h-118l-16 296h150zM353 439h-118l-16 296h150z" />
    <glyph glyph-name="numbersign" unicode="#" 
d="M487 393l-21 -96h95v-96h-115l-43 -201h-102l43 201h-87l-43 -201h-102l43 201h-84v96h104l21 96h-95v96h115l43 201h102l-43 -201h87l43 201h102l-43 -201h84v-96h-104zM384 393h-87l-20 -96h87z" />
    <glyph glyph-name="dollar" unicode="$" 
d="M619 188q0 -86 -64 -138t-169 -62v-78h-100v78q-224 20 -244 213h170q11 -65 74 -86v160q-110 39 -162.5 87.5t-52.5 128.5q0 92 61 145.5t154 64.5v79h100v-79q106 -11 163.5 -67.5t67.5 -146.5h-170q-10 66 -61 86v-154q125 -39 179 -91t54 -140zM234 509q0 -49 52 -69
v136q-52 -16 -52 -67zM386 251v-139q61 12 61 67q0 47 -61 72z" />
    <glyph glyph-name="percent" unicode="%" horiz-adv-x="782" 
d="M191 704q75 0 117.5 -44t42.5 -125q0 -80 -42.5 -124.5t-117.5 -44.5t-117.5 44.5t-42.5 124.5q0 81 42.5 125t117.5 44zM234 0h-123l447 690h123zM191 620q-52 0 -52 -85t52 -85t52 85t-52 85zM591 324q75 0 117.5 -44t42.5 -125q0 -80 -42.5 -124.5t-117.5 -44.5
t-117.5 44.5t-42.5 124.5q0 81 42.5 125t117.5 44zM591 240q-52 0 -52 -85t52 -85t52 85t-52 85z" />
    <glyph glyph-name="ampersand" unicode="&#x26;" horiz-adv-x="688" 
d="M692 420v-140h-92v-267q-128 -27 -273 -27q-283 0 -283 192q0 73 45 118t123 57q-57 17 -91.5 59t-34.5 96q0 96 70 146t200 50q60 0 100 -10v-129q-48 7 -95 7q-87 0 -87 -74q0 -37 20 -56t53 -21q18 -1 56 -1h17v77h180v-77h92zM232 200q0 -46 26 -64t74 -18q44 0 88 7
v155h-33q-31 0 -51 -1q-104 -5 -104 -79z" />
    <glyph glyph-name="quotesingle" unicode="'" horiz-adv-x="220" 
d="M163 439h-118l-16 296h150z" />
    <glyph glyph-name="parenleft" unicode="(" horiz-adv-x="403" 
d="M275 780h89q-137 -195 -137 -430t137 -430h-89q-156 164 -156 430t156 430z" />
    <glyph glyph-name="parenright" unicode=")" horiz-adv-x="400" 
d="M36 780h89q156 -164 156 -430t-156 -430h-89q137 195 137 430t-137 430z" />
    <glyph glyph-name="asterisk" unicode="*" horiz-adv-x="630" 
d="M359 331l123 55l35 -111l-133 -29l99 -112l-94 -68l-74 125l-74 -125l-94 68l99 112l-133 29l35 111l123 -55l-14 144h116z" />
    <glyph glyph-name="plus" unicode="+" 
d="M556 273h-175v-197h-100v197h-175v88h175v197h100v-197h175v-88z" />
    <glyph glyph-name="comma" unicode="," horiz-adv-x="266" 
d="M221 162l-109 -286h-138l80 296h167v-10z" />
    <glyph glyph-name="hyphen" unicode="-" horiz-adv-x="314" 
d="M282 235h-250v96h250v-96z" />
    <glyph glyph-name="period" unicode="." horiz-adv-x="266" 
d="M140 186q44 0 72 -28t28 -72t-28 -72t-72 -28t-72 28t-28 72t28 72t72 28z" />
    <glyph glyph-name="slash" unicode="/" horiz-adv-x="346" 
d="M100 -30h-105l251 750h105z" />
    <glyph glyph-name="zero" unicode="0" 
d="M331 704q147 0 216 -91t69 -268q0 -359 -285 -359t-285 359q0 177 69 268t216 91zM331 118q49 0 73 52t24 175q0 124 -24 175.5t-73 51.5t-73 -51.5t-24 -175.5q0 -123 24 -175t73 -52z" />
    <glyph glyph-name="one" unicode="1" 
d="M508 690v-690h-180v502l-210 -110v161l171 98q69 39 141 39h78z" />
    <glyph glyph-name="two" unicode="2" 
d="M339 140h254v-140h-535v78l217 204q79 75 108.5 119t29.5 92q0 39 -20.5 60t-57.5 21q-39 0 -59.5 -25.5t-25.5 -79.5l-1 -10h-180l1 10q11 115 82.5 176t197.5 61q120 0 185.5 -54.5t65.5 -151.5q0 -61 -35.5 -118.5t-134.5 -152.5z" />
    <glyph glyph-name="three" unicode="3" 
d="M460 363q147 -29 147 -158q0 -100 -76 -159.5t-206 -59.5t-205 59t-86 164l-1 10h180l2 -10q8 -39 34.5 -65t68.5 -26q46 0 73.5 23t27.5 59q0 87 -115 92l-27 1v116l27 2q48 4 73.5 27.5t25.5 60.5q0 34 -20 53.5t-57 19.5t-56.5 -25t-22.5 -63l-1 -10h-180l1 10
q10 95 80 157.5t197 62.5q120 0 183.5 -52.5t63.5 -131.5q0 -125 -131 -157z" />
    <glyph glyph-name="four" unicode="4" 
d="M626 154h-84v-154h-180v154h-324v99l308 437h196v-396h84v-140zM362 294v206q-25 -45 -37 -61l-102 -145h139z" />
    <glyph glyph-name="five" unicode="5" 
d="M379 470q105 0 166.5 -62.5t61.5 -174.5q0 -116 -80.5 -181.5t-194.5 -65.5q-127 0 -195 50t-79 158l-1 10h180l1 -10q4 -36 25 -56t57 -20q48 0 73.5 30.5t25.5 79.5t-25.5 79.5t-70.5 30.5q-64 0 -88 -62h-166l51 414h460v-140h-312l-22 -151l26 46q44 25 107 25z" />
    <glyph glyph-name="six" unicode="6" 
d="M388 462q112 0 168.5 -62t56.5 -157q0 -121 -81 -189t-196 -68q-142 0 -212 84t-70 262q0 176 81 274t218 98q113 0 176.5 -52.5t75.5 -147.5l1 -10h-180l-2 10q-20 68 -81 68q-101 0 -108 -208l32 62q46 36 121 36zM334 118q43 0 67 30t24 73q0 51 -24.5 80t-68.5 29
q-38 0 -64 -28t-26 -77t24.5 -78t67.5 -29z" />
    <glyph glyph-name="seven" unicode="7" 
d="M618 690v-100l-320 -590h-197l304 550h-348v140h561z" />
    <glyph glyph-name="eight" unicode="8" 
d="M480 366q57 -19 94 -61.5t37 -108.5q0 -107 -77 -159t-205 -52q-278 0 -278 211q0 65 37.5 107.5t94.5 62.5q-98 34 -98 143q0 88 67.5 141.5t188.5 53.5t187.5 -53.5t66.5 -141.5q0 -107 -115 -143zM338 572q-30 0 -50 -19t-20 -52q0 -37 18.5 -56t50.5 -19
q33 0 54 19.5t21 55.5q0 34 -20 52.5t-54 18.5zM331 117q94 0 94 86q0 44 -25 69t-70 25q-40 0 -66.5 -24.5t-26.5 -66.5q0 -43 25 -66t69 -23z" />
    <glyph glyph-name="nine" unicode="9" 
d="M326 704q142 0 212 -84t70 -262q0 -177 -80 -274.5t-219 -97.5q-116 0 -179.5 52.5t-72.5 147.5l-1 10h180l2 -10q14 -68 81 -68q101 0 108 208l-32 -62q-46 -36 -121 -36q-112 0 -168.5 62t-56.5 157q0 121 81 189t196 68zM330 360q38 0 64 28t26 77t-24.5 78t-67.5 29
t-67 -30t-24 -73q0 -51 24.5 -80t68.5 -29z" />
    <glyph glyph-name="colon" unicode=":" horiz-adv-x="266" 
d="M140 548q44 0 72 -28t28 -72t-28 -72t-72 -28t-72 28t-28 72t28 72t72 28zM140 186q44 0 72 -28t28 -72t-28 -72t-72 -28t-72 28t-28 72t28 72t72 28z" />
    <glyph glyph-name="semicolon" unicode=";" horiz-adv-x="266" 
d="M140 548q44 0 72 -28t28 -72t-28 -72t-72 -28t-72 28t-28 72t28 72t72 28zM221 152l-109 -276h-138l80 296h167v-20z" />
    <glyph glyph-name="less" unicode="&#x3c;" 
d="M578 392l-355 -126l355 -127v-119l-471 177v136l471 177v-118z" />
    <glyph glyph-name="equal" unicode="=" 
d="M576 373h-490v88h490v-88zM576 173h-490v88h490v-88z" />
    <glyph glyph-name="greater" unicode="&#x3e;" 
d="M541 333v-136l-471 -177v118l355 127l-355 126v119z" />
    <glyph glyph-name="question" unicode="?" horiz-adv-x="589" 
d="M296 704q116 0 180.5 -50.5t64.5 -142.5q0 -57 -24.5 -97t-81.5 -86q-39 -32 -55 -56t-20 -62h-146q1 58 16 92t49 71q41 44 57.5 70.5t16.5 52.5q0 76 -70 76q-69 0 -73 -98h-180q3 108 74 169t192 61zM289 165q40 0 65 -25t25 -65t-25 -64.5t-65 -24.5t-65 24.5
t-25 64.5t25 65t65 25z" />
    <glyph glyph-name="at" unicode="@" horiz-adv-x="930" 
d="M702 472l-32 -133q-19 -80 -19 -110q0 -65 41 -65q39 0 65 47t26 131q0 124 -75.5 194t-207.5 70q-90 0 -168 -40t-129 -121t-51 -187q0 -137 77.5 -216.5t223.5 -79.5q133 0 223 65l37 -84q-119 -77 -274 -77q-56 0 -110 12.5t-106 42t-91.5 73t-63.5 110t-24 147.5
q0 195 132 323t328 128q181 0 284 -103.5t103 -246.5q0 -147 -66 -215.5t-172 -68.5q-119 0 -152 99l-31 -63q-38 -30 -88 -30q-59 0 -97 39.5t-38 129.5q0 108 53 177.5t137 69.5q56 0 77 -28l17 -53l20 63h151zM445 196q32 0 45 52l16 71q10 49 -27 49q-28 0 -48 -32
t-20 -81q0 -59 34 -59z" />
    <glyph glyph-name="A" unicode="A" horiz-adv-x="707" 
d="M468 179h-215l-58 -179h-191l249 690h220l249 -690h-196zM361 531l-64 -212h128z" />
    <glyph glyph-name="B" unicode="B" horiz-adv-x="681" 
d="M528 375q127 -36 127 -167q0 -90 -59.5 -142.5t-138.5 -61.5q-35 -4 -102 -4h-275v690h283q53 0 88 -4q84 -10 131 -58.5t47 -117.5q0 -99 -101 -135zM260 550v-132h81q25 0 44 3q56 8 56 63t-55 63q-20 3 -45 3h-81zM402 141q26 2 45.5 21.5t19.5 51.5q0 33 -20 52
t-50 21q-13 1 -45 1h-92v-148h97q32 0 45 1z" />
    <glyph glyph-name="C" unicode="C" horiz-adv-x="734" 
d="M395 704q142 0 221.5 -66.5t90.5 -174.5l1 -10h-180l-2 10q-22 109 -133 109q-67 0 -109 -56.5t-42 -164.5q0 -122 42.5 -177.5t109.5 -55.5q52 0 85.5 31t44.5 88l2 10h180l-1 -10q-12 -121 -98 -186t-219 -65q-145 0 -239.5 92.5t-94.5 261.5q0 173 97 268.5t244 95.5z
" />
    <glyph glyph-name="D" unicode="D" horiz-adv-x="749" 
d="M429 686q130 -15 211 -97t81 -235q0 -155 -82.5 -245.5t-209.5 -104.5q-35 -4 -88 -4h-261v690h261q53 0 88 -4zM381 142q69 6 110.5 62t41.5 147q0 90 -41 140.5t-111 56.5q-23 2 -65 2h-56v-410h56q42 0 65 2z" />
    <glyph glyph-name="E" unicode="E" horiz-adv-x="639" 
d="M609 140v-140h-529v690h519v-140h-339v-134h319v-140h-319v-136h349z" />
    <glyph glyph-name="F" unicode="F" horiz-adv-x="615" 
d="M260 550v-134h309v-140h-309v-276h-180v690h519v-140h-339z" />
    <glyph glyph-name="G" unicode="G" horiz-adv-x="759" 
d="M409 368h304v-368h-140l-17 106l-30 -76q-52 -44 -159 -44q-142 0 -227.5 92t-85.5 262q0 172 100.5 268t250.5 96q142 0 221.5 -66.5t90.5 -174.5l1 -10h-180l-2 10q-22 109 -133 109q-70 0 -115.5 -57t-45.5 -164q0 -122 44.5 -177.5t115.5 -55.5q105 0 141 110h-134
v140z" />
    <glyph glyph-name="H" unicode="H" horiz-adv-x="770" 
d="M716 690v-690h-180v268h-276v-268h-180v690h180v-282h276v282h180z" />
    <glyph glyph-name="I" unicode="I" horiz-adv-x="314" 
d="M260 0h-180v690h180v-690z" />
    <glyph glyph-name="J" unicode="J" horiz-adv-x="638" 
d="M586 690v-391q0 -54 -3 -105q-6 -96 -71 -152t-194 -56q-261 0 -269 248l-1 30h180l2 -30q4 -64 28 -90t65 -26q73 0 81 87q2 23 2 66v419h180z" />
    <glyph glyph-name="K" unicode="K" horiz-adv-x="743" 
d="M440 365l289 -365h-225l-195 266l-49 -54v-212h-180v690h180v-305l263 305h215z" />
    <glyph glyph-name="L" unicode="L" horiz-adv-x="628" 
d="M609 152v-152h-529v690h180v-538h349z" />
    <glyph glyph-name="M" unicode="M" horiz-adv-x="923" 
d="M869 690v-690h-180v290q0 149 2 219q-18 -104 -48 -219l-76 -290h-185l-77 290q-31 115 -47 219q2 -70 2 -219v-290h-180v690h281l117 -515l117 515h274z" />
    <glyph glyph-name="N" unicode="N" horiz-adv-x="794" 
d="M740 0h-235l-251 456q6 -70 6 -171v-285h-180v690h224l262 -476q-6 84 -6 181v295h180v-690z" />
    <glyph glyph-name="O" unicode="O" horiz-adv-x="788" 
d="M407 704q162 0 257.5 -96.5t95.5 -262.5q0 -165 -95.5 -262t-257.5 -97t-257.5 97t-95.5 262q0 166 95.5 262.5t257.5 96.5zM407 118q79 0 124 59.5t45 167.5q0 109 -45 168t-124 59t-124 -59t-45 -168q0 -108 45 -167.5t124 -59.5z" />
    <glyph glyph-name="P" unicode="P" horiz-adv-x="644" 
d="M448 685q81 -10 136 -66.5t55 -152.5t-55 -152.5t-136 -66.5q-46 -5 -108 -5h-80v-242h-180v690h260q62 0 108 -5zM378 383q73 6 73 83t-73 83q-13 1 -48 1h-70v-168h70q35 0 48 1z" />
    <glyph glyph-name="Q" unicode="Q" horiz-adv-x="791" 
d="M672 127q53 -16 107 -61l-86 -114q-48 29 -77.5 39.5t-64.5 10.5q-31 0 -73 -9q-31 -7 -71 -7q-162 0 -257.5 97t-95.5 262q0 166 95.5 263t257.5 97t257.5 -97t95.5 -263q0 -136 -88 -218zM238 345q0 -108 45 -167.5t124 -59.5t124 59.5t45 167.5q0 109 -45 168.5
t-124 59.5t-124 -59.5t-45 -168.5z" />
    <glyph glyph-name="R" unicode="R" horiz-adv-x="682" 
d="M618 168q12 -108 52 -168h-196q-24 74 -32 138q-14 118 -85 123q-20 1 -57 1h-40v-262h-180v690h274q62 0 108 -5q83 -10 135 -54t52 -129q0 -131 -139 -172q52 -19 76 -57.5t32 -104.5zM260 392h65q35 0 48 1q88 8 88 78q0 71 -83 78q-13 1 -48 1h-70v-158z" />
    <glyph glyph-name="S" unicode="S" horiz-adv-x="626" 
d="M322 704q129 0 195 -61.5t78 -165.5h-180q-13 95 -97 95q-32 0 -50.5 -15.5t-18.5 -46.5q0 -34 31.5 -56t114.5 -42q214 -51 214 -218q0 -98 -79.5 -153t-191.5 -55q-136 0 -216 56t-88 169h180q9 -46 42 -69.5t77 -23.5q38 0 63 18t25 46q0 61 -111 88
q-129 32 -189 80.5t-60 145.5q0 96 76.5 152t184.5 56z" />
    <glyph glyph-name="T" unicode="T" horiz-adv-x="632" 
d="M642 550h-224v-550h-180v550h-224v140h628v-140z" />
    <glyph glyph-name="U" unicode="U" horiz-adv-x="718" 
d="M680 690v-387q0 -56 -3 -97q-7 -96 -80.5 -158t-222.5 -62t-222.5 62t-80.5 158q-3 41 -3 97v387h180v-420q0 -29 1 -41q8 -111 125 -111t125 111q1 12 1 41v420h180z" />
    <glyph glyph-name="V" unicode="V" horiz-adv-x="742" 
d="M501 0h-220l-249 690h196l165 -551l166 551h191z" />
    <glyph glyph-name="W" unicode="W" horiz-adv-x="1016" 
d="M1029 690l-176 -690h-240l-87 537l-93 -537h-241l-166 690h191l92 -550l91 540h258l87 -542l100 552h184z" />
    <glyph glyph-name="X" unicode="X" horiz-adv-x="717" 
d="M510 0l-145 233l-134 -233h-217l247 348l-230 342h210l130 -230l140 230h207l-241 -339l243 -351h-210z" />
    <glyph glyph-name="Y" unicode="Y" horiz-adv-x="663" 
d="M437 264v-264h-180v264l-243 426h202l136 -273l131 273h197z" />
    <glyph glyph-name="Z" unicode="Z" horiz-adv-x="648" 
d="M618 140v-140h-565v136l341 414h-313v140h533v-139l-338 -411h342z" />
    <glyph glyph-name="bracketleft" unicode="[" horiz-adv-x="410" 
d="M382 780v-96h-173v-668h173v-96h-273v860h273z" />
    <glyph glyph-name="backslash" unicode="\" horiz-adv-x="346" 
d="M351 -30h-105l-251 750h105z" />
    <glyph glyph-name="bracketright" unicode="]" horiz-adv-x="410" 
d="M301 -80h-273v96h173v668h-173v96h273v-860z" />
    <glyph glyph-name="asciicircum" unicode="^" 
d="M445 215l-116 303l-116 -303h-109l169 401h115l169 -401h-112z" />
    <glyph glyph-name="underscore" unicode="_" horiz-adv-x="500" 
d="M450 -88h-400v96h400v-96z" />
    <glyph glyph-name="grave" unicode="`" horiz-adv-x="300" 
d="M219 571h-96l-155 125h160z" />
    <glyph glyph-name="a" unicode="a" horiz-adv-x="587" 
d="M367 0l-12 78l-22 -56q-57 -36 -132 -36q-70 0 -120.5 42t-50.5 116q0 86 77 135t212 49h34v8q0 22 -2 39q-2 22 -19 36.5t-45 14.5q-64 0 -69 -73l-170 -1q1 91 71.5 143.5t175.5 52.5q221 0 235 -172q3 -41 3 -91v-150q0 -61 10 -135h-176zM275 108q30 0 54 22t24 61
v35q-63 5 -101 -12.5t-38 -55.5q0 -24 16.5 -37t44.5 -13z" />
    <glyph glyph-name="b" unicode="b" horiz-adv-x="669" 
d="M410 548q108 0 171.5 -74.5t63.5 -194.5q0 -137 -72.5 -215t-180.5 -78q-79 0 -123 26l-35 57v-69h-180v735h180v-279l40 59q45 33 136 33zM343 108q54 0 86 41.5t32 120.5q0 73 -32 114.5t-81 41.5q-114 0 -114 -152v-23q0 -74 31.5 -108.5t77.5 -34.5z" />
    <glyph glyph-name="c" unicode="c" horiz-adv-x="587" 
d="M305 548q114 0 184 -62.5t74 -155.5h-174q-11 96 -88 96q-93 0 -93 -154q0 -164 95 -164q32 0 55 23t30 65h177q-15 -101 -88 -155.5t-184 -54.5q-118 0 -193.5 73t-75.5 202q0 134 79.5 210.5t201.5 76.5z" />
    <glyph glyph-name="d" unicode="d" horiz-adv-x="669" 
d="M615 735v-735h-180v78l-40 -59q-45 -33 -136 -33q-108 0 -171.5 74.5t-63.5 194.5q0 137 72.5 215t180.5 78q79 0 123 -26l35 -57v270h180zM321 108q114 0 114 152v23q0 74 -31.5 108.5t-77.5 34.5q-54 0 -86 -41.5t-32 -120.5q0 -73 32 -114.5t81 -41.5z" />
    <glyph glyph-name="e" unicode="e" horiz-adv-x="601" 
d="M577 274q0 -25 -3 -52h-372q6 -63 31.5 -88.5t67.5 -25.5q38 0 61 18t28 49h177q-23 -90 -94 -139.5t-174 -49.5q-121 0 -198 72t-77 207q0 121 77.5 202t207.5 81q126 0 197 -81t71 -193zM300 426q-75 0 -92 -94h181q-15 94 -89 94z" />
    <glyph glyph-name="f" unicode="f" horiz-adv-x="378" 
d="M257 574q-1 -14 -1 -40v-4h109v-112h-109v-418h-180v418h-57v112h57v4q0 40 1 58q6 79 62 120.5t175 41.5q31 0 60 -8v-117q-50 8 -81.5 -6t-35.5 -49z" />
    <glyph glyph-name="g" unicode="g" horiz-adv-x="669" 
d="M615 534v-398q0 -74 -1 -103q-4 -127 -85 -190t-222 -63q-121 0 -190.5 48t-79.5 139l-1 10h174l1 -10q3 -26 30.5 -40.5t70.5 -14.5q114 0 121 101q2 32 2 70v15l-40 -59q-45 -33 -126 -33q-110 0 -177.5 70t-67.5 187q0 136 72 210.5t181 74.5q79 0 123 -26l35 -57v69
h180zM321 128q114 0 114 152v3q0 74 -31.5 108.5t-77.5 34.5q-118 0 -118 -150q0 -72 31.5 -110t81.5 -38z" />
    <glyph glyph-name="h" unicode="h" horiz-adv-x="644" 
d="M591 403q5 -34 5 -101v-302h-180v272q0 46 -2 73q-6 81 -86 81q-43 0 -68.5 -43.5t-25.5 -130.5v-252h-180v740h180v-289l48 66q51 31 120 31q82 0 130 -37.5t59 -107.5z" />
    <glyph glyph-name="i" unicode="i" horiz-adv-x="288" 
d="M144 751q42 0 67.5 -24t25.5 -64t-25.5 -64t-67.5 -24t-67.5 24t-25.5 64t25.5 64t67.5 24zM234 0h-180v534h180v-534z" />
    <glyph glyph-name="j" unicode="j" horiz-adv-x="282" 
d="M142 751q48 0 70.5 -21t22.5 -67t-22.5 -67t-70.5 -21t-70.5 21t-22.5 67t22.5 67t70.5 21zM232 534v-518q0 -28 -2 -64q-6 -79 -57 -120.5t-163 -41.5q-36 0 -60 4v121q50 -5 73 6.5t27 45.5q2 28 2 48v519h180z" />
    <glyph glyph-name="k" unicode="k" horiz-adv-x="632" 
d="M272 198l-38 -42v-156h-180v735h180v-425l188 224h211l-226 -245l229 -289h-221z" />
    <glyph glyph-name="l" unicode="l" horiz-adv-x="305" 
d="M230 735v-543q0 -36 2 -49q2 -16 13.5 -21.5t45.5 -4.5v-122q-55 -5 -105 -5q-128 0 -134 104q-2 28 -2 95v546h180z" />
    <glyph glyph-name="m" unicode="m" horiz-adv-x="966" 
d="M913 413q5 -34 5 -101v-312h-180v272q0 37 -4 73q-10 81 -77 81q-81 0 -81 -144v-282h-180v272q0 37 -4 73q-10 81 -77 81q-81 0 -81 -144v-282h-180v534h180v-86l43 69q51 31 115 31q65 0 109 -28.5t62 -75.5l56 73q51 31 115 31q76 0 122.5 -38.5t56.5 -96.5z" />
    <glyph glyph-name="n" unicode="n" horiz-adv-x="644" 
d="M591 403q5 -34 5 -101v-302h-180v272q0 46 -2 73q-6 81 -86 81q-43 0 -68.5 -43.5t-25.5 -130.5v-252h-180v534h180v-83l48 66q51 31 120 31q82 0 130 -37.5t59 -107.5z" />
    <glyph glyph-name="o" unicode="o" horiz-adv-x="622" 
d="M311 548q131 0 209 -76t78 -205q0 -128 -78 -204.5t-209 -76.5t-209 76.5t-78 204.5q0 129 78 205t209 76zM311 108q49 0 76 40.5t27 118.5q0 79 -27 119t-76 40t-76 -40t-27 -119q0 -78 27 -118.5t76 -40.5z" />
    <glyph glyph-name="p" unicode="p" horiz-adv-x="669" 
d="M410 548q108 0 171.5 -74.5t63.5 -194.5q0 -137 -72.5 -215t-180.5 -78q-79 0 -123 26l-35 57v-265h-180v730h180v-78l40 59q45 33 136 33zM343 108q54 0 86 41.5t32 120.5q0 73 -32 114.5t-81 41.5q-114 0 -114 -152v-23q0 -74 31.5 -108.5t77.5 -34.5z" />
    <glyph glyph-name="q" unicode="q" horiz-adv-x="669" 
d="M615 534v-730h-180v274l-40 -59q-45 -33 -136 -33q-108 0 -171.5 74.5t-63.5 194.5q0 137 72.5 215t180.5 78q79 0 123 -26l35 -57v69h180zM321 108q114 0 114 152v23q0 74 -31.5 108.5t-77.5 34.5q-54 0 -86 -41.5t-32 -120.5q0 -73 32 -114.5t81 -41.5z" />
    <glyph glyph-name="r" unicode="r" horiz-adv-x="420" 
d="M377 548q21 0 41 -3v-147q-102 7 -143 -37.5t-41 -164.5v-196h-180v534h180v-108l38 75q43 47 105 47z" />
    <glyph glyph-name="s" unicode="s" horiz-adv-x="528" 
d="M274 548q96 0 154.5 -47t69.5 -123h-177q-13 58 -58 58q-19 0 -31 -11t-12 -28q0 -24 26.5 -40.5t99.5 -34.5q80 -20 123 -58.5t43 -110.5q0 -82 -66.5 -124.5t-169.5 -42.5q-111 0 -179.5 46t-78.5 134h177q7 -31 29 -49.5t51 -18.5q57 0 57 41q0 25 -28.5 41.5
t-100.5 33.5q-163 38 -163 162q0 79 63.5 125.5t170.5 46.5z" />
    <glyph glyph-name="t" unicode="t" horiz-adv-x="400" 
d="M270 418v-197q0 -38 1 -52q3 -41 23 -53t83 -9v-112q-53 -9 -106 -9q-96 0 -135 29.5t-44 93.5q-2 31 -2 86v223h-85v112h85v138h180v-138h118v-112h-118z" />
    <glyph glyph-name="u" unicode="u" horiz-adv-x="640" 
d="M586 534v-534h-180v90l-48 -73q-51 -31 -120 -31q-79 0 -129.5 38.5t-59.5 96.5q-5 34 -5 101v312h180v-272q0 -37 4 -73q10 -81 87 -81q42 0 66.5 35t24.5 89v302h180z" />
    <glyph glyph-name="v" unicode="v" horiz-adv-x="608" 
d="M616 534l-211 -534h-194l-211 534h200l110 -391l109 391h197z" />
    <glyph glyph-name="w" unicode="w" horiz-adv-x="868" 
d="M876 534l-169 -534h-201l-68 360l-68 -360h-201l-169 534h198l70 -382l64 378h214l68 -379l68 383h194z" />
    <glyph glyph-name="x" unicode="x" horiz-adv-x="590" 
d="M407 269l184 -269h-210l-85 161l-90 -161h-207l186 271l-179 263h210l84 -154l82 154h207z" />
    <glyph glyph-name="y" unicode="y" horiz-adv-x="608" 
d="M616 534l-211 -534q-49 -125 -102 -167.5t-150 -42.5q-43 0 -76 5v116q15 -2 49 -2q65 0 88 52l7 15l-221 558h200l110 -391l109 391h197z" />
    <glyph glyph-name="z" unicode="z" horiz-adv-x="526" 
d="M497 112v-112h-463v105l270 313h-255v112h445v-110l-267 -308h270z" />
    <glyph glyph-name="braceleft" unicode="{" horiz-adv-x="430" 
d="M360 684h-22q-38 0 -51 -7.5t-13 -32.5q0 -22 10 -89q11 -71 11 -103q0 -81 -85 -99q85 -21 85 -105q0 -32 -11 -103q-10 -68 -10 -89q0 -25 13 -32.5t51 -7.5h22v-96h-51q-73 0 -104 27.5t-31 88.5q0 41 12 119q9 60 9 90q0 52 -82 57v96q82 5 82 57q0 30 -9 90
q-12 78 -12 119q0 61 31 88.5t104 27.5h51v-96z" />
    <glyph glyph-name="bar" unicode="|" horiz-adv-x="312" 
d="M214 -200h-116v1000h116v-1000z" />
    <glyph glyph-name="braceright" unicode="}" horiz-adv-x="430" 
d="M317 398v-96q-82 -5 -82 -57q0 -30 9 -90q12 -78 12 -119q0 -61 -31 -88.5t-104 -27.5h-51v96h22q38 0 51 7.5t13 32.5q0 22 -10 89q-11 71 -11 103q0 81 85 99q-85 21 -85 105q0 32 11 103q10 67 10 89q0 25 -13 32.5t-51 7.5h-22v96h51q73 0 104 -27.5t31 -88.5
q0 -41 -12 -119q-9 -60 -9 -90q0 -52 82 -57z" />
    <glyph glyph-name="asciitilde" unicode="~" 
d="M480 406h96q0 -183 -132 -183q-46 0 -126 41q-67 35 -90 35q-25 0 -35 -18.5t-10 -57.5h-96q0 183 132 183q47 0 126 -41q66 -35 90 -35q23 0 34 17t11 59z" />
    <glyph glyph-name="exclamdown" unicode="&#xa1;" horiz-adv-x="280" 
d="M140 365q-40 0 -65 25t-25 65t25 64.5t65 24.5t65 -24.5t25 -64.5t-25 -65t-65 -25zM71 320h138l12 -480h-162z" />
    <glyph glyph-name="cent" unicode="&#xa2;" 
d="M447 196h157q-12 -88 -69.5 -141t-146.5 -65v-80h-100v79q-100 14 -162.5 86.5t-62.5 183.5q0 117 62.5 190.5t162.5 89.5v81h100v-79q96 -12 153 -72t61 -143h-154q-7 62 -60 86v-293q51 25 59 77zM227 270q0 -110 61 -147v285q-61 -36 -61 -138z" />
    <glyph glyph-name="sterling" unicode="&#xa3;" 
d="M600 140v-140h-538v124q100 18 100 106q0 29 -9 59h-82v88h45q-22 56 -22 111q0 101 68.5 158.5t181.5 57.5q119 0 180.5 -60.5t68.5 -150.5h-180q-2 35 -19.5 57t-49.5 22q-27 0 -44.5 -20.5t-17.5 -51.5q0 -51 29 -123h194v-88h-164q3 -20 3 -38q0 -34 -20 -63.5
t-56 -47.5h332z" />
    <glyph glyph-name="currency" unicode="&#xa4;" 
d="M511 301q0 -52 -27 -95l52 -52l-57 -57l-52 52q-42 -28 -96 -28t-96 28l-52 -52l-57 57l52 52q-27 43 -27 95t27 95l-52 52l57 57l52 -52q42 28 96 28t96 -28l52 52l57 -57l-52 -52q27 -43 27 -95zM331 215q34 0 55 23.5t21 62.5t-21 62.5t-55 23.5t-55 -23.5t-21 -62.5
t21 -62.5t55 -23.5z" />
    <glyph glyph-name="yen" unicode="&#xa5;" 
d="M466 380h105v-96h-150v-57h150v-96h-150v-131h-180v131h-150v96h150v57h-150v96h105l-172 310h186l125 -300l122 300h181z" />
    <glyph glyph-name="brokenbar" unicode="&#xa6;" horiz-adv-x="296" 
d="M198 350h-100v340h100v-340zM198 -160h-100v340h100v-340z" />
    <glyph glyph-name="section" unicode="&#xa7;" horiz-adv-x="630" 
d="M607 234q0 -98 -84 -147q22 -32 22 -79q0 -84 -67.5 -133t-171.5 -49q-107 0 -176 46t-79 134h177q7 -31 29 -49.5t51 -18.5q25 0 41 14t16 39q0 34 -32 58.5t-122 52.5q-98 30 -143.5 72t-45.5 122q0 93 76 145q-15 28 -15 64q0 88 64.5 143.5t170.5 55.5
q97 0 154.5 -48.5t68.5 -129.5h-177q-6 34 -19 50t-37 16q-19 0 -32 -15t-13 -41q0 -39 24 -58.5t99 -39.5q116 -31 168.5 -78t52.5 -126zM303 214q64 -21 104 -40q20 17 20 44q0 34 -25.5 56t-88.5 40q-51 14 -96 33q-15 -15 -15 -45q0 -31 23.5 -50.5t77.5 -37.5z" />
    <glyph glyph-name="dieresis" unicode="&#xa8;" horiz-adv-x="300" 
d="M50 715q34 0 54.5 -19.5t20.5 -53.5t-20.5 -53.5t-54.5 -19.5t-54.5 19.5t-20.5 53.5t20.5 53.5t54.5 19.5zM250 715q34 0 54.5 -19.5t20.5 -53.5t-20.5 -53.5t-54.5 -19.5t-54.5 19.5t-20.5 53.5t20.5 53.5t54.5 19.5z" />
    <glyph glyph-name="copyright" unicode="&#xa9;" horiz-adv-x="860" 
d="M430 759q182 0 298 -113t116 -291t-116 -291t-298 -113t-298 113t-116 291t116 291t298 113zM430 663q-134 0 -220 -86.5t-86 -221.5q0 -134 86 -220t220 -86t220 86t86 220q0 135 -86 221.5t-220 86.5zM439 582q95 0 149.5 -50.5t61.5 -137.5h-147q-6 86 -70 86
q-70 0 -70 -124q0 -128 74 -128q27 0 45 21t20 65h147q-12 -88 -67 -138t-150 -50q-100 0 -161.5 61t-61.5 168q0 102 63 164.5t167 62.5z" />
    <glyph glyph-name="guillemotleft" unicode="&#xab;" horiz-adv-x="697" 
d="M413 414l-137 -166l137 -166h-129l-137 166l137 166h129zM653 414l-137 -166l137 -166h-129l-137 166l137 166h129z" />
    <glyph glyph-name="logicalnot" unicode="&#xac;" 
d="M532 172h-100v130h-312v96h412v-226z" />
    <glyph glyph-name="registered" unicode="&#xae;" horiz-adv-x="486" 
d="M243 764q93 0 151.5 -59t58.5 -151t-58.5 -151t-151.5 -59t-151.5 59t-58.5 151t58.5 151t151.5 59zM243 400q66 0 108 43t42 111t-42 111t-108 43t-108 -43t-42 -111t42 -111t108 -43zM297 553q25 -8 28 -46q4 -34 13 -54h-67q-3 13 -7 41q-5 29 -29 29h-13v-70h-60v214
h77q18 0 27 -1q70 -7 70 -61q0 -40 -39 -52zM251 570q20 3 20 25q0 23 -20 26q-7 1 -19 1h-10v-53h9q13 0 20 1z" />
    <glyph glyph-name="macron" unicode="&#xaf;" horiz-adv-x="300" 
d="M300 586h-300v96h300v-96z" />
    <glyph glyph-name="degree" unicode="&#xb0;" horiz-adv-x="320" 
d="M160 704q61 0 100.5 -38t39.5 -97t-39.5 -97t-100.5 -38t-100.5 38t-39.5 97t39.5 97t100.5 38zM160 616q-19 0 -32.5 -13.5t-13.5 -33.5t13.5 -33.5t32.5 -13.5t32.5 13.5t13.5 33.5t-13.5 33.5t-32.5 13.5z" />
    <glyph glyph-name="plusminus" unicode="&#xb1;" 
d="M381 366h150v-96h-150v-144h-100v144h-150v96h150v142h100v-142zM531 0h-400v88h400v-88z" />
    <glyph glyph-name="acute" unicode="&#xb4;" horiz-adv-x="300" 
d="M192 571h-96l91 125h160z" />
    <glyph glyph-name="paragraph" unicode="&#xb6;" horiz-adv-x="618" 
d="M564 690v-800h-100v704h-113v-704h-100v430q-39 0 -56 1q-74 4 -115.5 56.5t-41.5 127.5t41.5 127.5t115.5 56.5q17 1 56 1h313z" />
    <glyph glyph-name="periodcentered" unicode="&#xb7;" horiz-adv-x="280" 
d="M140 405q44 0 72 -28t28 -72t-28 -72t-72 -28t-72 28t-28 72t28 72t72 28z" />
    <glyph glyph-name="cedilla" unicode="&#xb8;" horiz-adv-x="300" 
d="M194 9l-25 -51q95 -11 95 -77q0 -91 -169 -91q-34 0 -57 6v70q29 -7 58 -7q60 0 60 27q0 32 -97 26l47 97h88z" />
    <glyph glyph-name="guillemotright" unicode="&#xbb;" horiz-adv-x="664" 
d="M310 248l-137 -166h-129l137 166l-137 166h129zM550 248l-137 -166h-129l137 166l-137 166h129z" />
    <glyph glyph-name="questiondown" unicode="&#xbf;" horiz-adv-x="559" 
d="M300 369q-40 0 -65 25t-25 65t25 64.5t65 24.5t65 -24.5t25 -64.5t-25 -65t-65 -25zM293 -170q-116 0 -180.5 50.5t-64.5 142.5q0 57 24.5 97t81.5 86q39 32 55 56t20 62h146q-1 -58 -16 -92t-49 -71q-41 -44 -57.5 -70.5t-16.5 -52.5q0 -76 70 -76q69 0 73 98h180
q-3 -108 -74 -169t-192 -61z" />
    <glyph glyph-name="Agrave" unicode="&#xc0;" horiz-adv-x="707" 
d="M328 735l-155 125h160l91 -125h-96zM468 179h-215l-58 -179h-191l249 690h220l249 -690h-196zM361 531l-64 -212h128z" />
    <glyph glyph-name="Aacute" unicode="&#xc1;" horiz-adv-x="707" 
d="M405 735h-96l91 125h160zM468 179h-215l-58 -179h-191l249 690h220l249 -690h-196zM361 531l-64 -212h128z" />
    <glyph glyph-name="Acircumflex" unicode="&#xc2;" horiz-adv-x="707" 
d="M330 735h-103l62 125h149l62 -125h-104l-34 76zM468 179h-215l-58 -179h-191l249 690h220l249 -690h-196zM361 531l-64 -212h128z" />
    <glyph glyph-name="Atilde" unicode="&#xc3;" horiz-adv-x="707" 
d="M310 773q-15 0 -15 -31h-96q0 70 21.5 102t68.5 32q39 0 82 -19q33 -15 45 -15q15 0 15 31h96q0 -70 -21.5 -102t-68.5 -32q-38 0 -82 19q-36 15 -45 15zM468 179h-215l-58 -179h-191l249 690h220l249 -690h-196zM361 531l-64 -212h128z" />
    <glyph glyph-name="Adieresis" unicode="&#xc4;" horiz-adv-x="707" 
d="M263 722q-34 0 -54.5 19.5t-20.5 53.5t20.5 53.5t54.5 19.5t54.5 -19.5t20.5 -53.5t-20.5 -53.5t-54.5 -19.5zM463 722q-34 0 -54.5 19.5t-20.5 53.5t20.5 53.5t54.5 19.5t54.5 -19.5t20.5 -53.5t-20.5 -53.5t-54.5 -19.5zM468 179h-215l-58 -179h-191l249 690h220
l249 -690h-196zM361 531l-64 -212h128z" />
    <glyph glyph-name="Aring" unicode="&#xc5;" horiz-adv-x="707" 
d="M363 722q-53 0 -86 29.5t-33 75.5t33 75.5t86 29.5t86 -29.5t33 -75.5t-33 -75.5t-86 -29.5zM363 866q-16 0 -26 -11t-10 -28t10 -28t26 -11t26 11t10 28t-10 28t-26 11zM468 179h-215l-58 -179h-191l249 690h220l249 -690h-196zM361 531l-64 -212h128z" />
    <glyph glyph-name="AE" unicode="&#xc6;" horiz-adv-x="996" 
d="M966 140v-140h-496l-24 209h-198l-99 -209h-191l359 690h639v-140h-365l-6 10l17 -144h334v-140h-318l16 -136h332zM430 349l-23 194l-92 -194h115z" />
    <glyph glyph-name="Ccedilla" unicode="&#xc7;" horiz-adv-x="734" 
d="M526 247h180l-1 -10q-12 -116 -91 -180.5t-203 -69.5l-14 -29q95 -11 95 -77q0 -91 -169 -91q-34 0 -57 6v70q29 -7 58 -7q60 0 60 27q0 32 -97 26l38 79q-121 19 -196 109t-75 240q0 173 97 268.5t244 95.5q142 0 221.5 -66.5t90.5 -174.5l1 -10h-180l-2 10
q-22 109 -133 109q-67 0 -109 -56.5t-42 -164.5q0 -122 42.5 -177.5t109.5 -55.5q52 0 85.5 31t44.5 88z" />
    <glyph glyph-name="Egrave" unicode="&#xc8;" horiz-adv-x="639" 
d="M305 735l-155 125h160l91 -125h-96zM609 140v-140h-529v690h519v-140h-339v-134h319v-140h-319v-136h349z" />
    <glyph glyph-name="Eacute" unicode="&#xc9;" horiz-adv-x="639" 
d="M382 735h-96l91 125h160zM609 140v-140h-529v690h519v-140h-339v-134h319v-140h-319v-136h349z" />
    <glyph glyph-name="Ecircumflex" unicode="&#xca;" horiz-adv-x="639" 
d="M307 735h-103l62 125h149l62 -125h-104l-34 76zM609 140v-140h-529v690h519v-140h-339v-134h319v-140h-319v-136h349z" />
    <glyph glyph-name="Edieresis" unicode="&#xcb;" horiz-adv-x="639" 
d="M240 722q-34 0 -54.5 19.5t-20.5 53.5t20.5 53.5t54.5 19.5t54.5 -19.5t20.5 -53.5t-20.5 -53.5t-54.5 -19.5zM440 722q-34 0 -54.5 19.5t-20.5 53.5t20.5 53.5t54.5 19.5t54.5 -19.5t20.5 -53.5t-20.5 -53.5t-54.5 -19.5zM609 140v-140h-529v690h519v-140h-339v-134h319
v-140h-319v-136h349z" />
    <glyph glyph-name="Igrave" unicode="&#xcc;" horiz-adv-x="314" 
d="M231 735h-96l-155 125h160zM260 0h-180v690h180v-690z" />
    <glyph glyph-name="Iacute" unicode="&#xcd;" horiz-adv-x="314" 
d="M212 735h-96l91 125h160zM260 0h-180v690h180v-690z" />
    <glyph glyph-name="Icircumflex" unicode="&#xce;" horiz-adv-x="314" 
d="M137 735h-103l62 125h149l62 -125h-104l-34 76zM80 690h180v-690h-180v690z" />
    <glyph glyph-name="Idieresis" unicode="&#xcf;" horiz-adv-x="314" 
d="M70 868q34 0 54.5 -19.5t20.5 -53.5t-20.5 -53.5t-54.5 -19.5t-54.5 19.5t-20.5 53.5t20.5 53.5t54.5 19.5zM270 868q34 0 54.5 -19.5t20.5 -53.5t-20.5 -53.5t-54.5 -19.5t-54.5 19.5t-20.5 53.5t20.5 53.5t54.5 19.5zM260 0h-180v690h180v-690z" />
    <glyph glyph-name="Eth" unicode="&#xd0;" horiz-adv-x="759" 
d="M439 686q130 -15 211 -97t81 -235q0 -155 -82.5 -245.5t-209.5 -104.5q-35 -4 -88 -4h-261v293h-59v96h59v301h261q53 0 88 -4zM391 142q69 6 110.5 62t41.5 147q0 90 -41 140.5t-111 56.5q-23 2 -65 2h-56v-161h102v-96h-102v-153h56q42 0 65 2z" />
    <glyph glyph-name="Ntilde" unicode="&#xd1;" horiz-adv-x="794" 
d="M331 876q39 0 82 -19q33 -15 45 -15q15 0 15 31h96q0 -70 -21.5 -102t-68.5 -32q-38 0 -82 19q-36 15 -45 15q-15 0 -15 -31h-96q0 70 21.5 102t68.5 32zM740 0h-235l-251 456q6 -70 6 -171v-285h-180v690h224l262 -476q-6 84 -6 181v295h180v-690z" />
    <glyph glyph-name="Ograve" unicode="&#xd2;" horiz-adv-x="788" 
d="M372 735l-155 125h160l91 -125h-96zM407 704q162 0 257.5 -96.5t95.5 -262.5q0 -165 -95.5 -262t-257.5 -97t-257.5 97t-95.5 262q0 166 95.5 262.5t257.5 96.5zM407 118q79 0 124 59.5t45 167.5q0 109 -45 168t-124 59t-124 -59t-45 -168q0 -108 45 -167.5t124 -59.5z
" />
    <glyph glyph-name="Oacute" unicode="&#xd3;" horiz-adv-x="788" 
d="M449 735h-96l91 125h160zM407 704q162 0 257.5 -96.5t95.5 -262.5q0 -165 -95.5 -262t-257.5 -97t-257.5 97t-95.5 262q0 166 95.5 262.5t257.5 96.5zM407 118q79 0 124 59.5t45 167.5q0 109 -45 168t-124 59t-124 -59t-45 -168q0 -108 45 -167.5t124 -59.5z" />
    <glyph glyph-name="Ocircumflex" unicode="&#xd4;" horiz-adv-x="788" 
d="M374 735h-103l62 125h149l62 -125h-104l-34 76zM407 704q162 0 257.5 -96.5t95.5 -262.5q0 -165 -95.5 -262t-257.5 -97t-257.5 97t-95.5 262q0 166 95.5 262.5t257.5 96.5zM407 118q79 0 124 59.5t45 167.5q0 109 -45 168t-124 59t-124 -59t-45 -168q0 -108 45 -167.5
t124 -59.5z" />
    <glyph glyph-name="Otilde" unicode="&#xd5;" horiz-adv-x="788" 
d="M354 773q-15 0 -15 -31h-96q0 70 21.5 102t68.5 32q39 0 82 -19q33 -15 45 -15q15 0 15 31h96q0 -70 -21.5 -102t-68.5 -32q-38 0 -82 19q-36 15 -45 15zM407 704q162 0 257.5 -96.5t95.5 -262.5q0 -165 -95.5 -262t-257.5 -97t-257.5 97t-95.5 262q0 166 95.5 262.5
t257.5 96.5zM407 118q79 0 124 59.5t45 167.5q0 109 -45 168t-124 59t-124 -59t-45 -168q0 -108 45 -167.5t124 -59.5z" />
    <glyph glyph-name="Odieresis" unicode="&#xd6;" horiz-adv-x="788" 
d="M307 722q-34 0 -54.5 19.5t-20.5 53.5t20.5 53.5t54.5 19.5t54.5 -19.5t20.5 -53.5t-20.5 -53.5t-54.5 -19.5zM507 722q-34 0 -54.5 19.5t-20.5 53.5t20.5 53.5t54.5 19.5t54.5 -19.5t20.5 -53.5t-20.5 -53.5t-54.5 -19.5zM407 704q162 0 257.5 -96.5t95.5 -262.5
q0 -165 -95.5 -262t-257.5 -97t-257.5 97t-95.5 262q0 166 95.5 262.5t257.5 96.5zM407 118q79 0 124 59.5t45 167.5q0 109 -45 168t-124 59t-124 -59t-45 -168q0 -108 45 -167.5t124 -59.5z" />
    <glyph glyph-name="multiply" unicode="&#xd7;" 
d="M401 329l154 -154l-70 -70l-154 154l-154 -154l-70 70l154 154l-154 154l70 70l154 -154l154 154l70 -70z" />
    <glyph glyph-name="Oslash" unicode="&#xd8;" horiz-adv-x="790" 
d="M766 633l-67 -67q62 -90 62 -221q0 -165 -95.5 -262t-257.5 -97q-134 0 -222 67l-66 -66l-70 70l67 67q-62 90 -62 221q0 166 95.5 262.5t257.5 96.5q132 0 223 -66l65 65zM239 345q0 -52 10 -89l271 271q-42 45 -112 45q-79 0 -124 -59t-45 -168zM577 345q0 52 -10 89
l-271 -271q42 -45 112 -45q79 0 124 59.5t45 167.5z" />
    <glyph glyph-name="Ugrave" unicode="&#xd9;" horiz-adv-x="718" 
d="M435 735h-96l-155 125h160zM680 690v-387q0 -56 -3 -97q-7 -96 -80.5 -158t-222.5 -62t-222.5 62t-80.5 158q-3 41 -3 97v387h180v-420q0 -29 1 -41q8 -111 125 -111t125 111q1 12 1 41v420h180z" />
    <glyph glyph-name="Uacute" unicode="&#xda;" horiz-adv-x="718" 
d="M416 735h-96l91 125h160zM680 690v-387q0 -56 -3 -97q-7 -96 -80.5 -158t-222.5 -62t-222.5 62t-80.5 158q-3 41 -3 97v387h180v-420q0 -29 1 -41q8 -111 125 -111t125 111q1 12 1 41v420h180z" />
    <glyph glyph-name="Ucircumflex" unicode="&#xdb;" horiz-adv-x="718" 
d="M341 735h-103l62 125h149l62 -125h-104l-34 76zM680 690v-387q0 -56 -3 -97q-7 -96 -80.5 -158t-222.5 -62t-222.5 62t-80.5 158q-3 41 -3 97v387h180v-420q0 -29 1 -41q8 -111 125 -111t125 111q1 12 1 41v420h180z" />
    <glyph glyph-name="Udieresis" unicode="&#xdc;" horiz-adv-x="718" 
d="M274 868q34 0 54.5 -19.5t20.5 -53.5t-20.5 -53.5t-54.5 -19.5t-54.5 19.5t-20.5 53.5t20.5 53.5t54.5 19.5zM474 868q34 0 54.5 -19.5t20.5 -53.5t-20.5 -53.5t-54.5 -19.5t-54.5 19.5t-20.5 53.5t20.5 53.5t54.5 19.5zM680 690v-387q0 -56 -3 -97q-7 -96 -80.5 -158
t-222.5 -62t-222.5 62t-80.5 158q-3 41 -3 97v387h180v-420q0 -29 1 -41q8 -111 125 -111t125 111q1 12 1 41v420h180z" />
    <glyph glyph-name="Yacute" unicode="&#xdd;" horiz-adv-x="663" 
d="M389 735h-96l91 125h160zM437 264v-264h-180v264l-243 426h202l136 -273l131 273h197z" />
    <glyph glyph-name="Thorn" unicode="&#xde;" horiz-adv-x="653" 
d="M457 597q81 -10 131.5 -62t50.5 -147t-50.5 -147t-131.5 -62q-46 -5 -108 -5h-89v-174h-180v690h180v-88h89q62 0 108 -5zM378 315q73 6 73 73t-73 73q-13 1 -48 1h-70v-148h70q35 0 48 1z" />
    <glyph glyph-name="germandbls" unicode="&#xdf;" horiz-adv-x="666" 
d="M335 754q125 0 195.5 -53t70.5 -141q0 -46 -26 -84q-55 -32 -55 -78q0 -35 48 -86q42 -44 57 -75t15 -85q0 -75 -58.5 -115.5t-141.5 -40.5q-89 0 -138 10v135q52 -13 94 -13q56 0 56 47q0 37 -44 82q-43 45 -59.5 73t-16.5 68q0 73 68 116q13 17 13 44q0 64 -84 64
q-87 0 -93 -90q-2 -28 -2 -94v-438h-180v430q0 68 2 104q7 103 80 161.5t199 58.5z" />
    <glyph glyph-name="agrave" unicode="&#xe0;" horiz-adv-x="587" 
d="M266 571l-155 125h160l91 -125h-96zM367 0l-12 78l-22 -56q-57 -36 -132 -36q-70 0 -120.5 42t-50.5 116q0 86 77 135t212 49h34v8q0 22 -2 39q-2 22 -19 36.5t-45 14.5q-64 0 -69 -73l-170 -1q1 91 71.5 143.5t175.5 52.5q221 0 235 -172q3 -41 3 -91v-150
q0 -61 10 -135h-176zM275 108q30 0 54 22t24 61v35q-63 5 -101 -12.5t-38 -55.5q0 -24 16.5 -37t44.5 -13z" />
    <glyph glyph-name="aacute" unicode="&#xe1;" horiz-adv-x="587" 
d="M335 571h-96l91 125h160zM367 0l-12 78l-22 -56q-57 -36 -132 -36q-70 0 -120.5 42t-50.5 116q0 86 77 135t212 49h34v8q0 22 -2 39q-2 22 -19 36.5t-45 14.5q-64 0 -69 -73l-170 -1q1 91 71.5 143.5t175.5 52.5q221 0 235 -172q3 -41 3 -91v-150q0 -61 10 -135h-176z
M275 108q30 0 54 22t24 61v35q-63 5 -101 -12.5t-38 -55.5q0 -24 16.5 -37t44.5 -13z" />
    <glyph glyph-name="acircumflex" unicode="&#xe2;" horiz-adv-x="587" 
d="M260 571h-103l62 125h149l62 -125h-104l-34 76zM367 0l-12 78l-22 -56q-57 -36 -132 -36q-70 0 -120.5 42t-50.5 116q0 86 77 135t212 49h34v8q0 22 -2 39q-2 22 -19 36.5t-45 14.5q-64 0 -69 -73l-170 -1q1 91 71.5 143.5t175.5 52.5q221 0 235 -172q3 -41 3 -91v-150
q0 -61 10 -135h-176zM275 108q30 0 54 22t24 61v35q-63 5 -101 -12.5t-38 -55.5q0 -24 16.5 -37t44.5 -13z" />
    <glyph glyph-name="atilde" unicode="&#xe3;" horiz-adv-x="587" 
d="M240 605q-15 0 -15 -31h-96q0 70 21.5 102t68.5 32q39 0 82 -19q33 -15 45 -15q15 0 15 31h96q0 -70 -21.5 -102t-68.5 -32q-38 0 -82 19q-36 15 -45 15zM367 0l-12 78l-22 -56q-57 -36 -132 -36q-70 0 -120.5 42t-50.5 116q0 86 77 135t212 49h34v8q0 22 -2 39
q-2 22 -19 36.5t-45 14.5q-64 0 -69 -73l-170 -1q1 91 71.5 143.5t175.5 52.5q221 0 235 -172q3 -41 3 -91v-150q0 -61 10 -135h-176zM275 108q30 0 54 22t24 61v35q-63 5 -101 -12.5t-38 -55.5q0 -24 16.5 -37t44.5 -13z" />
    <glyph glyph-name="adieresis" unicode="&#xe4;" horiz-adv-x="587" 
d="M193 569q-34 0 -54.5 19.5t-20.5 53.5t20.5 53.5t54.5 19.5t54.5 -19.5t20.5 -53.5t-20.5 -53.5t-54.5 -19.5zM393 569q-34 0 -54.5 19.5t-20.5 53.5t20.5 53.5t54.5 19.5t54.5 -19.5t20.5 -53.5t-20.5 -53.5t-54.5 -19.5zM367 0l-12 78l-22 -56q-57 -36 -132 -36
q-70 0 -120.5 42t-50.5 116q0 86 77 135t212 49h34v8q0 22 -2 39q-2 22 -19 36.5t-45 14.5q-64 0 -69 -73l-170 -1q1 91 71.5 143.5t175.5 52.5q221 0 235 -172q3 -41 3 -91v-150q0 -61 10 -135h-176zM275 108q30 0 54 22t24 61v35q-63 5 -101 -12.5t-38 -55.5
q0 -24 16.5 -37t44.5 -13z" />
    <glyph glyph-name="aring" unicode="&#xe5;" horiz-adv-x="587" 
d="M293 567q-53 0 -86 29.5t-33 77.5t33 77.5t86 29.5t86 -29.5t33 -77.5t-33 -77.5t-86 -29.5zM293 715q-16 0 -26 -11t-10 -30t10 -30t26 -11t26 11t10 30t-10 30t-26 11zM367 0l-12 78l-22 -56q-57 -36 -132 -36q-70 0 -120.5 42t-50.5 116q0 86 77 135t212 49h34v8
q0 22 -2 39q-2 22 -19 36.5t-45 14.5q-64 0 -69 -73l-170 -1q1 91 71.5 143.5t175.5 52.5q221 0 235 -172q3 -41 3 -91v-150q0 -61 10 -135h-176zM275 108q30 0 54 22t24 61v35q-63 5 -101 -12.5t-38 -55.5q0 -24 16.5 -37t44.5 -13z" />
    <glyph glyph-name="ae" unicode="&#xe6;" horiz-adv-x="974" 
d="M950 274q0 -25 -3 -52h-372q6 -63 31.5 -88.5t67.5 -25.5q38 0 61 18t28 49h177q-23 -90 -94 -139.5t-174 -49.5q-153 0 -223 114l-66 -78q-57 -36 -142 -36q-98 0 -154.5 42t-56.5 121q0 89 78.5 136t210.5 47h58v6q0 88 -80 88q-32 0 -54.5 -20t-24.5 -54h-170
q1 91 71.5 143.5t175.5 52.5q144 0 191 -93q66 93 206 93q120 0 189 -81.5t69 -192.5zM581 332h181q-14 94 -89 94q-73 0 -92 -94zM378 214v8q-85 4 -124.5 -10t-39.5 -49q0 -55 72 -55q42 0 67 28t25 78z" />
    <glyph glyph-name="ccedilla" unicode="&#xe7;" horiz-adv-x="587" 
d="M388 196h177q-13 -93 -77 -147t-162 -62l-14 -29q95 -11 95 -77q0 -91 -169 -91q-34 0 -57 6v70q29 -7 58 -7q60 0 60 27q0 32 -97 26l38 78q-98 16 -157 87t-59 184q0 134 79.5 210.5t201.5 76.5q114 0 184 -62.5t74 -155.5h-174q-11 96 -88 96q-93 0 -93 -154
q0 -164 95 -164q32 0 55 23t30 65z" />
    <glyph glyph-name="egrave" unicode="&#xe8;" horiz-adv-x="601" 
d="M275 571l-155 125h160l91 -125h-96zM577 274q0 -25 -3 -52h-372q6 -63 31.5 -88.5t67.5 -25.5q38 0 61 18t28 49h177q-23 -90 -94 -139.5t-174 -49.5q-121 0 -198 72t-77 207q0 121 77.5 202t207.5 81q126 0 197 -81t71 -193zM300 426q-75 0 -92 -94h181q-15 94 -89 94z
" />
    <glyph glyph-name="eacute" unicode="&#xe9;" horiz-adv-x="601" 
d="M344 571h-96l91 125h160zM577 274q0 -25 -3 -52h-372q6 -63 31.5 -88.5t67.5 -25.5q38 0 61 18t28 49h177q-23 -90 -94 -139.5t-174 -49.5q-121 0 -198 72t-77 207q0 121 77.5 202t207.5 81q126 0 197 -81t71 -193zM300 426q-75 0 -92 -94h181q-15 94 -89 94z" />
    <glyph glyph-name="ecircumflex" unicode="&#xea;" horiz-adv-x="601" 
d="M269 571h-103l62 125h149l62 -125h-104l-34 76zM577 274q0 -25 -3 -52h-372q6 -63 31.5 -88.5t67.5 -25.5q38 0 61 18t28 49h177q-23 -90 -94 -139.5t-174 -49.5q-121 0 -198 72t-77 207q0 121 77.5 202t207.5 81q126 0 197 -81t71 -193zM300 426q-75 0 -92 -94h181
q-15 94 -89 94z" />
    <glyph glyph-name="edieresis" unicode="&#xeb;" horiz-adv-x="601" 
d="M202 569q-34 0 -54.5 19.5t-20.5 53.5t20.5 53.5t54.5 19.5t54.5 -19.5t20.5 -53.5t-20.5 -53.5t-54.5 -19.5zM402 569q-34 0 -54.5 19.5t-20.5 53.5t20.5 53.5t54.5 19.5t54.5 -19.5t20.5 -53.5t-20.5 -53.5t-54.5 -19.5zM577 274q0 -25 -3 -52h-372q6 -63 31.5 -88.5
t67.5 -25.5q38 0 61 18t28 49h177q-23 -90 -94 -139.5t-174 -49.5q-121 0 -198 72t-77 207q0 121 77.5 202t207.5 81q126 0 197 -81t71 -193zM300 426q-75 0 -92 -94h181q-15 94 -89 94z" />
    <glyph glyph-name="igrave" unicode="&#xec;" horiz-adv-x="288" 
d="M213 571h-96l-155 125h160zM234 0h-180v534h180v-534z" />
    <glyph glyph-name="iacute" unicode="&#xed;" horiz-adv-x="288" 
d="M186 571h-96l91 125h160zM234 0h-180v534h180v-534z" />
    <glyph glyph-name="icircumflex" unicode="&#xee;" horiz-adv-x="288" 
d="M111 571h-103l62 125h149l62 -125h-104l-34 76zM54 534h180v-534h-180v534z" />
    <glyph glyph-name="idieresis" unicode="&#xef;" horiz-adv-x="288" 
d="M44 715q34 0 54.5 -19.5t20.5 -53.5t-20.5 -53.5t-54.5 -19.5t-54.5 19.5t-20.5 53.5t20.5 53.5t54.5 19.5zM244 715q34 0 54.5 -19.5t20.5 -53.5t-20.5 -53.5t-54.5 -19.5t-54.5 19.5t-20.5 53.5t20.5 53.5t54.5 19.5zM234 0h-180v534h180v-534z" />
    <glyph glyph-name="eth" unicode="&#xf0;" 
d="M593 623l-42 -8q68 -105 68 -308q0 -86 -26 -150.5t-69.5 -100.5t-92.5 -53t-104 -17q-148 0 -225.5 76.5t-77.5 204.5q0 133 74.5 207t189.5 74q43 0 92 -29l43 -54q-8 65 -50 117l-124 -23l-12 73l65 12q-24 17 -66 35l155 66q60 -27 104 -65l86 16zM435 260v29
q0 57 -29 92t-78 35q-57 0 -86.5 -39t-29.5 -110q0 -149 115 -149q55 0 81.5 38.5t26.5 103.5z" />
    <glyph glyph-name="ntilde" unicode="&#xf1;" horiz-adv-x="644" 
d="M268 605q-15 0 -15 -31h-96q0 70 21.5 102t68.5 32q39 0 82 -19q33 -15 45 -15q15 0 15 31h96q0 -70 -21.5 -102t-68.5 -32q-38 0 -82 19q-36 15 -45 15zM591 403q5 -34 5 -101v-302h-180v272q0 46 -2 73q-6 81 -86 81q-43 0 -68.5 -43.5t-25.5 -130.5v-252h-180v534h180
v-83l48 66q51 31 120 31q82 0 130 -37.5t59 -107.5z" />
    <glyph glyph-name="ograve" unicode="&#xf2;" horiz-adv-x="622" 
d="M284 571l-155 125h160l91 -125h-96zM311 548q131 0 209 -76t78 -205q0 -128 -78 -204.5t-209 -76.5t-209 76.5t-78 204.5q0 129 78 205t209 76zM311 108q49 0 76 40.5t27 118.5q0 79 -27 119t-76 40t-76 -40t-27 -119q0 -78 27 -118.5t76 -40.5z" />
    <glyph glyph-name="oacute" unicode="&#xf3;" horiz-adv-x="622" 
d="M353 571h-96l91 125h160zM311 548q131 0 209 -76t78 -205q0 -128 -78 -204.5t-209 -76.5t-209 76.5t-78 204.5q0 129 78 205t209 76zM311 108q49 0 76 40.5t27 118.5q0 79 -27 119t-76 40t-76 -40t-27 -119q0 -78 27 -118.5t76 -40.5z" />
    <glyph glyph-name="ocircumflex" unicode="&#xf4;" horiz-adv-x="622" 
d="M278 571h-103l62 125h149l62 -125h-104l-34 76zM311 548q131 0 209 -76t78 -205q0 -128 -78 -204.5t-209 -76.5t-209 76.5t-78 204.5q0 129 78 205t209 76zM311 108q49 0 76 40.5t27 118.5q0 79 -27 119t-76 40t-76 -40t-27 -119q0 -78 27 -118.5t76 -40.5z" />
    <glyph glyph-name="otilde" unicode="&#xf5;" horiz-adv-x="622" 
d="M258 605q-15 0 -15 -31h-96q0 70 21.5 102t68.5 32q39 0 82 -19q33 -15 45 -15q15 0 15 31h96q0 -70 -21.5 -102t-68.5 -32q-38 0 -82 19q-36 15 -45 15zM311 548q131 0 209 -76t78 -205q0 -128 -78 -204.5t-209 -76.5t-209 76.5t-78 204.5q0 129 78 205t209 76zM311 108
q49 0 76 40.5t27 118.5q0 79 -27 119t-76 40t-76 -40t-27 -119q0 -78 27 -118.5t76 -40.5z" />
    <glyph glyph-name="odieresis" unicode="&#xf6;" horiz-adv-x="622" 
d="M211 569q-34 0 -54.5 19.5t-20.5 53.5t20.5 53.5t54.5 19.5t54.5 -19.5t20.5 -53.5t-20.5 -53.5t-54.5 -19.5zM411 569q-34 0 -54.5 19.5t-20.5 53.5t20.5 53.5t54.5 19.5t54.5 -19.5t20.5 -53.5t-20.5 -53.5t-54.5 -19.5zM311 548q131 0 209 -76t78 -205
q0 -128 -78 -204.5t-209 -76.5t-209 76.5t-78 204.5q0 129 78 205t209 76zM311 108q49 0 76 40.5t27 118.5q0 79 -27 119t-76 40t-76 -40t-27 -119q0 -78 27 -118.5t76 -40.5z" />
    <glyph glyph-name="divide" unicode="&#xf7;" 
d="M331 585q34 0 57 -23t23 -57t-23 -57t-57 -23t-57 23t-23 57t23 57t57 23zM576 269h-490v96h490v-96zM331 209q34 0 57 -23t23 -57t-23 -57t-57 -23t-57 23t-23 57t23 57t57 23z" />
    <glyph glyph-name="oslash" unicode="&#xf8;" horiz-adv-x="638" 
d="M618 495l-62 -62q46 -67 46 -166q0 -128 -78 -204.5t-209 -76.5q-96 0 -164 42l-60 -60l-71 71l57 57q-49 70 -49 171q0 129 78 205t209 76q99 0 169 -45l63 63zM212 267q0 -14 2 -34l166 166q-26 27 -65 27q-49 0 -76 -40t-27 -119zM418 267q0 18 -1 27l-163 -163
q25 -23 61 -23q49 0 76 40.5t27 118.5z" />
    <glyph glyph-name="ugrave" unicode="&#xf9;" horiz-adv-x="640" 
d="M288 571l-155 125h160l91 -125h-96zM586 534v-534h-180v90l-48 -73q-51 -31 -120 -31q-79 0 -129.5 38.5t-59.5 96.5q-5 34 -5 101v312h180v-272q0 -37 4 -73q10 -81 87 -81q42 0 66.5 35t24.5 89v302h180z" />
    <glyph glyph-name="uacute" unicode="&#xfa;" horiz-adv-x="640" 
d="M357 571h-96l91 125h160zM586 534v-534h-180v90l-48 -73q-51 -31 -120 -31q-79 0 -129.5 38.5t-59.5 96.5q-5 34 -5 101v312h180v-272q0 -37 4 -73q10 -81 87 -81q42 0 66.5 35t24.5 89v302h180z" />
    <glyph glyph-name="ucircumflex" unicode="&#xfb;" horiz-adv-x="640" 
d="M282 571h-103l62 125h149l62 -125h-104l-34 76zM586 534v-534h-180v90l-48 -73q-51 -31 -120 -31q-79 0 -129.5 38.5t-59.5 96.5q-5 34 -5 101v312h180v-272q0 -37 4 -73q10 -81 87 -81q42 0 66.5 35t24.5 89v302h180z" />
    <glyph glyph-name="udieresis" unicode="&#xfc;" horiz-adv-x="640" 
d="M215 569q-34 0 -54.5 19.5t-20.5 53.5t20.5 53.5t54.5 19.5t54.5 -19.5t20.5 -53.5t-20.5 -53.5t-54.5 -19.5zM415 569q-34 0 -54.5 19.5t-20.5 53.5t20.5 53.5t54.5 19.5t54.5 -19.5t20.5 -53.5t-20.5 -53.5t-54.5 -19.5zM586 534v-534h-180v90l-48 -73
q-51 -31 -120 -31q-79 0 -129.5 38.5t-59.5 96.5q-5 34 -5 101v312h180v-272q0 -37 4 -73q10 -81 87 -81q42 0 66.5 35t24.5 89v302h180z" />
    <glyph glyph-name="yacute" unicode="&#xfd;" horiz-adv-x="608" 
d="M341 571h-96l91 125h160zM616 534l-211 -534q-49 -125 -102 -167.5t-150 -42.5q-43 0 -76 5v116q15 -2 49 -2q65 0 88 52l7 15l-221 558h200l110 -391l109 391h197z" />
    <glyph glyph-name="thorn" unicode="&#xfe;" horiz-adv-x="669" 
d="M410 548q108 0 171.5 -74.5t63.5 -194.5q0 -137 -72.5 -215t-180.5 -78q-79 0 -123 26l-35 57v-265h-180v931h180v-279l40 59q45 33 136 33zM343 108q54 0 86 41.5t32 120.5q0 73 -32 114.5t-81 41.5q-114 0 -114 -152v-23q0 -74 31.5 -108.5t77.5 -34.5z" />
    <glyph glyph-name="ydieresis" unicode="&#xff;" horiz-adv-x="608" 
d="M199 569q-34 0 -54.5 19.5t-20.5 53.5t20.5 53.5t54.5 19.5t54.5 -19.5t20.5 -53.5t-20.5 -53.5t-54.5 -19.5zM399 569q-34 0 -54.5 19.5t-20.5 53.5t20.5 53.5t54.5 19.5t54.5 -19.5t20.5 -53.5t-20.5 -53.5t-54.5 -19.5zM616 534l-211 -534q-49 -125 -102 -167.5
t-150 -42.5q-43 0 -76 5v116q15 -2 49 -2q65 0 88 52l7 15l-221 558h200l110 -391l109 391h197z" />
    <glyph glyph-name="Amacron" unicode="&#x100;" horiz-adv-x="707" 
d="M513 760h-300v96h300v-96zM468 179h-215l-58 -179h-191l249 690h220l249 -690h-196zM361 531l-64 -212h128z" />
    <glyph glyph-name="amacron" unicode="&#x101;" horiz-adv-x="587" 
d="M443 586h-300v96h300v-96zM367 0l-12 78l-22 -56q-57 -36 -132 -36q-70 0 -120.5 42t-50.5 116q0 86 77 135t212 49h34v8q0 22 -2 39q-2 22 -19 36.5t-45 14.5q-64 0 -69 -73l-170 -1q1 91 71.5 143.5t175.5 52.5q221 0 235 -172q3 -41 3 -91v-150q0 -61 10 -135h-176z
M275 108q30 0 54 22t24 61v35q-63 5 -101 -12.5t-38 -55.5q0 -24 16.5 -37t44.5 -13z" />
    <glyph glyph-name="Abreve" unicode="&#x102;" horiz-adv-x="707" 
d="M363 728q-60 0 -97.5 31.5t-37.5 100.5h90q3 -47 45 -47t45 47h90q0 -69 -38 -100.5t-97 -31.5zM468 179h-215l-58 -179h-191l249 690h220l249 -690h-196zM361 531l-64 -212h128z" />
    <glyph glyph-name="abreve" unicode="&#x103;" horiz-adv-x="587" 
d="M293 568q-135 0 -135 128h90q3 -43 45 -43t45 43h90q0 -128 -135 -128zM367 0l-12 78l-22 -56q-57 -36 -132 -36q-70 0 -120.5 42t-50.5 116q0 86 77 135t212 49h34v8q0 22 -2 39q-2 22 -19 36.5t-45 14.5q-64 0 -69 -73l-170 -1q1 91 71.5 143.5t175.5 52.5
q221 0 235 -172q3 -41 3 -91v-150q0 -61 10 -135h-176zM275 108q30 0 54 22t24 61v35q-63 5 -101 -12.5t-38 -55.5q0 -24 16.5 -37t44.5 -13z" />
    <glyph glyph-name="Aogonek" unicode="&#x104;" horiz-adv-x="707" 
d="M604 -70q0 -26 12 -38.5t29 -12.5q22 0 44 21v-73q-50 -50 -135 -50q-114 0 -114 86q0 43 25 82t60 59l-57 175h-215l-58 -179h-191l249 690h220l249 -690h-73q-19 0 -32 -20.5t-13 -49.5zM361 531l-64 -212h128z" />
    <glyph glyph-name="aogonek" unicode="&#x105;" horiz-adv-x="587" 
d="M445 -70q0 -26 12 -38.5t29 -12.5q22 0 44 21v-73q-50 -50 -135 -50q-114 0 -114 86q0 43 25 82t60 60l-11 73l-22 -56q-57 -36 -132 -36q-70 0 -120.5 42t-50.5 116q0 86 77 135t212 49h34v8q0 22 -2 39q-2 22 -19 36.5t-45 14.5q-64 0 -69 -73l-170 -1q1 91 71.5 143.5
t175.5 52.5q221 0 235 -172q3 -41 3 -91v-150q0 -61 10 -135h-53q-19 0 -32 -20.5t-13 -49.5zM275 108q30 0 54 22t24 61v35q-63 5 -101 -12.5t-38 -55.5q0 -24 16.5 -37t44.5 -13z" />
    <glyph glyph-name="Cacute" unicode="&#x106;" horiz-adv-x="734" 
d="M426 735h-96l91 125h160zM395 704q142 0 221.5 -66.5t90.5 -174.5l1 -10h-180l-2 10q-22 109 -133 109q-67 0 -109 -56.5t-42 -164.5q0 -122 42.5 -177.5t109.5 -55.5q52 0 85.5 31t44.5 88l2 10h180l-1 -10q-12 -121 -98 -186t-219 -65q-145 0 -239.5 92.5t-94.5 261.5
q0 173 97 268.5t244 95.5z" />
    <glyph glyph-name="cacute" unicode="&#x107;" horiz-adv-x="587" 
d="M335 571h-96l91 125h160zM305 548q114 0 184 -62.5t74 -155.5h-174q-11 96 -88 96q-93 0 -93 -154q0 -164 95 -164q32 0 55 23t30 65h177q-15 -101 -88 -155.5t-184 -54.5q-118 0 -193.5 73t-75.5 202q0 134 79.5 210.5t201.5 76.5z" />
    <glyph glyph-name="Cdotaccent" unicode="&#x10a;" horiz-adv-x="734" 
d="M384 901q42 0 67.5 -24t25.5 -64t-25.5 -64t-67.5 -24t-67.5 24t-25.5 64t25.5 64t67.5 24zM395 704q142 0 221.5 -66.5t90.5 -174.5l1 -10h-180l-2 10q-22 109 -133 109q-67 0 -109 -56.5t-42 -164.5q0 -122 42.5 -177.5t109.5 -55.5q52 0 85.5 31t44.5 88l2 10h180
l-1 -10q-12 -121 -98 -186t-219 -65q-145 0 -239.5 92.5t-94.5 261.5q0 173 97 268.5t244 95.5z" />
    <glyph glyph-name="cdotaccent" unicode="&#x10b;" horiz-adv-x="587" 
d="M293 751q42 0 67.5 -24t25.5 -64t-25.5 -64t-67.5 -24t-67.5 24t-25.5 64t25.5 64t67.5 24zM305 548q114 0 184 -62.5t74 -155.5h-174q-11 96 -88 96q-93 0 -93 -154q0 -164 95 -164q32 0 55 23t30 65h177q-15 -101 -88 -155.5t-184 -54.5q-118 0 -193.5 73t-75.5 202
q0 134 79.5 210.5t201.5 76.5z" />
    <glyph glyph-name="Ccaron" unicode="&#x10c;" horiz-adv-x="734" 
d="M310 735l-62 125h104l34 -76l32 76h103l-62 -125h-149zM526 247h180l-1 -10q-12 -121 -98 -186t-219 -65q-145 0 -239.5 92.5t-94.5 261.5q0 173 97 268.5t244 95.5q142 0 221.5 -66.5t90.5 -174.5l1 -10h-180l-2 10q-22 109 -133 109q-67 0 -109 -56.5t-42 -164.5
q0 -122 42.5 -177.5t109.5 -55.5q52 0 85.5 31t44.5 88z" />
    <glyph glyph-name="ccaron" unicode="&#x10d;" horiz-adv-x="587" 
d="M219 571l-62 125h104l34 -76l32 76h103l-62 -125h-149zM388 196h177q-15 -101 -88 -155.5t-184 -54.5q-118 0 -193.5 73t-75.5 202q0 134 79.5 210.5t201.5 76.5q114 0 184 -62.5t74 -155.5h-174q-11 96 -88 96q-93 0 -93 -154q0 -164 95 -164q32 0 55 23t30 65z" />
    <glyph glyph-name="Dcaron" unicode="&#x10e;" horiz-adv-x="749" 
d="M311 735l-62 125h104l34 -76l32 76h103l-62 -125h-149zM429 686q130 -15 211 -97t81 -235q0 -155 -82.5 -245.5t-209.5 -104.5q-35 -4 -88 -4h-261v690h261q53 0 88 -4zM381 142q69 6 110.5 62t41.5 147q0 90 -41 140.5t-111 56.5q-23 2 -65 2h-56v-410h56q42 0 65 2z
" />
    <glyph glyph-name="dcaron" unicode="&#x10f;" horiz-adv-x="661" 
d="M435 735h180v-735h-180v78l-40 -59q-45 -33 -136 -33q-108 0 -171.5 74.5t-63.5 194.5q0 137 72.5 215t180.5 78q79 0 123 -26l35 -57v270zM836 735v-10l-101 -169h-97l84 179h114zM321 108q114 0 114 152v23q0 74 -31.5 108.5t-77.5 34.5q-54 0 -86 -41.5t-32 -120.5
q0 -73 32 -114.5t81 -41.5z" />
    <glyph glyph-name="Dcroat" unicode="&#x110;" horiz-adv-x="759" 
d="M439 686q130 -15 211 -97t81 -235q0 -155 -82.5 -245.5t-209.5 -104.5q-35 -4 -88 -4h-261v293h-59v96h59v301h261q53 0 88 -4zM391 142q69 6 110.5 62t41.5 147q0 90 -41 140.5t-111 56.5q-23 2 -65 2h-56v-161h102v-96h-102v-153h56q42 0 65 2z" />
    <glyph glyph-name="dcroat" unicode="&#x111;" horiz-adv-x="669" 
d="M655 575h-40v-575h-180v78l-40 -59q-45 -33 -136 -33q-108 0 -171.5 74.5t-63.5 194.5q0 137 72.5 215t180.5 78q79 0 123 -26l35 -57v110h-120v96h120v64h180v-64h40v-96zM321 108q114 0 114 152v23q0 74 -31.5 108.5t-77.5 34.5q-54 0 -86 -41.5t-32 -120.5
q0 -73 32 -114.5t81 -41.5z" />
    <glyph glyph-name="Emacron" unicode="&#x112;" horiz-adv-x="639" 
d="M490 760h-300v96h300v-96zM609 140v-140h-529v690h519v-140h-339v-134h319v-140h-319v-136h349z" />
    <glyph glyph-name="emacron" unicode="&#x113;" horiz-adv-x="601" 
d="M452 586h-300v96h300v-96zM577 274q0 -25 -3 -52h-372q6 -63 31.5 -88.5t67.5 -25.5q38 0 61 18t28 49h177q-23 -90 -94 -139.5t-174 -49.5q-121 0 -198 72t-77 207q0 121 77.5 202t207.5 81q126 0 197 -81t71 -193zM300 426q-75 0 -92 -94h181q-15 94 -89 94z" />
    <glyph glyph-name="Edotaccent" unicode="&#x116;" horiz-adv-x="639" 
d="M340 725q-42 0 -67.5 24t-25.5 64t25.5 64t67.5 24t67.5 -24t25.5 -64t-25.5 -64t-67.5 -24zM609 140v-140h-529v690h519v-140h-339v-134h319v-140h-319v-136h349z" />
    <glyph glyph-name="edotaccent" unicode="&#x117;" horiz-adv-x="601" 
d="M302 575q-42 0 -67.5 24t-25.5 64t25.5 64t67.5 24t67.5 -24t25.5 -64t-25.5 -64t-67.5 -24zM577 274q0 -25 -3 -52h-372q6 -63 31.5 -88.5t67.5 -25.5q38 0 61 18t28 49h177q-23 -90 -94 -139.5t-174 -49.5q-121 0 -198 72t-77 207q0 121 77.5 202t207.5 81
q126 0 197 -81t71 -193zM300 426q-75 0 -92 -94h181q-15 94 -89 94z" />
    <glyph glyph-name="Eogonek" unicode="&#x118;" horiz-adv-x="639" 
d="M609 0h-50q-19 0 -32 -20.5t-13 -49.5q0 -26 12 -38.5t29 -12.5q22 0 44 21v-73q-50 -50 -135 -50q-114 0 -114 86q0 40 22.5 78t55.5 59h-348v690h519v-140h-339v-134h319v-140h-319v-136h349v-140z" />
    <glyph glyph-name="eogonek" unicode="&#x119;" horiz-adv-x="601" 
d="M577 274q0 -25 -3 -52h-372q6 -63 31.5 -88.5t67.5 -25.5q38 0 61 18t28 49h177q-35 -134 -168 -175q-1 0 -6 -1.5t-8 -2.5q-30 -18 -30 -66q0 -26 12 -38.5t29 -12.5q22 0 44 21v-73q-50 -50 -135 -50q-114 0 -114 86q0 35 17.5 69t45.5 57q-103 13 -166.5 83.5
t-63.5 192.5q0 121 77.5 202t207.5 81q126 0 197 -81t71 -193zM300 426q-75 0 -92 -94h181q-15 94 -89 94z" />
    <glyph glyph-name="Ecaron" unicode="&#x11a;" horiz-adv-x="639" 
d="M266 735l-62 125h104l34 -76l32 76h103l-62 -125h-149zM609 140v-140h-529v690h519v-140h-339v-134h319v-140h-319v-136h349z" />
    <glyph glyph-name="ecaron" unicode="&#x11b;" horiz-adv-x="601" 
d="M228 571l-62 125h104l34 -76l32 76h103l-62 -125h-149zM577 274q0 -25 -3 -52h-372q6 -63 31.5 -88.5t67.5 -25.5q38 0 61 18t28 49h177q-23 -90 -94 -139.5t-174 -49.5q-121 0 -198 72t-77 207q0 121 77.5 202t207.5 81q126 0 197 -81t71 -193zM300 426q-75 0 -92 -94
h181q-15 94 -89 94z" />
    <glyph glyph-name="Gbreve" unicode="&#x11e;" horiz-adv-x="759" 
d="M388 728q-60 0 -97.5 31.5t-37.5 100.5h90q3 -47 45 -47t45 47h90q0 -69 -38 -100.5t-97 -31.5zM409 368h304v-368h-140l-17 106l-30 -76q-52 -44 -159 -44q-142 0 -227.5 92t-85.5 262q0 172 100.5 268t250.5 96q142 0 221.5 -66.5t90.5 -174.5l1 -10h-180l-2 10
q-22 109 -133 109q-70 0 -115.5 -57t-45.5 -164q0 -122 44.5 -177.5t115.5 -55.5q105 0 141 110h-134v140z" />
    <glyph glyph-name="gbreve" unicode="&#x11f;" horiz-adv-x="669" 
d="M330 568q-135 0 -135 128h90q3 -43 45 -43t45 43h90q0 -128 -135 -128zM615 534v-398q0 -74 -1 -103q-4 -127 -85 -190t-222 -63q-121 0 -190.5 48t-79.5 139l-1 10h174l1 -10q3 -26 30.5 -40.5t70.5 -14.5q114 0 121 101q2 32 2 70v15l-40 -59q-45 -33 -126 -33
q-110 0 -177.5 70t-67.5 187q0 136 72 210.5t181 74.5q79 0 123 -26l35 -57v69h180zM321 128q114 0 114 152v3q0 74 -31.5 108.5t-77.5 34.5q-118 0 -118 -150q0 -72 31.5 -110t81.5 -38z" />
    <glyph glyph-name="Gdotaccent" unicode="&#x120;" horiz-adv-x="759" 
d="M388 725q-42 0 -67.5 24t-25.5 64t25.5 64t67.5 24t67.5 -24t25.5 -64t-25.5 -64t-67.5 -24zM409 368h304v-368h-140l-17 106l-30 -76q-52 -44 -159 -44q-142 0 -227.5 92t-85.5 262q0 172 100.5 268t250.5 96q142 0 221.5 -66.5t90.5 -174.5l1 -10h-180l-2 10
q-22 109 -133 109q-70 0 -115.5 -57t-45.5 -164q0 -122 44.5 -177.5t115.5 -55.5q105 0 141 110h-134v140z" />
    <glyph glyph-name="gdotaccent" unicode="&#x121;" horiz-adv-x="669" 
d="M330 575q-42 0 -67.5 24t-25.5 64t25.5 64t67.5 24t67.5 -24t25.5 -64t-25.5 -64t-67.5 -24zM615 534v-398q0 -74 -1 -103q-4 -127 -85 -190t-222 -63q-121 0 -190.5 48t-79.5 139l-1 10h174l1 -10q3 -26 30.5 -40.5t70.5 -14.5q114 0 121 101q2 32 2 70v15l-40 -59
q-45 -33 -126 -33q-110 0 -177.5 70t-67.5 187q0 136 72 210.5t181 74.5q79 0 123 -26l35 -57v69h180zM321 128q114 0 114 152v3q0 74 -31.5 108.5t-77.5 34.5q-118 0 -118 -150q0 -72 31.5 -110t81.5 -38z" />
    <glyph glyph-name="Gcommaaccent" unicode="&#x122;" horiz-adv-x="759" 
d="M409 368h304v-368h-140l-17 106l-30 -76q-52 -44 -159 -44q-142 0 -227.5 92t-85.5 262q0 172 100.5 268t250.5 96q142 0 221.5 -66.5t90.5 -174.5l1 -10h-180l-2 10q-22 109 -133 109q-70 0 -115.5 -57t-45.5 -164q0 -122 44.5 -177.5t115.5 -55.5q105 0 141 110h-134
v140zM358 -37h114v-10l-101 -169h-97z" />
    <glyph glyph-name="gcommaaccent" unicode="&#x123;" horiz-adv-x="661" 
d="M370 567h-114v10l101 169h97zM615 534v-398q0 -74 -1 -103q-4 -127 -85 -190t-222 -63q-121 0 -190.5 48t-79.5 139l-1 10h174l1 -10q3 -26 30.5 -40.5t70.5 -14.5q114 0 121 101q2 32 2 70v15l-40 -59q-45 -33 -126 -33q-110 0 -177.5 70t-67.5 187q0 136 72 210.5
t181 74.5q79 0 123 -26l35 -57v69h180zM321 128q114 0 114 152v3q0 74 -31.5 108.5t-77.5 34.5q-118 0 -118 -150q0 -72 31.5 -110t81.5 -38z" />
    <glyph glyph-name="Hbar" unicode="&#x126;" horiz-adv-x="770" 
d="M756 482h-40v-482h-180v268h-276v-268h-180v482h-40v96h40v112h180v-112h276v112h180v-112h40v-96zM536 482h-276v-74h276v74z" />
    <glyph glyph-name="hbar" unicode="&#x127;" horiz-adv-x="656" 
d="M603 403q5 -34 5 -101v-302h-180v272q0 46 -2 73q-6 81 -86 81q-43 0 -68.5 -43.5t-25.5 -130.5v-252h-180v575h-52v96h52v69h180v-69h108v-96h-108v-124l48 66q51 31 120 31q82 0 130 -37.5t59 -107.5z" />
    <glyph glyph-name="Imacron" unicode="&#x12a;" horiz-adv-x="314" 
d="M320 760h-300v96h300v-96zM260 0h-180v690h180v-690z" />
    <glyph glyph-name="imacron" unicode="&#x12b;" horiz-adv-x="288" 
d="M294 586h-300v96h300v-96zM234 0h-180v534h180v-534z" />
    <glyph glyph-name="Iogonek" unicode="&#x12e;" horiz-adv-x="314" 
d="M260 0h-57q-19 0 -32 -20.5t-13 -49.5q0 -26 12 -38.5t29 -12.5q22 0 44 21v-73q-50 -50 -135 -50q-114 0 -114 86q0 43 25 82.5t61 59.5v685h180v-690z" />
    <glyph glyph-name="iogonek" unicode="&#x12f;" horiz-adv-x="288" 
d="M144 575q-42 0 -67.5 24t-25.5 64t25.5 64t67.5 24t67.5 -24t25.5 -64t-25.5 -64t-67.5 -24zM54 534h180v-534h-57q-19 0 -32 -20.5t-13 -49.5q0 -26 12 -38.5t29 -12.5q22 0 44 21v-73q-50 -50 -135 -50q-114 0 -114 86q0 43 25 82.5t61 59.5v529z" />
    <glyph glyph-name="Idotaccent" unicode="&#x130;" horiz-adv-x="314" 
d="M170 901q42 0 67.5 -24t25.5 -64t-25.5 -64t-67.5 -24t-67.5 24t-25.5 64t25.5 64t67.5 24zM260 0h-180v690h180v-690z" />
    <glyph glyph-name="dotlessi" unicode="&#x131;" horiz-adv-x="288" 
d="M234 0h-180v534h180v-534z" />
    <glyph glyph-name="IJ" unicode="&#x132;" horiz-adv-x="952" 
d="M260 0h-180v690h180v-690zM900 690v-391q0 -54 -3 -105q-6 -96 -71 -152t-194 -56q-261 0 -269 248l-1 30h180l2 -30q4 -64 28 -90t65 -26q73 0 81 87q2 23 2 66v419h180z" />
    <glyph glyph-name="ij" unicode="&#x133;" horiz-adv-x="570" 
d="M144 751q42 0 67.5 -24t25.5 -64t-25.5 -64t-67.5 -24t-67.5 24t-25.5 64t25.5 64t67.5 24zM430 751q48 0 70.5 -21t22.5 -67t-22.5 -67t-70.5 -21t-70.5 21t-22.5 67t22.5 67t70.5 21zM234 0h-180v534h180v-534zM520 534v-518q0 -28 -2 -64q-6 -79 -57 -120.5
t-163 -41.5q-36 0 -60 4v121q50 -5 73 6.5t27 45.5q2 28 2 48v519h180z" />
    <glyph glyph-name="Kcommaaccent" unicode="&#x136;" horiz-adv-x="743" 
d="M440 365l289 -365h-225l-195 266l-49 -54v-212h-180v690h180v-305l263 305h215zM325 -37h114v-10l-101 -169h-97z" />
    <glyph glyph-name="kcommaaccent" unicode="&#x137;" horiz-adv-x="632" 
d="M636 0h-221l-143 198l-38 -42v-156h-180v735h180v-425l188 224h211l-226 -245zM282 -37h114v-10l-101 -169h-97z" />
    <glyph glyph-name="Lacute" unicode="&#x139;" horiz-adv-x="628" 
d="M212 735h-96l91 125h160zM609 152v-152h-529v690h180v-538h349z" />
    <glyph glyph-name="lacute" unicode="&#x13a;" horiz-adv-x="305" 
d="M175 779h-96l91 125h160zM230 735v-543q0 -36 2 -49q2 -16 13.5 -21.5t45.5 -4.5v-122q-55 -5 -105 -5q-128 0 -134 104q-2 28 -2 95v546h180z" />
    <glyph glyph-name="Lcommaaccent" unicode="&#x13b;" horiz-adv-x="628" 
d="M609 152v-152h-529v690h180v-538h349zM299 -37h114v-10l-101 -169h-97z" />
    <glyph glyph-name="lcommaaccent" unicode="&#x13c;" horiz-adv-x="305" 
d="M230 735v-543q0 -36 2 -49q2 -16 13.5 -21.5t45.5 -4.5v-122q-55 -5 -105 -5q-128 0 -134 104q-2 28 -2 95v546h180zM236 -47l-101 -169h-97l84 179h114v-10z" />
    <glyph glyph-name="Lcaron" unicode="&#x13d;" horiz-adv-x="628" 
d="M609 152v-152h-529v690h180v-538h349z" />
    <glyph glyph-name="lcaron" unicode="&#x13e;" horiz-adv-x="305" 
d="M230 735v-543q0 -36 2 -49q2 -16 13.5 -21.5t45.5 -4.5v-122q-55 -5 -105 -5q-128 0 -134 104q-2 28 -2 95v546h180z" />
    <glyph glyph-name="Ldot" unicode="&#x13f;" horiz-adv-x="628" 
d="M609 152v-152h-529v690h180v-538h349zM450 300q-43 0 -71.5 28.5t-28.5 71.5t28.5 71.5t71.5 28.5t71.5 -28.5t28.5 -71.5t-28.5 -71.5t-71.5 -28.5z" />
    <glyph glyph-name="ldot" unicode="&#x140;" horiz-adv-x="480" 
d="M230 735v-543q0 -36 2 -49q2 -16 13.5 -21.5t45.5 -4.5v-122q-55 -5 -105 -5q-128 0 -134 104q-2 28 -2 95v546h180zM380 488q41 0 67 -24.5t26 -63.5t-26 -63.5t-67 -24.5t-67 24.5t-26 63.5t26 63.5t67 24.5z" />
    <glyph glyph-name="Lslash" unicode="&#x141;" horiz-adv-x="668" 
d="M649 152v-152h-529v285l-94 -50v113l94 50v292h180v-197l86 45v-113l-86 -45v-228h349z" />
    <glyph glyph-name="lslash" unicode="&#x142;" horiz-adv-x="337" 
d="M254 143q2 -16 13.5 -21.5t45.5 -4.5v-122q-55 -5 -105 -5q-128 0 -134 104q-2 28 -2 95v17l-60 -38v119l60 38v410h180v-296l60 38v-119l-60 -38v-128q0 -36 2 -49z" />
    <glyph glyph-name="Nacute" unicode="&#x143;" horiz-adv-x="794" 
d="M447 735h-96l91 125h160zM740 0h-235l-251 456q6 -70 6 -171v-285h-180v690h224l262 -476q-6 84 -6 181v295h180v-690z" />
    <glyph glyph-name="nacute" unicode="&#x144;" horiz-adv-x="644" 
d="M363 571h-96l91 125h160zM591 403q5 -34 5 -101v-302h-180v272q0 46 -2 73q-6 81 -86 81q-43 0 -68.5 -43.5t-25.5 -130.5v-252h-180v534h180v-83l48 66q51 31 120 31q82 0 130 -37.5t59 -107.5z" />
    <glyph glyph-name="Ncommaaccent" unicode="&#x145;" horiz-adv-x="794" 
d="M740 0h-235l-251 456q6 -70 6 -171v-285h-180v690h224l262 -476q-6 84 -6 181v295h180v-690zM479 -47l-101 -169h-97l84 179h114v-10z" />
    <glyph glyph-name="ncommaaccent" unicode="&#x146;" horiz-adv-x="644" 
d="M591 403q5 -34 5 -101v-302h-180v272q0 46 -2 73q-6 81 -86 81q-43 0 -68.5 -43.5t-25.5 -130.5v-252h-180v534h180v-83l48 66q51 31 120 31q82 0 130 -37.5t59 -107.5zM281 -37h114v-10l-101 -169h-97z" />
    <glyph glyph-name="Ncaron" unicode="&#x147;" horiz-adv-x="794" 
d="M331 735l-62 125h104l34 -76l32 76h103l-62 -125h-149zM740 690v-690h-235l-251 456q6 -70 6 -171v-285h-180v690h224l262 -476q-6 84 -6 181v295h180z" />
    <glyph glyph-name="ncaron" unicode="&#x148;" horiz-adv-x="644" 
d="M247 571l-62 125h104l34 -76l32 76h103l-62 -125h-149zM591 403q5 -34 5 -101v-302h-180v272q0 46 -2 73q-6 81 -86 81q-43 0 -68.5 -43.5t-25.5 -130.5v-252h-180v534h180v-83l48 66q51 31 120 31q82 0 130 -37.5t59 -107.5z" />
    <glyph glyph-name="Eng" unicode="&#x14a;" horiz-adv-x="794" 
d="M740 690v-747q0 -27 -1 -41q-7 -67 -65.5 -96t-188.5 -29v132q43 4 59 18t16 40v13l-306 476q6 -70 6 -171v-285h-180v690h224l262 -436q-6 84 -6 181v255h180z" />
    <glyph glyph-name="eng" unicode="&#x14b;" horiz-adv-x="644" 
d="M591 403q5 -34 5 -101v-336q0 -27 -1 -41q-7 -71 -60.5 -103t-193.5 -32v132q36 0 53.5 9.5t20.5 33.5q1 9 1 32v275q0 46 -2 73q-6 81 -86 81q-43 0 -68.5 -43.5t-25.5 -130.5v-252h-180v534h180v-83l48 66q51 31 120 31q82 0 130 -37.5t59 -107.5z" />
    <glyph glyph-name="Omacron" unicode="&#x14c;" horiz-adv-x="788" 
d="M557 760h-300v96h300v-96zM407 704q162 0 257.5 -96.5t95.5 -262.5q0 -165 -95.5 -262t-257.5 -97t-257.5 97t-95.5 262q0 166 95.5 262.5t257.5 96.5zM407 118q79 0 124 59.5t45 167.5q0 109 -45 168t-124 59t-124 -59t-45 -168q0 -108 45 -167.5t124 -59.5z" />
    <glyph glyph-name="omacron" unicode="&#x14d;" horiz-adv-x="622" 
d="M461 586h-300v96h300v-96zM311 548q131 0 209 -76t78 -205q0 -128 -78 -204.5t-209 -76.5t-209 76.5t-78 204.5q0 129 78 205t209 76zM311 108q49 0 76 40.5t27 118.5q0 79 -27 119t-76 40t-76 -40t-27 -119q0 -78 27 -118.5t76 -40.5z" />
    <glyph glyph-name="Ohungarumlaut" unicode="&#x150;" horiz-adv-x="788" 
d="M326 736h-96l91 125h160zM431 736l91 125h160l-155 -125h-96zM407 704q162 0 257.5 -96.5t95.5 -262.5q0 -165 -95.5 -262t-257.5 -97t-257.5 97t-95.5 262q0 166 95.5 262.5t257.5 96.5zM407 118q79 0 124 59.5t45 167.5q0 109 -45 168t-124 59t-124 -59t-45 -168
q0 -108 45 -167.5t124 -59.5z" />
    <glyph glyph-name="ohungarumlaut" unicode="&#x151;" horiz-adv-x="622" 
d="M235 571h-96l91 125h160zM330 571l91 125h160l-155 -125h-96zM311 548q131 0 209 -76t78 -205q0 -128 -78 -204.5t-209 -76.5t-209 76.5t-78 204.5q0 129 78 205t209 76zM311 108q49 0 76 40.5t27 118.5q0 79 -27 119t-76 40t-76 -40t-27 -119q0 -78 27 -118.5t76 -40.5z
" />
    <glyph glyph-name="OE" unicode="&#x152;" horiz-adv-x="1135" 
d="M1105 140v-140h-529v103l-32 -67q-38 -30 -74 -40t-103 -10q-134 0 -223.5 98.5t-89.5 260.5q0 163 89 261t224 98q66 0 103 -10t74 -38l32 -68v102h519v-140h-339v-134h319v-140h-319v-136h349zM407 118q79 0 124 59.5t45 167.5q0 109 -45 168t-124 59t-124 -59
t-45 -168q0 -108 45 -167.5t124 -59.5z" />
    <glyph glyph-name="oe" unicode="&#x153;" horiz-adv-x="991" 
d="M967 274q0 -25 -3 -52h-372q6 -63 31.5 -88.5t67.5 -25.5q38 0 61 18t28 49h177q-23 -90 -93 -139.5t-170 -49.5q-127 0 -191 93q-65 -93 -192 -93q-131 0 -209 76.5t-78 204.5q0 129 78 205t209 76q130 0 197 -101q66 101 200 101q120 0 189.5 -81.5t69.5 -192.5z
M311 108q49 0 76 40.5t27 118.5q0 79 -27 119t-76 40t-76 -40t-27 -119q0 -78 27 -118.5t76 -40.5zM598 332h181q-14 94 -89 94q-73 0 -92 -94z" />
    <glyph glyph-name="Racute" unicode="&#x154;" horiz-adv-x="682" 
d="M402 735h-96l91 125h160zM618 168q12 -108 52 -168h-196q-24 74 -32 138q-14 118 -85 123q-20 1 -57 1h-40v-262h-180v690h274q62 0 108 -5q83 -10 135 -54t52 -129q0 -131 -139 -172q52 -19 76 -57.5t32 -104.5zM260 392h65q35 0 48 1q88 8 88 78q0 71 -83 78
q-13 1 -48 1h-70v-158z" />
    <glyph glyph-name="racute" unicode="&#x155;" horiz-adv-x="420" 
d="M255 571h-96l91 125h160zM377 548q21 0 41 -3v-147q-102 7 -143 -37.5t-41 -164.5v-196h-180v534h180v-108l38 75q43 47 105 47z" />
    <glyph glyph-name="Rcommaaccent" unicode="&#x156;" horiz-adv-x="682" 
d="M618 168q12 -108 52 -168h-196q-24 74 -32 138q-14 118 -85 123q-20 1 -57 1h-40v-262h-180v690h274q62 0 108 -5q83 -10 135 -54t52 -129q0 -131 -139 -172q52 -19 76 -57.5t32 -104.5zM260 392h65q35 0 48 1q88 8 88 78q0 71 -83 78q-13 1 -48 1h-70v-158zM313 -37h114
v-10l-101 -169h-97z" />
    <glyph glyph-name="rcommaaccent" unicode="&#x157;" horiz-adv-x="420" 
d="M377 548q21 0 41 -3v-147q-102 7 -143 -37.5t-41 -164.5v-196h-180v534h180v-108l38 75q43 47 105 47zM104 -37h114v-10l-101 -169h-97z" />
    <glyph glyph-name="Rcaron" unicode="&#x158;" horiz-adv-x="682" 
d="M286 735l-62 125h104l34 -76l32 76h103l-62 -125h-149zM618 168q12 -108 52 -168h-196q-24 74 -32 138q-14 118 -85 123q-20 1 -57 1h-40v-262h-180v690h274q62 0 108 -5q83 -10 135 -54t52 -129q0 -131 -139 -172q52 -19 76 -57.5t32 -104.5zM260 392h65q35 0 48 1
q88 8 88 78q0 71 -83 78q-13 1 -48 1h-70v-158z" />
    <glyph glyph-name="rcaron" unicode="&#x159;" horiz-adv-x="420" 
d="M139 571l-62 125h104l34 -76l32 76h103l-62 -125h-149zM377 548q21 0 41 -3v-147q-102 7 -143 -37.5t-41 -164.5v-196h-180v534h180v-108l38 75q43 47 105 47z" />
    <glyph glyph-name="Sacute" unicode="&#x15a;" horiz-adv-x="626" 
d="M368 735h-96l91 125h160zM322 704q129 0 195 -61.5t78 -165.5h-180q-13 95 -97 95q-32 0 -50.5 -15.5t-18.5 -46.5q0 -34 31.5 -56t114.5 -42q214 -51 214 -218q0 -98 -79.5 -153t-191.5 -55q-136 0 -216 56t-88 169h180q9 -46 42 -69.5t77 -23.5q38 0 63 18t25 46
q0 61 -111 88q-129 32 -189 80.5t-60 145.5q0 96 76.5 152t184.5 56z" />
    <glyph glyph-name="sacute" unicode="&#x15b;" horiz-adv-x="528" 
d="M311 571h-96l91 125h160zM274 548q96 0 154.5 -47t69.5 -123h-177q-13 58 -58 58q-19 0 -31 -11t-12 -28q0 -24 26.5 -40.5t99.5 -34.5q80 -20 123 -58.5t43 -110.5q0 -82 -66.5 -124.5t-169.5 -42.5q-111 0 -179.5 46t-78.5 134h177q7 -31 29 -49.5t51 -18.5q57 0 57 41
q0 25 -28.5 41.5t-100.5 33.5q-163 38 -163 162q0 79 63.5 125.5t170.5 46.5z" />
    <glyph glyph-name="Scedilla" unicode="&#x15e;" horiz-adv-x="626" 
d="M609 194q0 -97 -77.5 -151.5t-186.5 -56.5l-14 -28q95 -11 95 -77q0 -91 -169 -91q-34 0 -57 6v70q29 -7 58 -7q60 0 60 27q0 32 -97 26l38 79q-101 15 -159.5 70t-65.5 150h180q9 -46 42 -69.5t77 -23.5q38 0 63 18t25 46q0 61 -111 88q-129 32 -189 80.5t-60 145.5
q0 96 76.5 152t184.5 56q129 0 195 -61.5t78 -165.5h-180q-13 95 -97 95q-32 0 -50.5 -15.5t-18.5 -46.5q0 -34 31.5 -56t114.5 -42q214 -51 214 -218z" />
    <glyph glyph-name="scedilla" unicode="&#x15f;" horiz-adv-x="528" 
d="M512 153q0 -76 -58.5 -118.5t-151.5 -47.5l-14 -29q95 -11 95 -77q0 -91 -169 -91q-34 0 -57 6v70q29 -7 58 -7q60 0 60 27q0 32 -97 26l38 78q-86 12 -137.5 56t-60.5 120h177q7 -31 29 -49.5t51 -18.5q57 0 57 41q0 25 -28.5 41.5t-100.5 33.5q-163 38 -163 162
q0 79 63.5 125.5t170.5 46.5q96 0 154.5 -47t69.5 -123h-177q-13 58 -58 58q-19 0 -31 -11t-12 -28q0 -24 26.5 -40.5t99.5 -34.5q80 -20 123 -58.5t43 -110.5z" />
    <glyph glyph-name="Scaron" unicode="&#x160;" horiz-adv-x="626" 
d="M252 735l-62 125h104l34 -76l32 76h103l-62 -125h-149zM395 412q214 -51 214 -218q0 -98 -79.5 -153t-191.5 -55q-136 0 -216 56t-88 169h180q9 -46 42 -69.5t77 -23.5q38 0 63 18t25 46q0 61 -111 88q-129 32 -189 80.5t-60 145.5q0 96 76.5 152t184.5 56
q129 0 195 -61.5t78 -165.5h-180q-13 95 -97 95q-32 0 -50.5 -15.5t-18.5 -46.5q0 -34 31.5 -56t114.5 -42z" />
    <glyph glyph-name="scaron" unicode="&#x161;" horiz-adv-x="528" 
d="M195 571l-62 125h104l34 -76l32 76h103l-62 -125h-149zM346 322q80 -20 123 -58.5t43 -110.5q0 -82 -66.5 -124.5t-169.5 -42.5q-111 0 -179.5 46t-78.5 134h177q7 -31 29 -49.5t51 -18.5q57 0 57 41q0 25 -28.5 41.5t-100.5 33.5q-163 38 -163 162q0 79 63.5 125.5
t170.5 46.5q96 0 154.5 -47t69.5 -123h-177q-13 58 -58 58q-19 0 -31 -11t-12 -28q0 -24 26.5 -40.5t99.5 -34.5z" />
    <glyph glyph-name="Tcedilla" unicode="&#x162;" horiz-adv-x="632" 
d="M367 0l-20 -42q95 -11 95 -77q0 -91 -169 -91q-34 0 -57 6v70q29 -7 58 -7q60 0 60 27q0 32 -97 26l43 88h-42v550h-224v140h628v-140h-224v-550h-51z" />
    <glyph glyph-name="tcedilla" unicode="&#x163;" horiz-adv-x="400" 
d="M270 418v-197q0 -38 1 -52q3 -41 23 -53t83 -9v-112q-53 -9 -106 -9h-12l-14 -28q95 -11 95 -77q0 -91 -169 -91q-34 0 -57 6v70q29 -7 58 -7q60 0 60 27q0 32 -97 26l41 85q-78 22 -84 112q-2 31 -2 86v223h-85v112h85v138h180v-138h118v-112h-118z" />
    <glyph glyph-name="Tcaron" unicode="&#x164;" horiz-adv-x="632" 
d="M254 735l-62 125h104l34 -76l32 76h103l-62 -125h-149zM642 550h-224v-550h-180v550h-224v140h628v-140z" />
    <glyph glyph-name="tcaron" unicode="&#x165;" horiz-adv-x="395" 
d="M491 735v-10l-101 -169h-97l84 179h114zM270 530h118v-112h-118v-197q0 -38 1 -52q3 -41 23 -53t83 -9v-112q-53 -9 -106 -9q-96 0 -135 29.5t-44 93.5q-2 31 -2 86v223h-85v112h85v138h180v-138z" />
    <glyph glyph-name="Tbar" unicode="&#x166;" horiz-adv-x="632" 
d="M418 550v-161h90v-96h-90v-293h-180v293h-90v96h90v161h-224v140h628v-140h-224z" />
    <glyph glyph-name="tbar" unicode="&#x167;" horiz-adv-x="400" 
d="M270 418v-74h66v-96h-66v-27q0 -38 1 -52q3 -41 23 -53t83 -9v-112q-53 -9 -106 -9q-96 0 -135 29.5t-44 93.5q-2 31 -2 86v53h-54v96h54v74h-85v112h85v138h180v-138h118v-112h-118z" />
    <glyph glyph-name="Umacron" unicode="&#x16a;" horiz-adv-x="718" 
d="M524 760h-300v96h300v-96zM680 690v-387q0 -56 -3 -97q-7 -96 -80.5 -158t-222.5 -62t-222.5 62t-80.5 158q-3 41 -3 97v387h180v-420q0 -29 1 -41q8 -111 125 -111t125 111q1 12 1 41v420h180z" />
    <glyph glyph-name="umacron" unicode="&#x16b;" horiz-adv-x="640" 
d="M465 586h-300v96h300v-96zM586 534v-534h-180v90l-48 -73q-51 -31 -120 -31q-79 0 -129.5 38.5t-59.5 96.5q-5 34 -5 101v312h180v-272q0 -37 4 -73q10 -81 87 -81q42 0 66.5 35t24.5 89v302h180z" />
    <glyph glyph-name="Uring" unicode="&#x16e;" horiz-adv-x="718" 
d="M374 932q53 0 86 -29.5t33 -75.5t-33 -75.5t-86 -29.5t-86 29.5t-33 75.5t33 75.5t86 29.5zM374 866q-16 0 -26 -11t-10 -28t10 -28t26 -11t26 11t10 28t-10 28t-26 11zM680 690v-387q0 -56 -3 -97q-7 -96 -80.5 -158t-222.5 -62t-222.5 62t-80.5 158q-3 41 -3 97v387
h180v-420q0 -29 1 -41q8 -111 125 -111t125 111q1 12 1 41v420h180z" />
    <glyph glyph-name="uring" unicode="&#x16f;" horiz-adv-x="640" 
d="M315 567q-53 0 -86 29.5t-33 77.5t33 77.5t86 29.5t86 -29.5t33 -77.5t-33 -77.5t-86 -29.5zM315 715q-16 0 -26 -11t-10 -30t10 -30t26 -11t26 11t10 30t-10 30t-26 11zM586 534v-534h-180v90l-48 -73q-51 -31 -120 -31q-79 0 -129.5 38.5t-59.5 96.5q-5 34 -5 101v312
h180v-272q0 -37 4 -73q10 -81 87 -81q42 0 66.5 35t24.5 89v302h180z" />
    <glyph glyph-name="Uhungarumlaut" unicode="&#x170;" horiz-adv-x="718" 
d="M293 736h-96l91 125h160zM494 736h-96l91 125h160zM680 690v-387q0 -56 -3 -97q-7 -96 -80.5 -158t-222.5 -62t-222.5 62t-80.5 158q-3 41 -3 97v387h180v-420q0 -29 1 -41q8 -111 125 -111t125 111q1 12 1 41v420h180z" />
    <glyph glyph-name="uhungarumlaut" unicode="&#x171;" horiz-adv-x="640" 
d="M239 571h-96l91 125h160zM334 571l91 125h160l-155 -125h-96zM586 534v-534h-180v90l-48 -73q-51 -31 -120 -31q-79 0 -129.5 38.5t-59.5 96.5q-5 34 -5 101v312h180v-272q0 -37 4 -73q10 -81 87 -81q42 0 66.5 35t24.5 89v302h180z" />
    <glyph glyph-name="Uogonek" unicode="&#x172;" horiz-adv-x="718" 
d="M680 690v-387q0 -56 -3 -97q-5 -73 -49 -128t-132 -78q-5 -1 -13 -3q-32 -15 -32 -67q0 -26 12 -38.5t29 -12.5q22 0 44 21v-73q-50 -50 -135 -50q-114 0 -114 86q0 71 60 124q-136 6 -202.5 66.5t-73.5 152.5q-3 41 -3 97v387h180v-420q0 -29 1 -41q8 -111 125 -111
t125 111q1 12 1 41v420h180z" />
    <glyph glyph-name="uogonek" unicode="&#x173;" horiz-adv-x="640" 
d="M586 0h-57q-19 0 -32 -20.5t-13 -49.5q0 -26 12 -38.5t29 -12.5q22 0 44 21v-73q-50 -50 -135 -50q-114 0 -114 86q0 43 25 82.5t61 59.5v85l-48 -73q-51 -31 -120 -31q-79 0 -129.5 38.5t-59.5 96.5q-5 34 -5 101v312h180v-272q0 -37 4 -73q10 -81 87 -81q42 0 66.5 35
t24.5 89v302h180v-534z" />
    <glyph glyph-name="Wcircumflex" unicode="&#x174;" horiz-adv-x="1016" 
d="M495 735h-103l62 125h149l62 -125h-104l-34 76zM1029 690l-176 -690h-240l-87 537l-93 -537h-241l-166 690h191l92 -550l91 540h258l87 -542l100 552h184z" />
    <glyph glyph-name="wcircumflex" unicode="&#x175;" horiz-adv-x="868" 
d="M405 571h-103l62 125h149l62 -125h-104l-34 76zM876 534l-169 -534h-201l-68 360l-68 -360h-201l-169 534h198l70 -382l64 378h214l68 -379l68 383h194z" />
    <glyph glyph-name="Ycircumflex" unicode="&#x176;" horiz-adv-x="663" 
d="M314 735h-103l62 125h149l62 -125h-104l-34 76zM437 264v-264h-180v264l-243 426h202l136 -273l131 273h197z" />
    <glyph glyph-name="ycircumflex" unicode="&#x177;" horiz-adv-x="608" 
d="M266 571h-103l62 125h149l62 -125h-104l-34 76zM616 534l-211 -534q-49 -125 -102 -167.5t-150 -42.5q-43 0 -76 5v116q15 -2 49 -2q65 0 88 52l7 15l-221 558h200l110 -391l109 391h197z" />
    <glyph glyph-name="Ydieresis" unicode="&#x178;" horiz-adv-x="663" 
d="M247 722q-34 0 -54.5 19.5t-20.5 53.5t20.5 53.5t54.5 19.5t54.5 -19.5t20.5 -53.5t-20.5 -53.5t-54.5 -19.5zM447 722q-34 0 -54.5 19.5t-20.5 53.5t20.5 53.5t54.5 19.5t54.5 -19.5t20.5 -53.5t-20.5 -53.5t-54.5 -19.5zM437 264v-264h-180v264l-243 426h202l136 -273
l131 273h197z" />
    <glyph glyph-name="Zacute" unicode="&#x179;" horiz-adv-x="648" 
d="M383 735h-96l91 125h160zM618 140v-140h-565v136l341 414h-313v140h533v-139l-338 -411h342z" />
    <glyph glyph-name="zacute" unicode="&#x17a;" horiz-adv-x="526" 
d="M318 571h-96l91 125h160zM497 112v-112h-463v105l270 313h-255v112h445v-110l-267 -308h270z" />
    <glyph glyph-name="Zdotaccent" unicode="&#x17b;" horiz-adv-x="648" 
d="M341 725q-42 0 -67.5 24t-25.5 64t25.5 64t67.5 24t67.5 -24t25.5 -64t-25.5 -64t-67.5 -24zM618 140v-140h-565v136l341 414h-313v140h533v-139l-338 -411h342z" />
    <glyph glyph-name="zdotaccent" unicode="&#x17c;" horiz-adv-x="526" 
d="M276 575q-42 0 -67.5 24t-25.5 64t25.5 64t67.5 24t67.5 -24t25.5 -64t-25.5 -64t-67.5 -24zM497 112v-112h-463v105l270 313h-255v112h445v-110l-267 -308h270z" />
    <glyph glyph-name="Zcaron" unicode="&#x17d;" horiz-adv-x="648" 
d="M267 735l-62 125h104l34 -76l32 76h103l-62 -125h-149zM618 140v-140h-565v136l341 414h-313v140h533v-139l-338 -411h342z" />
    <glyph glyph-name="zcaron" unicode="&#x17e;" horiz-adv-x="526" 
d="M202 571l-62 125h104l34 -76l32 76h103l-62 -125h-149zM497 112v-112h-463v105l270 313h-255v112h445v-110l-267 -308h270z" />
    <glyph glyph-name="Scommaaccent" unicode="&#x218;" horiz-adv-x="626" 
d="M322 704q129 0 195 -61.5t78 -165.5h-180q-13 95 -97 95q-32 0 -50.5 -15.5t-18.5 -46.5q0 -34 31.5 -56t114.5 -42q214 -51 214 -218q0 -98 -79.5 -153t-191.5 -55q-136 0 -216 56t-88 169h180q9 -46 42 -69.5t77 -23.5q38 0 63 18t25 46q0 61 -111 88
q-129 32 -189 80.5t-60 145.5q0 96 76.5 152t184.5 56zM386 -47l-101 -169h-97l84 179h114v-10z" />
    <glyph glyph-name="scommaaccent" unicode="&#x219;" horiz-adv-x="528" 
d="M274 548q96 0 154.5 -47t69.5 -123h-177q-13 58 -58 58q-19 0 -31 -11t-12 -28q0 -24 26.5 -40.5t99.5 -34.5q80 -20 123 -58.5t43 -110.5q0 -82 -66.5 -124.5t-169.5 -42.5q-111 0 -179.5 46t-78.5 134h177q7 -31 29 -49.5t51 -18.5q57 0 57 41q0 25 -28.5 41.5
t-100.5 33.5q-163 38 -163 162q0 79 63.5 125.5t170.5 46.5zM343 -47l-101 -169h-97l84 179h114v-10z" />
    <glyph glyph-name="uni021A" unicode="&#x21a;" horiz-adv-x="632" 
d="M642 550h-224v-550h-180v550h-224v140h628v-140zM288 -37h114v-10l-101 -169h-97z" />
    <glyph glyph-name="uni021B" unicode="&#x21b;" horiz-adv-x="400" 
d="M270 418v-197q0 -38 1 -52q3 -41 23 -53t83 -9v-112q-53 -9 -106 -9q-96 0 -135 29.5t-44 93.5q-2 31 -2 86v223h-85v112h85v138h180v-138h118v-112h-118zM186 -37h114v-10l-101 -169h-97z" />
    <glyph glyph-name="circumflex" unicode="&#x2c6;" horiz-adv-x="300" 
d="M183 571l-34 76l-32 -76h-103l62 125h149l62 -125h-104z" />
    <glyph glyph-name="caron" unicode="&#x2c7;" horiz-adv-x="300" 
d="M287 696l-62 -125h-149l-62 125h104l34 -76l32 76h103z" />
    <glyph glyph-name="breve" unicode="&#x2d8;" horiz-adv-x="300" 
d="M195 696h90q0 -128 -135 -128t-135 128h90q3 -43 45 -43t45 43z" />
    <glyph glyph-name="dotaccent" unicode="&#x2d9;" horiz-adv-x="300" 
d="M150 751q42 0 67.5 -24t25.5 -64t-25.5 -64t-67.5 -24t-67.5 24t-25.5 64t25.5 64t67.5 24z" />
    <glyph glyph-name="ring" unicode="&#x2da;" horiz-adv-x="300" 
d="M150 781q53 0 86 -29.5t33 -77.5t-33 -77.5t-86 -29.5t-86 29.5t-33 77.5t33 77.5t86 29.5zM150 715q-16 0 -26 -11t-10 -30t10 -30t26 -11t26 11t10 30t-10 30t-26 11z" />
    <glyph glyph-name="ogonek" unicode="&#x2db;" horiz-adv-x="300" 
d="M150 5l123 -5q-19 0 -32 -20.5t-13 -49.5q0 -26 12 -38.5t29 -12.5q22 0 44 21v-73q-50 -50 -135 -50q-114 0 -114 86q0 43 25 82.5t61 59.5z" />
    <glyph glyph-name="tilde" unicode="&#x2dc;" horiz-adv-x="300" 
d="M76 708q39 0 82 -19q33 -15 45 -15q15 0 15 31h96q0 -70 -21.5 -102t-68.5 -32q-38 0 -82 19q-36 15 -45 15q-15 0 -15 -31h-96q0 70 21.5 102t68.5 32z" />
    <glyph glyph-name="hungarumlaut" unicode="&#x2dd;" horiz-adv-x="300" 
d="M74 571h-96l91 125h160zM265 571h-96l91 125h160z" />
    <glyph glyph-name="uni0326" unicode="&#x326;" horiz-adv-x="0" 
d="M224 -47l-101 -169h-97l84 179h114v-10z" />
    <glyph glyph-name="Wgrave" unicode="&#x1e80;" horiz-adv-x="1016" 
d="M493 735l-155 125h160l91 -125h-96zM1029 690l-176 -690h-240l-87 537l-93 -537h-241l-166 690h191l92 -550l91 540h258l87 -542l100 552h184z" />
    <glyph glyph-name="wgrave" unicode="&#x1e81;" horiz-adv-x="868" 
d="M411 571l-155 125h160l91 -125h-96zM876 534l-169 -534h-201l-68 360l-68 -360h-201l-169 534h198l70 -382l64 378h214l68 -379l68 383h194z" />
    <glyph glyph-name="Wacute" unicode="&#x1e82;" horiz-adv-x="1016" 
d="M570 735h-96l91 125h160zM1029 690l-176 -690h-240l-87 537l-93 -537h-241l-166 690h191l92 -550l91 540h258l87 -542l100 552h184z" />
    <glyph glyph-name="wacute" unicode="&#x1e83;" horiz-adv-x="868" 
d="M480 571h-96l91 125h160zM876 534l-169 -534h-201l-68 360l-68 -360h-201l-169 534h198l70 -382l64 378h214l68 -379l68 383h194z" />
    <glyph glyph-name="Wdieresis" unicode="&#x1e84;" horiz-adv-x="1016" 
d="M428 722q-34 0 -54.5 19.5t-20.5 53.5t20.5 53.5t54.5 19.5t54.5 -19.5t20.5 -53.5t-20.5 -53.5t-54.5 -19.5zM628 722q-34 0 -54.5 19.5t-20.5 53.5t20.5 53.5t54.5 19.5t54.5 -19.5t20.5 -53.5t-20.5 -53.5t-54.5 -19.5zM1029 690l-176 -690h-240l-87 537l-93 -537
h-241l-166 690h191l92 -550l91 540h258l87 -542l100 552h184z" />
    <glyph glyph-name="wdieresis" unicode="&#x1e85;" horiz-adv-x="868" 
d="M338 569q-34 0 -54.5 19.5t-20.5 53.5t20.5 53.5t54.5 19.5t54.5 -19.5t20.5 -53.5t-20.5 -53.5t-54.5 -19.5zM538 569q-34 0 -54.5 19.5t-20.5 53.5t20.5 53.5t54.5 19.5t54.5 -19.5t20.5 -53.5t-20.5 -53.5t-54.5 -19.5zM876 534l-169 -534h-201l-68 360l-68 -360h-201
l-169 534h198l70 -382l64 378h214l68 -379l68 383h194z" />
    <glyph glyph-name="Ygrave" unicode="&#x1ef2;" horiz-adv-x="663" 
d="M312 735l-155 125h160l91 -125h-96zM437 264v-264h-180v264l-243 426h202l136 -273l131 273h197z" />
    <glyph glyph-name="ygrave" unicode="&#x1ef3;" horiz-adv-x="608" 
d="M272 571l-155 125h160l91 -125h-96zM616 534l-211 -534q-49 -125 -102 -167.5t-150 -42.5q-43 0 -76 5v116q15 -2 49 -2q65 0 88 52l7 15l-221 558h200l110 -391l109 391h197z" />
    <glyph glyph-name="endash" unicode="&#x2013;" horiz-adv-x="500" 
d="M410 242h-320v96h320v-96z" />
    <glyph glyph-name="emdash" unicode="&#x2014;" horiz-adv-x="1000" 
d="M910 242h-820v96h820v-96z" />
    <glyph glyph-name="quoteleft" unicode="&#x2018;" horiz-adv-x="322" 
d="M58 449l109 286h138l-80 -296h-167v10z" />
    <glyph glyph-name="quoteright" unicode="&#x2019;" horiz-adv-x="322" 
d="M264 725l-109 -286h-138l80 296h167v-10z" />
    <glyph glyph-name="quotesinglbase" unicode="&#x201a;" horiz-adv-x="266" 
d="M221 162l-109 -286h-138l80 296h167v-10z" />
    <glyph glyph-name="quotedblleft" unicode="&#x201c;" horiz-adv-x="562" 
d="M58 449l109 286h138l-80 -296h-167v10zM298 449l109 286h138l-80 -296h-167v10z" />
    <glyph glyph-name="quotedblright" unicode="&#x201d;" horiz-adv-x="562" 
d="M264 725l-109 -286h-138l80 296h167v-10zM504 725l-109 -286h-138l80 296h167v-10z" />
    <glyph glyph-name="quotedblbase" unicode="&#x201e;" horiz-adv-x="506" 
d="M221 162l-109 -286h-138l80 296h167v-10zM461 162l-109 -286h-138l80 296h167v-10z" />
    <glyph glyph-name="dagger" unicode="&#x2020;" horiz-adv-x="570" 
d="M534 338l-179 4l11 -502h-162l11 502l-179 -4v150l178 -4l-10 206h162l-10 -206l178 4v-150z" />
    <glyph glyph-name="daggerdbl" unicode="&#x2021;" horiz-adv-x="570" 
d="M354 342v-154l180 4v-150l-178 4l10 -206h-162l10 206l-178 -4v150l180 -4v154l-180 -4v150l178 -4l-10 206h162l-10 -206l178 4v-150z" />
    <glyph glyph-name="bullet" unicode="&#x2022;" horiz-adv-x="392" 
d="M196 435q58 0 94 -35.5t36 -94.5t-36 -94.5t-94 -35.5t-94 35.5t-36 94.5t36 94.5t94 35.5z" />
    <glyph glyph-name="ellipsis" unicode="&#x2026;" horiz-adv-x="826" 
d="M140 186q44 0 72 -28t28 -72t-28 -72t-72 -28t-72 28t-28 72t28 72t72 28zM420 186q44 0 72 -28t28 -72t-28 -72t-72 -28t-72 28t-28 72t28 72t72 28zM700 186q44 0 72 -28t28 -72t-28 -72t-72 -28t-72 28t-28 72t28 72t72 28z" />
    <glyph glyph-name="perthousand" unicode="&#x2030;" horiz-adv-x="1132" 
d="M351 535q0 -80 -42.5 -124.5t-117.5 -44.5t-117.5 44.5t-42.5 124.5q0 81 42.5 125t117.5 44t117.5 -44t42.5 -125zM681 690l-447 -690h-123l447 690h123zM139 535q0 -85 52 -85t52 85t-52 85t-52 -85zM591 324q75 0 117.5 -44t42.5 -125q0 -80 -42.5 -124.5
t-117.5 -44.5t-117.5 44.5t-42.5 124.5q0 81 42.5 125t117.5 44zM941 324q75 0 117.5 -44t42.5 -125q0 -80 -42.5 -124.5t-117.5 -44.5t-117.5 44.5t-42.5 124.5q0 81 42.5 125t117.5 44zM591 70q52 0 52 85t-52 85t-52 -85t52 -85zM941 70q52 0 52 85t-52 85t-52 -85
t52 -85z" />
    <glyph glyph-name="guilsinglleft" unicode="&#x2039;" horiz-adv-x="457" 
d="M413 414l-137 -166l137 -166h-129l-137 166l137 166h129z" />
    <glyph glyph-name="guilsinglright" unicode="&#x203a;" horiz-adv-x="424" 
d="M310 248l-137 -166h-129l137 166l-137 166h129z" />
    <glyph glyph-name="fraction" unicode="&#x2044;" horiz-adv-x="370" 
d="M23 0h-123l447 690h123z" />
    <glyph glyph-name="Euro" unicode="&#x20ac;" 
d="M492 224h-179q15 -59 48 -82.5t85 -23.5q81 0 147 39v-129q-39 -22 -80.5 -32t-112.5 -10q-234 0 -277 238h-86l20 96h56v22q0 19 1 28h-46l20 96h39q28 118 108.5 178t193.5 60q139 0 203 -62l-62 -111q-59 41 -132 41q-93 0 -123 -106h228l-21 -96h-221v-24v-26h210z
" />
    <glyph glyph-name="trademark" unicode="&#x2122;" horiz-adv-x="537" 
d="M226 660v-45h-72v-159h-60v159h-72v45h204zM494 659v-203h-60l2 142l-32 -138h-62l-33 137l1 -141h-60v203h91l33 -142l33 142h87z" />
    <glyph glyph-name="partialdiff" unicode="&#x2202;" 
d="M312 758q149 0 226 -105t77 -300q0 -183 -77 -275t-217 -92q-124 0 -201.5 66t-77.5 195q0 131 72 199.5t185 68.5q88 0 125 -47q-8 83 -41.5 120.5t-98.5 37.5t-125 -39l-54 115q51 30 97.5 43t109.5 13zM328 118q53 0 77.5 49t25.5 166q-26 50 -95 50q-50 0 -78 -35
t-28 -96q0 -63 26 -98.5t72 -35.5z" />
    <glyph glyph-name="emptyset" unicode="&#x2205;" horiz-adv-x="838" 
d="M827 674l-79 -79q77 -107 77 -240q0 -113 -55.5 -207t-148.5 -147.5t-202 -53.5q-133 0 -240 79l-99 -99l-69 69l97 97q-95 113 -95 262q0 171 119.5 289t286.5 118q148 0 262 -96l77 77zM121 355q0 -108 60 -189l429 429q-82 71 -191 71q-123 0 -210.5 -89t-87.5 -222z
M717 355q0 88 -44 165l-423 -423q75 -53 169 -53q123 0 210.5 89t87.5 222z" />
    <glyph glyph-name="product" unicode="&#x220f;" 
d="M625 550h-57v-660h-180v660h-114v-660h-180v660h-57v140h588v-140z" />
    <glyph glyph-name="summation" unicode="&#x2211;" 
d="M611 30v-140h-559v112l245 299l-215 277v112h523v-140h-297l197 -250l-225 -270h331z" />
    <glyph glyph-name="minus" unicode="&#x2212;" 
d="M556 269h-450v96h450v-96z" />
    <glyph glyph-name="radical" unicode="&#x221a;" 
d="M616 780l-226 -940h-134l-127 382h-82v88h163l111 -361l189 831h106z" />
    <glyph glyph-name="infinity" unicode="&#x221e;" horiz-adv-x="1022" 
d="M741 544q111 0 184 -76.5t73 -202.5q0 -127 -74.5 -203t-192.5 -76q-79 0 -134.5 25.5t-94.5 87.5q-37 -62 -90 -87.5t-131 -25.5q-111 0 -184 76.5t-73 202.5q0 127 74.5 203t192.5 76q80 0 136.5 -25.5t95.5 -87.5q37 62 88.5 87.5t129.5 25.5zM302 108q84 0 99 157
q-12 85 -35.5 121t-63.5 36q-44 0 -69 -42t-25 -115q0 -72 25.5 -114.5t68.5 -42.5zM720 108q43 0 68.5 42.5t25.5 114.5q0 73 -25 115t-69 42q-40 0 -63.5 -37t-31.5 -120q12 -86 34 -121.5t61 -35.5z" />
    <glyph glyph-name="integral" unicode="&#x222b;" horiz-adv-x="661" 
d="M378 754q60 0 94 -22l-15 -90q-28 16 -65 16q-31 0 -52 -18.5t-21 -55.5q0 -49 12 -105.5t54 -174.5q38 -109 51.5 -170.5t13.5 -118.5q0 -76 -45.5 -125.5t-121.5 -49.5q-60 0 -94 22l15 90q28 -16 65 -16q31 0 52 18.5t21 55.5q0 49 -12 105.5t-54 174.5
q-38 109 -51.5 170.5t-13.5 118.5q0 76 45.5 125.5t121.5 49.5z" />
    <glyph glyph-name="approxequal" unicode="&#x2248;" 
d="M222 496q29 0 53 -8.5t69 -32.5q66 -35 92 -35q47 0 87 46l58 -63q-53 -88 -142 -88q-29 0 -53 8.5t-69 32.5q-66 35 -92 35q-47 0 -87 -46l-58 63q53 88 142 88zM222 296q29 0 53 -8.5t69 -32.5q66 -35 92 -35q47 0 87 46l58 -63q-53 -88 -142 -88q-29 0 -53 8.5
t-69 32.5q-66 35 -92 35q-47 0 -87 -46l-58 63q53 88 142 88z" />
    <glyph glyph-name="notequal" unicode="&#x2260;" 
d="M411 373l-55 -112h220v-88h-263l-55 -111h-105l55 111h-122v88h165l55 112h-220v88h263l55 111h105l-55 -111h122v-88h-165z" />
    <glyph glyph-name="lessequal" unicode="&#x2264;" 
d="M560 410l-340 -90l340 -96v-104l-440 132v136l440 132v-110zM120 96h440v-96h-440v96z" />
    <glyph glyph-name="greaterequal" unicode="&#x2265;" 
d="M532 388v-136l-430 -132v110l331 90l-331 96v104zM102 96h430v-96h-430v96z" />
    <glyph glyph-name="lozenge" unicode="&#x25ca;" horiz-adv-x="554" 
d="M510 345l-157 -345h-152l-157 345l157 345h152zM378 345l-101 231l-101 -231l101 -231z" />
    </font>
</defs>
</svg>
