<?xml version="1.0" standalone="no"?>
<!DOCTYPE svg PUBLIC "-//W3C//DTD SVG 1.1//EN" "http://www.w3.org/Graphics/SVG/1.1/DTD/svg11.dtd" >
<svg xmlns="http://www.w3.org/2000/svg" xmlns:xlink="http://www.w3.org/1999/xlink" version="1.1">
<metadata>
Created by FontForge 20170731 at Wed Aug 20 22:57:18 2014
 By Aleksey,,,
No Rights Reserved.
</metadata>
<defs>
<font id="Aileron-LightItalic" horiz-adv-x="561" >
  <font-face 
    font-family="Aileron Light"
    font-weight="300"
    font-style="italic"
    font-stretch="normal"
    units-per-em="1000"
    panose-1="0 0 4 0 0 0 0 0 0 0"
    ascent="770"
    descent="-230"
    x-height="525"
    cap-height="690"
    bbox="-173 -223 1139 895"
    underline-thickness="50"
    underline-position="-200"
    slope="-10"
    unicode-range="U+0020-FB02"
  />
<missing-glyph horiz-adv-x="567" 
d="M67 0v700h500v-700h-500zM317 395l170 255h-340zM347 350l170 -255v510zM147 50h340l-170 255zM117 605v-510l170 255z" />
    <glyph glyph-name="fi" unicode="fi" horiz-adv-x="471" 
d="M445 525l-92 -525h-62l83 475h-196l-83 -475h-62l83 475h-47l9 50h47l4 25q6 33 14 60q19 69 76 106.5t148 37.5q26 0 56 -5l-10 -52q-176 22 -209 -90q-5 -17 -12 -52l-5 -30h258z" />
    <glyph glyph-name="fl" unicode="fl" horiz-adv-x="484" 
d="M364 78q0 -37 55 -33l-8 -46q-16 -3 -50 -3q-63 0 -63 55q0 20 13 87l98 558q-23 9 -64 9q-111 0 -141 -98q-9 -32 -12 -52l-5 -30h108l-9 -50h-108l-84 -475h-62l84 475h-47l9 50h47l4 25q5 29 13 60q19 68 73 106t141 38q78 0 122 -19l-105 -595q-9 -50 -9 -62z" />
    <glyph glyph-name=".notdef" horiz-adv-x="567" 
d="M67 0v700h500v-700h-500zM317 395l170 255h-340zM347 350l170 -255v510zM147 50h340l-170 255zM117 605v-510l170 255z" />
    <glyph glyph-name=".null" horiz-adv-x="0" 
 />
    <glyph glyph-name="nonmarkingreturn" horiz-adv-x="333" 
 />
    <glyph glyph-name="space" unicode=" " horiz-adv-x="184" 
 />
    <glyph glyph-name="exclam" unicode="!" horiz-adv-x="221" 
d="M118 154h-56l94 536h72zM78 81q18 0 29 -10.5t11 -27.5q0 -24 -17 -40.5t-40 -16.5q-18 0 -29 10.5t-11 27.5q0 24 17 40.5t40 16.5z" />
    <glyph glyph-name="quotedbl" unicode="&#x22;" horiz-adv-x="233" 
d="M95 487h-50l37 248h64zM213 487h-50l37 248h65z" />
    <glyph glyph-name="numbersign" unicode="#" 
d="M418 418l-57 -146h108l-7 -43h-118l-89 -229h-44l89 229h-99l-89 -229h-44l89 229h-98l8 43h107l57 146h-109l8 43h118l89 229h44l-89 -229h99l89 229h44l-89 -229h98l-8 -43h-107zM374 418h-99l-57 -146h99z" />
    <glyph glyph-name="dollar" unicode="$" 
d="M362 651l-48 -274q86 -28 128.5 -74.5t42.5 -118.5q0 -84 -64 -139.5t-177 -58.5l-13 -76h-45l14 78q-90 8 -132.5 62.5t-45.5 133.5h65q9 -131 122 -146l50 283q-75 24 -117.5 66t-42.5 113q0 80 58 140.5t170 63.5l13 76h45l-14 -78q78 -9 118 -61.5t42 -129.5h-66
q-1 60 -28 96t-75 44zM166 507q0 -85 105 -120l47 267q-74 -4 -113 -47t-39 -100zM302 312l-49 -276q80 4 122.5 43t42.5 102q0 51 -28 81t-88 50z" />
    <glyph glyph-name="percent" unicode="%" horiz-adv-x="725" 
d="M218 386q-56 0 -89 36t-33 94q0 73 44 130.5t122 57.5q56 0 89 -36t33 -94q0 -74 -43.5 -131t-122.5 -57zM693 690l-567 -690h-68l567 690h68zM256 659q-45 0 -71.5 -43t-26.5 -103q0 -38 17 -60t49 -22q45 0 71.5 43t26.5 104q0 37 -16.5 59t-49.5 22zM535 304
q56 0 89 -36t33 -94q0 -73 -44 -130.5t-122 -57.5q-56 0 -89 36t-33 94q0 74 43.5 131t122.5 57zM496 31q46 0 72.5 43t26.5 104q0 37 -17 59t-49 22q-45 0 -72 -43t-27 -103q0 -38 17 -60t49 -22z" />
    <glyph glyph-name="ampersand" unicode="&#x26;" horiz-adv-x="651" 
d="M634 374l-10 -52h-101l-56 -317q-93 -19 -187 -19q-114 0 -177.5 35t-63.5 119q0 82 57 138.5t149 71.5q-113 25 -113 139q0 94 78.5 154.5t195.5 60.5q65 0 118 -10l-9 -51q-55 11 -121 11q-85 0 -138.5 -44.5t-53.5 -124.5q0 -102 128 -110q19 -1 62 -1h79l22 127h62
l-22 -127h101zM461 322h-79q-41 0 -61 -2q-101 -8 -156 -51.5t-55 -120.5q0 -60 45 -86t136 -26q65 0 122 10z" />
    <glyph glyph-name="quotesingle" unicode="'" horiz-adv-x="115" 
d="M95 487h-50l37 248h64z" />
    <glyph glyph-name="parenleft" unicode="(" horiz-adv-x="288" 
d="M197 -80h-44q-57 117 -57 280q0 142 54 300.5t155 279.5h44q-103 -132 -153.5 -284t-50.5 -295q0 -154 52 -281z" />
    <glyph glyph-name="parenright" unicode=")" horiz-adv-x="288" 
d="M121 780h44q57 -117 57 -280q0 -142 -54 -300.5t-155 -279.5h-44q103 133 153.5 285t50.5 294q0 154 -52 281z" />
    <glyph glyph-name="asterisk" unicode="*" horiz-adv-x="530" 
d="M284 291l166 59l6 -46l-166 -45l87 -142l-44 -28l-75 151l-130 -151l-33 28l136 142l-150 45l23 46l145 -59l26 184h48z" />
    <glyph glyph-name="plus" unicode="+" 
d="M480 295h-184l-37 -209h-44l37 209h-184l7 42h184l38 212h44l-38 -212h185z" />
    <glyph glyph-name="comma" unicode="," horiz-adv-x="193" 
d="M77 62l-109 -181h-58l100 191h68z" />
    <glyph glyph-name="hyphen" unicode="-" horiz-adv-x="274" 
d="M238 261h-210l8 43h210z" />
    <glyph glyph-name="period" unicode="." horiz-adv-x="193" 
d="M47 81q18 0 28.5 -11t10.5 -28q0 -24 -16 -40t-39 -16q-18 0 -29 11.5t-11 28.5q0 24 16.5 39.5t39.5 15.5z" />
    <glyph glyph-name="slash" unicode="/" horiz-adv-x="288" 
d="M-10 -30h-47l383 750h47z" />
    <glyph glyph-name="zero" unicode="0" 
d="M333 704q103 0 155 -68t52 -182q0 -58 -9 -118t-31.5 -124t-56 -113.5t-86.5 -81t-119 -31.5q-103 0 -155 68t-52 183q0 57 9 117.5t31.5 124t55.5 113t86.5 81t119.5 31.5zM240 36q63 0 111 46t72.5 115.5t36 135t11.5 120.5q0 94 -35 147.5t-106 53.5q-63 0 -111 -46
t-72.5 -115.5t-36 -134.5t-11.5 -120q0 -94 35.5 -148t105.5 -54z" />
    <glyph glyph-name="one" unicode="1" 
d="M445 690l-122 -690h-62l110 625l-211 -115l12 66l168 94q35 20 66 20h39z" />
    <glyph glyph-name="two" unicode="2" 
d="M106 52h363l-9 -52h-455l7 37l288 246q105 90 143.5 143t38.5 116q0 52 -30 82t-87 30q-72 0 -121.5 -42.5t-67.5 -122.5l-2 -10h-62l2 10q24 106 94.5 160.5t171.5 54.5q84 0 128 -44t44 -111q0 -71 -49.5 -138t-173.5 -171z" />
    <glyph glyph-name="three" unicode="3" 
d="M391 363q117 -30 117 -144q0 -105 -81 -169t-198 -64q-98 0 -150 52t-44 156l1 10h62l-1 -10q-5 -75 34 -116.5t112 -41.5q83 0 139 47.5t56 125.5q0 116 -159 116h-17l10 52h17q76 0 135 45.5t59 118.5q0 52 -31.5 82.5t-86.5 30.5q-70 0 -120.5 -38.5t-65.5 -111.5
l-2 -10h-62l2 10q19 94 89.5 147t174.5 53q81 0 127 -41.5t46 -108.5q0 -68 -46.5 -121t-116.5 -70z" />
    <glyph glyph-name="four" unicode="4" 
d="M519 184h-91l-33 -184h-62l33 184h-350l6 33l441 473h60l-86 -455h91zM375 235l70 370q-27 -35 -86 -101l-252 -269h268z" />
    <glyph glyph-name="five" unicode="5" 
d="M232 637l-87 -271l47 45q56 35 130 35q90 0 137.5 -51t47.5 -134q0 -125 -83.5 -200t-199.5 -75q-89 0 -142.5 50t-46.5 145l1 10h62v-10q-3 -145 135 -145q85 0 144.5 58t59.5 158q0 68 -35.5 106t-97.5 38q-110 0 -179 -105h-59l124 398h377l-10 -52h-325z" />
    <glyph glyph-name="six" unicode="6" 
d="M378 704q88 0 133.5 -49.5t41.5 -132.5l-1 -10h-66v10q-2 132 -121 132q-88 0 -159 -80t-93 -240l51 65q71 64 163 64q90 0 139.5 -54.5t49.5 -138.5q0 -121 -81 -202.5t-197 -81.5q-92 0 -145.5 58.5t-53.5 171.5q0 217 97.5 352.5t241.5 135.5zM308 413
q-82 0 -142.5 -61.5t-60.5 -159.5q0 -69 37 -112.5t101 -43.5q85 0 144 64.5t59 160.5q0 67 -35.5 109.5t-102.5 42.5z" />
    <glyph glyph-name="seven" unicode="7" 
d="M597 690l-5 -29l-469 -661h-72l454 638h-392l9 52h475z" />
    <glyph glyph-name="eight" unicode="8" 
d="M398 362q51 -15 80.5 -54.5t29.5 -92.5q0 -75 -42 -129t-103.5 -77.5t-131.5 -23.5q-91 0 -149 42t-58 125q0 78 51 134.5t128 76.5q-40 15 -64 49.5t-24 80.5q0 91 69.5 151t179.5 60q85 0 135 -42.5t50 -111.5q0 -66 -43 -117.5t-108 -70.5zM355 654q-77 0 -125 -45.5
t-48 -112.5q0 -53 32 -83t93 -30q75 0 124.5 44t49.5 115q0 50 -32.5 81t-93.5 31zM241 35q85 0 141.5 48t56.5 127q0 54 -36.5 88.5t-108.5 34.5q-95 0 -148 -50.5t-53 -123.5q0 -58 40.5 -91t107.5 -33z" />
    <glyph glyph-name="nine" unicode="9" 
d="M346 704q91 0 145 -58.5t54 -170.5q0 -218 -98 -353.5t-242 -135.5q-87 0 -132.5 50t-41.5 132v10h66v-10q2 -132 122 -132q88 0 159 80t93 241l-52 -66q-70 -64 -162 -64q-90 0 -139.5 54.5t-49.5 138.5q0 121 81 202.5t197 81.5zM276 277q81 0 141.5 61.5t60.5 159.5
q0 69 -36.5 112.5t-101.5 43.5q-85 0 -143.5 -64t-58.5 -160q0 -68 35 -110.5t103 -42.5z" />
    <glyph glyph-name="colon" unicode=":" horiz-adv-x="193" 
d="M128 543q18 0 29 -11.5t11 -28.5q0 -24 -16.5 -39.5t-38.5 -15.5q-18 0 -29 11t-11 28q0 24 16 40t39 16zM47 81q18 0 28.5 -11t10.5 -28q0 -24 -16 -40t-39 -16q-18 0 -29 11.5t-11 28.5q0 24 16.5 39.5t39.5 15.5z" />
    <glyph glyph-name="semicolon" unicode=";" horiz-adv-x="193" 
d="M128 543q18 0 29 -11.5t11 -28.5q0 -24 -16.5 -39.5t-38.5 -15.5q-18 0 -29 11t-11 28q0 24 16 40t39 16zM76 62l-108 -181h-58l100 191h67z" />
    <glyph glyph-name="less" unicode="&#x3c;" 
d="M521 434l-383 -172l323 -171l-9 -50l-366 199l9 50l435 199z" />
    <glyph glyph-name="equal" unicode="=" 
d="M501 391h-420l8 43h420zM467 198h-420l7 43h420z" />
    <glyph glyph-name="greater" unicode="&#x3e;" 
d="M479 290l-9 -50l-436 -199l9 55l384 171l-323 172l9 50z" />
    <glyph glyph-name="question" unicode="?" horiz-adv-x="559" 
d="M363 704q83 0 130 -42t47 -104q0 -58 -30.5 -109t-108.5 -122q-58 -55 -81 -88t-34 -85h-61q8 54 32 91.5t90 102.5q74 73 100 116t26 89q0 45 -32 73t-86 28q-69 0 -115 -41.5t-62 -118.5h-64q16 96 84 153t165 57zM246 81q18 0 29 -10.5t11 -27.5q0 -24 -17 -40.5
t-40 -16.5q-18 0 -29 10.5t-11 27.5q0 24 17 40.5t40 16.5z" />
    <glyph glyph-name="at" unicode="@" horiz-adv-x="849" 
d="M618 465l-58 -243q-7 -32 -7 -53q0 -50 53 -50q56 0 96 56.5t40 155.5q0 136 -78.5 212.5t-200.5 76.5q-65 0 -128.5 -25.5t-115.5 -72t-84.5 -119t-32.5 -158.5q0 -145 84 -225t209 -80q145 0 260 83l19 -38q-133 -89 -281 -89q-66 0 -126 22t-108 63.5t-76.5 109
t-28.5 152.5q0 126 62 224.5t155 147.5t196 49q143 0 233 -91.5t90 -238.5q0 -125 -58.5 -192t-138.5 -67q-42 0 -69.5 19.5t-31.5 61.5l-19 -39q-47 -50 -108 -50q-54 0 -94 37t-40 120q0 104 61.5 181.5t152.5 77.5q56 0 83 -32l13 -52l17 66h60zM508 262l9 39
q15 64 -5.5 98.5t-64.5 34.5q-63 0 -106 -61t-43 -143q0 -114 81 -114q44 0 78.5 39.5t50.5 106.5z" />
    <glyph glyph-name="A" unicode="A" horiz-adv-x="636" 
d="M467 253h-275l-135 -253h-72l377 690h89l127 -690h-67zM458 305l-59 335l-179 -335h238z" />
    <glyph glyph-name="B" unicode="B" horiz-adv-x="622" 
d="M434 365q122 -31 122 -151q0 -92 -64.5 -145.5t-156.5 -64.5q-31 -4 -81 -4h-211l122 690h192q52 0 85 -3q70 -8 108 -43.5t38 -94.5q0 -144 -154 -184zM218 638l-45 -253h144q23 0 56 3q68 8 107 46t39 102q0 92 -108 101q-20 1 -58 1h-135zM320 53q70 6 119 48t49 117
q0 102 -114 113q-33 3 -53 3h-157l-50 -282h159q34 0 47 1z" />
    <glyph glyph-name="C" unicode="C" horiz-adv-x="709" 
d="M445 704q121 0 184.5 -63.5t58.5 -165.5l-1 -10h-62v10q0 179 -192 179q-126 0 -214.5 -106t-88.5 -270q0 -119 54 -180.5t146 -61.5q174 0 245 183l4 10h62l-3 -10q-34 -106 -114.5 -169.5t-205.5 -63.5q-122 0 -190 76t-67 208q-1 189 109.5 311.5t274.5 122.5z" />
    <glyph glyph-name="D" unicode="D" horiz-adv-x="696" 
d="M428 687q106 -9 174.5 -82.5t68.5 -207.5q0 -96 -40 -180.5t-123 -144t-194 -69.5q-36 -3 -89 -3h-182l122 690h182q51 0 81 -3zM320 56q92 11 157.5 62.5t95.5 122.5t30 154q0 110 -51 170t-134 70q-22 3 -75 3h-125l-104 -586h125q46 0 81 4z" />
    <glyph glyph-name="E" unicode="E" horiz-adv-x="572" 
d="M218 639l-47 -268h349l-9 -52h-350l-47 -268h386l-9 -51h-448l122 690h438l-10 -51h-375z" />
    <glyph glyph-name="F" unicode="F" horiz-adv-x="552" 
d="M218 639l-47 -268h339l-9 -52h-340l-56 -319h-62l122 690h438l-10 -51h-375z" />
    <glyph glyph-name="G" unicode="G" horiz-adv-x="746" 
d="M457 704q120 0 179 -63t54 -166l-1 -10h-62v10q0 179 -182 179q-129 0 -222 -106.5t-93 -269.5q0 -113 53 -177.5t144 -64.5q88 0 164 62.5t96 173.5h-188l9 51h250l-57 -323h-56l25 143l-38 -63q-84 -94 -218 -94q-120 0 -187 77.5t-67 206.5q0 185 115.5 309.5
t281.5 124.5z" />
    <glyph glyph-name="H" unicode="H" horiz-adv-x="687" 
d="M693 690l-122 -690h-62l55 312h-404l-55 -312h-62l122 690h62l-57 -325h404l57 325h62z" />
    <glyph glyph-name="I" unicode="I" horiz-adv-x="221" 
d="M105 0h-62l122 690h62z" />
    <glyph glyph-name="J" unicode="J" horiz-adv-x="502" 
d="M519 690l-75 -427q-8 -45 -18 -86q-20 -87 -77.5 -139t-155.5 -52q-92 0 -140.5 55t-33.5 153l5 37h62l-4 -37q-11 -80 22 -119t100 -39q125 0 162 145q3 12 8 39.5t8 40.5l75 429h62z" />
    <glyph glyph-name="K" unicode="K" horiz-adv-x="593" 
d="M251 345l278 -345h-77l-248 311l-52 -44l-47 -267h-62l122 690h62l-62 -352l419 352h78z" />
    <glyph glyph-name="L" unicode="L" horiz-adv-x="556" 
d="M500 51l-9 -51h-448l122 690h62l-113 -639h386z" />
    <glyph glyph-name="M" unicode="M" horiz-adv-x="825" 
d="M831 690l-122 -690h-62l113 629l-345 -629h-78l-121 636l-111 -636h-62l122 690h102l121 -628l341 628h102z" />
    <glyph glyph-name="N" unicode="N" horiz-adv-x="673" 
d="M679 690l-122 -690h-95l-247 633l-110 -633h-62l122 690h95l245 -631l112 631h62z" />
    <glyph glyph-name="O" unicode="O" horiz-adv-x="746" 
d="M446 704q127 0 201 -84t74 -216q0 -78 -24 -151t-70 -133.5t-121.5 -97t-168.5 -36.5q-126 0 -200.5 84t-74.5 216q0 78 24 151t70 133.5t121.5 97t168.5 36.5zM350 36q72 0 131.5 33.5t96 87t56.5 118t20 129.5q0 114 -61 182t-159 68q-73 0 -132.5 -33.5t-96 -87
t-56 -118t-19.5 -129.5q0 -113 60.5 -181.5t159.5 -68.5z" />
    <glyph glyph-name="P" unicode="P" horiz-adv-x="558" 
d="M449 686q67 -9 105.5 -49t38.5 -108q0 -99 -61 -160t-152 -73q-33 -4 -94 -4h-129l-52 -292h-62l122 690h191q62 0 93 -4zM385 350q61 10 101 53t40 118q0 95 -91 111q-29 5 -83 5h-134l-52 -292h134q54 0 85 5z" />
    <glyph glyph-name="Q" unicode="Q" horiz-adv-x="744" 
d="M543 53q60 -8 112 -62l-42 -43q-44 33 -71 44.5t-60 11.5q-26 0 -74 -10q-31 -8 -67 -8q-135 0 -207.5 82.5t-72.5 213.5q0 76 24 149t68.5 135t118.5 100t165 38q134 0 206.5 -82.5t72.5 -213.5q0 -105 -44.5 -201.5t-128.5 -153.5zM129 282q0 -111 60 -178.5t158 -67.5
q95 0 166 58.5t103.5 141.5t32.5 172q0 111 -60 178.5t-158 67.5q-73 0 -132 -34t-95 -88.5t-55.5 -119t-19.5 -130.5z" />
    <glyph glyph-name="R" unicode="R" horiz-adv-x="593" 
d="M604 540q0 -82 -51 -135t-125 -66q42 -8 58.5 -50t17.5 -146t18 -143h-67q-11 54 -13 193q-2 113 -85 118q-19 1 -55 1h-142l-55 -312h-62l122 690h204q62 0 93 -4q67 -8 104.5 -45.5t37.5 -100.5zM383 366q68 5 110.5 49t42.5 114q0 91 -98 105q-32 4 -78 4h-143
l-48 -274h144q45 0 70 2z" />
    <glyph glyph-name="S" unicode="S" horiz-adv-x="557" 
d="M355 704q100 0 151 -55.5t46 -143.5h-65q3 70 -37 109.5t-109 39.5q-71 0 -119.5 -39t-48.5 -108q0 -48 34 -75t111 -47q97 -25 143 -69t46 -118q0 -95 -75 -153.5t-192 -58.5q-104 0 -166.5 53.5t-56.5 150.5h66q0 -73 45 -113.5t123 -40.5q81 0 134 41t53 110
q0 55 -36.5 86.5t-118.5 53.5q-89 24 -134 61.5t-45 100.5q0 97 71.5 156t179.5 59z" />
    <glyph glyph-name="T" unicode="T" horiz-adv-x="601" 
d="M667 639h-252l-113 -639h-62l113 639h-254l10 51h567z" />
    <glyph glyph-name="U" unicode="U" horiz-adv-x="652" 
d="M658 690l-78 -441q-7 -40 -13 -64q-49 -199 -276 -199q-102 0 -155.5 48t-53.5 133q0 41 9 86l77 437h62l-76 -433q-10 -57 -10 -88q0 -61 39 -97t117 -36q165 0 207 157q7 27 13 61l76 436h62z" />
    <glyph glyph-name="V" unicode="V" horiz-adv-x="627" 
d="M320 0h-88l-127 690h67l111 -642l343 642h71z" />
    <glyph glyph-name="W" unicode="W" horiz-adv-x="904" 
d="M975 690l-312 -690h-80l-57 620l-287 -620h-81l-57 690h68l42 -624l280 614h88l57 -615l271 625h68z" />
    <glyph glyph-name="X" unicode="X" horiz-adv-x="603" 
d="M361 350l190 -350h-75l-159 307l-265 -307h-73l309 352l-170 338h70l146 -294l257 294h73z" />
    <glyph glyph-name="Y" unicode="Y" horiz-adv-x="568" 
d="M327 269l-47 -269h-62l48 273l-170 417h65l145 -361l267 361h74z" />
    <glyph glyph-name="Z" unicode="Z" horiz-adv-x="571" 
d="M608 639l-523 -587h425l-9 -52h-506l9 48l525 590h-393l9 52h472z" />
    <glyph glyph-name="bracketleft" unicode="[" horiz-adv-x="283" 
d="M167 780h160l-8 -43h-115l-136 -774h114l-7 -43h-160z" />
    <glyph glyph-name="backslash" unicode="\" horiz-adv-x="288" 
d="M241 -30h-47l-119 750h47z" />
    <glyph glyph-name="bracketright" unicode="]" horiz-adv-x="283" 
d="M134 -80h-160l8 43h115l137 774h-115l8 43h159z" />
    <glyph glyph-name="asciicircum" unicode="^" 
d="M405 215l-84 358l-212 -358h-54l244 401h54l104 -401h-52z" />
    <glyph glyph-name="underscore" unicode="_" horiz-adv-x="500" 
d="M446 -84h-400l8 43h400z" />
    <glyph glyph-name="grave" unicode="`" horiz-adv-x="300" 
d="M165 580h-42l-60 110h60z" />
    <glyph glyph-name="a" unicode="a" horiz-adv-x="502" 
d="M307 543q80 0 120 -35t40 -95q0 -20 -9 -78l-34 -187q-11 -62 -16 -148h-63l9 95l-35 -49q-57 -60 -157 -60q-61 0 -102 34t-41 99q0 75 52 122t134 63.5t187 8.5l3 20q9 48 9 72q0 88 -99 88q-130 0 -161 -121h-64q17 78 77.5 124.5t149.5 46.5zM189 35q63 0 117 49.5
t67 119.5l11 62q-131 13 -214.5 -24.5t-83.5 -116.5q0 -43 28 -66.5t75 -23.5z" />
    <glyph glyph-name="b" unicode="b" horiz-adv-x="589" 
d="M370 543q92 0 142.5 -60t50.5 -155q0 -64 -19.5 -124t-55.5 -109t-95 -79t-132 -30q-91 0 -133 56l-22 56l-17 -98h-62l130 735h62l-54 -303l46 57q63 54 159 54zM269 35q103 0 165 87t62 203q0 76 -37 122t-106 46q-77 0 -136 -52t-79 -164l-7 -40q-15 -87 19.5 -144.5
t118.5 -57.5z" />
    <glyph glyph-name="c" unicode="c" horiz-adv-x="526" 
d="M324 543q89 0 136.5 -50.5t47.5 -136.5h-65q-3 138 -131 138q-96 0 -158 -83.5t-62 -207.5q0 -84 38 -126t99 -42t108.5 33.5t74.5 96.5h64q-74 -179 -257 -179q-87 0 -140.5 56.5t-53.5 158.5q0 88 33.5 164.5t103 127t162.5 50.5z" />
    <glyph glyph-name="d" unicode="d" horiz-adv-x="587" 
d="M598 735l-130 -735h-62l17 97l-45 -57q-61 -54 -159 -54q-92 0 -142.5 60t-50.5 155q0 86 32.5 162t103 128t166.5 52q91 0 133 -57l21 -55l54 304h62zM451 252l7 40q15 86 -19.5 143.5t-118.5 57.5q-103 0 -165 -87t-62 -202q0 -76 37 -122.5t106 -46.5q50 0 91.5 20
t75.5 70.5t48 126.5z" />
    <glyph glyph-name="e" unicode="e" horiz-adv-x="533" 
d="M495 246h-400q-3 -24 -3 -46q0 -83 38.5 -124t99.5 -41q57 0 106.5 34.5t74.5 97.5h64q-34 -90 -103.5 -135.5t-153.5 -45.5q-88 0 -140.5 55t-52.5 157q0 46 10.5 93t34 92.5t56.5 81t82.5 57t108.5 21.5q92 0 141.5 -55t49.5 -144q0 -54 -13 -98zM307 493
q-82 0 -132 -57t-71 -141h338q3 25 3 46q0 76 -37.5 114t-100.5 38z" />
    <glyph glyph-name="f" unicode="f" horiz-adv-x="254" 
d="M283 754q32 0 62 -5l-10 -52q-19 4 -39 4q-65 0 -84 -57q-9 -31 -14 -54l-11 -64h108l-9 -49h-108l-83 -477h-62l84 477h-48l9 49h47l10 56q8 42 14 63q16 53 51.5 81t82.5 28z" />
    <glyph glyph-name="g" unicode="g" horiz-adv-x="587" 
d="M562 530l-70 -396q-16 -95 -23 -124q-22 -108 -92.5 -166t-185.5 -58q-91 0 -144.5 43.5t-49.5 125.5l1 12h63l-1 -12q-1 -59 36 -89.5t105 -30.5q83 0 136 44.5t70 127.5l8 40t7 38l2 13l-46 -58q-61 -54 -159 -54q-92 0 -142.5 60t-50.5 155q0 86 32.5 162t103 128
t166.5 52q91 0 133 -57l22 -56l17 100h62zM236 35q50 0 91.5 20t75.5 70.5t48 126.5v-3l8 46l-1 -3q15 86 -19.5 143.5t-118.5 57.5q-103 0 -165 -87t-62 -202q0 -76 37 -122.5t106 -46.5z" />
    <glyph glyph-name="h" unicode="h" horiz-adv-x="571" 
d="M361 543q77 0 118 -37t41 -102q0 -40 -12 -108l-54 -296h-62l52 289q12 66 12 98q0 49 -28 77.5t-87 27.5q-74 -1 -130 -56.5t-76 -172.5l-46 -263h-62l130 740h62l-55 -312l39 58q68 57 158 57z" />
    <glyph glyph-name="i" unicode="i" horiz-adv-x="208" 
d="M179 685q15 0 25 -10t10 -25q0 -21 -14.5 -35t-34.5 -14q-15 0 -25.5 10.5t-10.5 24.5q0 21 14.5 35t35.5 14zM89 0h-62l93 529h62z" />
    <glyph glyph-name="j" unicode="j" horiz-adv-x="184" 
d="M169 685q16 0 26 -10t10 -25q0 -21 -14.5 -35t-34.5 -14q-16 0 -26 10.5t-10 24.5q0 21 14.5 35t34.5 14zM176 529l-102 -585q-7 -34 -14 -60q-25 -94 -124 -94q-26 0 -39 3l10 51q74 -12 93 50q2 7 12 49l102 586h62z" />
    <glyph glyph-name="k" unicode="k" horiz-adv-x="501" 
d="M232 279l214 -279h-76l-184 244l-63 -53l-34 -191h-62l130 735h62l-84 -473l314 267h82z" />
    <glyph glyph-name="l" unicode="l" horiz-adv-x="221" 
d="M214 735l-105 -595q-8 -45 -8 -62q0 -23 12.5 -29.5t42.5 -3.5l-8 -46q-17 -3 -50 -3q-64 0 -64 55q0 13 13 87l105 597h62z" />
    <glyph glyph-name="m" unicode="m" horiz-adv-x="838" 
d="M654 543q66 0 100.5 -36t34.5 -96q0 -35 -12 -99l-54 -312h-62l50 284q13 80 13 109q0 100 -98 100q-58 0 -106 -57.5t-66 -158.5l-48 -277h-62l50 284q13 74 13 109q0 100 -98 100q-58 0 -106 -57.5t-65 -158.5l-49 -277h-62l93 529h62l-16 -92l41 60q50 46 130 46
q60 0 94.5 -30t39.5 -82l52 66q52 46 131 46z" />
    <glyph glyph-name="n" unicode="n" horiz-adv-x="571" 
d="M361 543q77 0 118 -37t41 -102q0 -40 -12 -108l-54 -296h-62l52 289q12 66 12 98q0 49 -28 77.5t-87 27.5q-73 -1 -129.5 -56.5t-76.5 -171.5v-1l-46 -263h-62l93 529h62l-18 -101l39 58q68 57 158 57z" />
    <glyph glyph-name="o" unicode="o" horiz-adv-x="574" 
d="M326 543q109 0 165 -66t56 -166q0 -55 -18 -110t-52.5 -104.5t-94 -80t-134.5 -30.5q-110 0 -165.5 65.5t-55.5 166.5q0 55 18 110t52.5 104t94 80t134.5 31zM256 35q70 0 122.5 43.5t76.5 104.5t24 127q0 83 -42.5 133t-118.5 50q-70 0 -123 -43.5t-76.5 -104.5
t-23.5 -126q0 -83 42.5 -133.5t118.5 -50.5z" />
    <glyph glyph-name="p" unicode="p" horiz-adv-x="589" 
d="M370 543q92 0 142.5 -60t50.5 -155q0 -64 -19.5 -124t-55.5 -109t-95 -79t-132 -30q-91 0 -133 56l-22 57l-52 -295h-62l129 725h62l-17 -97l45 57q63 54 159 54zM269 35q103 0 165 87t62 203q0 76 -37 122t-106 46q-77 0 -136 -52t-79 -164l-7 -40q-15 -87 19.5 -144.5
t118.5 -57.5z" />
    <glyph glyph-name="q" unicode="q" horiz-adv-x="587" 
d="M562 529l-129 -725h-62l52 293l-45 -57q-61 -54 -159 -54q-92 0 -142.5 60t-50.5 155q0 86 32.5 162t103 128t166.5 52q91 0 133 -57l22 -56l17 99h62zM451 252l7 40q15 86 -19.5 143.5t-118.5 57.5q-103 0 -165 -87t-62 -202q0 -76 37 -122.5t106 -46.5q50 0 91.5 20
t75.5 70.5t48 126.5z" />
    <glyph glyph-name="r" unicode="r" horiz-adv-x="302" 
d="M313 541q19 0 30 -4l-9 -49q-68 5 -120.5 -38.5t-71.5 -148.5l-1 -4l-52 -297h-62l94 530h62l-17 -96l49 67q46 40 98 40z" />
    <glyph glyph-name="s" unicode="s" horiz-adv-x="453" 
d="M256 543q83 0 126.5 -43t45.5 -119h-64q-9 112 -113 112q-58 0 -89 -29t-31 -71q0 -39 27 -62t78 -38q81 -24 119.5 -59t38.5 -95q0 -71 -54.5 -114t-144.5 -43q-94 0 -143.5 46t-51.5 122h64q8 -119 138 -119q55 0 90 28.5t35 74.5q0 41 -28 65t-94 43
q-67 19 -104.5 51.5t-37.5 93.5q0 66 51.5 111t141.5 45z" />
    <glyph glyph-name="t" unicode="t" horiz-adv-x="281" 
d="M182 477l-59 -332q-8 -40 -8 -61q0 -29 21 -38t67 -1l-8 -47q-34 -6 -57 -6q-87 0 -87 71q0 30 10 81l59 333h-68l9 48h67l21 117h62l-21 -117h95l-8 -48h-95z" />
    <glyph glyph-name="u" unicode="u" horiz-adv-x="566" 
d="M540 529l-92 -529h-62l18 102l-40 -59q-66 -57 -158 -57q-77 0 -118 37t-41 102q0 39 13 108l53 296h62l-52 -289q-11 -62 -11 -99q0 -49 27.5 -77.5t86.5 -27.5q74 2 129.5 57.5t76.5 172.5l46 263h62z" />
    <glyph glyph-name="v" unicode="v" horiz-adv-x="486" 
d="M530 529l-297 -529h-80l-110 529h70l88 -479l258 479h71z" />
    <glyph glyph-name="w" unicode="w" horiz-adv-x="744" 
d="M788 529l-262 -529h-74l-48 468l-212 -468h-76l-73 529h70l52 -467l209 466h80l48 -465l218 466h68z" />
    <glyph glyph-name="x" unicode="x" horiz-adv-x="461" 
d="M262 264l141 -264h-74l-112 220l-191 -220h-74l237 266l-131 263h72l104 -220l190 220h75z" />
    <glyph glyph-name="y" unicode="y" horiz-adv-x="486" 
d="M530 529l-297 -529q-70 -126 -117.5 -168t-112.5 -42q-20 0 -38 3l8 52q12 -3 31 -3q40 0 72 25.5t69 92.5l12 21l-114 548h70l88 -482l258 482h71z" />
    <glyph glyph-name="z" unicode="z" horiz-adv-x="470" 
d="M469 474l-405 -424h336l-9 -50h-412l8 48l406 426h-307l8 51h384z" />
    <glyph glyph-name="braceleft" unicode="{" horiz-adv-x="297" 
d="M361 780l-8 -43h-14q-64 0 -85 -33.5t-21 -128.5q0 -47 -4 -81.5t-15.5 -67t-35 -52t-58.5 -25.5q69 -9 69 -78q0 -47 -35 -144q-31 -85 -31 -116q0 -48 79 -48h14l-7 -43h-14q-118 0 -118 88q0 32 35 129q31 81 31 129q0 55 -68 62l8 44q62 6 83.5 48t21.5 145
q-1 121 31.5 168t127.5 47h14z" />
    <glyph glyph-name="bar" unicode="|" horiz-adv-x="250" 
d="M62 -200h-45l176 1000h45z" />
    <glyph glyph-name="braceright" unicode="}" horiz-adv-x="297" 
d="M184 435q0 -56 68 -63l-7 -44q-62 -6 -84 -48t-22 -145q1 -121 -31.5 -168t-127.5 -47h-14l8 43h14q64 0 85 34t21 128q0 47 4.5 82t16 67t34.5 51.5t58 25.5q-69 9 -69 78q0 47 35 145q31 85 31 115q0 48 -79 48h-14l7 43h14q118 0 118 -88q0 -32 -35 -128
q-31 -82 -31 -129z" />
    <glyph glyph-name="asciitilde" unicode="~" horiz-adv-x="588" 
d="M470 354h43q-22 -127 -125 -127q-27 0 -48 8.5t-65 34.5q-63 39 -96 39q-54 0 -70 -84h-42q22 127 123 127q28 0 49 -8.5t65 -34.5q64 -39 96 -39q54 0 70 84z" />
    <glyph glyph-name="exclamdown" unicode="&#xa1;" horiz-adv-x="221" 
d="M143 448q-19 0 -29.5 10t-10.5 27q0 25 16.5 41.5t40.5 16.5q18 0 28.5 -10.5t10.5 -27.5q0 -24 -16.5 -40.5t-39.5 -16.5zM103 375h55l-93 -537h-72z" />
    <glyph glyph-name="cent" unicode="&#xa2;" 
d="M339 493l-82 -457q111 11 162 129h64q-69 -167 -234 -178l-14 -77h-45l14 77q-79 7 -125.5 62.5t-46.5 151.5q0 81 30 154t93 126t147 61l14 78h45l-14 -77q83 -4 126 -54t43 -133h-65q-3 128 -112 137zM99 203q0 -75 31 -116.5t82 -49.5l81 455q-85 -13 -139.5 -95
t-54.5 -194z" />
    <glyph glyph-name="sterling" unicode="&#xa3;" horiz-adv-x="562" 
d="M227 251q0 -64 -29 -111t-98 -88h363l-9 -52h-460l8 46q81 25 120 79t39 118q0 36 -17 87h-83l8 43h60q-17 56 -17 119q0 83 59.5 147.5t164.5 64.5q172 0 185 -196h-66q-4 73 -34 109.5t-96 36.5q-65 0 -105.5 -47.5t-40.5 -113.5q0 -52 22 -120h225l-8 -43h-204
q13 -47 13 -79z" />
    <glyph glyph-name="currency" unicode="&#xa4;" 
d="M501 469l-71 -61q23 -40 23 -90q0 -76 -53 -134l43 -53l-36 -31l-44 53q-48 -32 -114 -32q-59 0 -100 41l-69 -58l-26 32l69 59q-23 40 -23 89q0 76 54 135l-44 54l36 30l45 -53q49 31 112 31q59 0 101 -40l71 60zM258 165q67 0 107.5 46.5t40.5 102.5t-31 89.5t-80 33.5
q-67 0 -107.5 -46.5t-40.5 -102.5q0 -55 31 -89t80 -34z" />
    <glyph glyph-name="yen" unicode="&#xa5;" 
d="M343 351h139l-8 -42h-163l-8 -11l-11 -59h170l-7 -43h-170l-35 -196h-62l35 196h-171l8 43h170l11 63l-3 7h-166l7 42h142l-136 339h73l125 -337l245 337h73z" />
    <glyph glyph-name="brokenbar" unicode="&#xa6;" horiz-adv-x="250" 
d="M159 350h-45l60 340h45zM69 -160h-45l60 340h45z" />
    <glyph glyph-name="section" unicode="&#xa7;" horiz-adv-x="549" 
d="M519 254q0 -56 -39 -99t-108 -59q46 -43 46 -108q0 -72 -59 -117t-149 -45q-77 0 -129 43t-60 128h65q7 -62 43 -92t90 -30q60 0 96 28t36 79q0 47 -32.5 75.5t-114.5 53.5q-76 25 -119.5 64.5t-43.5 105.5q0 55 38 98t108 61q-41 41 -41 103q0 64 50 112.5t138 48.5
q77 0 122 -43.5t54 -118.5h-65q-15 113 -119 113q-52 0 -82.5 -31t-30.5 -80q0 -78 128 -115q178 -49 178 -175zM312 136q63 4 101.5 34.5t38.5 78.5q0 47 -34.5 76t-110.5 52q-39 12 -64 25q-62 -6 -98.5 -36.5t-36.5 -78.5t33.5 -76t95.5 -47q36 -10 75 -28z" />
    <glyph glyph-name="dieresis" unicode="&#xa8;" horiz-adv-x="300" 
d="M96 667q13 0 21.5 -8.5t8.5 -22.5q0 -16 -13.5 -29t-29.5 -13q-13 0 -21.5 9t-8.5 22q0 16 13.5 29t29.5 13zM217 667q13 0 22 -8.5t9 -22.5q0 -16 -13.5 -29t-30.5 -13q-13 0 -21.5 9t-8.5 22q0 16 13.5 29t29.5 13z" />
    <glyph glyph-name="copyright" unicode="&#xa9;" horiz-adv-x="838" 
d="M419 737q158 0 267 -110.5t109 -271.5t-109 -271.5t-267 -110.5t-266.5 110.5t-108.5 271.5t108.5 271.5t266.5 110.5zM419 693q-138 0 -233 -98t-95 -240t95 -239.5t233 -97.5t233.5 97.5t95.5 239.5t-95.5 240t-233.5 98zM424 578q74 0 123 -41t62 -112h-66
q-19 102 -119 102q-63 0 -98.5 -47.5t-35.5 -123.5q0 -77 36.5 -124.5t95.5 -47.5q48 0 80 27.5t40 73.5h66q-16 -72 -64.5 -112t-127.5 -40q-84 0 -139 61t-55 160q0 103 56.5 163.5t145.5 60.5z" />
    <glyph glyph-name="guillemotleft" unicode="&#xab;" horiz-adv-x="507" 
d="M166 243l105 -161h-55l-108 166l166 166h64zM311 243l105 -161h-55l-108 166l166 166h64z" />
    <glyph glyph-name="logicalnot" unicode="&#xac;" 
d="M424 210h-44l21 124h-317l7 43h363z" />
    <glyph glyph-name="registered" unicode="&#xae;" horiz-adv-x="513" 
d="M282 764q88 0 140 -52.5t52 -132.5q0 -93 -65.5 -164t-175.5 -71q-89 0 -140.5 52.5t-51.5 133.5q0 92 65.5 163t175.5 71zM239 381q90 0 143 59.5t53 138.5q0 65 -43 106.5t-117 41.5q-90 0 -143 -59t-53 -138q0 -65 43.5 -107t116.5 -42zM293 658q25 -3 39.5 -17.5
t14.5 -36.5q0 -44 -50 -56q25 -9 23 -37q-2 -32 7 -56h-43q-5 19 -5 47q0 26 -27 26h-30l-12 -73h-39l36 204h61q17 0 25 -1zM270 563q35 3 35 34q0 24 -25 29q-6 1 -18 1h-23l-11 -65h23q12 0 19 1z" />
    <glyph glyph-name="macron" unicode="&#xaf;" horiz-adv-x="300" 
d="M247 610h-202l8 40h202z" />
    <glyph glyph-name="degree" unicode="&#xb0;" horiz-adv-x="292" 
d="M227 749q45 0 73 -27t28 -68q0 -56 -36.5 -92.5t-95.5 -36.5q-45 0 -72.5 27t-27.5 68q0 55 36 92t95 37zM222 706q-34 0 -56 -22t-22 -61q0 -27 15.5 -41.5t41.5 -14.5q34 0 56 22.5t22 61.5q0 26 -15.5 40.5t-41.5 14.5z" />
    <glyph glyph-name="plusminus" unicode="&#xb1;" 
d="M494 340l-7 -43h-185l-33 -191h-45l34 191h-184l8 43h183l34 189h44l-33 -189h184zM30 43h412l-7 -43h-413z" />
    <glyph glyph-name="acute" unicode="&#xb4;" horiz-adv-x="300" 
d="M156 580h-42l81 110h60z" />
    <glyph glyph-name="paragraph" unicode="&#xb6;" horiz-adv-x="542" 
d="M546 690l-142 -800h-45l134 757h-105l-134 -757h-45l76 430h-23q-39 0 -56 1q-60 4 -94 50t-34 108q0 74 49.5 139t143.5 71q18 1 57 1h218z" />
    <glyph glyph-name="periodcentered" unicode="&#xb7;" horiz-adv-x="177" 
d="M104 356q19 0 31 -11.5t12 -29.5q0 -25 -18.5 -43t-42.5 -18q-19 0 -31 11.5t-12 29.5q0 25 18.5 43t42.5 18z" />
    <glyph glyph-name="cedilla" unicode="&#xb8;" horiz-adv-x="300" 
d="M183 6l-36 -50q33 -5 51.5 -24.5t18.5 -48.5q0 -46 -35 -69.5t-92 -23.5q-31 0 -53 8l7 33q21 -7 51 -7q37 0 57.5 15t20.5 40t-23 37.5t-66 8.5l59 83z" />
    <glyph glyph-name="guillemotright" unicode="&#xbb;" horiz-adv-x="507" 
d="M248 248l-166 -166h-63l171 172l-104 160h54zM393 248l-166 -166h-63l171 172l-104 160h54z" />
    <glyph glyph-name="questiondown" unicode="&#xbf;" horiz-adv-x="522" 
d="M322 447q-18 0 -29 10.5t-11 27.5q0 24 17 40.5t40 16.5q18 0 29 -10.5t11 -27.5q0 -24 -17 -40.5t-40 -16.5zM205 -176q-83 0 -130 42t-47 104q0 59 30.5 109.5t108.5 121.5q58 54 81 88t34 85h61q-8 -54 -32.5 -91.5t-89.5 -102.5q-74 -73 -100 -116t-26 -89
q0 -45 32 -73t86 -28q69 0 115 41.5t62 118.5h64q-16 -96 -84 -153t-165 -57z" />
    <glyph glyph-name="Agrave" unicode="&#xc0;" horiz-adv-x="636" 
d="M400 736l-57 94h60l38 -94h-41zM467 253h-275l-135 -253h-72l377 690h89l127 -690h-67zM458 305l-59 335l-179 -335h238z" />
    <glyph glyph-name="Aacute" unicode="&#xc1;" horiz-adv-x="636" 
d="M435 736h-42l70 94h60zM467 253h-275l-135 -253h-72l377 690h89l127 -690h-67zM458 305l-59 335l-179 -335h238z" />
    <glyph glyph-name="Acircumflex" unicode="&#xc2;" horiz-adv-x="636" 
d="M381 736h-51l82 94h46l51 -94h-51l-28 65zM467 253h-275l-135 -253h-72l377 690h89l127 -690h-67zM458 305l-59 335l-179 -335h238z" />
    <glyph glyph-name="Atilde" unicode="&#xc3;" horiz-adv-x="636" 
d="M373 776q-16 0 -20 -20h-31q9 59 55 59q23 0 59 -13q32 -11 43 -11q16 0 20 20h31q-8 -59 -55 -59q-23 0 -59 13q-32 11 -43 11zM467 253h-275l-135 -253h-72l377 690h89l127 -690h-67zM458 305l-59 335l-179 -335h238z" />
    <glyph glyph-name="Adieresis" unicode="&#xc4;" horiz-adv-x="636" 
d="M363 747q-13 0 -22 8.5t-9 21.5q0 17 13.5 29.5t30.5 12.5q13 0 21.5 -8.5t8.5 -21.5q0 -16 -13.5 -29t-29.5 -13zM476 747q-13 0 -21.5 8.5t-8.5 21.5q0 17 13.5 29.5t29.5 12.5q14 0 22.5 -8.5t8.5 -21.5q0 -16 -13.5 -29t-30.5 -13zM467 253h-275l-135 -253h-72
l377 690h89l127 -690h-67zM458 305l-59 335l-179 -335h238z" />
    <glyph glyph-name="Aring" unicode="&#xc5;" horiz-adv-x="636" 
d="M418 718q-33 0 -52 17t-19 44q0 38 27 61t64 23q33 0 52.5 -16.5t19.5 -43.5q0 -39 -27.5 -62t-64.5 -23zM436 832q-21 0 -35 -13.5t-14 -36.5q0 -15 9 -24t24 -9q21 0 35 14t14 36q0 15 -9 24t-24 9zM467 253h-275l-135 -253h-72l377 690h89l127 -690h-67zM458 305
l-59 335l-179 -335h238z" />
    <glyph glyph-name="AE" unicode="&#xc6;" horiz-adv-x="932" 
d="M568 639l-33 -268h345l-9 -52h-342l-33 -268h364l-9 -51h-422l31 253h-245l-198 -253h-78l544 690h480l-10 -51h-385zM507 627l-252 -322h212z" />
    <glyph glyph-name="Ccedilla" unicode="&#xc7;" horiz-adv-x="709" 
d="M445 704q121 0 184.5 -63.5t58.5 -165.5l-1 -10h-62v10q0 179 -192 179q-126 0 -214.5 -106t-88.5 -270q0 -119 54 -180.5t146 -61.5q174 0 245 183l4 10h62l-3 -10q-34 -106 -114.5 -169.5t-205.5 -63.5q-14 0 -40 2l-23 -32q33 -5 51.5 -24.5t18.5 -48.5
q0 -46 -35 -69.5t-92 -23.5q-31 0 -53 8l6 33q21 -7 51 -7q38 0 58 15t20 40q0 55 -89 46l51 70q-87 23 -134.5 94.5t-46.5 180.5q-1 189 109.5 311.5t274.5 122.5z" />
    <glyph glyph-name="Egrave" unicode="&#xc8;" horiz-adv-x="572" 
d="M375 736l-57 94h60l38 -94h-41zM218 639l-47 -268h349l-9 -52h-350l-47 -268h386l-9 -51h-448l122 690h438l-10 -51h-375z" />
    <glyph glyph-name="Eacute" unicode="&#xc9;" horiz-adv-x="572" 
d="M410 736h-42l70 94h60zM218 639l-47 -268h349l-9 -52h-350l-47 -268h386l-9 -51h-448l122 690h438l-10 -51h-375z" />
    <glyph glyph-name="Ecircumflex" unicode="&#xca;" horiz-adv-x="572" 
d="M356 736h-51l82 94h46l51 -94h-51l-28 65zM218 639l-47 -268h349l-9 -52h-350l-47 -268h386l-9 -51h-448l122 690h438l-10 -51h-375z" />
    <glyph glyph-name="Edieresis" unicode="&#xcb;" horiz-adv-x="572" 
d="M338 747q-13 0 -22 8.5t-9 21.5q0 17 13.5 29.5t30.5 12.5q13 0 21.5 -8.5t8.5 -21.5q0 -16 -13.5 -29t-29.5 -13zM451 747q-13 0 -21.5 8.5t-8.5 21.5q0 17 13.5 29.5t29.5 12.5q14 0 22.5 -8.5t8.5 -21.5q0 -16 -13.5 -29t-30.5 -13zM218 639l-47 -268h349l-9 -52h-350
l-47 -268h386l-9 -51h-448l122 690h438l-10 -51h-375z" />
    <glyph glyph-name="Igrave" unicode="&#xcc;" horiz-adv-x="221" 
d="M227 736h-41l-57 94h60zM105 0h-62l122 690h62z" />
    <glyph glyph-name="Iacute" unicode="&#xcd;" horiz-adv-x="221" 
d="M221 736h-42l70 94h60zM105 0h-62l122 690h62z" />
    <glyph glyph-name="Icircumflex" unicode="&#xce;" horiz-adv-x="221" 
d="M295 736h-51l-28 65l-49 -65h-51l82 94h46zM165 690h62l-122 -690h-62z" />
    <glyph glyph-name="Idieresis" unicode="&#xcf;" horiz-adv-x="221" 
d="M162 819q13 0 21.5 -8.5t8.5 -21.5q0 -16 -13.5 -29t-29.5 -13q-13 0 -22 8.5t-9 21.5q0 17 13.5 29.5t30.5 12.5zM275 819q14 0 22.5 -8.5t8.5 -21.5q0 -16 -13.5 -29t-30.5 -13q-13 0 -21.5 8.5t-8.5 21.5q0 17 13.5 29.5t29.5 12.5zM105 0h-62l122 690h62z" />
    <glyph glyph-name="Eth" unicode="&#xd0;" horiz-adv-x="696" 
d="M428 687q106 -9 174.5 -82.5t68.5 -207.5q0 -96 -40 -180.5t-123 -144t-194 -69.5q-36 -3 -89 -3h-182l55 312h-81l7 43h82l59 335h182q51 0 81 -3zM320 56q92 11 157.5 62.5t95.5 122.5t30 154q0 110 -51 170t-134 70q-22 3 -75 3h-125l-50 -283h148l-7 -43h-149
l-46 -260h125q46 0 81 4z" />
    <glyph glyph-name="Ntilde" unicode="&#xd1;" horiz-adv-x="673" 
d="M385 776q-16 0 -20 -20h-31q9 59 55 59q23 0 59 -13q32 -11 43 -11q16 0 20 20h31q-8 -59 -55 -59q-23 0 -59 13q-32 11 -43 11zM679 690l-122 -690h-95l-247 633l-110 -633h-62l122 690h95l245 -631l112 631h62z" />
    <glyph glyph-name="Ograve" unicode="&#xd2;" horiz-adv-x="746" 
d="M437 736l-57 94h60l38 -94h-41zM446 704q127 0 201 -84t74 -216q0 -78 -24 -151t-70 -133.5t-121.5 -97t-168.5 -36.5q-126 0 -200.5 84t-74.5 216q0 78 24 151t70 133.5t121.5 97t168.5 36.5zM350 36q72 0 131.5 33.5t96 87t56.5 118t20 129.5q0 114 -61 182t-159 68
q-73 0 -132.5 -33.5t-96 -87t-56 -118t-19.5 -129.5q0 -113 60.5 -181.5t159.5 -68.5z" />
    <glyph glyph-name="Oacute" unicode="&#xd3;" horiz-adv-x="746" 
d="M472 736h-42l70 94h60zM446 704q127 0 201 -84t74 -216q0 -78 -24 -151t-70 -133.5t-121.5 -97t-168.5 -36.5q-126 0 -200.5 84t-74.5 216q0 78 24 151t70 133.5t121.5 97t168.5 36.5zM350 36q72 0 131.5 33.5t96 87t56.5 118t20 129.5q0 114 -61 182t-159 68
q-73 0 -132.5 -33.5t-96 -87t-56 -118t-19.5 -129.5q0 -113 60.5 -181.5t159.5 -68.5z" />
    <glyph glyph-name="Ocircumflex" unicode="&#xd4;" horiz-adv-x="746" 
d="M418 736h-51l82 94h46l51 -94h-51l-28 65zM446 704q127 0 201 -84t74 -216q0 -78 -24 -151t-70 -133.5t-121.5 -97t-168.5 -36.5q-126 0 -200.5 84t-74.5 216q0 78 24 151t70 133.5t121.5 97t168.5 36.5zM350 36q72 0 131.5 33.5t96 87t56.5 118t20 129.5q0 114 -61 182
t-159 68q-73 0 -132.5 -33.5t-96 -87t-56 -118t-19.5 -129.5q0 -113 60.5 -181.5t159.5 -68.5z" />
    <glyph glyph-name="Otilde" unicode="&#xd5;" horiz-adv-x="746" 
d="M410 776q-16 0 -20 -20h-31q9 59 55 59q23 0 59 -13q32 -11 43 -11q16 0 20 20h31q-8 -59 -55 -59q-23 0 -59 13q-32 11 -43 11zM446 704q127 0 201 -84t74 -216q0 -78 -24 -151t-70 -133.5t-121.5 -97t-168.5 -36.5q-126 0 -200.5 84t-74.5 216q0 78 24 151t70 133.5
t121.5 97t168.5 36.5zM350 36q72 0 131.5 33.5t96 87t56.5 118t20 129.5q0 114 -61 182t-159 68q-73 0 -132.5 -33.5t-96 -87t-56 -118t-19.5 -129.5q0 -113 60.5 -181.5t159.5 -68.5z" />
    <glyph glyph-name="Odieresis" unicode="&#xd6;" horiz-adv-x="746" 
d="M400 747q-13 0 -22 8.5t-9 21.5q0 17 13.5 29.5t30.5 12.5q13 0 21.5 -8.5t8.5 -21.5q0 -16 -13.5 -29t-29.5 -13zM513 747q-13 0 -21.5 8.5t-8.5 21.5q0 17 13.5 29.5t29.5 12.5q14 0 22.5 -8.5t8.5 -21.5q0 -16 -13.5 -29t-30.5 -13zM446 704q127 0 201 -84t74 -216
q0 -78 -24 -151t-70 -133.5t-121.5 -97t-168.5 -36.5q-126 0 -200.5 84t-74.5 216q0 78 24 151t70 133.5t121.5 97t168.5 36.5zM350 36q72 0 131.5 33.5t96 87t56.5 118t20 129.5q0 114 -61 182t-159 68q-73 0 -132.5 -33.5t-96 -87t-56 -118t-19.5 -129.5
q0 -113 60.5 -181.5t159.5 -68.5z" />
    <glyph glyph-name="multiply" unicode="&#xd7;" 
d="M312 311l115 -140l-37 -31l-115 140l-168 -143l-31 37l168 143l-115 140l37 31l115 -140l168 143l31 -37z" />
    <glyph glyph-name="Oslash" unicode="&#xd8;" horiz-adv-x="743" 
d="M770 641l-85 -73q38 -70 38 -164q0 -78 -24 -151t-70 -133.5t-121.5 -97t-168.5 -36.5q-142 0 -217 104l-85 -73l-27 32l90 77q-36 67 -36 160q0 78 24 151t70 133.5t121.5 97t168.5 36.5q138 0 214 -100l82 69zM131 286q0 -66 21 -116l461 392q-60 92 -178 92
q-72 0 -131.5 -33.5t-96 -87t-56.5 -118t-20 -129.5zM655 404q0 68 -23 120l-461 -393q60 -95 180 -95q73 0 132.5 33.5t96 87t56 118t19.5 129.5z" />
    <glyph glyph-name="Ugrave" unicode="&#xd9;" horiz-adv-x="652" 
d="M444 736h-41l-57 94h60zM658 690l-78 -441q-7 -40 -13 -64q-49 -199 -276 -199q-102 0 -155.5 48t-53.5 133q0 41 9 86l77 437h62l-76 -433q-10 -57 -10 -88q0 -61 39 -97t117 -36q165 0 207 157q7 27 13 61l76 436h62z" />
    <glyph glyph-name="Uacute" unicode="&#xda;" horiz-adv-x="652" 
d="M438 736h-42l70 94h60zM658 690l-78 -441q-7 -40 -13 -64q-49 -199 -276 -199q-102 0 -155.5 48t-53.5 133q0 41 9 86l77 437h62l-76 -433q-10 -57 -10 -88q0 -61 39 -97t117 -36q165 0 207 157q7 27 13 61l76 436h62z" />
    <glyph glyph-name="Ucircumflex" unicode="&#xdb;" horiz-adv-x="652" 
d="M384 736h-51l82 94h46l51 -94h-51l-28 65zM658 690l-78 -441q-7 -40 -13 -64q-49 -199 -276 -199q-102 0 -155.5 48t-53.5 133q0 41 9 86l77 437h62l-76 -433q-10 -57 -10 -88q0 -61 39 -97t117 -36q165 0 207 157q7 27 13 61l76 436h62z" />
    <glyph glyph-name="Udieresis" unicode="&#xdc;" horiz-adv-x="652" 
d="M379 819q13 0 21.5 -8.5t8.5 -21.5q0 -16 -13.5 -29t-29.5 -13q-13 0 -22 8.5t-9 21.5q0 17 13.5 29.5t30.5 12.5zM492 819q14 0 22.5 -8.5t8.5 -21.5q0 -16 -13.5 -29t-30.5 -13q-13 0 -21.5 8.5t-8.5 21.5q0 17 13.5 29.5t29.5 12.5zM658 690l-78 -441q-7 -40 -13 -64
q-49 -199 -276 -199q-102 0 -155.5 48t-53.5 133q0 41 9 86l77 437h62l-76 -433q-10 -57 -10 -88q0 -61 39 -97t117 -36q165 0 207 157q7 27 13 61l76 436h62z" />
    <glyph glyph-name="Yacute" unicode="&#xdd;" horiz-adv-x="568" 
d="M396 736h-42l70 94h60zM327 269l-47 -269h-62l48 273l-170 417h65l145 -361l267 361h74z" />
    <glyph glyph-name="Thorn" unicode="&#xde;" horiz-adv-x="582" 
d="M434 586q66 -9 104.5 -44.5t38.5 -98.5q0 -20 -4 -39q-14 -82 -70 -130.5t-134 -58.5q-33 -4 -95 -4h-132l-37 -211h-62l122 690h62l-18 -99h132q54 0 93 -5zM507 402q2 11 2 30q0 83 -94 101q-29 5 -83 5h-132l-48 -274h132q54 0 85 5q117 18 138 133z" />
    <glyph glyph-name="germandbls" unicode="&#xdf;" horiz-adv-x="556" 
d="M374 754q84 0 131 -40t47 -107q0 -68 -47 -127q-55 -25 -76.5 -48t-21.5 -53q0 -37 43 -83q70 -70 70 -138q0 -65 -55 -113.5t-157 -48.5q-54 0 -100 11l9 51q52 -13 97 -13q69 0 103.5 34t34.5 77q0 51 -54 108q-32 34 -44.5 58t-12.5 55q0 41 26.5 73t86.5 61
q31 44 31 95q0 45 -30.5 71.5t-87.5 26.5q-154 0 -192 -214l-86 -490h-62l85 484q10 58 27 102t46 84.5t77 62t112 21.5z" />
    <glyph glyph-name="agrave" unicode="&#xe0;" horiz-adv-x="502" 
d="M305 580l-60 110h60l42 -110h-42zM307 543q80 0 120 -35t40 -95q0 -20 -9 -78l-34 -187q-11 -62 -16 -148h-63l9 95l-35 -49q-57 -60 -157 -60q-61 0 -102 34t-41 99q0 75 52 122t134 63.5t187 8.5l3 20q9 48 9 72q0 88 -99 88q-130 0 -161 -121h-64q17 78 77.5 124.5
t149.5 46.5zM189 35q63 0 117 49.5t67 119.5l11 62q-131 13 -214.5 -24.5t-83.5 -116.5q0 -43 28 -66.5t75 -23.5z" />
    <glyph glyph-name="aacute" unicode="&#xe1;" horiz-adv-x="502" 
d="M338 580h-42l81 110h60zM307 543q80 0 120 -35t40 -95q0 -20 -9 -78l-34 -187q-11 -62 -16 -148h-63l9 95l-35 -49q-57 -60 -157 -60q-61 0 -102 34t-41 99q0 75 52 122t134 63.5t187 8.5l3 20q9 48 9 72q0 88 -99 88q-130 0 -161 -121h-64q17 78 77.5 124.5t149.5 46.5z
M189 35q63 0 117 49.5t67 119.5l11 62q-131 13 -214.5 -24.5t-83.5 -116.5q0 -43 28 -66.5t75 -23.5z" />
    <glyph glyph-name="acircumflex" unicode="&#xe2;" horiz-adv-x="502" 
d="M282 580h-48l86 110h46l46 -110h-49l-26 75zM307 543q80 0 120 -35t40 -95q0 -20 -9 -78l-34 -187q-11 -62 -16 -148h-63l9 95l-35 -49q-57 -60 -157 -60q-61 0 -102 34t-41 99q0 75 52 122t134 63.5t187 8.5l3 20q9 48 9 72q0 88 -99 88q-130 0 -161 -121h-64
q17 78 77.5 124.5t149.5 46.5zM189 35q63 0 117 49.5t67 119.5l11 62q-131 13 -214.5 -24.5t-83.5 -116.5q0 -43 28 -66.5t75 -23.5z" />
    <glyph glyph-name="atilde" unicode="&#xe3;" horiz-adv-x="502" 
d="M279 631q-16 0 -20 -20h-31q9 60 55 60q23 0 59 -13q32 -11 43 -11q16 0 20 20h31q-8 -60 -55 -60q-23 0 -59 13q-32 11 -43 11zM307 543q80 0 120 -35t40 -95q0 -20 -9 -78l-34 -187q-11 -62 -16 -148h-63l9 95l-35 -49q-57 -60 -157 -60q-61 0 -102 34t-41 99
q0 75 52 122t134 63.5t187 8.5l3 20q9 48 9 72q0 88 -99 88q-130 0 -161 -121h-64q17 78 77.5 124.5t149.5 46.5zM189 35q63 0 117 49.5t67 119.5l11 62q-131 13 -214.5 -24.5t-83.5 -116.5q0 -43 28 -66.5t75 -23.5z" />
    <glyph glyph-name="adieresis" unicode="&#xe4;" horiz-adv-x="502" 
d="M263 594q-13 0 -21.5 9t-8.5 22q0 16 13.5 29t29.5 13q13 0 21.5 -8.5t8.5 -22.5q0 -16 -13.5 -29t-29.5 -13zM384 594q-13 0 -21.5 9t-8.5 22q0 16 13.5 29t29.5 13q13 0 22 -8.5t9 -22.5q0 -16 -13.5 -29t-30.5 -13zM307 543q80 0 120 -35t40 -95q0 -20 -9 -78
l-34 -187q-11 -62 -16 -148h-63l9 95l-35 -49q-57 -60 -157 -60q-61 0 -102 34t-41 99q0 75 52 122t134 63.5t187 8.5l3 20q9 48 9 72q0 88 -99 88q-130 0 -161 -121h-64q17 78 77.5 124.5t149.5 46.5zM189 35q63 0 117 49.5t67 119.5l11 62q-131 13 -214.5 -24.5
t-83.5 -116.5q0 -43 28 -66.5t75 -23.5z" />
    <glyph glyph-name="aring" unicode="&#xe5;" horiz-adv-x="502" 
d="M320 568q-31 0 -50 16.5t-19 44.5q0 38 28 64t68 26q30 0 49 -16.5t19 -44.5q0 -39 -28 -64.5t-67 -25.5zM341 689q-21 0 -35 -16t-14 -40q0 -35 33 -35q21 0 35 15.5t14 40.5q0 35 -33 35zM307 543q80 0 120 -35t40 -95q0 -20 -9 -78l-34 -187q-11 -62 -16 -148h-63
l9 95l-35 -49q-57 -60 -157 -60q-61 0 -102 34t-41 99q0 75 52 122t134 63.5t187 8.5l3 20q9 48 9 72q0 88 -99 88q-130 0 -161 -121h-64q17 78 77.5 124.5t149.5 46.5zM189 35q63 0 117 49.5t67 119.5l11 62q-131 13 -214.5 -24.5t-83.5 -116.5q0 -43 28 -66.5t75 -23.5z
" />
    <glyph glyph-name="ae" unicode="&#xe6;" horiz-adv-x="899" 
d="M860 246h-401q-4 -36 -4 -51q0 -81 38 -120.5t100 -39.5q58 0 108 34.5t75 97.5h64q-34 -88 -104.5 -134.5t-154.5 -46.5q-74 0 -120 35t-60 100l-35 -56q-43 -43 -88.5 -61t-107.5 -18q-66 0 -109.5 33t-43.5 91q0 186 355 186h34q10 59 10 85q0 114 -111 114
q-58 0 -100.5 -30.5t-57.5 -90.5h-64q16 77 79 123.5t151 46.5q143 0 162 -108q83 108 213 108q92 0 139 -54.5t47 -144.5q0 -52 -14 -99zM678 495q-73 0 -130 -51.5t-80 -148.5h339q7 35 2.5 70.5t-16.5 64.5t-41.5 47t-73.5 18zM193 35q72 0 128 50.5t71 131.5l5 29
q-18 1 -53 1q-258 0 -258 -128q0 -39 28.5 -61.5t78.5 -22.5z" />
    <glyph glyph-name="ccedilla" unicode="&#xe7;" horiz-adv-x="526" 
d="M229 35q61 0 108.5 33.5t74.5 96.5h64q-71 -173 -244 -179l-22 -30q33 -5 51.5 -24.5t18.5 -48.5q0 -46 -35 -69.5t-92 -23.5q-31 0 -53 8l7 33q21 -7 51 -7q37 0 57.5 15t20.5 40t-23 37.5t-66 8.5l44 63q-76 8 -121 63.5t-45 149.5q0 88 33.5 164.5t103 127t162.5 50.5
q89 0 136.5 -50.5t47.5 -136.5h-65q-3 138 -131 138q-96 0 -158 -83.5t-62 -207.5q0 -84 38 -126t99 -42z" />
    <glyph glyph-name="egrave" unicode="&#xe8;" horiz-adv-x="533" 
d="M310 580l-60 110h60l42 -110h-42zM495 246h-400q-3 -24 -3 -46q0 -83 38.5 -124t99.5 -41q57 0 106.5 34.5t74.5 97.5h64q-34 -90 -103.5 -135.5t-153.5 -45.5q-88 0 -140.5 55t-52.5 157q0 46 10.5 93t34 92.5t56.5 81t82.5 57t108.5 21.5q92 0 141.5 -55t49.5 -144
q0 -54 -13 -98zM307 493q-82 0 -132 -57t-71 -141h338q3 25 3 46q0 76 -37.5 114t-100.5 38z" />
    <glyph glyph-name="eacute" unicode="&#xe9;" horiz-adv-x="533" 
d="M343 580h-42l81 110h60zM495 246h-400q-3 -24 -3 -46q0 -83 38.5 -124t99.5 -41q57 0 106.5 34.5t74.5 97.5h64q-34 -90 -103.5 -135.5t-153.5 -45.5q-88 0 -140.5 55t-52.5 157q0 46 10.5 93t34 92.5t56.5 81t82.5 57t108.5 21.5q92 0 141.5 -55t49.5 -144
q0 -54 -13 -98zM307 493q-82 0 -132 -57t-71 -141h338q3 25 3 46q0 76 -37.5 114t-100.5 38z" />
    <glyph glyph-name="ecircumflex" unicode="&#xea;" horiz-adv-x="533" 
d="M287 580h-48l86 110h46l46 -110h-49l-26 75zM495 246h-400q-3 -24 -3 -46q0 -83 38.5 -124t99.5 -41q57 0 106.5 34.5t74.5 97.5h64q-34 -90 -103.5 -135.5t-153.5 -45.5q-88 0 -140.5 55t-52.5 157q0 46 10.5 93t34 92.5t56.5 81t82.5 57t108.5 21.5q92 0 141.5 -55
t49.5 -144q0 -54 -13 -98zM307 493q-82 0 -132 -57t-71 -141h338q3 25 3 46q0 76 -37.5 114t-100.5 38z" />
    <glyph glyph-name="edieresis" unicode="&#xeb;" horiz-adv-x="533" 
d="M268 594q-13 0 -21.5 9t-8.5 22q0 16 13.5 29t29.5 13q13 0 21.5 -8.5t8.5 -22.5q0 -16 -13.5 -29t-29.5 -13zM389 594q-13 0 -21.5 9t-8.5 22q0 16 13.5 29t29.5 13q14 0 22.5 -8.5t8.5 -22.5q0 -16 -13.5 -29t-30.5 -13zM495 246h-400q-3 -24 -3 -46q0 -83 38.5 -124
t99.5 -41q57 0 106.5 34.5t74.5 97.5h64q-34 -90 -103.5 -135.5t-153.5 -45.5q-88 0 -140.5 55t-52.5 157q0 46 10.5 93t34 92.5t56.5 81t82.5 57t108.5 21.5q92 0 141.5 -55t49.5 -144q0 -54 -13 -98zM307 493q-82 0 -132 -57t-71 -141h338q3 25 3 46q0 76 -37.5 114
t-100.5 38z" />
    <glyph glyph-name="igrave" unicode="&#xec;" horiz-adv-x="208" 
d="M186 580h-42l-60 110h60zM89 0h-62l93 529h62z" />
    <glyph glyph-name="iacute" unicode="&#xed;" horiz-adv-x="208" 
d="M177 580h-42l81 110h60zM89 0h-62l93 529h62z" />
    <glyph glyph-name="icircumflex" unicode="&#xee;" horiz-adv-x="208" 
d="M251 580h-49l-26 75l-55 -75h-48l86 110h46zM120 529h62l-93 -529h-62z" />
    <glyph glyph-name="idieresis" unicode="&#xef;" horiz-adv-x="208" 
d="M115 667q13 0 21.5 -8.5t8.5 -22.5q0 -16 -13.5 -29t-29.5 -13q-13 0 -21.5 9t-8.5 22q0 16 13.5 29t29.5 13zM236 667q14 0 22.5 -8.5t8.5 -22.5q0 -16 -13.5 -29t-30.5 -13q-13 0 -21.5 9t-8.5 22q0 16 13.5 29t29.5 13zM89 0h-62l93 529h62z" />
    <glyph glyph-name="eth" unicode="&#xf0;" horiz-adv-x="575" 
d="M543 676l-69 -27q48 -82 48 -268q0 -78 -17.5 -146.5t-52.5 -125.5t-94 -90t-136 -33q-94 0 -145.5 62t-51.5 156q0 43 10.5 88t34 90.5t56 81t81.5 58t106 22.5q71 0 117 -35l31 -55q-5 119 -41 175l-150 -58l-14 38l137 53q-29 28 -79 46l44 37q56 -22 92 -61l79 30z
M228 35q59 0 104 29t71 76t38.5 99.5t12.5 105.5q0 72 -40.5 111t-102.5 39q-72 0 -124 -49t-73.5 -112.5t-21.5 -128.5q0 -83 37 -126.5t99 -43.5z" />
    <glyph glyph-name="ntilde" unicode="&#xf1;" horiz-adv-x="571" 
d="M302 631q-16 0 -20 -20h-31q9 60 55 60q23 0 59 -13q32 -11 43 -11q16 0 20 20h31q-8 -60 -55 -60q-23 0 -59 13q-32 11 -43 11zM361 543q77 0 118 -37t41 -102q0 -40 -12 -108l-54 -296h-62l52 289q12 66 12 98q0 49 -28 77.5t-87 27.5q-73 -1 -129.5 -56.5
t-76.5 -171.5v-1l-46 -263h-62l93 529h62l-18 -101l39 58q68 57 158 57z" />
    <glyph glyph-name="ograve" unicode="&#xf2;" horiz-adv-x="574" 
d="M326 580l-60 110h60l42 -110h-42zM326 543q109 0 165 -66t56 -166q0 -55 -18 -110t-52.5 -104.5t-94 -80t-134.5 -30.5q-110 0 -165.5 65.5t-55.5 166.5q0 55 18 110t52.5 104t94 80t134.5 31zM256 35q70 0 122.5 43.5t76.5 104.5t24 127q0 83 -42.5 133t-118.5 50
q-70 0 -123 -43.5t-76.5 -104.5t-23.5 -126q0 -83 42.5 -133.5t118.5 -50.5z" />
    <glyph glyph-name="oacute" unicode="&#xf3;" horiz-adv-x="574" 
d="M359 580h-42l81 110h60zM326 543q109 0 165 -66t56 -166q0 -55 -18 -110t-52.5 -104.5t-94 -80t-134.5 -30.5q-110 0 -165.5 65.5t-55.5 166.5q0 55 18 110t52.5 104t94 80t134.5 31zM256 35q70 0 122.5 43.5t76.5 104.5t24 127q0 83 -42.5 133t-118.5 50
q-70 0 -123 -43.5t-76.5 -104.5t-23.5 -126q0 -83 42.5 -133.5t118.5 -50.5z" />
    <glyph glyph-name="ocircumflex" unicode="&#xf4;" horiz-adv-x="574" 
d="M303 580h-48l86 110h46l46 -110h-49l-26 75zM326 543q109 0 165 -66t56 -166q0 -55 -18 -110t-52.5 -104.5t-94 -80t-134.5 -30.5q-110 0 -165.5 65.5t-55.5 166.5q0 55 18 110t52.5 104t94 80t134.5 31zM256 35q70 0 122.5 43.5t76.5 104.5t24 127q0 83 -42.5 133
t-118.5 50q-70 0 -123 -43.5t-76.5 -104.5t-23.5 -126q0 -83 42.5 -133.5t118.5 -50.5z" />
    <glyph glyph-name="otilde" unicode="&#xf5;" horiz-adv-x="574" 
d="M300 631q-16 0 -20 -20h-31q9 60 55 60q23 0 59 -13q32 -11 43 -11q16 0 20 20h31q-8 -60 -55 -60q-23 0 -59 13q-32 11 -43 11zM326 543q109 0 165 -66t56 -166q0 -55 -18 -110t-52.5 -104.5t-94 -80t-134.5 -30.5q-110 0 -165.5 65.5t-55.5 166.5q0 55 18 110t52.5 104
t94 80t134.5 31zM256 35q70 0 122.5 43.5t76.5 104.5t24 127q0 83 -42.5 133t-118.5 50q-70 0 -123 -43.5t-76.5 -104.5t-23.5 -126q0 -83 42.5 -133.5t118.5 -50.5z" />
    <glyph glyph-name="odieresis" unicode="&#xf6;" horiz-adv-x="574" 
d="M284 594q-13 0 -21.5 9t-8.5 22q0 16 13.5 29t29.5 13q13 0 21.5 -8.5t8.5 -22.5q0 -16 -13.5 -29t-29.5 -13zM405 594q-13 0 -21.5 9t-8.5 22q0 16 13.5 29t29.5 13q14 0 22.5 -8.5t8.5 -22.5q0 -16 -13.5 -29t-30.5 -13zM326 543q109 0 165 -66t56 -166q0 -55 -18 -110
t-52.5 -104.5t-94 -80t-134.5 -30.5q-110 0 -165.5 65.5t-55.5 166.5q0 55 18 110t52.5 104t94 80t134.5 31zM256 35q70 0 122.5 43.5t76.5 104.5t24 127q0 83 -42.5 133t-118.5 50q-70 0 -123 -43.5t-76.5 -104.5t-23.5 -126q0 -83 42.5 -133.5t118.5 -50.5z" />
    <glyph glyph-name="divide" unicode="&#xf7;" 
d="M315 520q17 0 27.5 -10t10.5 -26q0 -22 -16 -38t-38 -16q-17 0 -27 10.5t-10 26.5q0 22 16 37.5t37 15.5zM481 297h-413l8 43h412zM260 204q17 0 27 -10.5t10 -26.5q0 -22 -16 -37.5t-37 -15.5q-17 0 -27.5 10t-10.5 26q0 22 16 38t38 16z" />
    <glyph glyph-name="oslash" unicode="&#xf8;" horiz-adv-x="622" 
d="M629 513l-96 -81q26 -52 26 -121q0 -43 -10.5 -87.5t-34 -87.5t-57.5 -76t-85 -53.5t-112 -20.5q-110 0 -169 70l-82 -70l-26 31l86 73q-29 54 -29 128q0 55 17.5 110t52 104t94 80t134.5 31q115 0 174 -76l91 77zM107 219q0 -46 14 -85l341 290q-43 69 -132 69
q-103 0 -163 -85t-60 -189zM491 310q0 41 -12 76l-339 -288q43 -63 129 -63q70 0 122.5 43.5t76 104.5t23.5 127z" />
    <glyph glyph-name="ugrave" unicode="&#xf9;" horiz-adv-x="566" 
d="M316 580l-60 110h60l42 -110h-42zM540 529l-92 -529h-62l18 102l-40 -59q-66 -57 -158 -57q-77 0 -118 37t-41 102q0 39 13 108l53 296h62l-52 -289q-11 -62 -11 -99q0 -49 27.5 -77.5t86.5 -27.5q74 2 129.5 57.5t76.5 172.5l46 263h62z" />
    <glyph glyph-name="uacute" unicode="&#xfa;" horiz-adv-x="566" 
d="M349 580h-42l81 110h60zM540 529l-92 -529h-62l18 102l-40 -59q-66 -57 -158 -57q-77 0 -118 37t-41 102q0 39 13 108l53 296h62l-52 -289q-11 -62 -11 -99q0 -49 27.5 -77.5t86.5 -27.5q74 2 129.5 57.5t76.5 172.5l46 263h62z" />
    <glyph glyph-name="ucircumflex" unicode="&#xfb;" horiz-adv-x="566" 
d="M293 580h-48l86 110h46l46 -110h-49l-26 75zM540 529l-92 -529h-62l18 102l-40 -59q-66 -57 -158 -57q-77 0 -118 37t-41 102q0 39 13 108l53 296h62l-52 -289q-11 -62 -11 -99q0 -49 27.5 -77.5t86.5 -27.5q74 2 129.5 57.5t76.5 172.5l46 263h62z" />
    <glyph glyph-name="udieresis" unicode="&#xfc;" horiz-adv-x="566" 
d="M275 594q-13 0 -21.5 9t-8.5 22q0 16 13.5 29t29.5 13q13 0 21.5 -8.5t8.5 -22.5q0 -16 -13.5 -29t-29.5 -13zM396 594q-13 0 -21.5 9t-8.5 22q0 16 13.5 29t29.5 13q13 0 22 -8.5t9 -22.5q0 -16 -13.5 -29t-30.5 -13zM540 529l-92 -529h-62l18 102l-40 -59
q-66 -57 -158 -57q-77 0 -118 37t-41 102q0 39 13 108l53 296h62l-52 -289q-11 -62 -11 -99q0 -49 27.5 -77.5t86.5 -27.5q74 2 129.5 57.5t76.5 172.5l46 263h62z" />
    <glyph glyph-name="yacute" unicode="&#xfd;" horiz-adv-x="486" 
d="M309 580h-42l81 110h60zM530 529l-297 -529q-70 -126 -117.5 -168t-112.5 -42q-20 0 -38 3l8 52q12 -3 31 -3q40 0 72 25.5t69 92.5l12 21l-114 548h70l88 -482l258 482h71z" />
    <glyph glyph-name="thorn" unicode="&#xfe;" horiz-adv-x="589" 
d="M370 543q92 0 142.5 -60t50.5 -155q0 -63 -19 -122.5t-55 -109.5t-96 -80t-136 -30q-87 0 -129 53l-22 59l-52 -294h-62l166 931h62l-54 -303l45 57q63 54 159 54zM265 35q108 0 169.5 87t61.5 203q0 76 -37 122t-106 46q-77 0 -136 -52t-79 -164l-7 -40
q-15 -87 18.5 -144.5t115.5 -57.5z" />
    <glyph glyph-name="ydieresis" unicode="&#xff;" horiz-adv-x="486" 
d="M234 594q-13 0 -21.5 9t-8.5 22q0 16 13.5 29t29.5 13q13 0 21.5 -8.5t8.5 -22.5q0 -16 -13.5 -29t-29.5 -13zM355 594q-13 0 -21.5 9t-8.5 22q0 16 13.5 29t29.5 13q14 0 22.5 -8.5t8.5 -22.5q0 -16 -13.5 -29t-30.5 -13zM530 529l-297 -529q-70 -126 -117.5 -168
t-112.5 -42q-20 0 -38 3l8 52q12 -3 31 -3q40 0 72 25.5t69 92.5l12 21l-114 548h70l88 -482l258 482h71z" />
    <glyph glyph-name="Amacron" unicode="&#x100;" horiz-adv-x="636" 
d="M523 763h-202l8 40h202zM467 253h-275l-135 -253h-72l377 690h89l127 -690h-67zM458 305l-59 335l-179 -335h238z" />
    <glyph glyph-name="amacron" unicode="&#x101;" horiz-adv-x="502" 
d="M428 610h-202l8 40h202zM307 543q80 0 120 -35t40 -95q0 -20 -9 -78l-34 -187q-11 -62 -16 -148h-63l9 95l-35 -49q-57 -60 -157 -60q-61 0 -102 34t-41 99q0 75 52 122t134 63.5t187 8.5l3 20q9 48 9 72q0 88 -99 88q-130 0 -161 -121h-64q17 78 77.5 124.5t149.5 46.5z
M189 35q63 0 117 49.5t67 119.5l11 62q-131 13 -214.5 -24.5t-83.5 -116.5q0 -43 28 -66.5t75 -23.5z" />
    <glyph glyph-name="Abreve" unicode="&#x102;" horiz-adv-x="636" 
d="M415 722q-47 0 -66 29.5t-11 78.5h39q-8 -66 45 -66q55 0 71 66h40q-22 -108 -118 -108zM467 253h-275l-135 -253h-72l377 690h89l127 -690h-67zM458 305l-59 335l-179 -335h238z" />
    <glyph glyph-name="abreve" unicode="&#x103;" horiz-adv-x="502" 
d="M319 568q-97 0 -76 122h40q-5 -40 4 -60t40 -20q55 0 72 80h40q-23 -122 -120 -122zM307 543q80 0 120 -35t40 -95q0 -20 -9 -78l-34 -187q-11 -62 -16 -148h-63l9 95l-35 -49q-57 -60 -157 -60q-61 0 -102 34t-41 99q0 75 52 122t134 63.5t187 8.5l3 20q9 48 9 72
q0 88 -99 88q-130 0 -161 -121h-64q17 78 77.5 124.5t149.5 46.5zM189 35q63 0 117 49.5t67 119.5l11 62q-131 13 -214.5 -24.5t-83.5 -116.5q0 -43 28 -66.5t75 -23.5z" />
    <glyph glyph-name="Aogonek" unicode="&#x104;" horiz-adv-x="636" 
d="M578 0h-20q-58 -18 -93.5 -58.5t-35.5 -81.5q0 -42 37 -42q32 0 63 24l-7 -37q-36 -28 -86 -28q-30 0 -50 16.5t-20 50.5q0 49 37 92.5t106 72.5l-42 244h-275l-135 -253h-72l377 690h89zM458 305l-59 335l-179 -335h238z" />
    <glyph glyph-name="aogonek" unicode="&#x105;" horiz-adv-x="502" 
d="M307 543q80 0 120 -35t40 -95q0 -20 -9 -78l-34 -187q-11 -62 -16 -148h-14q-58 -18 -93.5 -58.5t-35.5 -81.5q0 -42 37 -42q32 0 63 24l-7 -37q-36 -28 -86 -28q-30 0 -50 16.5t-20 50.5q0 49 37 93t107 73l8 85l-35 -49q-57 -60 -157 -60q-61 0 -102 34t-41 99
q0 75 52 122t134 63.5t187 8.5l3 20q9 48 9 72q0 88 -99 88q-130 0 -161 -121h-64q17 78 77.5 124.5t149.5 46.5zM189 35q63 0 117 49.5t67 119.5l11 62q-131 13 -214.5 -24.5t-83.5 -116.5q0 -43 28 -66.5t75 -23.5z" />
    <glyph glyph-name="Cacute" unicode="&#x106;" horiz-adv-x="709" 
d="M466 736h-42l70 94h60zM445 704q121 0 184.5 -63.5t58.5 -165.5l-1 -10h-62v10q0 179 -192 179q-126 0 -214.5 -106t-88.5 -270q0 -119 54 -180.5t146 -61.5q174 0 245 183l4 10h62l-3 -10q-34 -106 -114.5 -169.5t-205.5 -63.5q-122 0 -190 76t-67 208
q-1 189 109.5 311.5t274.5 122.5z" />
    <glyph glyph-name="cacute" unicode="&#x107;" horiz-adv-x="526" 
d="M341 580h-42l81 110h60zM324 543q89 0 136.5 -50.5t47.5 -136.5h-65q-3 138 -131 138q-96 0 -158 -83.5t-62 -207.5q0 -84 38 -126t99 -42t108.5 33.5t74.5 96.5h64q-74 -179 -257 -179q-87 0 -140.5 56.5t-53.5 158.5q0 88 33.5 164.5t103 127t162.5 50.5z" />
    <glyph glyph-name="Cdotaccent" unicode="&#x10a;" horiz-adv-x="709" 
d="M464 819q13 0 21.5 -8.5t8.5 -21.5q0 -16 -13.5 -29t-29.5 -13q-14 0 -22.5 8.5t-8.5 21.5q0 17 13.5 29.5t30.5 12.5zM445 704q121 0 184.5 -63.5t58.5 -165.5l-1 -10h-62v10q0 179 -192 179q-126 0 -214.5 -106t-88.5 -270q0 -119 54 -180.5t146 -61.5q174 0 245 183
l4 10h62l-3 -10q-34 -106 -114.5 -169.5t-205.5 -63.5q-122 0 -190 76t-67 208q-1 189 109.5 311.5t274.5 122.5z" />
    <glyph glyph-name="cdotaccent" unicode="&#x10b;" horiz-adv-x="526" 
d="M343 685q15 0 25 -10t10 -25q0 -21 -14.5 -35t-34.5 -14q-15 0 -25.5 10.5t-10.5 24.5q0 21 14.5 35t35.5 14zM324 543q89 0 136.5 -50.5t47.5 -136.5h-65q-3 138 -131 138q-96 0 -158 -83.5t-62 -207.5q0 -84 38 -126t99 -42t108.5 33.5t74.5 96.5h64
q-74 -179 -257 -179q-87 0 -140.5 56.5t-53.5 158.5q0 88 33.5 164.5t103 127t162.5 50.5z" />
    <glyph glyph-name="Ccaron" unicode="&#x10c;" horiz-adv-x="709" 
d="M427 736l-50 94h50l28 -64l49 64h53l-83 -94h-47zM445 704q121 0 184.5 -63.5t58.5 -165.5l-1 -10h-62v10q0 179 -192 179q-126 0 -214.5 -106t-88.5 -270q0 -119 54 -180.5t146 -61.5q174 0 245 183l4 10h62l-3 -10q-34 -106 -114.5 -169.5t-205.5 -63.5q-122 0 -190 76
t-67 208q-1 189 109.5 311.5t274.5 122.5z" />
    <glyph glyph-name="ccaron" unicode="&#x10d;" horiz-adv-x="526" 
d="M303 580l-46 110h48l27 -75l55 75h48l-86 -110h-46zM229 35q61 0 108.5 33.5t74.5 96.5h64q-74 -179 -257 -179q-87 0 -140.5 56.5t-53.5 158.5q0 88 33.5 164.5t103 127t162.5 50.5q89 0 136.5 -50.5t47.5 -136.5h-65q-3 138 -131 138q-96 0 -158 -83.5t-62 -207.5
q0 -84 38 -126t99 -42z" />
    <glyph glyph-name="Dcaron" unicode="&#x10e;" horiz-adv-x="696" 
d="M375 736l-50 94h50l28 -64l49 64h53l-83 -94h-47zM428 687q106 -9 174.5 -82.5t68.5 -207.5q0 -96 -40 -180.5t-123 -144t-194 -69.5q-36 -3 -89 -3h-182l122 690h182q51 0 81 -3zM320 56q92 11 157.5 62.5t95.5 122.5t30 154q0 110 -51 170t-134 70q-22 3 -75 3h-125
l-104 -586h125q46 0 81 4z" />
    <glyph glyph-name="dcaron" unicode="&#x10f;" horiz-adv-x="587" 
d="M536 735h62l-130 -735h-62l17 97l-45 -57q-61 -54 -159 -54q-92 0 -142.5 60t-50.5 155q0 86 32.5 162t103 128t166.5 52q91 0 133 -57l21 -55zM718 735v-5l-73 -125h-36l55 130h54zM451 252l7 40q15 86 -19.5 143.5t-118.5 57.5q-103 0 -165 -87t-62 -202
q0 -76 37 -122.5t106 -46.5q50 0 91.5 20t75.5 70.5t48 126.5z" />
    <glyph glyph-name="Dcroat" unicode="&#x110;" horiz-adv-x="696" 
d="M428 687q106 -9 174.5 -82.5t68.5 -207.5q0 -96 -40 -180.5t-123 -144t-194 -69.5q-36 -3 -89 -3h-182l55 312h-81l7 43h82l59 335h182q51 0 81 -3zM320 56q92 11 157.5 62.5t95.5 122.5t30 154q0 110 -51 170t-134 70q-22 3 -75 3h-125l-50 -283h148l-7 -43h-149
l-46 -260h125q46 0 81 4z" />
    <glyph glyph-name="dcroat" unicode="&#x111;" horiz-adv-x="591" 
d="M618 602h-44l-106 -602h-62l17 97l-45 -57q-61 -54 -159 -54q-92 0 -142.5 60t-50.5 155q0 86 32.5 162t103 128t166.5 52q91 0 133 -57l21 -55l31 171h-116l7 43h116l16 90h62l-16 -90h44zM451 252l7 40q15 86 -19.5 143.5t-118.5 57.5q-103 0 -165 -87t-62 -202
q0 -76 37 -122.5t106 -46.5q50 0 91.5 20t75.5 70.5t48 126.5z" />
    <glyph glyph-name="Emacron" unicode="&#x112;" horiz-adv-x="572" 
d="M498 763h-202l8 40h202zM218 639l-47 -268h349l-9 -52h-350l-47 -268h386l-9 -51h-448l122 690h438l-10 -51h-375z" />
    <glyph glyph-name="emacron" unicode="&#x113;" horiz-adv-x="533" 
d="M433 610h-202l8 40h202zM495 246h-400q-3 -24 -3 -46q0 -83 38.5 -124t99.5 -41q57 0 106.5 34.5t74.5 97.5h64q-34 -90 -103.5 -135.5t-153.5 -45.5q-88 0 -140.5 55t-52.5 157q0 46 10.5 93t34 92.5t56.5 81t82.5 57t108.5 21.5q92 0 141.5 -55t49.5 -144
q0 -54 -13 -98zM307 493q-82 0 -132 -57t-71 -141h338q3 25 3 46q0 76 -37.5 114t-100.5 38z" />
    <glyph glyph-name="Edotaccent" unicode="&#x116;" horiz-adv-x="572" 
d="M395 747q-14 0 -22.5 8.5t-8.5 21.5q0 17 13.5 29.5t30.5 12.5q13 0 21.5 -8.5t8.5 -21.5q0 -16 -13.5 -29t-29.5 -13zM218 639l-47 -268h349l-9 -52h-350l-47 -268h386l-9 -51h-448l122 690h438l-10 -51h-375z" />
    <glyph glyph-name="edotaccent" unicode="&#x117;" horiz-adv-x="533" 
d="M331 601q-15 0 -25.5 10.5t-10.5 24.5q0 21 14.5 35t35.5 14q15 0 25 -10t10 -25q0 -21 -14.5 -35t-34.5 -14zM495 246h-400q-3 -24 -3 -46q0 -83 38.5 -124t99.5 -41q57 0 106.5 34.5t74.5 97.5h64q-34 -90 -103.5 -135.5t-153.5 -45.5q-88 0 -140.5 55t-52.5 157
q0 46 10.5 93t34 92.5t56.5 81t82.5 57t108.5 21.5q92 0 141.5 -55t49.5 -144q0 -54 -13 -98zM307 493q-82 0 -132 -57t-71 -141h338q3 25 3 46q0 76 -37.5 114t-100.5 38z" />
    <glyph glyph-name="Eogonek" unicode="&#x118;" horiz-adv-x="572" 
d="M218 639l-47 -268h349l-9 -52h-350l-47 -268h386l-8 -51q-58 -18 -93.5 -58.5t-35.5 -81.5q0 -42 37 -42q32 0 63 24l-7 -37q-36 -28 -86 -28q-30 0 -50 16.5t-20 50.5q0 45 31.5 86t90.5 70h-379l122 690h438l-10 -51h-375z" />
    <glyph glyph-name="eogonek" unicode="&#x119;" horiz-adv-x="533" 
d="M495 246h-400q-3 -24 -3 -46q0 -83 38.5 -124t99.5 -41q57 0 106.5 34.5t74.5 97.5h64q-29 -76 -83 -120t-122 -56q-47 -22 -75.5 -58.5t-28.5 -72.5q0 -42 37 -42q32 0 63 24l-7 -37q-36 -28 -86 -28q-30 0 -50 16.5t-20 50.5q0 85 97 143q-80 5 -127.5 59.5
t-47.5 151.5q0 46 10.5 93t34 92.5t56.5 81t82.5 57t108.5 21.5q92 0 141.5 -55t49.5 -144q0 -54 -13 -98zM307 493q-82 0 -132 -57t-71 -141h338q3 25 3 46q0 76 -37.5 114t-100.5 38z" />
    <glyph glyph-name="Ecaron" unicode="&#x11a;" horiz-adv-x="572" 
d="M371 736l-50 94h50l28 -64l49 64h53l-83 -94h-47zM218 639l-47 -268h349l-9 -52h-350l-47 -268h386l-9 -51h-448l122 690h438l-10 -51h-375z" />
    <glyph glyph-name="ecaron" unicode="&#x11b;" horiz-adv-x="533" 
d="M305 580l-46 110h48l27 -75l55 75h48l-86 -110h-46zM495 246h-400q-3 -24 -3 -46q0 -83 38.5 -124t99.5 -41q57 0 106.5 34.5t74.5 97.5h64q-34 -90 -103.5 -135.5t-153.5 -45.5q-88 0 -140.5 55t-52.5 157q0 46 10.5 93t34 92.5t56.5 81t82.5 57t108.5 21.5
q92 0 141.5 -55t49.5 -144q0 -54 -13 -98zM307 493q-82 0 -132 -57t-71 -141h338q3 25 3 46q0 76 -37.5 114t-100.5 38z" />
    <glyph glyph-name="Gbreve" unicode="&#x11e;" horiz-adv-x="746" 
d="M509 722q-47 0 -66 29.5t-11 78.5h39q-8 -66 45 -66q55 0 71 66h40q-22 -108 -118 -108zM457 704q120 0 179 -63t54 -166l-1 -10h-62v10q0 179 -182 179q-129 0 -222 -106.5t-93 -269.5q0 -113 53 -177.5t144 -64.5q88 0 164 62.5t96 173.5h-188l9 51h250l-57 -323h-56
l25 143l-38 -63q-84 -94 -218 -94q-120 0 -187 77.5t-67 206.5q0 185 115.5 309.5t281.5 124.5z" />
    <glyph glyph-name="gbreve" unicode="&#x11f;" horiz-adv-x="587" 
d="M349 568q-97 0 -76 122h40q-5 -40 4 -60t40 -20q55 0 72 80h40q-23 -122 -120 -122zM562 530l-70 -396q-16 -95 -23 -124q-22 -108 -92.5 -166t-185.5 -58q-91 0 -144.5 43.5t-49.5 125.5l1 12h63l-1 -12q-1 -59 36 -89.5t105 -30.5q83 0 136 44.5t70 127.5l8 40t7 38
l2 13l-46 -58q-61 -54 -159 -54q-92 0 -142.5 60t-50.5 155q0 86 32.5 162t103 128t166.5 52q91 0 133 -57l22 -56l17 100h62zM236 35q50 0 91.5 20t75.5 70.5t48 126.5v-3l8 46l-1 -3q15 86 -19.5 143.5t-118.5 57.5q-103 0 -165 -87t-62 -202q0 -76 37 -122.5t106 -46.5z
" />
    <glyph glyph-name="Gdotaccent" unicode="&#x120;" horiz-adv-x="746" 
d="M514 747q-14 0 -22.5 8.5t-8.5 21.5q0 17 13.5 29.5t30.5 12.5q13 0 21.5 -8.5t8.5 -21.5q0 -16 -13.5 -29t-29.5 -13zM457 704q120 0 179 -63t54 -166l-1 -10h-62v10q0 179 -182 179q-129 0 -222 -106.5t-93 -269.5q0 -113 53 -177.5t144 -64.5q88 0 164 62.5t96 173.5
h-188l9 51h250l-57 -323h-56l25 143l-38 -63q-84 -94 -218 -94q-120 0 -187 77.5t-67 206.5q0 185 115.5 309.5t281.5 124.5z" />
    <glyph glyph-name="gdotaccent" unicode="&#x121;" horiz-adv-x="587" 
d="M356 601q-16 0 -26 10.5t-10 24.5q0 21 14.5 35t35.5 14q15 0 25 -10t10 -25q0 -21 -14.5 -35t-34.5 -14zM562 530l-70 -396q-16 -95 -23 -124q-22 -108 -92.5 -166t-185.5 -58q-91 0 -144.5 43.5t-49.5 125.5l1 12h63l-1 -12q-1 -59 36 -89.5t105 -30.5q83 0 136 44.5
t70 127.5l8 40t7 38l2 13l-46 -58q-61 -54 -159 -54q-92 0 -142.5 60t-50.5 155q0 86 32.5 162t103 128t166.5 52q91 0 133 -57l22 -56l17 100h62zM236 35q50 0 91.5 20t75.5 70.5t48 126.5v-3l8 46l-1 -3q15 86 -19.5 143.5t-118.5 57.5q-103 0 -165 -87t-62 -202
q0 -76 37 -122.5t106 -46.5z" />
    <glyph glyph-name="Gcommaaccent" unicode="&#x122;" horiz-adv-x="746" 
d="M457 704q120 0 179 -63t54 -166l-1 -10h-62v10q0 179 -182 179q-129 0 -222 -106.5t-93 -269.5q0 -113 53 -177.5t144 -64.5q88 0 164 62.5t96 173.5h-188l9 51h250l-57 -323h-56l25 143l-38 -63q-84 -94 -218 -94q-120 0 -187 77.5t-67 206.5q0 185 115.5 309.5
t281.5 124.5zM255 -51h54v-6l-73 -125h-36z" />
    <glyph glyph-name="gcommaaccent" unicode="&#x123;" horiz-adv-x="587" 
d="M373 581h-54v6l73 125h37zM562 530l-70 -396q-16 -95 -23 -124q-22 -108 -92.5 -166t-185.5 -58q-91 0 -144.5 43.5t-49.5 125.5l1 12h63l-1 -12q-1 -59 36 -89.5t105 -30.5q83 0 136 44.5t70 127.5l8 40t7 38l2 13l-46 -58q-61 -54 -159 -54q-92 0 -142.5 60t-50.5 155
q0 86 32.5 162t103 128t166.5 52q91 0 133 -57l22 -56l17 100h62zM236 35q50 0 91.5 20t75.5 70.5t48 126.5v-3l8 46l-1 -3q15 86 -19.5 143.5t-118.5 57.5q-103 0 -165 -87t-62 -202q0 -76 37 -122.5t106 -46.5z" />
    <glyph glyph-name="Hbar" unicode="&#x126;" horiz-adv-x="687" 
d="M701 509h-40l-90 -509h-62l55 312h-404l-55 -312h-62l90 509h-40l8 43h40l24 138h62l-24 -138h404l24 138h62l-24 -138h40zM599 509h-404l-25 -144h404z" />
    <glyph glyph-name="hbar" unicode="&#x127;" horiz-adv-x="588" 
d="M378 543q77 0 118 -37t41 -102q0 -41 -13 -108l-53 -296h-62l52 289q11 61 11 98q0 106 -114 105q-74 -1 -129.5 -56.5t-76.5 -172.5l-46 -263h-62l106 602h-58l8 43h57l17 95h62l-17 -95h103l-8 -43h-102l-31 -174l39 58q68 57 158 57z" />
    <glyph glyph-name="Imacron" unicode="&#x12a;" horiz-adv-x="221" 
d="M309 763h-202l8 40h202zM105 0h-62l122 690h62z" />
    <glyph glyph-name="imacron" unicode="&#x12b;" horiz-adv-x="208" 
d="M267 610h-202l8 40h202zM89 0h-62l93 529h62z" />
    <glyph glyph-name="Iogonek" unicode="&#x12e;" horiz-adv-x="221" 
d="M227 690l-122 -690h-15q-58 -18 -94 -58.5t-36 -81.5q0 -42 38 -42q32 0 63 24l-7 -37q-36 -28 -86 -28q-30 0 -50 16.5t-20 50.5q0 49 38 94t109 73l120 679h62z" />
    <glyph glyph-name="iogonek" unicode="&#x12f;" horiz-adv-x="208" 
d="M179 685q15 0 25 -10t10 -25q0 -21 -14.5 -35t-34.5 -14q-15 0 -25.5 10.5t-10.5 24.5q0 21 14.5 35t35.5 14zM120 529h62l-93 -529h-14q-58 -18 -94 -58.5t-36 -81.5q0 -42 38 -42q32 0 63 24l-7 -37q-36 -28 -86 -28q-30 0 -50 16.5t-20 50.5q0 49 37.5 93.5
t108.5 72.5z" />
    <glyph glyph-name="Idotaccent" unicode="&#x130;" horiz-adv-x="221" 
d="M219 819q13 0 21.5 -8.5t8.5 -21.5q0 -16 -13.5 -29t-29.5 -13q-14 0 -22.5 8.5t-8.5 21.5q0 17 13.5 29.5t30.5 12.5zM105 0h-62l122 690h62z" />
    <glyph glyph-name="dotlessi" unicode="&#x131;" horiz-adv-x="208" 
d="M89 0h-62l93 529h62z" />
    <glyph glyph-name="IJ" unicode="&#x132;" horiz-adv-x="723" 
d="M105 0h-62l122 690h62zM740 690l-75 -427q-8 -45 -18 -86q-20 -87 -77.5 -139t-155.5 -52q-92 0 -140.5 55t-33.5 153l5 37h62l-4 -37q-11 -80 22 -119t100 -39q125 0 162 145q3 12 8 39.5t8 40.5l75 429h62z" />
    <glyph glyph-name="ij" unicode="&#x133;" horiz-adv-x="392" 
d="M179 685q15 0 25 -10t10 -25q0 -21 -14.5 -35t-34.5 -14q-15 0 -25.5 10.5t-10.5 24.5q0 21 14.5 35t35.5 14zM377 685q16 0 26 -10t10 -25q0 -21 -14.5 -35t-34.5 -14q-16 0 -26 10.5t-10 24.5q0 21 14.5 35t34.5 14zM89 0h-62l93 529h62zM384 529l-102 -585
q-7 -34 -14 -60q-25 -94 -124 -94q-26 0 -39 3l10 51q75 -12 93 50q2 7 12 49l102 586h62z" />
    <glyph glyph-name="Kcommaaccent" unicode="&#x136;" horiz-adv-x="593" 
d="M251 345l278 -345h-77l-248 311l-52 -44l-47 -267h-62l122 690h62l-62 -352l419 352h78zM235 -51h54v-6l-73 -125h-36z" />
    <glyph glyph-name="kcommaaccent" unicode="&#x137;" horiz-adv-x="501" 
d="M232 279l214 -279h-76l-184 244l-63 -53l-34 -191h-62l130 735h62l-84 -473l314 267h82zM181 -51h54v-6l-73 -125h-36z" />
    <glyph glyph-name="Lacute" unicode="&#x139;" horiz-adv-x="556" 
d="M222 736h-42l70 94h60zM500 51l-9 -51h-448l122 690h62l-113 -639h386z" />
    <glyph glyph-name="lacute" unicode="&#x13a;" horiz-adv-x="221" 
d="M208 785h-42l81 110h60zM214 735l-105 -595q-8 -45 -8 -62q0 -23 12.5 -29.5t42.5 -3.5l-8 -46q-17 -3 -50 -3q-64 0 -64 55q0 13 13 87l105 597h62z" />
    <glyph glyph-name="Lcommaaccent" unicode="&#x13b;" horiz-adv-x="556" 
d="M500 51l-9 -51h-448l122 690h62l-113 -639h386zM230 -51h54v-6l-73 -125h-36z" />
    <glyph glyph-name="lcommaaccent" unicode="&#x13c;" horiz-adv-x="221" 
d="M214 735l-105 -595q-8 -45 -8 -62q0 -23 12.5 -29.5t42.5 -3.5l-8 -46q-17 -3 -50 -3q-64 0 -64 55q0 13 13 87l105 597h62zM97 -57l-73 -125h-37l56 131h54v-6z" />
    <glyph glyph-name="Lcaron" unicode="&#x13d;" horiz-adv-x="556" 
d="M500 51l-9 -51h-448l122 690h62l-113 -639h386z" />
    <glyph glyph-name="lcaron" unicode="&#x13e;" horiz-adv-x="221" 
d="M214 735l-105 -595q-8 -45 -8 -62q0 -23 12.5 -29.5t42.5 -3.5l-8 -46q-17 -3 -50 -3q-64 0 -64 55q0 13 13 87l105 597h62z" />
    <glyph glyph-name="Ldot" unicode="&#x13f;" horiz-adv-x="556" 
d="M500 51l-9 -51h-448l122 690h62l-113 -639h386zM356 358q-16 0 -26 10t-10 25q0 21 14.5 35t34.5 14q15 0 25.5 -10t10.5 -25q0 -21 -14.5 -35t-34.5 -14z" />
    <glyph glyph-name="ldot" unicode="&#x140;" horiz-adv-x="283" 
d="M214 735l-105 -595q-8 -45 -8 -62q0 -23 12.5 -29.5t42.5 -3.5l-8 -46q-17 -3 -50 -3q-64 0 -64 55q0 13 13 87l105 597h62zM258 442q16 0 26 -10t10 -25q0 -21 -14.5 -35t-34.5 -14q-16 0 -26 10t-10 25q0 21 14.5 35t34.5 14z" />
    <glyph glyph-name="Lslash" unicode="&#x141;" horiz-adv-x="608" 
d="M553 51l-9 -51h-448l54 308l-141 -76l9 51l142 76l58 331h62l-52 -294l143 77l-9 -51l-143 -77l-52 -294h386z" />
    <glyph glyph-name="lslash" unicode="&#x142;" horiz-adv-x="255" 
d="M165 316l-31 -176q-9 -50 -9 -62q0 -23 12.5 -29.5t42.5 -3.5l-8 -46q-16 -3 -50 -3q-63 0 -63 55q0 13 13 87l24 139l-69 -39l9 52l70 39l71 406h62l-65 -367l69 39l-9 -52z" />
    <glyph glyph-name="Nacute" unicode="&#x143;" horiz-adv-x="673" 
d="M447 736h-42l70 94h60zM679 690l-122 -690h-95l-247 633l-110 -633h-62l122 690h95l245 -631l112 631h62z" />
    <glyph glyph-name="nacute" unicode="&#x144;" horiz-adv-x="571" 
d="M361 580h-42l81 110h60zM361 543q77 0 118 -37t41 -102q0 -40 -12 -108l-54 -296h-62l52 289q12 66 12 98q0 49 -28 77.5t-87 27.5q-73 -1 -129.5 -56.5t-76.5 -171.5v-1l-46 -263h-62l93 529h62l-18 -101l39 58q68 57 158 57z" />
    <glyph glyph-name="Ncommaaccent" unicode="&#x145;" horiz-adv-x="673" 
d="M679 690l-122 -690h-95l-247 633l-110 -633h-62l122 690h95l245 -631l112 631h62zM270 -51h54v-6l-73 -125h-36z" />
    <glyph glyph-name="ncommaaccent" unicode="&#x146;" horiz-adv-x="571" 
d="M361 543q77 0 118 -37t41 -102q0 -40 -12 -108l-54 -296h-62l52 289q12 66 12 98q0 49 -28 77.5t-87 27.5q-73 -1 -129.5 -56.5t-76.5 -171.5v-1l-46 -263h-62l93 529h62l-18 -101l39 58q68 57 158 57zM207 -51h54v-6l-73 -125h-36z" />
    <glyph glyph-name="Ncaron" unicode="&#x147;" horiz-adv-x="673" 
d="M408 736l-50 94h50l28 -64l49 64h53l-83 -94h-47zM679 690l-122 -690h-95l-247 633l-110 -633h-62l122 690h95l245 -631l112 631h62z" />
    <glyph glyph-name="ncaron" unicode="&#x148;" horiz-adv-x="571" 
d="M323 580l-46 110h48l27 -75l55 75h48l-86 -110h-46zM361 543q77 0 118 -37t41 -102q0 -40 -12 -108l-54 -296h-62l52 289q12 66 12 98q0 49 -28 77.5t-87 27.5q-73 -1 -129.5 -56.5t-76.5 -171.5v-1l-46 -263h-62l93 529h62l-18 -101l39 58q68 57 158 57z" />
    <glyph glyph-name="Eng" unicode="&#x14a;" horiz-adv-x="674" 
d="M679 690l-133 -757q-17 -92 -51.5 -123.5t-126.5 -32.5l9 52q47 0 71 20.5t32 67.5l10 56l-275 652l-109 -625h-62l121 690h95l251 -605l106 605h62z" />
    <glyph glyph-name="eng" unicode="&#x14b;" horiz-adv-x="571" 
d="M361 543q77 0 118 -37t41 -102q0 -40 -12 -108l-57 -314q-3 -19 -11 -47q-19 -64 -56.5 -86t-109.5 -23l9 52q48 0 71.5 20t31.5 68l58 323q12 66 12 98q0 49 -28 77.5t-87 27.5q-73 -1 -129.5 -56.5t-76.5 -171.5v-1l-46 -263h-62l93 529h62l-18 -101l39 58
q68 57 158 57z" />
    <glyph glyph-name="Omacron" unicode="&#x14c;" horiz-adv-x="746" 
d="M560 763h-202l8 40h202zM446 704q127 0 201 -84t74 -216q0 -78 -24 -151t-70 -133.5t-121.5 -97t-168.5 -36.5q-126 0 -200.5 84t-74.5 216q0 78 24 151t70 133.5t121.5 97t168.5 36.5zM350 36q72 0 131.5 33.5t96 87t56.5 118t20 129.5q0 114 -61 182t-159 68
q-73 0 -132.5 -33.5t-96 -87t-56 -118t-19.5 -129.5q0 -113 60.5 -181.5t159.5 -68.5z" />
    <glyph glyph-name="omacron" unicode="&#x14d;" horiz-adv-x="574" 
d="M449 610h-202l8 40h202zM326 543q109 0 165 -66t56 -166q0 -55 -18 -110t-52.5 -104.5t-94 -80t-134.5 -30.5q-110 0 -165.5 65.5t-55.5 166.5q0 55 18 110t52.5 104t94 80t134.5 31zM256 35q70 0 122.5 43.5t76.5 104.5t24 127q0 83 -42.5 133t-118.5 50
q-70 0 -123 -43.5t-76.5 -104.5t-23.5 -126q0 -83 42.5 -133.5t118.5 -50.5z" />
    <glyph glyph-name="Ohungarumlaut" unicode="&#x150;" horiz-adv-x="746" 
d="M412 736h-42l69 94h61zM471 736l69 94h61l-88 -94h-42zM446 704q127 0 201 -84t74 -216q0 -78 -24 -151t-70 -133.5t-121.5 -97t-168.5 -36.5q-126 0 -200.5 84t-74.5 216q0 78 24 151t70 133.5t121.5 97t168.5 36.5zM350 36q72 0 131.5 33.5t96 87t56.5 118t20 129.5
q0 114 -61 182t-159 68q-73 0 -132.5 -33.5t-96 -87t-56 -118t-19.5 -129.5q0 -113 60.5 -181.5t159.5 -68.5z" />
    <glyph glyph-name="ohungarumlaut" unicode="&#x151;" horiz-adv-x="574" 
d="M305 580h-42l80 110h61zM377 580l80 110h61l-99 -110h-42zM326 543q109 0 165 -66t56 -166q0 -55 -18 -110t-52.5 -104.5t-94 -80t-134.5 -30.5q-110 0 -165.5 65.5t-55.5 166.5q0 55 18 110t52.5 104t94 80t134.5 31zM256 35q70 0 122.5 43.5t76.5 104.5t24 127
q0 83 -42.5 133t-118.5 50q-70 0 -123 -43.5t-76.5 -104.5t-23.5 -126q0 -83 42.5 -133.5t118.5 -50.5z" />
    <glyph glyph-name="OE" unicode="&#x152;" horiz-adv-x="1109" 
d="M755 639l-47 -268h349l-9 -52h-350l-47 -268h386l-10 -51h-447l29 163l-42 -75q-94 -102 -247 -102q-125 0 -192 76.5t-67 214.5q0 57 14 115t44.5 114.5t74.5 100t109 70.5t143 27q80 0 128.5 -24t81.5 -81l16 -77l30 168h437l-9 -51h-375zM335 36q115 0 197.5 82
t108.5 227q12 54 6 109t-24.5 99.5t-65 72.5t-114.5 28q-77 0 -139.5 -35.5t-99 -92t-56 -120.5t-19.5 -127q0 -114 55 -178.5t151 -64.5z" />
    <glyph glyph-name="oe" unicode="&#x153;" horiz-adv-x="981" 
d="M942 246h-400q-3 -25 -3 -48q0 -82 38 -122.5t98 -40.5q58 0 108 34.5t75 97.5h65q-35 -90 -105 -135.5t-154 -45.5q-68 0 -115.5 36.5t-63.5 110.5q-83 -147 -246 -147q-104 0 -159 61.5t-55 160.5q0 53 17.5 108.5t53 108t98.5 86t143 33.5q164 0 198 -147
q85 147 237 147q90 0 137 -55t47 -145q0 -50 -14 -98zM248 35q98 0 160.5 79.5t72.5 186.5q6 85 -32 139.5t-120 54.5q-48 0 -88 -18.5t-67 -48t-45.5 -67.5t-27 -75.5t-8.5 -73.5q0 -82 42 -129.5t113 -47.5zM761 495q-71 0 -129 -52t-80 -148h338q4 34 4 47
q0 77 -35.5 115t-97.5 38z" />
    <glyph glyph-name="Racute" unicode="&#x154;" horiz-adv-x="593" 
d="M395 736h-42l70 94h60zM604 540q0 -82 -51 -135t-125 -66q42 -8 58.5 -50t17.5 -146t18 -143h-67q-11 54 -13 193q-2 113 -85 118q-19 1 -55 1h-142l-55 -312h-62l122 690h204q62 0 93 -4q67 -8 104.5 -45.5t37.5 -100.5zM383 366q68 5 110.5 49t42.5 114q0 91 -98 105
q-32 4 -78 4h-143l-48 -274h144q45 0 70 2z" />
    <glyph glyph-name="racute" unicode="&#x155;" horiz-adv-x="302" 
d="M226 580h-42l81 110h60zM313 541q19 0 30 -4l-9 -49q-68 5 -120.5 -38.5t-71.5 -148.5l-1 -4l-52 -297h-62l94 530h62l-17 -96l49 67q46 40 98 40z" />
    <glyph glyph-name="Rcommaaccent" unicode="&#x156;" horiz-adv-x="593" 
d="M604 540q0 -82 -51 -135t-125 -66q42 -8 58.5 -50t17.5 -146t18 -143h-67q-11 54 -13 193q-2 113 -85 118q-19 1 -55 1h-142l-55 -312h-62l122 690h204q62 0 93 -4q67 -8 104.5 -45.5t37.5 -100.5zM383 366q68 5 110.5 49t42.5 114q0 91 -98 105q-32 4 -78 4h-143
l-48 -274h144q45 0 70 2zM209 -51h54v-6l-73 -125h-36z" />
    <glyph glyph-name="rcommaaccent" unicode="&#x157;" horiz-adv-x="302" 
d="M313 541q19 0 30 -4l-9 -49q-68 5 -120.5 -38.5t-71.5 -148.5l-1 -4l-52 -297h-62l94 530h62l-17 -96l49 67q46 40 98 40zM28 -51h54v-6l-73 -125h-37z" />
    <glyph glyph-name="Rcaron" unicode="&#x158;" horiz-adv-x="593" 
d="M356 736l-50 94h50l28 -64l49 64h53l-83 -94h-47zM604 540q0 -82 -51 -135t-125 -66q42 -8 58.5 -50t17.5 -146t18 -143h-67q-11 54 -13 193q-2 113 -85 118q-19 1 -55 1h-142l-55 -312h-62l122 690h204q62 0 93 -4q67 -8 104.5 -45.5t37.5 -100.5zM383 366
q68 5 110.5 49t42.5 114q0 91 -98 105q-32 4 -78 4h-143l-48 -274h144q45 0 70 2z" />
    <glyph glyph-name="rcaron" unicode="&#x159;" horiz-adv-x="302" 
d="M188 580l-46 110h48l27 -75l55 75h48l-86 -110h-46zM313 541q19 0 30 -4l-9 -49q-68 5 -120.5 -38.5t-71.5 -148.5l-1 -4l-52 -297h-62l94 530h62l-17 -96l49 67q46 40 98 40z" />
    <glyph glyph-name="Sacute" unicode="&#x15a;" horiz-adv-x="557" 
d="M375 736h-42l70 94h60zM355 704q100 0 151 -55.5t46 -143.5h-65q3 70 -37 109.5t-109 39.5q-71 0 -119.5 -39t-48.5 -108q0 -48 34 -75t111 -47q97 -25 143 -69t46 -118q0 -95 -75 -153.5t-192 -58.5q-104 0 -166.5 53.5t-56.5 150.5h66q0 -73 45 -113.5t123 -40.5
q81 0 134 41t53 110q0 55 -36.5 86.5t-118.5 53.5q-89 24 -134 61.5t-45 100.5q0 97 71.5 156t179.5 59z" />
    <glyph glyph-name="sacute" unicode="&#x15b;" horiz-adv-x="453" 
d="M292 580h-42l81 110h60zM256 543q83 0 126.5 -43t45.5 -119h-64q-9 112 -113 112q-58 0 -89 -29t-31 -71q0 -39 27 -62t78 -38q81 -24 119.5 -59t38.5 -95q0 -71 -54.5 -114t-144.5 -43q-94 0 -143.5 46t-51.5 122h64q8 -119 138 -119q55 0 90 28.5t35 74.5q0 41 -28 65
t-94 43q-67 19 -104.5 51.5t-37.5 93.5q0 66 51.5 111t141.5 45z" />
    <glyph glyph-name="Scedilla" unicode="&#x15e;" horiz-adv-x="557" 
d="M552 505h-65q3 70 -37 109.5t-109 39.5q-71 0 -119.5 -39t-48.5 -108q0 -48 34 -75t111 -47q97 -25 143 -69t46 -118q0 -90 -67.5 -147.5t-175.5 -63.5l-22 -31q33 -5 51.5 -24.5t18.5 -48.5q0 -46 -35 -69.5t-92 -23.5q-31 0 -53 8l6 33q21 -7 51 -7q38 0 58 15t20 40
q0 55 -89 46l44 61q-97 5 -154 58t-51 146h66q0 -73 45 -113.5t123 -40.5q81 0 134 41t53 110q0 55 -36.5 86.5t-118.5 53.5q-89 24 -134 61.5t-45 100.5q0 97 71.5 156t179.5 59q100 0 151 -55.5t46 -143.5z" />
    <glyph glyph-name="scedilla" unicode="&#x15f;" horiz-adv-x="453" 
d="M236 293q81 -24 119.5 -59t38.5 -95q0 -71 -54.5 -114t-144.5 -43h-5l-19 -26q33 -5 51.5 -24.5t18.5 -48.5q0 -46 -35 -69.5t-92 -23.5q-31 0 -53 8l7 33q21 -7 51 -7q37 0 57.5 15t20.5 40t-23 37.5t-66 8.5l43 60q-73 11 -111 55t-40 110h64q8 -119 138 -119
q55 0 90 28.5t35 74.5q0 41 -28 65t-94 43q-67 19 -104.5 51.5t-37.5 93.5q0 66 51.5 111t141.5 45q83 0 126.5 -43t45.5 -119h-64q-9 112 -113 112q-58 0 -89 -29t-31 -71q0 -39 27 -62t78 -38z" />
    <glyph glyph-name="Scaron" unicode="&#x160;" horiz-adv-x="557" 
d="M336 736l-50 94h50l28 -64l49 64h53l-83 -94h-47zM552 505h-65q3 70 -37 109.5t-109 39.5q-71 0 -119.5 -39t-48.5 -108q0 -48 34 -75t111 -47q97 -25 143 -69t46 -118q0 -95 -75 -153.5t-192 -58.5q-104 0 -166.5 53.5t-56.5 150.5h66q0 -73 45 -113.5t123 -40.5
q81 0 134 41t53 110q0 55 -36.5 86.5t-118.5 53.5q-89 24 -134 61.5t-45 100.5q0 97 71.5 156t179.5 59q100 0 151 -55.5t46 -143.5z" />
    <glyph glyph-name="scaron" unicode="&#x161;" horiz-adv-x="453" 
d="M254 580l-46 110h48l27 -75l55 75h48l-86 -110h-46zM236 293q81 -24 119.5 -59t38.5 -95q0 -71 -54.5 -114t-144.5 -43q-94 0 -143.5 46t-51.5 122h64q8 -119 138 -119q55 0 90 28.5t35 74.5q0 41 -28 65t-94 43q-67 19 -104.5 51.5t-37.5 93.5q0 66 51.5 111t141.5 45
q83 0 126.5 -43t45.5 -119h-64q-9 112 -113 112q-58 0 -89 -29t-31 -71q0 -39 27 -62t78 -38z" />
    <glyph glyph-name="Tcedilla" unicode="&#x162;" horiz-adv-x="601" 
d="M291 0l-32 -44q33 -5 51.5 -24.5t18.5 -48.5q0 -46 -35 -69.5t-92 -23.5q-31 0 -53 8l6 33q21 -7 51 -7q38 0 58 15t20 40q0 55 -89 46l54 75h-9l113 639h-254l10 51h567l-9 -51h-252l-113 -639h-11z" />
    <glyph glyph-name="tcedilla" unicode="&#x163;" horiz-adv-x="281" 
d="M182 477l-59 -332q-8 -40 -8 -61q0 -29 21 -38t67 -1l-8 -47q-34 -6 -57 -6h-7l-26 -36q33 -5 51.5 -24.5t18.5 -48.5q0 -46 -35 -69.5t-92 -23.5q-31 0 -53 8l7 33q21 -7 51 -7q37 0 57.5 15t20.5 40t-23 37.5t-66 8.5l52 73q-43 14 -43 65q0 30 10 81l59 333h-68l9 48
h67l21 117h62l-21 -117h95l-8 -48h-95z" />
    <glyph glyph-name="Tcaron" unicode="&#x164;" horiz-adv-x="601" 
d="M379 736l-50 94h50l28 -64l49 64h53l-83 -94h-47zM667 639h-252l-113 -639h-62l113 639h-254l10 51h567z" />
    <glyph glyph-name="tcaron" unicode="&#x165;" horiz-adv-x="272" 
d="M347 718v-5l-72 -125h-37l56 130h53zM190 525h95l-8 -48h-95l-59 -332q-8 -40 -8 -61q0 -29 21 -38t67 -1l-8 -47q-34 -6 -57 -6q-87 0 -87 71q0 30 10 81l59 333h-68l9 48h67l21 117h62z" />
    <glyph glyph-name="Tbar" unicode="&#x166;" horiz-adv-x="614" 
d="M415 639l-50 -284h130l-8 -43h-130l-55 -312h-62l55 312h-118l8 43h118l50 284h-254l10 51h567l-9 -51h-252z" />
    <glyph glyph-name="tbar" unicode="&#x167;" horiz-adv-x="281" 
d="M182 477l-23 -128h76l-8 -40h-75l-29 -164q-8 -40 -8 -61q0 -29 21 -38t67 -1l-8 -47q-34 -6 -57 -6q-87 0 -87 71q0 30 10 81l29 165h-65l8 40h64l23 128h-68l9 48h67l21 117h62l-21 -117h95l-8 -48h-95z" />
    <glyph glyph-name="Umacron" unicode="&#x16a;" horiz-adv-x="652" 
d="M526 763h-202l8 40h202zM658 690l-78 -441q-7 -40 -13 -64q-49 -199 -276 -199q-102 0 -155.5 48t-53.5 133q0 41 9 86l77 437h62l-76 -433q-10 -57 -10 -88q0 -61 39 -97t117 -36q165 0 207 157q7 27 13 61l76 436h62z" />
    <glyph glyph-name="umacron" unicode="&#x16b;" horiz-adv-x="566" 
d="M439 610h-202l8 40h202zM540 529l-92 -529h-62l18 102l-40 -59q-66 -57 -158 -57q-77 0 -118 37t-41 102q0 39 13 108l53 296h62l-52 -289q-11 -62 -11 -99q0 -49 27.5 -77.5t86.5 -27.5q74 2 129.5 57.5t76.5 172.5l46 263h62z" />
    <glyph glyph-name="Uring" unicode="&#x16e;" horiz-adv-x="652" 
d="M441 863q33 0 52.5 -16.5t19.5 -43.5q0 -39 -27.5 -62t-64.5 -23q-33 0 -52 17t-19 44q0 38 27 61t64 23zM439 832q-21 0 -35 -13.5t-14 -36.5q0 -15 9 -24t24 -9q21 0 35 14t14 36q0 15 -9 24t-24 9zM658 690l-78 -441q-7 -40 -13 -64q-49 -199 -276 -199
q-102 0 -155.5 48t-53.5 133q0 41 9 86l77 437h62l-76 -433q-10 -57 -10 -88q0 -61 39 -97t117 -36q165 0 207 157q7 27 13 61l76 436h62z" />
    <glyph glyph-name="uring" unicode="&#x16f;" horiz-adv-x="566" 
d="M331 568q-31 0 -50 16.5t-19 44.5q0 38 28 64t68 26q30 0 49 -16.5t19 -44.5q0 -39 -28 -64.5t-67 -25.5zM352 689q-21 0 -35 -16t-14 -40q0 -35 33 -35q21 0 35 15.5t14 40.5q0 35 -33 35zM540 529l-92 -529h-62l18 102l-40 -59q-66 -57 -158 -57q-77 0 -118 37t-41 102
q0 39 13 108l53 296h62l-52 -289q-11 -62 -11 -99q0 -49 27.5 -77.5t86.5 -27.5q74 2 129.5 57.5t76.5 172.5l46 263h62z" />
    <glyph glyph-name="Uhungarumlaut" unicode="&#x170;" horiz-adv-x="652" 
d="M378 736h-42l69 94h61zM479 736h-42l69 94h61zM658 690l-78 -441q-7 -40 -13 -64q-49 -199 -276 -199q-102 0 -155.5 48t-53.5 133q0 41 9 86l77 437h62l-76 -433q-10 -57 -10 -88q0 -61 39 -97t117 -36q165 0 207 157q7 27 13 61l76 436h62z" />
    <glyph glyph-name="uhungarumlaut" unicode="&#x171;" horiz-adv-x="566" 
d="M295 580h-42l80 110h61zM367 580l80 110h61l-99 -110h-42zM540 529l-92 -529h-62l18 102l-40 -59q-66 -57 -158 -57q-77 0 -118 37t-41 102q0 39 13 108l53 296h62l-52 -289q-11 -62 -11 -99q0 -49 27.5 -77.5t86.5 -27.5q74 2 129.5 57.5t76.5 172.5l46 263h62z" />
    <glyph glyph-name="Uogonek" unicode="&#x172;" horiz-adv-x="652" 
d="M658 690l-78 -441q-7 -40 -13 -64q-38 -158 -193 -191q-51 -20 -81.5 -58.5t-30.5 -75.5q0 -42 37 -42q32 0 63 24l-7 -37q-36 -28 -86 -28q-30 0 -50 16.5t-20 50.5q0 84 97 142h-5q-102 0 -155.5 48t-53.5 133q0 41 9 86l77 437h62l-76 -433q-10 -57 -10 -88
q0 -61 39 -97t117 -36q165 0 207 157q7 27 13 61l76 436h62z" />
    <glyph glyph-name="uogonek" unicode="&#x173;" horiz-adv-x="566" 
d="M540 529l-92 -529h-13q-58 -18 -93.5 -58.5t-35.5 -81.5q0 -42 37 -42q32 0 63 24l-7 -37q-36 -28 -86 -28q-30 0 -50 16.5t-20 50.5q0 49 37 93.5t108 72.5l16 92l-40 -59q-66 -57 -158 -57q-77 0 -118 37t-41 102q0 39 13 108l53 296h62l-52 -289q-11 -62 -11 -99
q0 -49 27.5 -77.5t86.5 -27.5q74 2 129.5 57.5t76.5 172.5l46 263h62z" />
    <glyph glyph-name="Wcircumflex" unicode="&#x174;" horiz-adv-x="904" 
d="M512 736h-51l82 94h46l51 -94h-51l-28 65zM975 690l-312 -690h-80l-57 620l-287 -620h-81l-57 690h68l42 -624l280 614h88l57 -615l271 625h68z" />
    <glyph glyph-name="wcircumflex" unicode="&#x175;" horiz-adv-x="744" 
d="M384 580h-48l86 110h46l46 -110h-49l-26 75zM788 529l-262 -529h-74l-48 468l-212 -468h-76l-73 529h70l52 -467l209 466h80l48 -465l218 466h68z" />
    <glyph glyph-name="Ycircumflex" unicode="&#x176;" horiz-adv-x="568" 
d="M342 736h-51l82 94h46l51 -94h-51l-28 65zM327 269l-47 -269h-62l48 273l-170 417h65l145 -361l267 361h74z" />
    <glyph glyph-name="ycircumflex" unicode="&#x177;" horiz-adv-x="486" 
d="M253 580h-48l86 110h46l46 -110h-49l-26 75zM530 529l-297 -529q-70 -126 -117.5 -168t-112.5 -42q-20 0 -38 3l8 52q12 -3 31 -3q40 0 72 25.5t69 92.5l12 21l-114 548h70l88 -482l258 482h71z" />
    <glyph glyph-name="Ydieresis" unicode="&#x178;" horiz-adv-x="568" 
d="M324 747q-13 0 -22 8.5t-9 21.5q0 17 13.5 29.5t30.5 12.5q13 0 21.5 -8.5t8.5 -21.5q0 -16 -13.5 -29t-29.5 -13zM437 747q-13 0 -21.5 8.5t-8.5 21.5q0 17 13.5 29.5t29.5 12.5q14 0 22.5 -8.5t8.5 -21.5q0 -16 -13.5 -29t-30.5 -13zM327 269l-47 -269h-62l48 273
l-170 417h65l145 -361l267 361h74z" />
    <glyph glyph-name="Zacute" unicode="&#x179;" horiz-adv-x="571" 
d="M394 736h-42l70 94h60zM608 639l-523 -587h425l-9 -52h-506l9 48l525 590h-393l9 52h472z" />
    <glyph glyph-name="zacute" unicode="&#x17a;" horiz-adv-x="470" 
d="M307 580h-42l81 110h60zM469 474l-405 -424h336l-9 -50h-412l8 48l406 426h-307l8 51h384z" />
    <glyph glyph-name="Zdotaccent" unicode="&#x17b;" horiz-adv-x="571" 
d="M379 747q-14 0 -22.5 8.5t-8.5 21.5q0 17 13.5 29.5t30.5 12.5q13 0 21.5 -8.5t8.5 -21.5q0 -16 -13.5 -29t-29.5 -13zM608 639l-523 -587h425l-9 -52h-506l9 48l525 590h-393l9 52h472z" />
    <glyph glyph-name="zdotaccent" unicode="&#x17c;" horiz-adv-x="470" 
d="M296 601q-16 0 -26 10.5t-10 24.5q0 21 14.5 35t35.5 14q15 0 25 -10t10 -25q0 -21 -14.5 -35t-34.5 -14zM469 474l-405 -424h336l-9 -50h-412l8 48l406 426h-307l8 51h384z" />
    <glyph glyph-name="Zcaron" unicode="&#x17d;" horiz-adv-x="571" 
d="M355 736l-50 94h50l28 -64l49 64h53l-83 -94h-47zM608 639l-523 -587h425l-9 -52h-506l9 48l525 590h-393l9 52h472z" />
    <glyph glyph-name="zcaron" unicode="&#x17e;" horiz-adv-x="470" 
d="M269 580l-46 110h48l27 -75l55 75h48l-86 -110h-46zM469 474l-405 -424h336l-9 -50h-412l8 48l406 426h-307l8 51h384z" />
    <glyph glyph-name="Scommaaccent" unicode="&#x218;" horiz-adv-x="557" 
d="M355 704q100 0 151 -55.5t46 -143.5h-65q3 70 -37 109.5t-109 39.5q-71 0 -119.5 -39t-48.5 -108q0 -48 34 -75t111 -47q97 -25 143 -69t46 -118q0 -95 -75 -153.5t-192 -58.5q-104 0 -166.5 53.5t-56.5 150.5h66q0 -73 45 -113.5t123 -40.5q81 0 134 41t53 110
q0 55 -36.5 86.5t-118.5 53.5q-89 24 -134 61.5t-45 100.5q0 97 71.5 156t179.5 59zM276 -57l-73 -125h-36l55 131h54v-6z" />
    <glyph glyph-name="scommaaccent" unicode="&#x219;" horiz-adv-x="453" 
d="M256 543q83 0 126.5 -43t45.5 -119h-64q-9 112 -113 112q-58 0 -89 -29t-31 -71q0 -39 27 -62t78 -38q81 -24 119.5 -59t38.5 -95q0 -71 -54.5 -114t-144.5 -43q-94 0 -143.5 46t-51.5 122h64q8 -119 138 -119q55 0 90 28.5t35 74.5q0 41 -28 65t-94 43
q-67 19 -104.5 51.5t-37.5 93.5q0 66 51.5 111t141.5 45zM202 -57l-73 -125h-36l55 131h54v-6z" />
    <glyph glyph-name="uni021A" unicode="&#x21a;" horiz-adv-x="601" 
d="M667 639h-252l-113 -639h-62l113 639h-254l10 51h567zM239 -51h54v-6l-73 -125h-36z" />
    <glyph glyph-name="uni021B" unicode="&#x21b;" horiz-adv-x="281" 
d="M182 477l-59 -332q-8 -40 -8 -61q0 -29 21 -38t67 -1l-8 -47q-34 -6 -57 -6q-87 0 -87 71q0 30 10 81l59 333h-68l9 48h67l21 117h62l-21 -117h95l-8 -48h-95zM82 -51h54v-6l-73 -125h-36z" />
    <glyph glyph-name="circumflex" unicode="&#x2c6;" horiz-adv-x="300" 
d="M181 580l-26 75l-55 -75h-48l86 110h46l46 -110h-49z" />
    <glyph glyph-name="caron" unicode="&#x2c7;" horiz-adv-x="300" 
d="M250 690l-86 -110h-46l-46 110h48l27 -75l55 75h48z" />
    <glyph glyph-name="breve" unicode="&#x2d8;" horiz-adv-x="300" 
d="M219 690h40q-23 -122 -120 -122t-76 122h40q-5 -40 4 -60t40 -20q55 0 72 80z" />
    <glyph glyph-name="dotaccent" unicode="&#x2d9;" horiz-adv-x="300" 
d="M159 685q15 0 25 -10t10 -25q0 -21 -14.5 -35t-34.5 -14q-15 0 -25.5 10.5t-10.5 24.5q0 21 14.5 35t35.5 14z" />
    <glyph glyph-name="ring" unicode="&#x2da;" horiz-adv-x="300" 
d="M164 719q30 0 49 -16.5t19 -44.5q0 -39 -28 -64.5t-67 -25.5q-31 0 -50 16.5t-19 44.5q0 38 28 64t68 26zM158 689q-21 0 -35 -16t-14 -40q0 -35 33 -35q21 0 35 15.5t14 40.5q0 35 -33 35z" />
    <glyph glyph-name="ogonek" unicode="&#x2db;" horiz-adv-x="300" 
d="M171 12l42 -12q-58 -18 -93.5 -58.5t-35.5 -81.5q0 -42 37 -42q32 0 63 24l-7 -37q-36 -28 -86 -28q-30 0 -50 16.5t-20 50.5q0 50 38.5 95t111.5 73z" />
    <glyph glyph-name="tilde" unicode="&#x2dc;" horiz-adv-x="300" 
d="M101 671q23 0 59 -13q32 -11 43 -11q16 0 20 20h31q-8 -60 -55 -60q-23 0 -59 13q-32 11 -43 11q-16 0 -20 -20h-31q9 60 55 60z" />
    <glyph glyph-name="hungarumlaut" unicode="&#x2dd;" horiz-adv-x="300" 
d="M102 580h-42l80 110h61zM216 580h-42l80 110h61z" />
    <glyph glyph-name="uni0326" unicode="&#x326;" horiz-adv-x="0" 
d="M195 -57l-73 -125h-36l55 131h54v-6z" />
    <glyph glyph-name="Wgrave" unicode="&#x1e80;" horiz-adv-x="904" 
d="M531 736l-57 94h60l38 -94h-41zM975 690l-312 -690h-80l-57 620l-287 -620h-81l-57 690h68l42 -624l280 614h88l57 -615l271 625h68z" />
    <glyph glyph-name="wgrave" unicode="&#x1e81;" horiz-adv-x="744" 
d="M407 580l-60 110h60l42 -110h-42zM788 529l-262 -529h-74l-48 468l-212 -468h-76l-73 529h70l52 -467l209 466h80l48 -465l218 466h68z" />
    <glyph glyph-name="Wacute" unicode="&#x1e82;" horiz-adv-x="904" 
d="M566 736h-42l70 94h60zM975 690l-312 -690h-80l-57 620l-287 -620h-81l-57 690h68l42 -624l280 614h88l57 -615l271 625h68z" />
    <glyph glyph-name="wacute" unicode="&#x1e83;" horiz-adv-x="744" 
d="M440 580h-42l81 110h60zM788 529l-262 -529h-74l-48 468l-212 -468h-76l-73 529h70l52 -467l209 466h80l48 -465l218 466h68z" />
    <glyph glyph-name="Wdieresis" unicode="&#x1e84;" horiz-adv-x="904" 
d="M494 747q-13 0 -22 8.5t-9 21.5q0 17 13.5 29.5t30.5 12.5q13 0 21.5 -8.5t8.5 -21.5q0 -16 -13.5 -29t-29.5 -13zM607 747q-13 0 -21.5 8.5t-8.5 21.5q0 17 13.5 29.5t29.5 12.5q14 0 22.5 -8.5t8.5 -21.5q0 -16 -13.5 -29t-30.5 -13zM975 690l-312 -690h-80l-57 620
l-287 -620h-81l-57 690h68l42 -624l280 614h88l57 -615l271 625h68z" />
    <glyph glyph-name="wdieresis" unicode="&#x1e85;" horiz-adv-x="744" 
d="M366 594q-13 0 -21.5 9t-8.5 22q0 16 13.5 29t29.5 13q13 0 21.5 -8.5t8.5 -22.5q0 -16 -13.5 -29t-29.5 -13zM487 594q-13 0 -21.5 9t-8.5 22q0 16 13.5 29t29.5 13q14 0 22.5 -8.5t8.5 -22.5q0 -16 -13.5 -29t-30.5 -13zM788 529l-262 -529h-74l-48 468l-212 -468h-76
l-73 529h70l52 -467l209 466h80l48 -465l218 466h68z" />
    <glyph glyph-name="Ygrave" unicode="&#x1ef2;" horiz-adv-x="568" 
d="M361 736l-57 94h60l38 -94h-41zM327 269l-47 -269h-62l48 273l-170 417h65l145 -361l267 361h74z" />
    <glyph glyph-name="ygrave" unicode="&#x1ef3;" horiz-adv-x="486" 
d="M276 580l-60 110h60l42 -110h-42zM530 529l-297 -529q-70 -126 -117.5 -168t-112.5 -42q-20 0 -38 3l8 52q12 -3 31 -3q40 0 72 25.5t69 92.5l12 21l-114 548h70l88 -482l258 482h71z" />
    <glyph glyph-name="endash" unicode="&#x2013;" horiz-adv-x="500" 
d="M426 270h-360l8 43h360z" />
    <glyph glyph-name="emdash" unicode="&#x2014;" horiz-adv-x="1000" 
d="M926 270h-860l8 43h860z" />
    <glyph glyph-name="quoteleft" unicode="&#x2018;" horiz-adv-x="206" 
d="M96 487l114 220h58l-107 -229h-67z" />
    <glyph glyph-name="quoteright" unicode="&#x2019;" horiz-adv-x="206" 
d="M220 698l-114 -220h-58l107 229h67z" />
    <glyph glyph-name="quotesinglbase" unicode="&#x201a;" horiz-adv-x="193" 
d="M77 62l-109 -181h-58l100 191h68z" />
    <glyph glyph-name="quotedblleft" unicode="&#x201c;" horiz-adv-x="346" 
d="M96 488l114 219h58l-107 -229h-66zM236 488l114 219h58l-107 -229h-66z" />
    <glyph glyph-name="quotedblright" unicode="&#x201d;" horiz-adv-x="346" 
d="M220 698l-114 -220h-58l107 229h67zM360 698l-114 -220h-58l107 229h67z" />
    <glyph glyph-name="quotedblbase" unicode="&#x201e;" horiz-adv-x="333" 
d="M77 62l-109 -181h-58l100 191h68zM217 62l-108 -181h-59l100 191h68z" />
    <glyph glyph-name="dagger" unicode="&#x2020;" horiz-adv-x="575" 
d="M507 385l-181 5l-89 -550h-73l104 550l-184 -5l11 57l182 -5l36 253h74l-53 -253l184 5z" />
    <glyph glyph-name="daggerdbl" unicode="&#x2021;" horiz-adv-x="556" 
d="M326 390l-45 -251l184 5l-10 -57l-182 5l-36 -252h-73l52 252l-184 -5l10 57l182 -5l45 251l-185 -5l11 57l182 -5l36 253h74l-53 -253l184 5l-11 -57z" />
    <glyph glyph-name="bullet" unicode="&#x2022;" horiz-adv-x="293" 
d="M161 387q31 0 50 -19t19 -48q0 -39 -29.5 -68t-68.5 -29q-31 0 -50 18.5t-19 48.5q0 40 29.5 68.5t68.5 28.5z" />
    <glyph glyph-name="ellipsis" unicode="&#x2026;" horiz-adv-x="518" 
d="M47 81q18 0 28.5 -11t10.5 -28q0 -24 -16 -40t-39 -16q-18 0 -29 11.5t-11 28.5q0 24 16.5 39.5t39.5 15.5zM209 81q18 0 29 -11t11 -28q0 -24 -16 -40t-39 -16q-18 0 -29 11t-11 29q0 24 16 39.5t39 15.5zM372 81q18 0 28.5 -11t10.5 -28q0 -24 -16 -40t-39 -16
q-18 0 -29 11.5t-11 28.5q0 24 16.5 39.5t39.5 15.5z" />
    <glyph glyph-name="perthousand" unicode="&#x2030;" horiz-adv-x="1048" 
d="M218 386q-56 0 -89 36t-33 94q0 73 44 130.5t122 57.5q56 0 89 -36t33 -94q0 -74 -43.5 -131t-122.5 -57zM693 690l-567 -690h-68l567 690h68zM256 659q-45 0 -71.5 -43t-26.5 -103q0 -38 17 -60t49 -22q45 0 71.5 43t26.5 104q0 37 -16.5 59t-49.5 22zM535 304
q56 0 89 -36t33 -94q0 -73 -44 -130.5t-122 -57.5q-56 0 -89 36t-33 94q0 74 43.5 131t122.5 57zM858 304q56 0 89 -36t33 -94q0 -73 -44 -130.5t-122 -57.5q-56 0 -89 36t-33 94q0 74 43.5 131t122.5 57zM496 31q46 0 72.5 43t26.5 104q0 37 -17 59t-49 22q-45 0 -72 -43
t-27 -103q0 -38 17 -60t49 -22zM819 31q46 0 72.5 43t26.5 104q0 37 -17 59t-49 22q-45 0 -71.5 -43t-26.5 -103q0 -38 16.5 -60t48.5 -22z" />
    <glyph glyph-name="guilsinglleft" unicode="&#x2039;" horiz-adv-x="362" 
d="M166 243l104 -161h-54l-108 166l166 166h63z" />
    <glyph glyph-name="guilsinglright" unicode="&#x203a;" horiz-adv-x="362" 
d="M248 248l-166 -166h-63l171 172l-104 160h54z" />
    <glyph glyph-name="fraction" unicode="&#x2044;" horiz-adv-x="261" 
d="M-105 0h-68l567 690h68z" />
    <glyph glyph-name="Euro" unicode="&#x20ac;" 
d="M407 704q106 0 156 -62l-37 -39q-44 51 -126 51q-95 0 -153.5 -65.5t-83.5 -168.5h314l-19 -42h-304q-7 -38 -8 -68h290l-16 -42h-276v-6q0 -121 44.5 -173.5t132.5 -52.5q77 0 151 41l-10 -54q-71 -37 -155 -37q-110 0 -170.5 62t-60.5 209v11h-81l18 42h65q3 34 9 68
h-52l18 42h43q14 58 38 106t61 89.5t91 65t121 23.5z" />
    <glyph glyph-name="trademark" unicode="&#x2122;" horiz-adv-x="531" 
d="M151 627l-30 -171h-40l30 171h-77l6 33h195l-6 -33h-78zM482 659l-36 -203h-39l30 158l-81 -155h-41l-26 154l-27 -157h-38l36 203h58l24 -166l83 166h57z" />
    <glyph glyph-name="partialdiff" unicode="&#x2202;" 
d="M326 758q194 0 194 -262q0 -96 -16 -182.5t-49 -162t-92 -120.5t-137 -45q-84 0 -134 50t-50 138q0 59 15.5 112t46 97t80.5 70t113 26q116 0 150 -86q6 44 6 102q0 104 -32.5 159t-107.5 55q-81 0 -153 -53l-23 39q87 63 189 63zM233 35q77 0 130.5 80t74.5 211
q-24 104 -147 104q-86 0 -133.5 -74t-47.5 -180q0 -68 33 -104.5t90 -36.5z" />
    <glyph glyph-name="emptyset" unicode="&#x2205;" horiz-adv-x="838" 
d="M784 689l-81 -81q92 -108 92 -253q0 -160 -109.5 -271t-266.5 -111q-145 0 -253 98l-81 -81l-31 31l82 82q-93 107 -93 252q0 160 109.5 271t266.5 111q145 0 253 -98l81 81zM91 355q0 -125 77 -220l471 471q-93 87 -220 87q-137 0 -232.5 -98.5t-95.5 -239.5zM419 17
q137 0 232.5 98t95.5 240q0 126 -77 219l-471 -470q93 -87 220 -87z" />
    <glyph glyph-name="product" unicode="&#x220f;" 
d="M582 638h-58l-133 -748h-62l133 748h-248l-133 -748h-62l133 748h-60l10 52h490z" />
    <glyph glyph-name="summation" unicode="&#x2211;" 
d="M561 638h-373l190 -338l-344 -358h410l-10 -52h-481l9 50l344 361l-190 339l9 50h445z" />
    <glyph glyph-name="minus" unicode="&#x2212;" horiz-adv-x="562" 
d="M480 297h-412l7 43h413z" />
    <glyph glyph-name="radical" unicode="&#x221a;" 
d="M603 780l-381 -940h-58l-53 427h-67l8 43h101l49 -416l354 886h47z" />
    <glyph glyph-name="infinity" unicode="&#x221e;" horiz-adv-x="994" 
d="M765 544q97 0 149.5 -63.5t52.5 -168.5q0 -42 -10 -85.5t-33 -87t-55.5 -77.5t-81.5 -55t-107 -21q-79 0 -131 45.5t-69 135.5q-50 -93 -110.5 -137t-141.5 -44q-97 0 -149 63.5t-52 167.5q0 42 10 86t33 87.5t55.5 77.5t81.5 55t107 21q79 0 130.5 -45t68.5 -134
q50 91 110.5 135t141.5 44zM459 265q1 230 -153 230q-65 0 -115 -46t-73 -107.5t-23 -122.5q0 -88 38.5 -136t103.5 -48t127 57t95 173zM688 35q65 0 115 46t73 107.5t23 121.5q0 88 -38.5 136.5t-103.5 48.5t-127.5 -57t-94.5 -173q-3 -230 153 -230z" />
    <glyph glyph-name="integral" unicode="&#x222b;" 
d="M399 754q40 0 67 -24l-22 -39q-20 20 -50 20q-49 0 -75 -49t-26 -139q0 -87 12 -220q14 -132 14 -226q0 -237 -155 -237q-40 0 -65 24l21 39q20 -20 51 -20q49 0 74.5 49t25.5 141q0 74 -12 219q-13 130 -13 228q0 114 39.5 174t113.5 60z" />
    <glyph glyph-name="approxequal" unicode="&#x2248;" horiz-adv-x="549" 
d="M197 439q26 0 46.5 -8t60.5 -31q58 -35 90 -35q27 0 47.5 12.5t43.5 41.5l29 -25q-60 -75 -132 -75q-26 0 -46 8.5t-61 31.5q-59 34 -90 34q-47 0 -91 -54l-28 28q58 72 131 72zM167 272q26 0 46.5 -8.5t61.5 -31.5q59 -34 90 -34q27 0 47 12.5t44 41.5l28 -25
q-59 -75 -131 -75q-27 0 -48 8.5t-59 30.5q-58 35 -90 35q-27 0 -47.5 -12.5t-43.5 -41.5l-29 27q57 73 131 73z" />
    <glyph glyph-name="notequal" unicode="&#x2260;" 
d="M353 391l-115 -150h236l-7 -43h-261l-74 -97h-50l74 97h-109l7 43h134l115 150h-222l8 43h246l74 97h50l-74 -97h124l-8 -43h-148z" />
    <glyph glyph-name="lessequal" unicode="&#x2264;" 
d="M510 440l-389 -146l338 -144l-9 -52l-382 173l9 50l443 172zM28 43h412l-7 -43h-413z" />
    <glyph glyph-name="greaterequal" unicode="&#x2265;" 
d="M489 321l-9 -50l-443 -173l10 54l389 146l-338 144l9 51zM28 43h412l-7 -43h-413z" />
    <glyph glyph-name="lozenge" unicode="&#x25ca;" horiz-adv-x="511" 
d="M447 345l-228 -345h-49l-106 345l228 345h49zM397 345l-89 299l-194 -299l88 -300z" />
    <glyph glyph-name="a.alt" horiz-adv-x="587" 
d="M560 529l-92 -529h-62l17 97l-45 -57q-61 -54 -159 -54q-92 0 -142.5 60t-50.5 155q0 86 32.5 162t103 128t166.5 52q91 0 133 -57l21 -54l16 97h62zM458 292l1 4q14 85 -21 141t-118 56q-103 0 -165 -87t-62 -202q0 -76 37 -122.5t106 -46.5q50 0 91.5 20t75.5 70.5
t48 126.5z" />
    <glyph glyph-name="braceleft.001" horiz-adv-x="297" 
d="M361 780l-8 -43h-14q-64 0 -85 -33.5t-21 -128.5q0 -47 -4 -81.5t-15.5 -67t-35 -52t-58.5 -25.5q69 -9 69 -78q0 -47 -35 -144q-31 -85 -31 -116q0 -48 79 -48h14l-7 -43h-14q-118 0 -118 88q0 32 35 129q31 81 31 129q0 55 -68 62l8 44q62 6 83.5 48t21.5 145
q-1 121 31.5 168t127.5 47h14z" />
    </font>
</defs>
</svg>
